G04 DipTrace 3.2.0.1*
G04 BottomMask.gbs*
%MOIN*%
G04 #@! TF.FileFunction,Soldermask,Bot*
G04 #@! TF.Part,Single*
%ADD17R,0.062992X0.062992*%
%ADD20C,0.062992*%
%ADD28C,0.049213*%
%ADD38C,0.066929*%
%ADD40R,0.066929X0.066929*%
%ADD42C,0.082677*%
%ADD43R,0.082677X0.082677*%
%ADD46C,0.137795*%
%ADD48C,0.070866*%
%ADD49C,0.057874*%
%ADD51C,0.057874*%
%ADD53R,0.070866X0.070866*%
%ADD54C,0.070866*%
%FSLAX26Y26*%
G04*
G70*
G90*
G75*
G01*
G04 BotMask*
%LPD*%
D54*
X1243701Y1293701D3*
D53*
Y1393701D3*
D54*
X2243701Y1693701D3*
D53*
X2343701D3*
D51*
X1743701D3*
D49*
X2043701D3*
D53*
X1643701Y1393701D3*
D54*
Y1293701D3*
D53*
X983858Y1619291D3*
D48*
Y1520866D3*
Y1442126D3*
Y1343701D3*
D46*
X877165Y1740157D3*
Y1222835D3*
D17*
X543701Y1093701D3*
D20*
Y1014961D3*
Y936220D3*
Y857480D3*
Y778740D3*
Y700000D3*
Y621260D3*
D28*
X493701Y1843701D3*
Y493701D3*
X2393701D3*
Y1843701D3*
D43*
X1343701Y1643701D3*
D42*
X1443701D3*
X1543701D3*
D40*
X1943701Y1493701D3*
D38*
Y1393701D3*
Y1293701D3*
Y1193701D3*
Y1093699D3*
Y993699D3*
Y893701D3*
Y793699D3*
Y693699D3*
Y593701D3*
X2243701Y1493699D3*
Y1393699D3*
Y1293699D3*
Y1193701D3*
Y1093699D3*
Y993699D3*
Y893701D3*
Y793699D3*
Y693699D3*
Y593701D3*
M02*
