G04 DipTrace 3.2.0.1*
G04 Bottom.gbl*
%MOIN*%
G04 #@! TF.FileFunction,Copper,L2,Bot*
G04 #@! TF.Part,Single*
G04 #@! TA.AperFunction,Conductor*
%ADD14C,0.012992*%
G04 #@! TA.AperFunction,CopperBalancing*
%ADD15C,0.025*%
G04 #@! TA.AperFunction,ComponentPad*
%ADD16C,0.062992*%
%ADD17R,0.062992X0.062992*%
%ADD18C,0.05*%
%ADD19C,0.05*%
%ADD20C,0.062992*%
%ADD21C,0.129921*%
%ADD22R,0.055118X0.055118*%
%ADD23C,0.055118*%
%ADD24R,0.074803X0.074803*%
%ADD25C,0.074803*%
%ADD26R,0.059055X0.059055*%
%ADD27C,0.059055*%
%FSLAX26Y26*%
G04*
G70*
G90*
G75*
G01*
G04 Bottom*
%LPD*%
X2243701Y1693701D2*
D14*
X2143701Y1593701D1*
X1843701D1*
X1793701Y1543701D1*
Y1343701D1*
X1743701Y1293701D1*
X1643701D1*
X2243701Y693699D2*
X2193699D1*
X1993701Y493701D1*
X1893701D1*
X1793701Y593701D1*
X571260D1*
X543701Y621260D1*
X553517Y1866962D2*
D15*
X2333899D1*
X558038Y1842093D2*
X2329377D1*
X552081Y1817224D2*
X2335298D1*
X448089Y1792356D2*
X456747D1*
X530659D2*
X2356720D1*
X2430690D2*
X2439325D1*
X448089Y1767487D2*
X2439325D1*
X448089Y1742618D2*
X1725123D1*
X1762276D2*
X2025115D1*
X2062268D2*
X2283230D1*
X2404172D2*
X2439325D1*
X448089Y1717749D2*
X1695663D1*
X1791736D2*
X1995654D1*
X2091728D2*
X2283230D1*
X2404172D2*
X2439325D1*
X448089Y1692881D2*
X1277324D1*
X1410108D2*
X1500416D1*
X1586982D2*
X1689706D1*
X1797693D2*
X1989734D1*
X2097685D2*
X2283230D1*
X2404172D2*
X2439325D1*
X448089Y1668012D2*
X923362D1*
X1044340D2*
X1277324D1*
X1410108D2*
X1482115D1*
X1605282D2*
X1696559D1*
X1790839D2*
X1996587D1*
X2090831D2*
X2283230D1*
X2404172D2*
X2439325D1*
X448089Y1643143D2*
X923362D1*
X1044340D2*
X1277324D1*
X1410108D2*
X1477307D1*
X1610091D2*
X1731438D1*
X1755959D2*
X2031430D1*
X2055951D2*
X2283230D1*
X2404172D2*
X2439325D1*
X448089Y1618274D2*
X923362D1*
X1044340D2*
X1277324D1*
X1410108D2*
X1482581D1*
X1604815D2*
X2439325D1*
X448089Y1593406D2*
X923362D1*
X1044340D2*
X1277324D1*
X1410108D2*
X1501780D1*
X1585618D2*
X2439325D1*
X448089Y1568537D2*
X923362D1*
X1044340D2*
X2439325D1*
X448089Y1543668D2*
X1885167D1*
X2002232D2*
X2439325D1*
X448089Y1518799D2*
X1885167D1*
X2002232D2*
X2439325D1*
X448089Y1493930D2*
X1885167D1*
X2002232D2*
X2439325D1*
X448089Y1469062D2*
X1885167D1*
X2002232D2*
X2439325D1*
X448089Y1444193D2*
X1183201D1*
X1304178D2*
X1583201D1*
X1704178D2*
X1885167D1*
X2002232D2*
X2216951D1*
X2270467D2*
X2439325D1*
X448089Y1419324D2*
X1183201D1*
X1304178D2*
X1583201D1*
X1704178D2*
X1891374D1*
X1996025D2*
X2191403D1*
X2296017D2*
X2439325D1*
X448089Y1394455D2*
X1183201D1*
X1304178D2*
X1583201D1*
X1704178D2*
X1885202D1*
X2002232D2*
X2185194D1*
X2302224D2*
X2439325D1*
X448089Y1369587D2*
X1183201D1*
X1304178D2*
X1583201D1*
X1704178D2*
X1890621D1*
X1996778D2*
X2190648D1*
X2296770D2*
X2439325D1*
X448089Y1344718D2*
X1183201D1*
X1304178D2*
X1583201D1*
X1704178D2*
X1914017D1*
X1973382D2*
X2214009D1*
X2273374D2*
X2439325D1*
X448089Y1319849D2*
X1891661D1*
X1995738D2*
X2191654D1*
X2295730D2*
X2439325D1*
X448089Y1294980D2*
X1885202D1*
X2002197D2*
X2185194D1*
X2302189D2*
X2439325D1*
X448089Y1270112D2*
X1890406D1*
X1996993D2*
X2190398D1*
X2297021D2*
X2439325D1*
X448089Y1245243D2*
X1913084D1*
X1974315D2*
X2213076D1*
X2274307D2*
X2439325D1*
X448089Y1220374D2*
X1891949D1*
X1995451D2*
X2191941D1*
X2295479D2*
X2439325D1*
X448089Y1195505D2*
X1885202D1*
X2002197D2*
X2185194D1*
X2302189D2*
X2439325D1*
X448089Y1170636D2*
X1890155D1*
X1997245D2*
X2190146D1*
X2297236D2*
X2439325D1*
X448089Y1145768D2*
X487155D1*
X600238D2*
X1912223D1*
X1975213D2*
X2212215D1*
X2275203D2*
X2439325D1*
X448089Y1120899D2*
X487155D1*
X600238D2*
X1892236D1*
X1995164D2*
X2192227D1*
X2295192D2*
X2439325D1*
X448089Y1096030D2*
X487155D1*
X600238D2*
X1885239D1*
X2002161D2*
X2185230D1*
X2302189D2*
X2439325D1*
X448089Y1071161D2*
X487155D1*
X600238D2*
X1889903D1*
X1997496D2*
X2189930D1*
X2297488D2*
X2439325D1*
X448089Y1046293D2*
X487155D1*
X600238D2*
X1911362D1*
X1976038D2*
X2211354D1*
X2276029D2*
X2439325D1*
X448089Y1021424D2*
X487550D1*
X599879D2*
X1892522D1*
X1994877D2*
X2192514D1*
X2294869D2*
X2439325D1*
X448089Y996555D2*
X490385D1*
X597008D2*
X1885239D1*
X2002161D2*
X2185266D1*
X2302154D2*
X2439325D1*
X448089Y971686D2*
X500396D1*
X586996D2*
X1889688D1*
X1997711D2*
X2189680D1*
X2297703D2*
X2439325D1*
X448089Y946818D2*
X488196D1*
X599197D2*
X1910537D1*
X1976862D2*
X2210529D1*
X2276854D2*
X2439325D1*
X448089Y921949D2*
X489056D1*
X598336D2*
X1892810D1*
X1994589D2*
X2192837D1*
X2294581D2*
X2439325D1*
X448089Y897080D2*
X503912D1*
X583480D2*
X1885274D1*
X2002125D2*
X2185266D1*
X2302117D2*
X2439325D1*
X448089Y872211D2*
X489199D1*
X598193D2*
X1889472D1*
X1997927D2*
X2189465D1*
X2297919D2*
X2439325D1*
X448089Y847343D2*
X488123D1*
X599304D2*
X1909747D1*
X1977652D2*
X2209739D1*
X2277644D2*
X2439325D1*
X448089Y822474D2*
X500001D1*
X587391D2*
X1893133D1*
X1994266D2*
X2193125D1*
X2294259D2*
X2439325D1*
X448089Y797605D2*
X490563D1*
X596865D2*
X1885310D1*
X2002089D2*
X2185302D1*
X2302081D2*
X2439325D1*
X448089Y772736D2*
X487478D1*
X599915D2*
X1889257D1*
X1998142D2*
X2189249D1*
X2298134D2*
X2439325D1*
X448089Y747867D2*
X496844D1*
X590585D2*
X1908993D1*
X1978406D2*
X2208986D1*
X2278398D2*
X2439325D1*
X448089Y722999D2*
X492286D1*
X595106D2*
X1893455D1*
X1993944D2*
X2176043D1*
X2293936D2*
X2439325D1*
X448089Y698130D2*
X487190D1*
X600202D2*
X1885346D1*
X2002054D2*
X2148987D1*
X2302046D2*
X2439325D1*
X448089Y673261D2*
X494224D1*
X593168D2*
X1889042D1*
X1998357D2*
X2124119D1*
X2298349D2*
X2439325D1*
X448089Y648392D2*
X494440D1*
X592953D2*
X1908240D1*
X1979159D2*
X2099252D1*
X2197551D2*
X2208268D1*
X2279151D2*
X2439325D1*
X448089Y623524D2*
X487190D1*
X1810289D2*
X1893778D1*
X1993621D2*
X2074385D1*
X2172682D2*
X2193770D1*
X2293613D2*
X2439325D1*
X448089Y598655D2*
X492106D1*
X1837883D2*
X1885417D1*
X2002017D2*
X2049516D1*
X2147815D2*
X2185409D1*
X2302009D2*
X2439325D1*
X448089Y573786D2*
X515360D1*
X1862751D2*
X1888827D1*
X1998572D2*
X2024648D1*
X2122948D2*
X2188854D1*
X2298564D2*
X2439325D1*
X448089Y548917D2*
X463364D1*
X524055D2*
X1789320D1*
X1887619D2*
X1907558D1*
X1979841D2*
X1999781D1*
X2098080D2*
X2207550D1*
X2279869D2*
X2363360D1*
X2424051D2*
X2439325D1*
X550072Y524049D2*
X1814188D1*
X2073211D2*
X2337307D1*
X557787Y499180D2*
X1839055D1*
X2048344D2*
X2329592D1*
X554916Y474311D2*
X1863923D1*
X2023476D2*
X2332463D1*
X539415Y449442D2*
X2348001D1*
X1194899Y1451689D2*
X1301689D1*
Y1335713D1*
X1185713D1*
Y1451689D1*
X1194899D1*
X2294899Y1751689D2*
X2401689D1*
Y1635713D1*
X2285713D1*
Y1751689D1*
X2294899D1*
X1795034Y1689661D2*
X1793770Y1681680D1*
X1791273Y1673996D1*
X1787605Y1666797D1*
X1782856Y1660260D1*
X1777142Y1654546D1*
X1770605Y1649797D1*
X1763406Y1646129D1*
X1755722Y1643631D1*
X1747740Y1642367D1*
X1739661D1*
X1731680Y1643631D1*
X1723996Y1646129D1*
X1716797Y1649797D1*
X1710260Y1654546D1*
X1704546Y1660260D1*
X1699797Y1666797D1*
X1696129Y1673996D1*
X1693631Y1681680D1*
X1692367Y1689661D1*
Y1697740D1*
X1693631Y1705722D1*
X1696129Y1713406D1*
X1699797Y1720605D1*
X1704546Y1727142D1*
X1710260Y1732856D1*
X1716797Y1737605D1*
X1723996Y1741273D1*
X1731680Y1743770D1*
X1739661Y1745034D1*
X1747740D1*
X1755722Y1743770D1*
X1763406Y1741273D1*
X1770605Y1737605D1*
X1777142Y1732856D1*
X1782856Y1727142D1*
X1787605Y1720605D1*
X1791273Y1713406D1*
X1793770Y1705722D1*
X1795034Y1697740D1*
Y1689661D1*
X2095034D2*
X2093770Y1681680D1*
X2091273Y1673996D1*
X2087605Y1666797D1*
X2082856Y1660260D1*
X2077142Y1654546D1*
X2070605Y1649797D1*
X2063406Y1646129D1*
X2055722Y1643631D1*
X2047740Y1642367D1*
X2039661D1*
X2031680Y1643631D1*
X2023996Y1646129D1*
X2016797Y1649797D1*
X2010260Y1654546D1*
X2004546Y1660260D1*
X1999797Y1666797D1*
X1996129Y1673996D1*
X1993631Y1681680D1*
X1992367Y1689661D1*
Y1697740D1*
X1993631Y1705722D1*
X1996129Y1713406D1*
X1999797Y1720605D1*
X2004546Y1727142D1*
X2010260Y1732856D1*
X2016797Y1737605D1*
X2023996Y1741273D1*
X2031680Y1743770D1*
X2039661Y1745034D1*
X2047740D1*
X2055722Y1743770D1*
X2063406Y1741273D1*
X2070605Y1737605D1*
X2077142Y1732856D1*
X2082856Y1727142D1*
X2087605Y1720605D1*
X2091273Y1713406D1*
X2093770Y1705722D1*
X2095034Y1697740D1*
Y1689661D1*
X1594899Y1451689D2*
X1701689D1*
Y1335713D1*
X1585713D1*
Y1451689D1*
X1594899D1*
X935056Y1677280D2*
X1041846D1*
Y1561303D1*
X925870D1*
Y1677280D1*
X935056D1*
X498836Y1147752D2*
X597752D1*
Y1039650D1*
X591861Y1039500D1*
X595106Y1031663D1*
X597087Y1023416D1*
X597752Y1014961D1*
X597087Y1006505D1*
X595106Y998259D1*
X591861Y990421D1*
X587429Y983190D1*
X581921Y976740D1*
X580715Y975626D1*
X584802Y971324D1*
X589787Y964462D1*
X593638Y956906D1*
X596259Y948839D1*
X597585Y940461D1*
Y931980D1*
X596259Y923602D1*
X593638Y915535D1*
X589787Y907979D1*
X584802Y901117D1*
X580715Y896886D1*
X584802Y892584D1*
X589787Y885722D1*
X593638Y878165D1*
X596259Y870098D1*
X597585Y861720D1*
Y853240D1*
X596259Y844862D1*
X593638Y836795D1*
X589787Y829239D1*
X584802Y822377D1*
X580715Y818146D1*
X584802Y813844D1*
X589787Y806982D1*
X593638Y799425D1*
X596259Y791358D1*
X597585Y782980D1*
Y774500D1*
X596259Y766122D1*
X593638Y758055D1*
X589787Y750499D1*
X584802Y743636D1*
X580715Y739406D1*
X584802Y735104D1*
X589787Y728241D1*
X593638Y720685D1*
X596259Y712618D1*
X597585Y704240D1*
Y695760D1*
X596259Y687382D1*
X593638Y679315D1*
X589787Y671759D1*
X584802Y664896D1*
X580715Y660665D1*
X584802Y656364D1*
X589787Y649501D1*
X593638Y641945D1*
X596259Y633878D1*
X597444Y626702D1*
X1796289Y626588D1*
X1801402Y625778D1*
X1806325Y624178D1*
X1810937Y621828D1*
X1815125Y618785D1*
X1862497Y571556D1*
X1907383Y526671D1*
X1980003Y526689D1*
X2172276Y718783D1*
X2176463Y721827D1*
X2181075Y724177D1*
X2185999Y725777D1*
X2191112Y726587D1*
X2193710Y726688D1*
X2201104Y730081D1*
X2207319Y736297D1*
X2214430Y741465D1*
X2218269Y743786D1*
X2210773Y748378D1*
X2204089Y754088D1*
X2198379Y760772D1*
X2193787Y768268D1*
X2190423Y776388D1*
X2188371Y784936D1*
X2187681Y793699D1*
X2188371Y802463D1*
X2190423Y811010D1*
X2193787Y819131D1*
X2198379Y826627D1*
X2204089Y833311D1*
X2210773Y839021D1*
X2218440Y843693D1*
X2210773Y848379D1*
X2204089Y854089D1*
X2198379Y860773D1*
X2193787Y868269D1*
X2190423Y876390D1*
X2188371Y884937D1*
X2187681Y893701D1*
X2188371Y902465D1*
X2190423Y911012D1*
X2193787Y919133D1*
X2198379Y926629D1*
X2204089Y933312D1*
X2210773Y939022D1*
X2218440Y943694D1*
X2210773Y948378D1*
X2204089Y954088D1*
X2198379Y960772D1*
X2193787Y968268D1*
X2190423Y976388D1*
X2188371Y984936D1*
X2187681Y993699D1*
X2188371Y1002463D1*
X2190423Y1011010D1*
X2193787Y1019131D1*
X2198379Y1026627D1*
X2204089Y1033311D1*
X2210773Y1039021D1*
X2218440Y1043693D1*
X2210773Y1048378D1*
X2204089Y1054088D1*
X2198379Y1060772D1*
X2193787Y1068268D1*
X2190423Y1076388D1*
X2188371Y1084936D1*
X2187681Y1093699D1*
X2188371Y1102463D1*
X2190423Y1111010D1*
X2193787Y1119131D1*
X2198379Y1126627D1*
X2204089Y1133311D1*
X2210773Y1139021D1*
X2218440Y1143693D1*
X2210773Y1148379D1*
X2204089Y1154089D1*
X2198379Y1160773D1*
X2193787Y1168269D1*
X2190423Y1176390D1*
X2188371Y1184937D1*
X2187681Y1193701D1*
X2188371Y1202465D1*
X2190423Y1211012D1*
X2193787Y1219133D1*
X2198379Y1226629D1*
X2204089Y1233312D1*
X2210773Y1239022D1*
X2218440Y1243694D1*
X2210773Y1248378D1*
X2204089Y1254088D1*
X2198379Y1260772D1*
X2193787Y1268268D1*
X2190423Y1276388D1*
X2188371Y1284936D1*
X2187681Y1293699D1*
X2188371Y1302463D1*
X2190423Y1311010D1*
X2193787Y1319131D1*
X2198379Y1326627D1*
X2204089Y1333311D1*
X2210773Y1339021D1*
X2218440Y1343693D1*
X2210773Y1348378D1*
X2204089Y1354088D1*
X2198379Y1360772D1*
X2193787Y1368268D1*
X2190423Y1376388D1*
X2188371Y1384936D1*
X2187681Y1393699D1*
X2188371Y1402463D1*
X2190423Y1411010D1*
X2193787Y1419131D1*
X2198379Y1426627D1*
X2204089Y1433311D1*
X2210773Y1439021D1*
X2218269Y1443613D1*
X2226390Y1446978D1*
X2234937Y1449029D1*
X2243701Y1449719D1*
X2252465Y1449029D1*
X2261012Y1446978D1*
X2269133Y1443613D1*
X2276629Y1439021D1*
X2283312Y1433311D1*
X2289022Y1426627D1*
X2293614Y1419131D1*
X2296979Y1411010D1*
X2299030Y1402463D1*
X2299720Y1393699D1*
X2299030Y1384936D1*
X2296979Y1376388D1*
X2293614Y1368268D1*
X2289022Y1360772D1*
X2283312Y1354088D1*
X2276629Y1348378D1*
X2268962Y1343706D1*
X2276629Y1339021D1*
X2283312Y1333311D1*
X2289022Y1326627D1*
X2293614Y1319131D1*
X2296979Y1311010D1*
X2299030Y1302463D1*
X2299720Y1293699D1*
X2299030Y1284936D1*
X2296979Y1276388D1*
X2293614Y1268268D1*
X2289022Y1260772D1*
X2283312Y1254088D1*
X2276629Y1248378D1*
X2268962Y1243706D1*
X2276629Y1239022D1*
X2283312Y1233312D1*
X2289022Y1226629D1*
X2293614Y1219133D1*
X2296979Y1211012D1*
X2299030Y1202465D1*
X2299720Y1193701D1*
X2299030Y1184937D1*
X2296979Y1176390D1*
X2293614Y1168269D1*
X2289022Y1160773D1*
X2283312Y1154089D1*
X2276629Y1148379D1*
X2268962Y1143707D1*
X2276629Y1139021D1*
X2283312Y1133311D1*
X2289022Y1126627D1*
X2293614Y1119131D1*
X2296979Y1111010D1*
X2299030Y1102463D1*
X2299720Y1093699D1*
X2299030Y1084936D1*
X2296979Y1076388D1*
X2293614Y1068268D1*
X2289022Y1060772D1*
X2283312Y1054088D1*
X2276629Y1048378D1*
X2268962Y1043706D1*
X2276629Y1039021D1*
X2283312Y1033311D1*
X2289022Y1026627D1*
X2293614Y1019131D1*
X2296979Y1011010D1*
X2299030Y1002463D1*
X2299720Y993699D1*
X2299030Y984936D1*
X2296979Y976388D1*
X2293614Y968268D1*
X2289022Y960772D1*
X2283312Y954088D1*
X2276629Y948378D1*
X2268962Y943706D1*
X2276629Y939022D1*
X2283312Y933312D1*
X2289022Y926629D1*
X2293614Y919133D1*
X2296979Y911012D1*
X2299030Y902465D1*
X2299720Y893701D1*
X2299030Y884937D1*
X2296979Y876390D1*
X2293614Y868269D1*
X2289022Y860773D1*
X2283312Y854089D1*
X2276629Y848379D1*
X2268962Y843707D1*
X2276629Y839021D1*
X2283312Y833311D1*
X2289022Y826627D1*
X2293614Y819131D1*
X2296979Y811010D1*
X2299030Y802463D1*
X2299720Y793699D1*
X2299030Y784936D1*
X2296979Y776388D1*
X2293614Y768268D1*
X2289022Y760772D1*
X2283312Y754088D1*
X2276629Y748378D1*
X2268962Y743706D1*
X2276629Y739021D1*
X2283312Y733311D1*
X2289022Y726627D1*
X2293614Y719131D1*
X2296979Y711010D1*
X2299030Y702463D1*
X2299720Y693699D1*
X2299030Y684936D1*
X2296979Y676388D1*
X2293614Y668268D1*
X2289022Y660772D1*
X2283312Y654088D1*
X2276629Y648378D1*
X2268962Y643706D1*
X2276629Y639022D1*
X2283312Y633312D1*
X2289022Y626629D1*
X2293614Y619133D1*
X2296979Y611012D1*
X2299030Y602465D1*
X2299720Y593701D1*
X2299030Y584937D1*
X2296979Y576390D1*
X2293614Y568269D1*
X2289022Y560773D1*
X2283312Y554089D1*
X2276629Y548379D1*
X2269133Y543787D1*
X2261012Y540423D1*
X2252465Y538371D1*
X2243701Y537681D1*
X2234937Y538371D1*
X2226390Y540423D1*
X2218269Y543787D1*
X2210773Y548379D1*
X2204089Y554089D1*
X2198379Y560773D1*
X2193787Y568269D1*
X2190423Y576390D1*
X2188371Y584937D1*
X2187681Y593701D1*
X2188371Y602465D1*
X2190423Y611012D1*
X2193787Y619133D1*
X2198379Y626629D1*
X2204089Y633312D1*
X2210773Y639022D1*
X2218440Y643694D1*
X2210773Y648378D1*
X2204089Y654088D1*
X2202491Y655816D1*
X2015125Y468617D1*
X2010937Y465573D1*
X2006325Y463223D1*
X2001402Y461623D1*
X1996289Y460814D1*
X1929396Y460713D1*
X1891113Y460814D1*
X1886000Y461623D1*
X1881076Y463223D1*
X1876465Y465573D1*
X1872277Y468617D1*
X1824904Y515845D1*
X1780018Y560731D1*
X568672Y560814D1*
X563559Y561623D1*
X558635Y563223D1*
X554024Y565573D1*
X551862Y567018D1*
X547941Y567375D1*
X539461D1*
X531083Y568702D1*
X523016Y571323D1*
X515459Y575173D1*
X508597Y580159D1*
X502600Y586156D1*
X497614Y593018D1*
X493764Y600575D1*
X491143Y608642D1*
X489816Y617020D1*
Y625500D1*
X491143Y633878D1*
X493764Y641945D1*
X497614Y649501D1*
X502600Y656364D1*
X506686Y660594D1*
X502600Y664896D1*
X497614Y671759D1*
X493764Y679315D1*
X491143Y687382D1*
X489816Y695760D1*
Y704240D1*
X491143Y712618D1*
X493764Y720685D1*
X497614Y728241D1*
X502600Y735104D1*
X506686Y739335D1*
X502600Y743636D1*
X497614Y750499D1*
X493764Y758055D1*
X491143Y766122D1*
X489816Y774500D1*
Y782980D1*
X491143Y791358D1*
X493764Y799425D1*
X497614Y806982D1*
X502600Y813844D1*
X506686Y818075D1*
X502600Y822377D1*
X497614Y829239D1*
X493764Y836795D1*
X491143Y844862D1*
X489816Y853240D1*
Y861720D1*
X491143Y870098D1*
X493764Y878165D1*
X497614Y885722D1*
X502600Y892584D1*
X506686Y896815D1*
X502600Y901117D1*
X497614Y907979D1*
X493764Y915535D1*
X491143Y923602D1*
X489816Y931980D1*
Y940461D1*
X491143Y948839D1*
X493764Y956906D1*
X497614Y964462D1*
X502600Y971324D1*
X506686Y975555D1*
X502600Y979857D1*
X497614Y986719D1*
X493764Y994276D1*
X491143Y1002343D1*
X489816Y1010720D1*
Y1019201D1*
X491143Y1027579D1*
X493764Y1035646D1*
X495630Y1039659D1*
X489650Y1039650D1*
Y1147752D1*
X498836D1*
X555354Y1838849D2*
X553836Y1829264D1*
X550837Y1820034D1*
X546432Y1811387D1*
X540727Y1803537D1*
X533865Y1796675D1*
X526014Y1790970D1*
X517367Y1786564D1*
X508138Y1783566D1*
X498552Y1782047D1*
X488849D1*
X479264Y1783566D1*
X470034Y1786564D1*
X461387Y1790970D1*
X453537Y1796675D1*
X446675Y1803537D1*
X445583Y1804921D1*
X445571Y532514D1*
X449971Y537430D1*
X457350Y543734D1*
X465625Y548804D1*
X474591Y552518D1*
X484026Y554783D1*
X493701Y555545D1*
X503375Y554783D1*
X512811Y552518D1*
X521777Y548804D1*
X530051Y543734D1*
X537430Y537430D1*
X543734Y530051D1*
X548804Y521777D1*
X552518Y512811D1*
X554783Y503375D1*
X555545Y493701D1*
X554783Y484026D1*
X552518Y474591D1*
X548804Y465625D1*
X543734Y457350D1*
X537430Y449971D1*
X532480Y445583D1*
X2354849Y445571D1*
X2349971Y449971D1*
X2343668Y457350D1*
X2338597Y465625D1*
X2334883Y474591D1*
X2332618Y484026D1*
X2331857Y493701D1*
X2332618Y503375D1*
X2334883Y512811D1*
X2338597Y521777D1*
X2343668Y530051D1*
X2349971Y537430D1*
X2357350Y543734D1*
X2365625Y548804D1*
X2374591Y552518D1*
X2384026Y554783D1*
X2393701Y555545D1*
X2403375Y554783D1*
X2412811Y552518D1*
X2421777Y548804D1*
X2430051Y543734D1*
X2437430Y537430D1*
X2441819Y532480D1*
X2441831Y1804887D1*
X2437430Y1799971D1*
X2430051Y1793668D1*
X2421777Y1788597D1*
X2412811Y1784883D1*
X2403375Y1782618D1*
X2393701Y1781857D1*
X2384026Y1782618D1*
X2374591Y1784883D1*
X2365625Y1788597D1*
X2357350Y1793668D1*
X2349971Y1799971D1*
X2343668Y1807350D1*
X2338597Y1815625D1*
X2334883Y1824591D1*
X2332618Y1834026D1*
X2331857Y1843701D1*
X2332618Y1853375D1*
X2334883Y1862811D1*
X2338597Y1871777D1*
X2343668Y1880051D1*
X2349971Y1887430D1*
X2354921Y1891819D1*
X532552Y1891831D1*
X537430Y1887430D1*
X543734Y1880051D1*
X548804Y1871777D1*
X552518Y1862811D1*
X554783Y1853375D1*
X555545Y1843701D1*
X555354Y1838849D1*
X1288993Y1707594D2*
X1407594D1*
Y1579807D1*
X1279807D1*
Y1707594D1*
X1288993D1*
X1607398Y1638688D2*
X1605829Y1628785D1*
X1602731Y1619249D1*
X1598178Y1610316D1*
X1592286Y1602205D1*
X1585197Y1595115D1*
X1577085Y1589223D1*
X1568152Y1584671D1*
X1558617Y1581572D1*
X1548714Y1580004D1*
X1538688D1*
X1528785Y1581572D1*
X1519249Y1584671D1*
X1510316Y1589223D1*
X1502205Y1595115D1*
X1495115Y1602205D1*
X1489223Y1610316D1*
X1484671Y1619249D1*
X1481572Y1628785D1*
X1480004Y1638688D1*
Y1648714D1*
X1481572Y1658617D1*
X1484671Y1668152D1*
X1489223Y1677085D1*
X1495115Y1685197D1*
X1502205Y1692286D1*
X1510316Y1698178D1*
X1519249Y1702731D1*
X1528785Y1705829D1*
X1538688Y1707398D1*
X1548714D1*
X1558617Y1705829D1*
X1568152Y1702731D1*
X1577085Y1698178D1*
X1585197Y1692286D1*
X1592286Y1685197D1*
X1598178Y1677085D1*
X1602731Y1668152D1*
X1605829Y1658617D1*
X1607398Y1648714D1*
Y1638688D1*
X1896867Y1549720D2*
X1999720D1*
Y1437681D1*
X1978370D1*
X1983312Y1433312D1*
X1989022Y1426629D1*
X1993614Y1419133D1*
X1996979Y1411012D1*
X1999030Y1402465D1*
X1999720Y1393701D1*
X1999030Y1384937D1*
X1996979Y1376390D1*
X1993614Y1368269D1*
X1989022Y1360773D1*
X1983312Y1354089D1*
X1976629Y1348379D1*
X1968962Y1343707D1*
X1976629Y1339022D1*
X1983312Y1333312D1*
X1989022Y1326629D1*
X1993614Y1319133D1*
X1996979Y1311012D1*
X1999030Y1302465D1*
X1999720Y1293701D1*
X1999030Y1284937D1*
X1996979Y1276390D1*
X1993614Y1268269D1*
X1989022Y1260773D1*
X1983312Y1254089D1*
X1976629Y1248379D1*
X1968962Y1243707D1*
X1976629Y1239022D1*
X1983312Y1233312D1*
X1989022Y1226629D1*
X1993614Y1219133D1*
X1996979Y1211012D1*
X1999030Y1202465D1*
X1999720Y1193701D1*
X1999030Y1184937D1*
X1996979Y1176390D1*
X1993614Y1168269D1*
X1989022Y1160773D1*
X1983312Y1154089D1*
X1976629Y1148379D1*
X1968962Y1143707D1*
X1976629Y1139021D1*
X1983312Y1133311D1*
X1989022Y1126627D1*
X1993614Y1119131D1*
X1996979Y1111010D1*
X1999030Y1102463D1*
X1999720Y1093699D1*
X1999030Y1084936D1*
X1996979Y1076388D1*
X1993614Y1068268D1*
X1989022Y1060772D1*
X1983312Y1054088D1*
X1976629Y1048378D1*
X1968962Y1043706D1*
X1976629Y1039021D1*
X1983312Y1033311D1*
X1989022Y1026627D1*
X1993614Y1019131D1*
X1996979Y1011010D1*
X1999030Y1002463D1*
X1999720Y993699D1*
X1999030Y984936D1*
X1996979Y976388D1*
X1993614Y968268D1*
X1989022Y960772D1*
X1983312Y954088D1*
X1976629Y948378D1*
X1968962Y943706D1*
X1976629Y939022D1*
X1983312Y933312D1*
X1989022Y926629D1*
X1993614Y919133D1*
X1996979Y911012D1*
X1999030Y902465D1*
X1999720Y893701D1*
X1999030Y884937D1*
X1996979Y876390D1*
X1993614Y868269D1*
X1989022Y860773D1*
X1983312Y854089D1*
X1976629Y848379D1*
X1968962Y843707D1*
X1976629Y839021D1*
X1983312Y833311D1*
X1989022Y826627D1*
X1993614Y819131D1*
X1996979Y811010D1*
X1999030Y802463D1*
X1999720Y793699D1*
X1999030Y784936D1*
X1996979Y776388D1*
X1993614Y768268D1*
X1989022Y760772D1*
X1983312Y754088D1*
X1976629Y748378D1*
X1968962Y743706D1*
X1976629Y739021D1*
X1983312Y733311D1*
X1989022Y726627D1*
X1993614Y719131D1*
X1996979Y711010D1*
X1999030Y702463D1*
X1999720Y693699D1*
X1999030Y684936D1*
X1996979Y676388D1*
X1993614Y668268D1*
X1989022Y660772D1*
X1983312Y654088D1*
X1976629Y648378D1*
X1968962Y643706D1*
X1976629Y639022D1*
X1983312Y633312D1*
X1989022Y626629D1*
X1993614Y619133D1*
X1996979Y611012D1*
X1999030Y602465D1*
X1999720Y593701D1*
X1999030Y584937D1*
X1996979Y576390D1*
X1993614Y568269D1*
X1989022Y560773D1*
X1983312Y554089D1*
X1976629Y548379D1*
X1969133Y543787D1*
X1961012Y540423D1*
X1952465Y538371D1*
X1943701Y537681D1*
X1934937Y538371D1*
X1926390Y540423D1*
X1918269Y543787D1*
X1910773Y548379D1*
X1904089Y554089D1*
X1898379Y560773D1*
X1893787Y568269D1*
X1890423Y576390D1*
X1888371Y584937D1*
X1887681Y593701D1*
X1888371Y602465D1*
X1890423Y611012D1*
X1893787Y619133D1*
X1898379Y626629D1*
X1904089Y633312D1*
X1910773Y639022D1*
X1918440Y643694D1*
X1910773Y648378D1*
X1904089Y654088D1*
X1898379Y660772D1*
X1893787Y668268D1*
X1890423Y676388D1*
X1888371Y684936D1*
X1887681Y693699D1*
X1888371Y702463D1*
X1890423Y711010D1*
X1893787Y719131D1*
X1898379Y726627D1*
X1904089Y733311D1*
X1910773Y739021D1*
X1918440Y743693D1*
X1910773Y748378D1*
X1904089Y754088D1*
X1898379Y760772D1*
X1893787Y768268D1*
X1890423Y776388D1*
X1888371Y784936D1*
X1887681Y793699D1*
X1888371Y802463D1*
X1890423Y811010D1*
X1893787Y819131D1*
X1898379Y826627D1*
X1904089Y833311D1*
X1910773Y839021D1*
X1918440Y843693D1*
X1910773Y848379D1*
X1904089Y854089D1*
X1898379Y860773D1*
X1893787Y868269D1*
X1890423Y876390D1*
X1888371Y884937D1*
X1887681Y893701D1*
X1888371Y902465D1*
X1890423Y911012D1*
X1893787Y919133D1*
X1898379Y926629D1*
X1904089Y933312D1*
X1910773Y939022D1*
X1918440Y943694D1*
X1910773Y948378D1*
X1904089Y954088D1*
X1898379Y960772D1*
X1893787Y968268D1*
X1890423Y976388D1*
X1888371Y984936D1*
X1887681Y993699D1*
X1888371Y1002463D1*
X1890423Y1011010D1*
X1893787Y1019131D1*
X1898379Y1026627D1*
X1904089Y1033311D1*
X1910773Y1039021D1*
X1918440Y1043693D1*
X1910773Y1048378D1*
X1904089Y1054088D1*
X1898379Y1060772D1*
X1893787Y1068268D1*
X1890423Y1076388D1*
X1888371Y1084936D1*
X1887681Y1093699D1*
X1888371Y1102463D1*
X1890423Y1111010D1*
X1893787Y1119131D1*
X1898379Y1126627D1*
X1904089Y1133311D1*
X1910773Y1139021D1*
X1918440Y1143693D1*
X1910773Y1148379D1*
X1904089Y1154089D1*
X1898379Y1160773D1*
X1893787Y1168269D1*
X1890423Y1176390D1*
X1888371Y1184937D1*
X1887681Y1193701D1*
X1888371Y1202465D1*
X1890423Y1211012D1*
X1893787Y1219133D1*
X1898379Y1226629D1*
X1904089Y1233312D1*
X1910773Y1239022D1*
X1918440Y1243694D1*
X1910773Y1248379D1*
X1904089Y1254089D1*
X1898379Y1260773D1*
X1893787Y1268269D1*
X1890423Y1276390D1*
X1888371Y1284937D1*
X1887681Y1293701D1*
X1888371Y1302465D1*
X1890423Y1311012D1*
X1893787Y1319133D1*
X1898379Y1326629D1*
X1904089Y1333312D1*
X1910773Y1339022D1*
X1918440Y1343694D1*
X1910773Y1348379D1*
X1904089Y1354089D1*
X1898379Y1360773D1*
X1893787Y1368269D1*
X1890423Y1376390D1*
X1888371Y1384937D1*
X1887681Y1393701D1*
X1888371Y1402465D1*
X1890423Y1411012D1*
X1893787Y1419133D1*
X1898379Y1426629D1*
X1904089Y1433312D1*
X1909059Y1437671D1*
X1887681Y1437681D1*
Y1549720D1*
X1896867D1*
D16*
X1243701Y1293701D3*
D17*
Y1393701D3*
D16*
X2243701Y1693701D3*
D17*
X2343701D3*
D18*
X1743701D3*
D19*
X2043701D3*
D17*
X1643701Y1393701D3*
D16*
Y1293701D3*
D17*
X983858Y1619291D3*
D20*
Y1520866D3*
Y1442126D3*
Y1343701D3*
D21*
X877165Y1740157D3*
Y1222835D3*
D22*
X543701Y1093701D3*
D23*
Y1014961D3*
Y936220D3*
Y857480D3*
Y778740D3*
Y700000D3*
Y621260D3*
D24*
X1343701Y1643701D3*
D25*
X1443701D3*
X1543701D3*
D26*
X1943701Y1493701D3*
D27*
Y1393701D3*
Y1293701D3*
Y1193701D3*
Y1093699D3*
Y993699D3*
Y893701D3*
Y793699D3*
Y693699D3*
Y593701D3*
X2243701Y1493699D3*
Y1393699D3*
Y1293699D3*
Y1193701D3*
Y1093699D3*
Y993699D3*
Y893701D3*
Y793699D3*
Y693699D3*
Y593701D3*
M02*
