M48
INCH
T01C0.022
T02C0.0315
T03C0.0354
T04C0.0362
T05C0.0394
T06C0.0433
T07C0.0492
T08C0.0906
%
T01
X+017437Y+016937
X+020437Y+016937
T02
X+005437Y+010937
X+005437Y+010150
X+005437Y+009362
X+005437Y+008575
X+005437Y+007787
X+005437Y+007000
X+005437Y+006213
T03
X+016437Y+013937
X+016437Y+012937
X+019437Y+012937
X+019437Y+013937
X+019437Y+014937
X+019437Y+011937
X+019437Y+010937
X+019437Y+009937
X+019437Y+008937
X+019437Y+007937
X+019437Y+006937
X+019437Y+005937
X+022437Y+005937
X+022437Y+006937
X+022437Y+007937
X+022437Y+008937
X+022437Y+009937
X+022437Y+010937
X+022437Y+011937
X+022437Y+012937
X+022437Y+013937
X+022437Y+014937
T04
X+009839Y+016193
X+009839Y+015209
X+009839Y+014421
X+009839Y+013437
T05
X+012437Y+012937
X+012437Y+013937
X+022437Y+016937
X+023437Y+016937
T06
X+013437Y+016437
X+014437Y+016437
X+015437Y+016437
T07
X+004937Y+018437
X+004937Y+004937
X+023937Y+004937
X+023937Y+018437
T08
X+008772Y+017402
X+008772Y+012228
T00
M30
