G04 DipTrace 3.2.0.1*
G04 TopSilk.gto*
%MOIN*%
G04 #@! TF.FileFunction,Legend,Top*
G04 #@! TF.Part,Single*
%ADD10C,0.009843*%
%ADD56C,0.00772*%
%FSLAX26Y26*%
G04*
G70*
G90*
G75*
G01*
G04 TopSilk*
%LPD*%
X1183701Y1413641D2*
D10*
Y1273761D1*
X1303701Y1413641D2*
Y1273761D1*
X1183701D2*
G03X1303701Y1273761I60000J-60D01*
G01*
Y1413641D2*
G03X1183701Y1413641I-60000J60D01*
G01*
X2363641Y1753701D2*
X2223761D1*
X2363641Y1633701D2*
X2223761D1*
Y1753701D2*
G03X2223761Y1633701I-60J-60000D01*
G01*
X2363641D2*
G03X2363641Y1753701I60J60000D01*
G01*
X1813551Y1723701D2*
Y1663701D1*
X1973851Y1723701D2*
X1813551D1*
X1973851D2*
Y1663701D1*
X1813551D1*
X1631881Y1473582D2*
X1655521D1*
X1643701Y1485401D2*
Y1461787D1*
X1543701Y1343671D2*
G02X1543701Y1343671I100000J0D01*
G01*
X472047Y1741365D2*
Y1221628D1*
Y1741365D2*
X795304D1*
X959061D2*
X1032283D1*
Y1221628D1*
X959061D1*
X795304D2*
X472047D1*
X587008Y1133071D2*
Y581890D1*
X500394Y1133071D2*
Y581890D1*
X587008Y1133071D2*
X500394D1*
X587008Y581890D2*
X500394D1*
X1246850Y1750000D2*
X1640551D1*
Y1572835D1*
X1246850D1*
Y1750000D1*
Y1714567D2*
X1640551D1*
X2196067Y1555512D2*
Y531890D1*
X1991334D2*
X2196067D1*
X1991334Y1555512D2*
Y531890D1*
Y1555512D2*
X2070075D1*
X2196067D2*
X2117327D1*
X2070075D2*
G03X2117327Y1555512I23626J83D01*
G01*
X1110533Y1206492D2*
D56*
X1112910Y1199307D1*
X1120095Y1194499D1*
X1132033Y1192122D1*
X1139218D1*
X1151156Y1194499D1*
X1158341Y1199307D1*
X1160718Y1206492D1*
Y1211246D1*
X1158341Y1218431D1*
X1151156Y1223184D1*
X1139218Y1225616D1*
X1132033D1*
X1120095Y1223184D1*
X1112910Y1218431D1*
X1110533Y1211246D1*
Y1206492D1*
X1120095Y1223184D2*
X1151156Y1194499D1*
X1155909Y1243431D2*
X1158341Y1241055D1*
X1160718Y1243431D1*
X1158341Y1245863D1*
X1155909Y1243431D1*
X1160718Y1285234D2*
X1110533D1*
X1143971Y1261303D1*
Y1297172D1*
X1160718Y1322173D2*
X1110533Y1346105D1*
Y1312612D1*
X1169008Y1361544D2*
Y1406976D1*
X1127224Y1422415D2*
X1151156D1*
X1158286Y1424792D1*
X1160718Y1429600D1*
Y1436785D1*
X1158286Y1441538D1*
X1151156Y1448723D1*
X1127224D2*
X1160718D1*
X1110478Y1495279D2*
Y1464163D1*
X1160718D1*
X1134409D2*
Y1483286D1*
X2102212Y1609587D2*
X2107020Y1612019D1*
X2114205Y1619149D1*
Y1568964D1*
X2144015Y1619149D2*
X2136830Y1616772D1*
X2132021Y1609587D1*
X2129645Y1597649D1*
Y1590464D1*
X2132021Y1578526D1*
X2136830Y1571341D1*
X2144015Y1568964D1*
X2148768D1*
X2155953Y1571341D1*
X2160706Y1578526D1*
X2163138Y1590464D1*
Y1597649D1*
X2160706Y1609587D1*
X2155953Y1616772D1*
X2148768Y1619149D1*
X2144015D1*
X2160706Y1609587D2*
X2132021Y1578526D1*
X2192947Y1619149D2*
X2185762Y1616772D1*
X2180954Y1609587D1*
X2178577Y1597649D1*
Y1590464D1*
X2180954Y1578526D1*
X2185762Y1571341D1*
X2192947Y1568964D1*
X2197700D1*
X2204885Y1571341D1*
X2209639Y1578526D1*
X2212071Y1590464D1*
Y1597649D1*
X2209639Y1609587D1*
X2204885Y1616772D1*
X2197700Y1619149D1*
X2192947D1*
X2209639Y1609587D2*
X2180954Y1578526D1*
X2227510Y1560674D2*
X2272941D1*
X2288381Y1602457D2*
Y1568964D1*
Y1592896D2*
X2295566Y1600081D1*
X2300374Y1602457D1*
X2307504D1*
X2312312Y1600081D1*
X2314689Y1592896D1*
Y1568964D1*
X2361245Y1619204D2*
X2330128D1*
Y1568964D1*
Y1595272D2*
X2349251D1*
X1733674Y1799420D2*
X1738482Y1801852D1*
X1745667Y1808981D1*
Y1758797D1*
X1761106Y1750506D2*
X1806538D1*
X1821977Y1809037D2*
Y1758797D1*
X1855471Y1809037D2*
X1821977Y1775543D1*
X1833916Y1787537D2*
X1855471Y1758797D1*
X1882848Y1792290D2*
X1878095Y1789913D1*
X1873286Y1785105D1*
X1870910Y1777920D1*
Y1773167D1*
X1873286Y1765982D1*
X1878095Y1761229D1*
X1882848Y1758797D1*
X1890033D1*
X1894842Y1761229D1*
X1899595Y1765982D1*
X1902027Y1773167D1*
Y1777920D1*
X1899595Y1785105D1*
X1894842Y1789913D1*
X1890033Y1792290D1*
X1882848D1*
X1917466Y1809037D2*
Y1758797D1*
Y1782728D2*
X1924651Y1789913D1*
X1929459Y1792290D1*
X1936644D1*
X1941398Y1789913D1*
X1943774Y1782728D1*
Y1758797D1*
X1959213Y1792290D2*
Y1758797D1*
Y1782728D2*
X1966398Y1789913D1*
X1971207Y1792290D1*
X1978337D1*
X1983145Y1789913D1*
X1985522Y1782728D1*
Y1758797D1*
Y1782728D2*
X1992707Y1789913D1*
X1997515Y1792290D1*
X2004645D1*
X2009453Y1789913D1*
X2011885Y1782728D1*
Y1758797D1*
X1470533Y1253562D2*
Y1279815D1*
X1489656Y1265500D1*
Y1272685D1*
X1492033Y1277439D1*
X1494409Y1279815D1*
X1501595Y1282247D1*
X1506348D1*
X1513533Y1279815D1*
X1518341Y1275062D1*
X1520718Y1267877D1*
Y1260692D1*
X1518341Y1253562D1*
X1515909Y1251186D1*
X1511156Y1248754D1*
X1470533Y1302495D2*
Y1328748D1*
X1489656Y1314433D1*
Y1321618D1*
X1492033Y1326371D1*
X1494409Y1328748D1*
X1501595Y1331180D1*
X1506348D1*
X1513533Y1328748D1*
X1518341Y1323995D1*
X1520718Y1316810D1*
Y1309624D1*
X1518341Y1302495D1*
X1515909Y1300118D1*
X1511156Y1297686D1*
X1529008Y1346619D2*
Y1392050D1*
X1487224Y1407490D2*
X1511156D1*
X1518286Y1409866D1*
X1520718Y1414675D1*
Y1421860D1*
X1518286Y1426613D1*
X1511156Y1433798D1*
X1487224D2*
X1520718D1*
X1470478Y1480354D2*
Y1449237D1*
X1520718D1*
X1494409D2*
Y1468360D1*
X712123Y1289615D2*
Y1258498D1*
X762363D1*
X736055D2*
Y1277621D1*
X770654Y1305054D2*
Y1350485D1*
X712123Y1365925D2*
X747993D1*
X755178Y1368301D1*
X759932Y1373110D1*
X762363Y1380295D1*
Y1385048D1*
X759932Y1392233D1*
X755178Y1397041D1*
X747993Y1399418D1*
X712123D1*
X719308Y1448350D2*
X714500Y1443597D1*
X712123Y1436412D1*
Y1426851D1*
X714500Y1419666D1*
X719308Y1414857D1*
X724062D1*
X728870Y1417289D1*
X731247Y1419666D1*
X733623Y1424419D1*
X738432Y1438789D1*
X740808Y1443597D1*
X743240Y1445974D1*
X747993Y1448350D1*
X755178D1*
X759932Y1443597D1*
X762363Y1436412D1*
Y1426851D1*
X759932Y1419666D1*
X755178Y1414857D1*
X712123Y1463790D2*
X762363D1*
Y1485345D1*
X759932Y1492530D1*
X757555Y1494906D1*
X752802Y1497283D1*
X745617D1*
X740808Y1494906D1*
X738432Y1492530D1*
X736055Y1485345D1*
X733623Y1492530D1*
X731247Y1494906D1*
X726493Y1497283D1*
X721685D1*
X716932Y1494906D1*
X714500Y1492530D1*
X712123Y1485345D1*
Y1463790D1*
X736055D2*
Y1485345D1*
X770654Y1512722D2*
Y1558154D1*
X738432Y1573593D2*
Y1595148D1*
X736055Y1602278D1*
X733623Y1604710D1*
X728870Y1607086D1*
X721685D1*
X716932Y1604710D1*
X714500Y1602278D1*
X712123Y1595148D1*
Y1573593D1*
X762363D1*
X712123Y1622526D2*
X762363D1*
X728870Y1637965D2*
X752802D1*
X759932Y1640341D1*
X762363Y1645150D1*
Y1652335D1*
X759932Y1657088D1*
X752802Y1664273D1*
X728870D2*
X762363D1*
X731247Y1708397D2*
X769548D1*
X776678Y1706021D1*
X779110Y1703644D1*
X781487Y1698836D1*
Y1691651D1*
X779110Y1686897D1*
X738432Y1708397D2*
X733679Y1703644D1*
X731247Y1698836D1*
Y1691651D1*
X733679Y1686897D1*
X738432Y1682089D1*
X745617Y1679712D1*
X750425D1*
X757555Y1682089D1*
X762363Y1686897D1*
X764740Y1691651D1*
Y1698836D1*
X762363Y1703644D1*
X757555Y1708397D1*
X625217Y785554D2*
X675457D1*
X625217Y819047D2*
X675457D1*
X649149Y785554D2*
Y819047D1*
X656334Y834486D2*
Y863171D1*
X651526D1*
X646717Y860794D1*
X644341Y858418D1*
X641964Y853609D1*
Y846424D1*
X644341Y841671D1*
X649149Y836863D1*
X656334Y834486D1*
X661087D1*
X668272Y836863D1*
X673025Y841671D1*
X675457Y846424D1*
Y853609D1*
X673025Y858418D1*
X668272Y863171D1*
X641964Y907295D2*
X675457D1*
X649149D2*
X644341Y902542D1*
X641964Y897733D1*
Y890604D1*
X644341Y885795D1*
X649149Y881042D1*
X656334Y878610D1*
X661087D1*
X668272Y881042D1*
X673025Y885795D1*
X675457Y890604D1*
Y897733D1*
X673025Y902542D1*
X668272Y907295D1*
X625217Y951419D2*
X675457D1*
X649149D2*
X644341Y946666D1*
X641964Y941857D1*
Y934672D1*
X644341Y929919D1*
X649149Y925111D1*
X656334Y922734D1*
X661087D1*
X668272Y925111D1*
X673025Y929919D1*
X675457Y934672D1*
Y941857D1*
X673025Y946666D1*
X668272Y951419D1*
X656334Y966858D2*
Y995543D1*
X651526D1*
X646717Y993167D1*
X644341Y990790D1*
X641964Y985982D1*
Y978797D1*
X644341Y974043D1*
X649149Y969235D1*
X656334Y966858D1*
X661087D1*
X668272Y969235D1*
X673025Y974043D1*
X675457Y978797D1*
Y985982D1*
X673025Y990790D1*
X668272Y995543D1*
X641964Y1010983D2*
X675457Y1010982D1*
X656334D2*
X649149Y1013414D1*
X644341Y1018168D1*
X641964Y1022976D1*
Y1030161D1*
X649149Y1071909D2*
X644341Y1069532D1*
X641964Y1062347D1*
Y1055162D1*
X644341Y1047977D1*
X649149Y1045600D1*
X653902Y1047977D1*
X656334Y1052785D1*
X658711Y1064724D1*
X661087Y1069532D1*
X665896Y1071909D1*
X668272D1*
X673025Y1069532D1*
X675457Y1062347D1*
Y1055162D1*
X673025Y1047977D1*
X668272Y1045600D1*
X1304650Y1823223D2*
Y1772983D1*
X1333335D1*
X1387021D2*
Y1823223D1*
X1367898Y1772983D1*
X1348774Y1823223D1*
Y1772983D1*
X1407269Y1823168D2*
X1433522D1*
X1419207Y1804045D1*
X1426392D1*
X1431145Y1801668D1*
X1433522Y1799291D1*
X1435954Y1792106D1*
Y1787353D1*
X1433522Y1780168D1*
X1428768Y1775360D1*
X1421583Y1772983D1*
X1414398D1*
X1407269Y1775360D1*
X1404892Y1777792D1*
X1402460Y1782545D1*
X1482510Y1806476D2*
X1480078Y1799291D1*
X1475324Y1794483D1*
X1468139Y1792106D1*
X1465763D1*
X1458578Y1794483D1*
X1453825Y1799291D1*
X1451393Y1806476D1*
Y1808853D1*
X1453825Y1816038D1*
X1458578Y1820791D1*
X1465763Y1823168D1*
X1468139D1*
X1475324Y1820791D1*
X1480078Y1816038D1*
X1482510Y1806476D1*
Y1794483D1*
X1480078Y1782545D1*
X1475324Y1775360D1*
X1468139Y1772983D1*
X1463386D1*
X1456201Y1775360D1*
X1453825Y1780168D1*
X1521880Y1772983D2*
Y1823168D1*
X1497949Y1789730D1*
X1533819D1*
X1563628Y1823168D2*
X1556443Y1820791D1*
X1551635Y1813606D1*
X1549258Y1801668D1*
Y1794483D1*
X1551635Y1782545D1*
X1556443Y1775360D1*
X1563628Y1772983D1*
X1568381D1*
X1575566Y1775360D1*
X1580319Y1782545D1*
X1582751Y1794483D1*
Y1801668D1*
X1580319Y1813606D1*
X1575566Y1820791D1*
X1568381Y1823168D1*
X1563628D1*
X1580319Y1813606D2*
X1551635Y1782545D1*
X2121844Y821428D2*
X2071604D1*
X2121844Y802304D1*
X2071604Y783181D1*
X2121844D1*
X2078789Y870360D2*
X2073980Y865607D1*
X2071604Y858422D1*
Y848860D1*
X2073980Y841675D1*
X2078789Y836867D1*
X2083542D1*
X2088350Y839299D1*
X2090727Y841675D1*
X2093104Y846429D1*
X2097912Y860799D1*
X2100289Y865607D1*
X2102720Y867984D1*
X2107474Y870360D1*
X2114659D1*
X2119412Y865607D1*
X2121844Y858422D1*
Y848860D1*
X2119412Y841675D1*
X2114659Y836867D1*
X2097912Y885799D2*
Y907355D1*
X2095535Y914484D1*
X2093104Y916916D1*
X2088350Y919293D1*
X2081165D1*
X2076412Y916916D1*
X2073980Y914484D1*
X2071604Y907355D1*
Y885799D1*
X2121844D1*
Y958664D2*
X2071659D1*
X2105097Y934732D1*
Y970602D1*
X2071659Y990850D2*
Y1017103D1*
X2090782Y1002788D1*
Y1009973D1*
X2093159Y1014726D1*
X2095535Y1017103D1*
X2102720Y1019535D1*
X2107474D1*
X2114659Y1017103D1*
X2119467Y1012349D1*
X2121844Y1005164D1*
Y997979D1*
X2119467Y990850D1*
X2117035Y988473D1*
X2112282Y986041D1*
X2071659Y1049344D2*
X2074036Y1042159D1*
X2081221Y1037350D1*
X2093159Y1034974D1*
X2100344D1*
X2112282Y1037350D1*
X2119467Y1042159D1*
X2121844Y1049344D1*
Y1054097D1*
X2119467Y1061282D1*
X2112282Y1066035D1*
X2100344Y1068467D1*
X2093159D1*
X2081221Y1066035D1*
X2074036Y1061282D1*
X2071659Y1054097D1*
Y1049344D1*
X2081221Y1066035D2*
X2112282Y1037350D1*
X2083542Y1119776D2*
X2078789Y1117400D1*
X2073980Y1112591D1*
X2071604Y1107838D1*
Y1098276D1*
X2073980Y1093468D1*
X2078789Y1088715D1*
X2083542Y1086283D1*
X2090727Y1083906D1*
X2102720D1*
X2109850Y1086283D1*
X2114659Y1088715D1*
X2119412Y1093468D1*
X2121844Y1098276D1*
Y1107838D1*
X2119412Y1112591D1*
X2114659Y1117400D1*
X2109850Y1119776D1*
X2102720D1*
Y1107838D1*
X2083597Y1137647D2*
X2081221D1*
X2076412Y1140024D1*
X2074036Y1142401D1*
X2071659Y1147209D1*
Y1156771D1*
X2074036Y1161524D1*
X2076412Y1163900D1*
X2081221Y1166332D1*
X2085974D1*
X2090782Y1163900D1*
X2097912Y1159147D1*
X2121844Y1135216D1*
Y1168709D1*
X2071659Y1212833D2*
Y1188957D1*
X2093159Y1186580D1*
X2090782Y1188957D1*
X2088350Y1196142D1*
Y1203271D1*
X2090782Y1210456D1*
X2095535Y1215265D1*
X2102720Y1217641D1*
X2107474D1*
X2114659Y1215265D1*
X2119467Y1210456D1*
X2121844Y1203271D1*
Y1196142D1*
X2119467Y1188957D1*
X2117035Y1186580D1*
X2112282Y1184148D1*
X2071659Y1261766D2*
Y1237889D1*
X2093159Y1235513D1*
X2090782Y1237889D1*
X2088350Y1245074D1*
Y1252204D1*
X2090782Y1259389D1*
X2095535Y1264197D1*
X2102720Y1266574D1*
X2107474D1*
X2114659Y1264197D1*
X2119467Y1259389D1*
X2121844Y1252204D1*
Y1245074D1*
X2119467Y1237889D1*
X2117035Y1235513D1*
X2112282Y1233081D1*
X2071659Y1286822D2*
Y1313075D1*
X2090782Y1298760D1*
Y1305945D1*
X2093159Y1310698D1*
X2095535Y1313075D1*
X2102720Y1315507D1*
X2107474D1*
X2114659Y1313075D1*
X2119467Y1308322D1*
X2121844Y1301137D1*
Y1293951D1*
X2119467Y1286822D1*
X2117035Y1284445D1*
X2112282Y1282013D1*
X639841Y523057D2*
Y487187D1*
X642218Y480002D1*
X647026Y475249D1*
X654212Y472817D1*
X658965D1*
X666150Y475249D1*
X670958Y480002D1*
X673335Y487187D1*
Y523057D1*
X688774Y506310D2*
Y472817D1*
Y496749D2*
X695959Y503934D1*
X700768Y506310D1*
X707897D1*
X712706Y503934D1*
X715082Y496749D1*
Y472817D1*
X730522Y523057D2*
X732898Y520680D1*
X735330Y523057D1*
X732898Y525489D1*
X730522Y523057D1*
X732898Y506310D2*
Y472817D1*
X750769Y506310D2*
X765139Y472817D1*
X779454Y506310D1*
X794893Y491940D2*
X823578D1*
Y496749D1*
X821202Y501557D1*
X818825Y503934D1*
X814017Y506310D1*
X806832D1*
X802078Y503934D1*
X797270Y499125D1*
X794893Y491940D1*
Y487187D1*
X797270Y480002D1*
X802078Y475249D1*
X806832Y472817D1*
X814017D1*
X818825Y475249D1*
X823578Y480002D1*
X839018Y506310D2*
Y472817D1*
Y491940D2*
X841449Y499125D1*
X846203Y503934D1*
X851011Y506310D1*
X858196D1*
X899944Y499125D2*
X897567Y503934D1*
X890382Y506310D1*
X883197D1*
X876012Y503934D1*
X873635Y499125D1*
X876012Y494372D1*
X880820Y491940D1*
X892759Y489564D1*
X897567Y487187D1*
X899944Y482379D1*
Y480002D1*
X897567Y475249D1*
X890382Y472817D1*
X883197D1*
X876012Y475249D1*
X873635Y480002D1*
X944068Y506310D2*
Y472817D1*
Y499125D2*
X939315Y503934D1*
X934506Y506310D1*
X927376D1*
X922568Y503934D1*
X917815Y499125D1*
X915383Y491940D1*
Y487187D1*
X917815Y480002D1*
X922568Y475249D1*
X927376Y472817D1*
X934506D1*
X939315Y475249D1*
X944068Y480002D1*
X959507Y523057D2*
Y472817D1*
X1057041Y515872D2*
X1052287Y520680D1*
X1045102Y523057D1*
X1035541D1*
X1028356Y520680D1*
X1023547Y515872D1*
Y511119D1*
X1025979Y506310D1*
X1028356Y503934D1*
X1033109Y501557D1*
X1047479Y496749D1*
X1052287Y494372D1*
X1054664Y491940D1*
X1057041Y487187D1*
Y480002D1*
X1052287Y475249D1*
X1045102Y472817D1*
X1035541D1*
X1028356Y475249D1*
X1023547Y480002D1*
X1072480Y491940D2*
X1101165D1*
Y496749D1*
X1098788Y501557D1*
X1096411Y503934D1*
X1091603Y506310D1*
X1084418D1*
X1079665Y503934D1*
X1074856Y499125D1*
X1072480Y491940D1*
Y487187D1*
X1074856Y480002D1*
X1079665Y475249D1*
X1084418Y472817D1*
X1091603D1*
X1096411Y475249D1*
X1101165Y480002D1*
X1116604Y506310D2*
Y472817D1*
Y496749D2*
X1123789Y503934D1*
X1128597Y506310D1*
X1135727D1*
X1140536Y503934D1*
X1142912Y496749D1*
Y472817D1*
X1184660Y499125D2*
X1182283Y503934D1*
X1175098Y506310D1*
X1167913D1*
X1160728Y503934D1*
X1158351Y499125D1*
X1160728Y494372D1*
X1165537Y491940D1*
X1177475Y489564D1*
X1182283Y487187D1*
X1184660Y482379D1*
Y480002D1*
X1182283Y475249D1*
X1175098Y472817D1*
X1167913D1*
X1160728Y475249D1*
X1158351Y480002D1*
X1212037Y506310D2*
X1207284Y503934D1*
X1202476Y499125D1*
X1200099Y491940D1*
Y487187D1*
X1202476Y480002D1*
X1207284Y475249D1*
X1212037Y472817D1*
X1219222D1*
X1224031Y475249D1*
X1228784Y480002D1*
X1231216Y487187D1*
Y491940D1*
X1228784Y499125D1*
X1224031Y503934D1*
X1219222Y506310D1*
X1212037D1*
X1246655D2*
Y472817D1*
Y491940D2*
X1249087Y499125D1*
X1253840Y503934D1*
X1258648Y506310D1*
X1265834D1*
X1365744Y511119D2*
X1363367Y515872D1*
X1358559Y520680D1*
X1353805Y523057D1*
X1344244D1*
X1339435Y520680D1*
X1334682Y515872D1*
X1332250Y511119D1*
X1329874Y503934D1*
Y491940D1*
X1332250Y484811D1*
X1334682Y480002D1*
X1339435Y475249D1*
X1344244Y472817D1*
X1353805D1*
X1358559Y475249D1*
X1363367Y480002D1*
X1365744Y484811D1*
X1393121Y506310D2*
X1388368Y503934D1*
X1383560Y499125D1*
X1381183Y491940D1*
Y487187D1*
X1383560Y480002D1*
X1388368Y475249D1*
X1393121Y472817D1*
X1400306D1*
X1405115Y475249D1*
X1409868Y480002D1*
X1412300Y487187D1*
Y491940D1*
X1409868Y499125D1*
X1405115Y503934D1*
X1400306Y506310D1*
X1393121D1*
X1427739D2*
Y472817D1*
Y496749D2*
X1434924Y503934D1*
X1439732Y506310D1*
X1446862D1*
X1451671Y503934D1*
X1454047Y496749D1*
Y472817D1*
X1476671Y523057D2*
Y482379D1*
X1479048Y475249D1*
X1483857Y472817D1*
X1488610D1*
X1469486Y506310D2*
X1486233D1*
X1504049D2*
Y472817D1*
Y491940D2*
X1506481Y499125D1*
X1511234Y503934D1*
X1516042Y506310D1*
X1523227D1*
X1550605D2*
X1545852Y503934D1*
X1541043Y499125D1*
X1538667Y491940D1*
Y487187D1*
X1541043Y480002D1*
X1545852Y475249D1*
X1550605Y472817D1*
X1557790D1*
X1562598Y475249D1*
X1567352Y480002D1*
X1569783Y487187D1*
Y491940D1*
X1567352Y499125D1*
X1562598Y503934D1*
X1557790Y506310D1*
X1550605D1*
X1585223Y523057D2*
Y472817D1*
X1600662Y523057D2*
Y472817D1*
X1616101Y491940D2*
X1644786D1*
Y496749D1*
X1642410Y501557D1*
X1640033Y503934D1*
X1635224Y506310D1*
X1628039D1*
X1623286Y503934D1*
X1618478Y499125D1*
X1616101Y491940D1*
Y487187D1*
X1618478Y480002D1*
X1623286Y475249D1*
X1628039Y472817D1*
X1635224D1*
X1640033Y475249D1*
X1644786Y480002D1*
X1660225Y506310D2*
Y472817D1*
Y491940D2*
X1662657Y499125D1*
X1667410Y503934D1*
X1672219Y506310D1*
X1679404D1*
X889841Y1073057D2*
Y1022817D1*
X906588D1*
X913773Y1025249D1*
X918582Y1030002D1*
X920958Y1034811D1*
X923335Y1041940D1*
Y1053934D1*
X920958Y1061119D1*
X918582Y1065872D1*
X913773Y1070680D1*
X906588Y1073057D1*
X889841D1*
X938774Y1056310D2*
Y1032379D1*
X941151Y1025249D1*
X945959Y1022817D1*
X953144D1*
X957897Y1025249D1*
X965082Y1032379D1*
Y1056310D2*
Y1022817D1*
X1009206Y1056310D2*
Y1022817D1*
Y1049125D2*
X1004453Y1053934D1*
X999645Y1056310D1*
X992515D1*
X987707Y1053934D1*
X982953Y1049125D1*
X980522Y1041940D1*
Y1037187D1*
X982953Y1030002D1*
X987707Y1025249D1*
X992515Y1022817D1*
X999645D1*
X1004453Y1025249D1*
X1009206Y1030002D1*
X1024646Y1073057D2*
Y1022817D1*
X1088686Y1063440D2*
X1093494Y1065872D1*
X1100679Y1073002D1*
Y1022817D1*
X1116119D2*
X1149612Y1073002D1*
X1179421D2*
X1172236Y1070625D1*
X1167428Y1063440D1*
X1165051Y1051502D1*
Y1044317D1*
X1167428Y1032379D1*
X1172236Y1025194D1*
X1179421Y1022817D1*
X1184174D1*
X1191360Y1025194D1*
X1196113Y1032379D1*
X1198545Y1044317D1*
Y1051502D1*
X1196113Y1063440D1*
X1191360Y1070625D1*
X1184174Y1073002D1*
X1179421D1*
X1196113Y1063440D2*
X1167428Y1032379D1*
X1274523Y1056310D2*
X1269770Y1053934D1*
X1264961Y1049125D1*
X1262585Y1041940D1*
Y1037187D1*
X1264961Y1030002D1*
X1269770Y1025249D1*
X1274523Y1022817D1*
X1281708D1*
X1286516Y1025249D1*
X1291270Y1030002D1*
X1293702Y1037187D1*
Y1041940D1*
X1291270Y1049125D1*
X1286516Y1053934D1*
X1281708Y1056310D1*
X1274523D1*
X1309141D2*
Y1022817D1*
Y1041940D2*
X1311573Y1049125D1*
X1316326Y1053934D1*
X1321134Y1056310D1*
X1328319D1*
X1392360Y1046749D2*
X1413915D1*
X1421044Y1049125D1*
X1423476Y1051557D1*
X1425853Y1056310D1*
Y1063495D1*
X1423476Y1068249D1*
X1421044Y1070680D1*
X1413915Y1073057D1*
X1392360D1*
Y1022817D1*
X1441292Y1073057D2*
X1453286Y1022817D1*
X1465224Y1073057D1*
X1477162Y1022817D1*
X1489156Y1073057D1*
X1542841Y1022817D2*
Y1073057D1*
X1523718Y1022817D1*
X1504595Y1073057D1*
Y1022817D1*
X966150Y949125D2*
X963773Y953934D1*
X956588Y956310D1*
X949403D1*
X942218Y953934D1*
X939841Y949125D1*
X942218Y944372D1*
X947026Y941940D1*
X958965Y939564D1*
X963773Y937187D1*
X966150Y932379D1*
Y930002D1*
X963773Y925249D1*
X956588Y922817D1*
X949403D1*
X942218Y925249D1*
X939841Y930002D1*
X981589Y973057D2*
X983966Y970680D1*
X986397Y973057D1*
X983966Y975489D1*
X981589Y973057D1*
X983966Y956310D2*
Y922817D1*
X1030522Y953934D2*
Y915632D1*
X1028145Y908502D1*
X1025768Y906070D1*
X1020960Y903694D1*
X1013775D1*
X1009022Y906070D1*
X1030522Y946749D2*
X1025768Y951502D1*
X1020960Y953934D1*
X1013775D1*
X1009022Y951502D1*
X1004213Y946749D1*
X1001837Y939564D1*
Y934755D1*
X1004213Y927626D1*
X1009022Y922817D1*
X1013775Y920440D1*
X1020960D1*
X1025768Y922817D1*
X1030522Y927626D1*
X1045961Y956310D2*
Y922817D1*
Y946749D2*
X1053146Y953934D1*
X1057954Y956310D1*
X1065084D1*
X1069893Y953934D1*
X1072269Y946749D1*
Y922817D1*
X1116393Y956310D2*
Y922817D1*
Y949125D2*
X1111640Y953934D1*
X1106832Y956310D1*
X1099702D1*
X1094893Y953934D1*
X1090140Y949125D1*
X1087708Y941940D1*
Y937187D1*
X1090140Y930002D1*
X1094893Y925249D1*
X1099702Y922817D1*
X1106832D1*
X1111640Y925249D1*
X1116393Y930002D1*
X1131832Y973057D2*
Y922817D1*
X1207811Y956310D2*
X1203058Y953934D1*
X1198249Y949125D1*
X1195873Y941940D1*
Y937187D1*
X1198249Y930002D1*
X1203058Y925249D1*
X1207811Y922817D1*
X1214996D1*
X1219804Y925249D1*
X1224558Y930002D1*
X1226989Y937187D1*
Y941940D1*
X1224558Y949125D1*
X1219804Y953934D1*
X1214996Y956310D1*
X1207811D1*
X1242429D2*
Y932379D1*
X1244805Y925249D1*
X1249614Y922817D1*
X1256799D1*
X1261552Y925249D1*
X1268737Y932379D1*
Y956310D2*
Y922817D1*
X1291361Y973057D2*
Y932379D1*
X1293738Y925249D1*
X1298546Y922817D1*
X1303300D1*
X1284176Y956310D2*
X1300923D1*
X1318739D2*
Y906070D1*
Y949125D2*
X1323547Y953879D1*
X1328300Y956310D1*
X1335485D1*
X1340294Y953879D1*
X1345047Y949125D1*
X1347479Y941940D1*
Y937132D1*
X1345047Y930002D1*
X1340294Y925194D1*
X1335485Y922817D1*
X1328300D1*
X1323547Y925194D1*
X1318739Y930002D1*
X1362918Y956310D2*
Y932379D1*
X1365295Y925249D1*
X1370103Y922817D1*
X1377288D1*
X1382041Y925249D1*
X1389226Y932379D1*
Y956310D2*
Y922817D1*
X1411851Y973057D2*
Y932379D1*
X1414227Y925249D1*
X1419036Y922817D1*
X1423789D1*
X1404666Y956310D2*
X1421412D1*
X1465537Y949125D2*
X1463160Y953934D1*
X1455975Y956310D1*
X1448790D1*
X1441605Y953934D1*
X1439228Y949125D1*
X1441605Y944372D1*
X1446413Y941940D1*
X1458351Y939564D1*
X1463160Y937187D1*
X1465537Y932379D1*
Y930002D1*
X1463160Y925249D1*
X1455975Y922817D1*
X1448790D1*
X1441605Y925249D1*
X1439228Y930002D1*
M02*
