G04 DipTrace 3.2.0.1*
G04 Bottom.gbl*
%MOIN*%
G04 #@! TF.FileFunction,Copper,L2,Bot*
G04 #@! TF.Part,Single*
G04 #@! TA.AperFunction,Conductor*
%ADD14C,0.012992*%
G04 #@! TA.AperFunction,CopperBalancing*
%ADD16C,0.025*%
G04 #@! TA.AperFunction,ComponentPad*
%ADD17R,0.055118X0.055118*%
%ADD18C,0.055118*%
%ADD19R,0.070866X0.070866*%
%ADD20C,0.070866*%
%ADD21R,0.074803X0.074803*%
%ADD22C,0.074803*%
%ADD23C,0.059055*%
%FSLAX26Y26*%
G04*
G70*
G90*
G75*
G01*
G04 Bottom*
%LPD*%
X593701Y571260D2*
D14*
X616142D1*
X643701Y543701D1*
X790530D1*
X1093701D1*
X1241282D1*
X1643701D1*
X1690530Y590530D1*
Y635241D1*
X1241282Y636369D2*
Y543701D1*
X790530Y637121D2*
Y543701D1*
X593701Y1543701D2*
X893701D1*
X1093701Y1343701D1*
Y543701D1*
X758661Y1093701D2*
Y928740D1*
X893701Y793701D1*
Y640291D1*
X890530Y637121D1*
X1358661Y1193701D2*
X1341282D1*
Y636369D1*
X1790530Y635241D2*
Y796871D1*
X1643701Y943701D1*
X1508661D1*
X553517Y1666962D2*
D16*
X1983885D1*
X558038Y1642093D2*
X1979362D1*
X552081Y1617224D2*
X1985319D1*
X448089Y1592356D2*
X456747D1*
X530659D2*
X2006743D1*
X2080676D2*
X2089348D1*
X448089Y1567487D2*
X2089348D1*
X448089Y1542618D2*
X2089348D1*
X448089Y1517749D2*
X537142D1*
X650260D2*
X2089348D1*
X448089Y1492881D2*
X537142D1*
X650260D2*
X2089348D1*
X448089Y1468012D2*
X537142D1*
X650260D2*
X2089348D1*
X448089Y1443143D2*
X537142D1*
X650260D2*
X2089348D1*
X448089Y1418274D2*
X537142D1*
X650260D2*
X2089348D1*
X448089Y1393406D2*
X565346D1*
X622055D2*
X765365D1*
X822038D2*
X2089348D1*
X448089Y1368537D2*
X540980D1*
X646421D2*
X740999D1*
X846403D2*
X2089348D1*
X448089Y1343668D2*
X535168D1*
X652234D2*
X735186D1*
X852217D2*
X1765887D1*
X1821520D2*
X2089348D1*
X448089Y1318799D2*
X541017D1*
X646385D2*
X741035D1*
X846367D2*
X1741127D1*
X1846281D2*
X2089348D1*
X448089Y1293930D2*
X565490D1*
X621912D2*
X666396D1*
X720988D2*
X765472D1*
X821930D2*
X1735171D1*
X1852238D2*
X2089348D1*
X448089Y1269062D2*
X641241D1*
X746143D2*
X1740877D1*
X1846496D2*
X2089348D1*
X448089Y1244193D2*
X635177D1*
X752207D2*
X1166945D1*
X1220461D2*
X1320314D1*
X1397010D2*
X1729286D1*
X1858122D2*
X2089348D1*
X448089Y1219324D2*
X640774D1*
X746646D2*
X1141395D1*
X1246009D2*
X1299787D1*
X1417535D2*
X1729286D1*
X1858122D2*
X2089348D1*
X448089Y1194455D2*
X664495D1*
X722890D2*
X1135188D1*
X1252218D2*
X1294226D1*
X1423098D2*
X1729286D1*
X1858122D2*
X2089348D1*
X448089Y1169587D2*
X1140642D1*
X1246762D2*
X1299142D1*
X1418182D2*
X1729286D1*
X1858122D2*
X2089348D1*
X448089Y1144718D2*
X721047D1*
X796273D2*
X1129266D1*
X1258138D2*
X1305781D1*
X1399055D2*
X1729286D1*
X1858122D2*
X2089348D1*
X448089Y1119849D2*
X700020D1*
X817301D2*
X1129266D1*
X1258138D2*
X1305781D1*
X1376772D2*
X2089348D1*
X448089Y1094980D2*
X537142D1*
X650260D2*
X694243D1*
X823079D2*
X1129266D1*
X1258138D2*
X1305781D1*
X1376772D2*
X1918647D1*
X1968753D2*
X2089348D1*
X448089Y1070112D2*
X537142D1*
X650260D2*
X698907D1*
X818413D2*
X1129266D1*
X1258138D2*
X1305781D1*
X1376772D2*
X1891806D1*
X1995594D2*
X2089348D1*
X448089Y1045243D2*
X537142D1*
X650260D2*
X717602D1*
X799718D2*
X1129266D1*
X1258138D2*
X1305781D1*
X1376772D2*
X1885202D1*
X2002197D2*
X2089348D1*
X448089Y1020374D2*
X537142D1*
X650260D2*
X723165D1*
X794156D2*
X1305781D1*
X1376772D2*
X1890262D1*
X1997138D2*
X2089348D1*
X448089Y995505D2*
X537142D1*
X650260D2*
X723165D1*
X794156D2*
X1305781D1*
X1376772D2*
X1472247D1*
X1545104D2*
X1879282D1*
X2008118D2*
X2089348D1*
X448089Y970636D2*
X537465D1*
X649937D2*
X723165D1*
X794156D2*
X1305781D1*
X1376772D2*
X1450394D1*
X1665244D2*
X1879282D1*
X2008118D2*
X2089348D1*
X448089Y945768D2*
X540657D1*
X646744D2*
X723165D1*
X794156D2*
X1305781D1*
X1376772D2*
X1444257D1*
X1690794D2*
X1879282D1*
X2008118D2*
X2089348D1*
X448089Y920899D2*
X549736D1*
X637665D2*
X724134D1*
X815651D2*
X1305781D1*
X1376772D2*
X1448600D1*
X1715661D2*
X1879282D1*
X2008118D2*
X2089348D1*
X448089Y896030D2*
X538038D1*
X649364D2*
X742219D1*
X840518D2*
X1305781D1*
X1376772D2*
X1466650D1*
X1550702D2*
X1642231D1*
X1740529D2*
X1879282D1*
X2008118D2*
X2089348D1*
X448089Y871161D2*
X539294D1*
X648108D2*
X767087D1*
X865386D2*
X1305781D1*
X1376772D2*
X1667098D1*
X1765398D2*
X2089348D1*
X448089Y846293D2*
X553576D1*
X633825D2*
X791955D1*
X890253D2*
X1305781D1*
X1376772D2*
X1691966D1*
X1790265D2*
X2089348D1*
X448089Y821424D2*
X538971D1*
X648430D2*
X816823D1*
X915122D2*
X1305781D1*
X1376772D2*
X1716833D1*
X1815133D2*
X2089348D1*
X448089Y796555D2*
X538253D1*
X649148D2*
X841690D1*
X929080D2*
X1305781D1*
X1376772D2*
X1741702D1*
X1826005D2*
X2089348D1*
X448089Y771686D2*
X550706D1*
X636696D2*
X858197D1*
X929188D2*
X1305781D1*
X1376772D2*
X1755050D1*
X1826005D2*
X2089348D1*
X448089Y746818D2*
X540264D1*
X647138D2*
X858197D1*
X929188D2*
X1305781D1*
X1376772D2*
X1755050D1*
X1826005D2*
X2089348D1*
X448089Y721949D2*
X537572D1*
X649829D2*
X858197D1*
X929188D2*
X1305781D1*
X1376772D2*
X1755050D1*
X1826005D2*
X2089348D1*
X448089Y697080D2*
X547404D1*
X639997D2*
X858197D1*
X1056936D2*
X1305781D1*
X1507677D2*
X1755050D1*
X1956911D2*
X2089348D1*
X448089Y672211D2*
X541913D1*
X645488D2*
X834621D1*
X1056936D2*
X1285900D1*
X1507677D2*
X1735924D1*
X1956911D2*
X2089348D1*
X448089Y647343D2*
X537213D1*
X650189D2*
X824969D1*
X1056936D2*
X1275853D1*
X1507677D2*
X1725303D1*
X1956911D2*
X2089348D1*
X448089Y622474D2*
X544677D1*
X642724D2*
X825829D1*
X1056936D2*
X1276428D1*
X1507677D2*
X1725411D1*
X1956911D2*
X2089348D1*
X448089Y597605D2*
X577906D1*
X609496D2*
X837815D1*
X1056936D2*
X1287982D1*
X1507677D2*
X1736391D1*
X1956911D2*
X2089348D1*
X448089Y572736D2*
X1333017D1*
X1349571D2*
X1374894D1*
X1507677D2*
X1774787D1*
X1806269D2*
X1824127D1*
X1956911D2*
X2089348D1*
X448089Y547867D2*
X461336D1*
X526029D2*
X2011371D1*
X2076047D2*
X2089348D1*
X550681Y522999D2*
X1986755D1*
X557895Y498130D2*
X1979507D1*
X554558Y473261D2*
X1982844D1*
X538302Y448392D2*
X1999098D1*
X548836Y1519012D2*
X647752D1*
Y1410909D1*
X539650D1*
Y1519012D1*
X548836D1*
X1140962Y1155626D2*
X1152625D1*
X1148379Y1160773D1*
X1143787Y1168269D1*
X1140423Y1176390D1*
X1138371Y1184937D1*
X1137681Y1193701D1*
X1138371Y1202465D1*
X1140423Y1211012D1*
X1143787Y1219133D1*
X1148379Y1226629D1*
X1154089Y1233312D1*
X1160773Y1239022D1*
X1168269Y1243614D1*
X1176390Y1246979D1*
X1184937Y1249030D1*
X1193701Y1249720D1*
X1202465Y1249030D1*
X1211012Y1246979D1*
X1219133Y1243614D1*
X1226629Y1239022D1*
X1233312Y1233312D1*
X1239022Y1226629D1*
X1243614Y1219133D1*
X1246979Y1211012D1*
X1249030Y1202465D1*
X1249720Y1193701D1*
X1249030Y1184937D1*
X1246979Y1176390D1*
X1243614Y1168269D1*
X1239022Y1160773D1*
X1234724Y1155615D1*
X1255626Y1155626D1*
Y1031776D1*
X1131776D1*
Y1155626D1*
X1140962D1*
X820396Y1088843D2*
X818875Y1079244D1*
X815873Y1070003D1*
X811462Y1061345D1*
X805749Y1053483D1*
X798879Y1046613D1*
X791665Y1041333D1*
X791650Y942377D1*
X918785Y815125D1*
X921828Y810937D1*
X924178Y806325D1*
X925778Y801402D1*
X926588Y796289D1*
X926689Y729396D1*
Y701012D1*
X1054424Y701014D1*
Y573227D1*
X926636D1*
Y584387D1*
X919537Y580192D1*
X910274Y576354D1*
X900525Y574013D1*
X890530Y573227D1*
X880535Y574013D1*
X870786Y576354D1*
X861524Y580192D1*
X852974Y585429D1*
X845350Y591941D1*
X838839Y599564D1*
X833601Y608114D1*
X829764Y617377D1*
X827423Y627126D1*
X826636Y637121D1*
X827423Y647115D1*
X829764Y656865D1*
X833601Y666127D1*
X838839Y674677D1*
X845350Y682301D1*
X852974Y688812D1*
X860719Y693600D1*
X860713Y780060D1*
X733577Y907316D1*
X730534Y911504D1*
X728184Y916115D1*
X726584Y921039D1*
X725774Y926152D1*
X725673Y993045D1*
Y1041308D1*
X718444Y1046613D1*
X711573Y1053483D1*
X705861Y1061345D1*
X701450Y1070003D1*
X698448Y1079244D1*
X696927Y1088843D1*
Y1098559D1*
X698448Y1108157D1*
X701450Y1117399D1*
X705861Y1126056D1*
X711573Y1133919D1*
X718444Y1140789D1*
X726306Y1146501D1*
X734963Y1150912D1*
X744205Y1153915D1*
X753803Y1155436D1*
X763520D1*
X773118Y1153915D1*
X782360Y1150912D1*
X791017Y1146501D1*
X798879Y1140789D1*
X805749Y1133919D1*
X811462Y1126056D1*
X815873Y1117399D1*
X818875Y1108157D1*
X820396Y1098559D1*
Y1088843D1*
X1740962Y1255626D2*
X1752625D1*
X1748379Y1260773D1*
X1743787Y1268269D1*
X1740423Y1276390D1*
X1738371Y1284937D1*
X1737681Y1293701D1*
X1738371Y1302465D1*
X1740423Y1311012D1*
X1743787Y1319133D1*
X1748379Y1326629D1*
X1754089Y1333312D1*
X1760773Y1339022D1*
X1768269Y1343614D1*
X1776390Y1346979D1*
X1784937Y1349030D1*
X1793701Y1349720D1*
X1802465Y1349030D1*
X1811012Y1346979D1*
X1819133Y1343614D1*
X1826629Y1339022D1*
X1833312Y1333312D1*
X1839022Y1326629D1*
X1843614Y1319133D1*
X1846979Y1311012D1*
X1849030Y1302465D1*
X1849720Y1293701D1*
X1849030Y1284937D1*
X1846979Y1276390D1*
X1843614Y1268269D1*
X1839022Y1260773D1*
X1834724Y1255615D1*
X1855626Y1255626D1*
Y1131776D1*
X1731776D1*
Y1255626D1*
X1740962D1*
X1420396Y1188843D2*
X1418875Y1179244D1*
X1415873Y1170003D1*
X1411462Y1161345D1*
X1405749Y1153483D1*
X1398879Y1146613D1*
X1391017Y1140900D1*
X1382360Y1136490D1*
X1374269Y1133811D1*
X1374270Y691071D1*
X1377387Y689029D1*
X1377388Y700262D1*
X1505176D1*
Y572475D1*
X1377388D1*
Y583635D1*
X1370289Y579440D1*
X1361026Y575602D1*
X1351277Y573261D1*
X1341282Y572475D1*
X1331287Y573261D1*
X1321538Y575602D1*
X1312276Y579440D1*
X1303726Y584677D1*
X1296102Y591189D1*
X1289591Y598812D1*
X1284353Y607362D1*
X1280516Y616625D1*
X1278175Y626374D1*
X1277388Y636369D1*
X1278175Y646364D1*
X1280516Y656113D1*
X1284353Y665375D1*
X1289591Y673925D1*
X1296102Y681549D1*
X1303726Y688060D1*
X1308291Y691067D1*
X1308294Y1157659D1*
X1303486Y1165588D1*
X1299766Y1174564D1*
X1297499Y1184013D1*
X1296736Y1193701D1*
X1297499Y1203388D1*
X1299766Y1212837D1*
X1303486Y1221814D1*
X1308563Y1230100D1*
X1314874Y1237488D1*
X1322262Y1243799D1*
X1330549Y1248877D1*
X1339525Y1252596D1*
X1348974Y1254864D1*
X1358661Y1255626D1*
X1368349Y1254864D1*
X1377798Y1252596D1*
X1386774Y1248877D1*
X1395060Y1243799D1*
X1402449Y1237488D1*
X1408760Y1230100D1*
X1413837Y1221814D1*
X1417556Y1212837D1*
X1419824Y1203388D1*
X1420587Y1193701D1*
X1420396Y1188843D1*
X1890962Y1005626D2*
X1902625D1*
X1898379Y1010773D1*
X1893787Y1018269D1*
X1890423Y1026390D1*
X1888371Y1034937D1*
X1887681Y1043701D1*
X1888371Y1052465D1*
X1890423Y1061012D1*
X1893787Y1069133D1*
X1898379Y1076629D1*
X1904089Y1083312D1*
X1910773Y1089022D1*
X1918269Y1093614D1*
X1926390Y1096979D1*
X1934937Y1099030D1*
X1943701Y1099720D1*
X1952465Y1099030D1*
X1961012Y1096979D1*
X1969133Y1093614D1*
X1976629Y1089022D1*
X1983312Y1083312D1*
X1989022Y1076629D1*
X1993614Y1069133D1*
X1996979Y1061012D1*
X1999030Y1052465D1*
X1999720Y1043701D1*
X1999030Y1034937D1*
X1996979Y1026390D1*
X1993614Y1018269D1*
X1989022Y1010773D1*
X1984724Y1005615D1*
X2005626Y1005626D1*
Y881776D1*
X1881776D1*
Y1005626D1*
X1890962D1*
X1561029Y910697D2*
X1555749Y903483D1*
X1548879Y896613D1*
X1541017Y890900D1*
X1532360Y886490D1*
X1523118Y883487D1*
X1513520Y881966D1*
X1503803D1*
X1494205Y883487D1*
X1484963Y886490D1*
X1476306Y890900D1*
X1468444Y896613D1*
X1461573Y903483D1*
X1455861Y911345D1*
X1451450Y920003D1*
X1448448Y929244D1*
X1446927Y938843D1*
Y948559D1*
X1448448Y958157D1*
X1451450Y967399D1*
X1455861Y976056D1*
X1461573Y983919D1*
X1468444Y990789D1*
X1476306Y996501D1*
X1484963Y1000912D1*
X1494205Y1003915D1*
X1503803Y1005436D1*
X1513520D1*
X1523118Y1003915D1*
X1532360Y1000912D1*
X1541017Y996501D1*
X1548879Y990789D1*
X1555749Y983919D1*
X1561029Y976705D1*
X1646289Y976588D1*
X1651402Y975778D1*
X1656325Y974178D1*
X1660937Y971828D1*
X1665125Y968785D1*
X1712497Y921556D1*
X1815614Y818295D1*
X1818657Y814108D1*
X1821008Y809496D1*
X1822608Y804572D1*
X1823417Y799459D1*
X1823518Y732567D1*
Y689972D1*
X1826635Y687902D1*
X1826636Y699135D1*
X1954424D1*
Y571348D1*
X1826636D1*
Y582508D1*
X1819537Y578312D1*
X1810274Y574475D1*
X1800525Y572134D1*
X1790530Y571348D1*
X1780535Y572134D1*
X1770786Y574475D1*
X1761524Y578312D1*
X1752974Y583550D1*
X1745350Y590062D1*
X1738839Y597685D1*
X1733601Y606235D1*
X1729764Y615497D1*
X1727423Y625247D1*
X1726636Y635241D1*
X1727423Y645236D1*
X1729764Y654986D1*
X1733601Y664248D1*
X1738839Y672798D1*
X1745350Y680421D1*
X1752974Y686933D1*
X1757539Y689940D1*
X1757542Y783192D1*
X1630058Y910692D1*
X1561059Y910713D1*
X548836Y1097752D2*
X647752D1*
Y989650D1*
X641861Y989500D1*
X645106Y981663D1*
X647087Y973416D1*
X647752Y964961D1*
X647087Y956505D1*
X645106Y948259D1*
X641861Y940421D1*
X637429Y933190D1*
X631921Y926740D1*
X630715Y925626D1*
X634802Y921324D1*
X639787Y914462D1*
X643638Y906906D1*
X646259Y898839D1*
X647585Y890461D1*
Y881980D1*
X646259Y873602D1*
X643638Y865535D1*
X639787Y857979D1*
X634802Y851117D1*
X630715Y846886D1*
X634802Y842584D1*
X639787Y835722D1*
X643638Y828165D1*
X646259Y820098D1*
X647585Y811720D1*
Y803240D1*
X646259Y794862D1*
X643638Y786795D1*
X639787Y779239D1*
X634802Y772377D1*
X630715Y768146D1*
X634802Y763844D1*
X639787Y756982D1*
X643638Y749425D1*
X646259Y741358D1*
X647585Y732980D1*
Y724500D1*
X646259Y716122D1*
X643638Y708055D1*
X639787Y700499D1*
X634802Y693636D1*
X630715Y689406D1*
X634802Y685104D1*
X639787Y678241D1*
X643638Y670685D1*
X646259Y662618D1*
X647585Y654240D1*
Y645760D1*
X646259Y637382D1*
X643638Y629315D1*
X639787Y621759D1*
X634802Y614896D1*
X628804Y608899D1*
X621942Y603913D1*
X614386Y600063D1*
X606319Y597442D1*
X597941Y596115D1*
X589461D1*
X581083Y597442D1*
X573016Y600063D1*
X565459Y603913D1*
X558597Y608899D1*
X552600Y614896D1*
X547614Y621759D1*
X543764Y629315D1*
X541143Y637382D1*
X539816Y645760D1*
Y654240D1*
X541143Y662618D1*
X543764Y670685D1*
X547614Y678241D1*
X552600Y685104D1*
X556686Y689335D1*
X552600Y693636D1*
X547614Y700499D1*
X543764Y708055D1*
X541143Y716122D1*
X539816Y724500D1*
Y732980D1*
X541143Y741358D1*
X543764Y749425D1*
X547614Y756982D1*
X552600Y763844D1*
X556686Y768075D1*
X552600Y772377D1*
X547614Y779239D1*
X543764Y786795D1*
X541143Y794862D1*
X539816Y803240D1*
Y811720D1*
X541143Y820098D1*
X543764Y828165D1*
X547614Y835722D1*
X552600Y842584D1*
X556686Y846815D1*
X552600Y851117D1*
X547614Y857979D1*
X543764Y865535D1*
X541143Y873602D1*
X539816Y881980D1*
Y890461D1*
X541143Y898839D1*
X543764Y906906D1*
X547614Y914462D1*
X552600Y921324D1*
X556686Y925555D1*
X552600Y929857D1*
X547614Y936719D1*
X543764Y944276D1*
X541143Y952343D1*
X539816Y960720D1*
Y969201D1*
X541143Y977579D1*
X543764Y985646D1*
X545630Y989659D1*
X539650Y989650D1*
Y1097752D1*
X548836D1*
X2091819Y1604921D2*
X2087430Y1599971D1*
X2080051Y1593668D1*
X2071777Y1588597D1*
X2062811Y1584883D1*
X2053375Y1582618D1*
X2043701Y1581857D1*
X2034026Y1582618D1*
X2024591Y1584883D1*
X2015625Y1588597D1*
X2007350Y1593668D1*
X1999971Y1599971D1*
X1993668Y1607350D1*
X1988597Y1615625D1*
X1984883Y1624591D1*
X1982618Y1634026D1*
X1981857Y1643701D1*
X1982618Y1653375D1*
X1984883Y1662811D1*
X1988597Y1671777D1*
X1993668Y1680051D1*
X1999971Y1687430D1*
X2004921Y1691819D1*
X532567Y1691831D1*
X537430Y1687430D1*
X543734Y1680051D1*
X548804Y1671777D1*
X552518Y1662811D1*
X554783Y1653375D1*
X555545Y1643701D1*
X554783Y1634026D1*
X552518Y1624591D1*
X548804Y1615625D1*
X543734Y1607350D1*
X537430Y1599971D1*
X530051Y1593668D1*
X521777Y1588597D1*
X512811Y1584883D1*
X503375Y1582618D1*
X493701Y1581857D1*
X484026Y1582618D1*
X474591Y1584883D1*
X465625Y1588597D1*
X457350Y1593668D1*
X449971Y1599971D1*
X445583Y1604921D1*
X445571Y532533D1*
X449971Y537430D1*
X457350Y543734D1*
X465625Y548804D1*
X474591Y552518D1*
X484026Y554783D1*
X493701Y555545D1*
X503375Y554783D1*
X512811Y552518D1*
X521777Y548804D1*
X530051Y543734D1*
X537430Y537430D1*
X543734Y530051D1*
X548804Y521777D1*
X552518Y512811D1*
X554783Y503375D1*
X555545Y493701D1*
X554783Y484026D1*
X552518Y474591D1*
X548804Y465625D1*
X543734Y457350D1*
X537430Y449971D1*
X532480Y445583D1*
X2004835Y445571D1*
X1999971Y449971D1*
X1993668Y457350D1*
X1988597Y465625D1*
X1984883Y474591D1*
X1982618Y484026D1*
X1981857Y493701D1*
X1982618Y503375D1*
X1984883Y512811D1*
X1988597Y521777D1*
X1993668Y530051D1*
X1999971Y537430D1*
X2007350Y543734D1*
X2015625Y548804D1*
X2024591Y552518D1*
X2034026Y554783D1*
X2043701Y555545D1*
X2053375Y554783D1*
X2062811Y552518D1*
X2071777Y548804D1*
X2080051Y543734D1*
X2087430Y537430D1*
X2091819Y532480D1*
X2091831Y1604869D1*
X849547Y1339306D2*
X848173Y1330623D1*
X845457Y1322262D1*
X841466Y1314430D1*
X836298Y1307319D1*
X830083Y1301104D1*
X822971Y1295936D1*
X815139Y1291945D1*
X806778Y1289228D1*
X798096Y1287854D1*
X789306D1*
X780623Y1289228D1*
X772262Y1291945D1*
X764430Y1295936D1*
X757319Y1301104D1*
X751104Y1307319D1*
X745936Y1314430D1*
X741945Y1322262D1*
X739228Y1330623D1*
X737854Y1339306D1*
Y1348096D1*
X739228Y1356778D1*
X741945Y1365139D1*
X745936Y1372971D1*
X751104Y1380083D1*
X757319Y1386298D1*
X764430Y1391466D1*
X772262Y1395457D1*
X780623Y1398173D1*
X789306Y1399547D1*
X798096D1*
X806778Y1398173D1*
X815139Y1395457D1*
X822971Y1391466D1*
X830083Y1386298D1*
X836298Y1380083D1*
X841466Y1372971D1*
X845457Y1365139D1*
X848173Y1356778D1*
X849547Y1348096D1*
Y1339306D1*
X749547Y1239306D2*
X748173Y1230623D1*
X745457Y1222262D1*
X741466Y1214430D1*
X736298Y1207319D1*
X730083Y1201104D1*
X722971Y1195936D1*
X715139Y1191945D1*
X706778Y1189228D1*
X698096Y1187854D1*
X689306D1*
X680623Y1189228D1*
X672262Y1191945D1*
X664430Y1195936D1*
X657319Y1201104D1*
X651104Y1207319D1*
X645936Y1214430D1*
X641945Y1222262D1*
X639228Y1230623D1*
X637854Y1239306D1*
Y1248096D1*
X639228Y1256778D1*
X641945Y1265139D1*
X645936Y1272971D1*
X651104Y1280083D1*
X657319Y1286298D1*
X664430Y1291466D1*
X672262Y1295457D1*
X680623Y1298173D1*
X689306Y1299547D1*
X698096D1*
X706778Y1298173D1*
X715139Y1295457D1*
X722971Y1291466D1*
X730083Y1286298D1*
X736298Y1280083D1*
X741466Y1272971D1*
X745457Y1265139D1*
X748173Y1256778D1*
X749547Y1248096D1*
Y1239306D1*
X649547Y1339306D2*
X648173Y1330623D1*
X645457Y1322262D1*
X641466Y1314430D1*
X636298Y1307319D1*
X630083Y1301104D1*
X622971Y1295936D1*
X615139Y1291945D1*
X606778Y1289228D1*
X598096Y1287854D1*
X589306D1*
X580623Y1289228D1*
X572262Y1291945D1*
X564430Y1295936D1*
X557319Y1301104D1*
X551104Y1307319D1*
X545936Y1314430D1*
X541945Y1322262D1*
X539228Y1330623D1*
X537854Y1339306D1*
Y1348096D1*
X539228Y1356778D1*
X541945Y1365139D1*
X545936Y1372971D1*
X551104Y1380083D1*
X557319Y1386298D1*
X564430Y1391466D1*
X572262Y1395457D1*
X580623Y1398173D1*
X589306Y1399547D1*
X598096D1*
X606778Y1398173D1*
X615139Y1395457D1*
X622971Y1391466D1*
X630083Y1386298D1*
X636298Y1380083D1*
X641466Y1372971D1*
X645457Y1365139D1*
X648173Y1356778D1*
X649547Y1348096D1*
Y1339306D1*
D17*
X593701Y1464961D3*
D18*
Y1543701D3*
D19*
X1193701Y1093701D3*
D20*
X758661D3*
D19*
X1793701Y1193701D3*
D20*
X1358661D3*
D19*
X1943701Y943701D3*
D20*
X1508661D3*
D17*
X593701Y1043701D3*
D18*
Y964961D3*
Y886220D3*
Y807480D3*
Y728740D3*
Y650000D3*
Y571260D3*
D21*
X990530Y637121D3*
D22*
X890530D3*
X790530D3*
D21*
X1441282Y636369D3*
D22*
X1341282D3*
X1241282D3*
D21*
X1890530Y635241D3*
D22*
X1790530D3*
X1690530D3*
D23*
X1943701Y1043701D3*
X1793701Y1293701D3*
X1193701Y1193701D3*
X793701Y1343701D3*
X693701Y1243701D3*
X593701Y1343701D3*
M02*
