M48
INCH
T01C0.0315
T02C0.0354
T03C0.0433
T04C0.0472
T05C0.0492
%
T01
X+005937Y+014650
X+005937Y+015437
T04
X+011937Y+010937
X+007587Y+010937
X+017937Y+011937
X+013587Y+011937
X+019437Y+009437
X+015087Y+009437
T01
X+005937Y+010437
X+005937Y+009650
X+005937Y+008862
X+005937Y+008075
X+005937Y+007287
X+005937Y+006500
X+005937Y+005713
T05
X+020437Y+016437
X+004937Y+016437
X+004937Y+004937
X+020437Y+004937
T03
X+009905Y+006371
X+008905Y+006371
X+007905Y+006371
X+014413Y+006364
X+013413Y+006364
X+012413Y+006364
X+018905Y+006352
X+017905Y+006352
X+016905Y+006352
T02
X+019437Y+010437
X+017937Y+012937
X+011937Y+011937
X+007937Y+013437
X+006937Y+012437
X+005937Y+013437
T00
M30
