G04 DipTrace 3.2.0.1*
G04 Top.gtl*
%MOIN*%
G04 #@! TF.FileFunction,Copper,L1,Top*
G04 #@! TF.Part,Single*
G04 #@! TA.AperFunction,Conductor*
%ADD14C,0.012992*%
%ADD15C,0.031496*%
G04 #@! TA.AperFunction,CopperBalancing*
%ADD16C,0.025*%
G04 #@! TA.AperFunction,ComponentPad*
%ADD17R,0.055118X0.055118*%
%ADD18C,0.055118*%
%ADD19R,0.070866X0.070866*%
%ADD20C,0.070866*%
%ADD21R,0.074803X0.074803*%
%ADD22C,0.074803*%
%ADD23C,0.059055*%
%FSLAX26Y26*%
G04*
G70*
G90*
G75*
G01*
G04 Top*
%LPD*%
X1890530Y635241D2*
D14*
Y746871D1*
X1814201Y823201D1*
X593701D1*
Y807480D1*
X1793701Y1193701D2*
D15*
Y1293701D1*
X1193701Y1193701D2*
Y1343701D1*
X1072441Y1464961D1*
X796846D1*
X593701D1*
Y1343701D1*
X793701D1*
Y1293701D1*
X743701Y1243701D1*
X693701D1*
X643701D1*
X593701Y1293701D1*
Y1343701D1*
D14*
X793701D1*
X796846Y1464961D2*
D15*
Y1346846D1*
D14*
X793701Y1343701D1*
X1193701Y1093701D2*
D15*
Y1193701D1*
X1793701Y1293701D2*
X1743701Y1343701D1*
X1193701D1*
X1793701Y1193701D2*
X1943701Y1043701D1*
Y943701D2*
Y1043701D1*
X1441282Y636369D2*
D14*
Y696119D1*
X1393701Y743701D1*
X608661D1*
X593701Y728740D1*
X758661Y1093701D2*
X643701D1*
X593701Y1043701D1*
X990530Y637121D2*
Y667718D1*
X1019684D1*
X1077573Y609828D1*
Y569168D1*
X1026921Y518517D1*
X768885D1*
X637402Y650000D1*
X593701D1*
X1358661Y1193701D2*
Y1069161D1*
X1281953Y992453D1*
X656778D1*
X632693Y968367D1*
X590294D1*
X593701Y964961D1*
X1508661Y943701D2*
X1493701D1*
X1453726Y903726D1*
X593701D1*
Y886220D1*
X553517Y1666962D2*
D16*
X1983884D1*
X558038Y1642093D2*
X1979363D1*
X552081Y1617224D2*
X1985319D1*
X448089Y1592356D2*
X456747D1*
X530658D2*
X2006742D1*
X2080676D2*
X2089348D1*
X448089Y1567487D2*
X2089348D1*
X448089Y1542618D2*
X2089348D1*
X448089Y1517749D2*
X537141D1*
X650260D2*
X2089348D1*
X448089Y1492881D2*
X537141D1*
X1106743D2*
X2089348D1*
X448089Y1468012D2*
X537141D1*
X1131611D2*
X2089348D1*
X448089Y1443143D2*
X537141D1*
X1156479D2*
X2089348D1*
X448089Y1418274D2*
X537141D1*
X650260D2*
X752123D1*
X841595D2*
X1056888D1*
X1181346D2*
X2089348D1*
X448089Y1393406D2*
X548947D1*
X638454D2*
X752123D1*
X841595D2*
X1081756D1*
X1206250D2*
X2089348D1*
X448089Y1368537D2*
X540981D1*
X846403D2*
X1106623D1*
X1781115D2*
X2089348D1*
X448089Y1343668D2*
X535168D1*
X852217D2*
X1131491D1*
X1821520D2*
X2089348D1*
X448089Y1318799D2*
X541017D1*
X846367D2*
X1148967D1*
X1846280D2*
X2089348D1*
X448089Y1293930D2*
X548947D1*
X655715D2*
X666396D1*
X720988D2*
X731705D1*
X838437D2*
X1148967D1*
X1238438D2*
X1731223D1*
X1852237D2*
X2089348D1*
X448089Y1269062D2*
X556878D1*
X830507D2*
X1148967D1*
X1238438D2*
X1740876D1*
X1846496D2*
X2089348D1*
X448089Y1244193D2*
X580956D1*
X806428D2*
X1148967D1*
X1238438D2*
X1320314D1*
X1397010D2*
X1729286D1*
X1858122D2*
X2089348D1*
X448089Y1219324D2*
X605824D1*
X781561D2*
X1141395D1*
X1246010D2*
X1299788D1*
X1417536D2*
X1729286D1*
X1858122D2*
X2089348D1*
X448089Y1194455D2*
X664494D1*
X722890D2*
X1135187D1*
X1252218D2*
X1294226D1*
X1423098D2*
X1729286D1*
X1858122D2*
X2089348D1*
X448089Y1169587D2*
X1140642D1*
X1246763D2*
X1299142D1*
X1418182D2*
X1729286D1*
X1880047D2*
X2089348D1*
X448089Y1144718D2*
X721048D1*
X796273D2*
X1129266D1*
X1258138D2*
X1318268D1*
X1399056D2*
X1729286D1*
X1904915D2*
X2089348D1*
X448089Y1119849D2*
X621074D1*
X817301D2*
X1129266D1*
X1258138D2*
X1323184D1*
X1394139D2*
X1805324D1*
X1929783D2*
X2089348D1*
X448089Y1094980D2*
X537141D1*
X823079D2*
X1129266D1*
X1258138D2*
X1323184D1*
X1394139D2*
X1830192D1*
X1968753D2*
X2089348D1*
X448089Y1070112D2*
X537141D1*
X818414D2*
X1129266D1*
X1258138D2*
X1310445D1*
X1394139D2*
X1855060D1*
X1995594D2*
X2089348D1*
X448089Y1045243D2*
X537141D1*
X650260D2*
X717603D1*
X799718D2*
X1129266D1*
X1258138D2*
X1285578D1*
X1383913D2*
X1879928D1*
X2002197D2*
X2089348D1*
X448089Y1020374D2*
X537141D1*
X1359009D2*
X1890262D1*
X1997137D2*
X2089348D1*
X448089Y995505D2*
X537141D1*
X1334141D2*
X1472247D1*
X1545104D2*
X1879282D1*
X2008118D2*
X2089348D1*
X448089Y970636D2*
X537464D1*
X1309273D2*
X1450394D1*
X1566922D2*
X1879282D1*
X2008118D2*
X2089348D1*
X448089Y945768D2*
X540658D1*
X659231D2*
X1444258D1*
X1573058D2*
X1879282D1*
X2008118D2*
X2089348D1*
X448089Y920899D2*
X549737D1*
X1568752D2*
X1879282D1*
X2008118D2*
X2089348D1*
X448089Y896030D2*
X538038D1*
X1550702D2*
X1879282D1*
X2008118D2*
X2089348D1*
X448089Y871161D2*
X539294D1*
X1461494D2*
X2089348D1*
X448089Y846293D2*
X553576D1*
X1840252D2*
X2089348D1*
X448089Y821424D2*
X538971D1*
X1865119D2*
X2089348D1*
X448089Y796555D2*
X538254D1*
X1889987D2*
X2089348D1*
X448089Y771686D2*
X550705D1*
X1413660D2*
X1816556D1*
X1914855D2*
X2089348D1*
X448089Y746818D2*
X540263D1*
X1439748D2*
X1841424D1*
X1926015D2*
X2089348D1*
X448089Y721949D2*
X537572D1*
X1464616D2*
X1855060D1*
X1926015D2*
X2089348D1*
X448089Y697080D2*
X547404D1*
X639997D2*
X865948D1*
X915121D2*
X924152D1*
X1056936D2*
X1318878D1*
X1363710D2*
X1374893D1*
X1507677D2*
X1771952D1*
X1809104D2*
X1824128D1*
X1956911D2*
X2089348D1*
X448089Y672211D2*
X541914D1*
X664327D2*
X834621D1*
X1064328D2*
X1285901D1*
X1507677D2*
X1735924D1*
X1956911D2*
X2089348D1*
X448089Y647343D2*
X537213D1*
X689195D2*
X824968D1*
X1089196D2*
X1275853D1*
X1507677D2*
X1725303D1*
X1956911D2*
X2089348D1*
X448089Y622474D2*
X544677D1*
X714062D2*
X825830D1*
X1110547D2*
X1276427D1*
X1507677D2*
X1725410D1*
X1956911D2*
X2089348D1*
X448089Y597605D2*
X577906D1*
X609496D2*
X640631D1*
X738966D2*
X837815D1*
X1113059D2*
X1287982D1*
X1507677D2*
X1736391D1*
X1956911D2*
X2089348D1*
X448089Y572736D2*
X665499D1*
X763834D2*
X1031984D1*
X1113059D2*
X1333017D1*
X1349535D2*
X1374893D1*
X1507677D2*
X1774787D1*
X1806269D2*
X1824128D1*
X1956911D2*
X2089348D1*
X448089Y547867D2*
X461336D1*
X526029D2*
X690367D1*
X1105272D2*
X2011371D1*
X2076047D2*
X2089348D1*
X550682Y522999D2*
X715234D1*
X1080548D2*
X1986755D1*
X557894Y498130D2*
X740102D1*
X1055680D2*
X1979506D1*
X554557Y473261D2*
X1982843D1*
X538302Y448392D2*
X1999099D1*
X548836Y1519012D2*
X647752D1*
Y1507206D1*
X1075755Y1507071D1*
X1082302Y1506034D1*
X1088606Y1503986D1*
X1094511Y1500976D1*
X1099874Y1497080D1*
X1128292Y1468846D1*
X1211189Y1385949D1*
X1747015Y1385811D1*
X1753562Y1384774D1*
X1759865Y1382726D1*
X1765771Y1379717D1*
X1771134Y1375821D1*
X1797548Y1349591D1*
X1806778Y1348173D1*
X1815139Y1345456D1*
X1822971Y1341465D1*
X1830083Y1336298D1*
X1836298Y1330083D1*
X1841465Y1322971D1*
X1845456Y1315139D1*
X1848173Y1306778D1*
X1849548Y1298096D1*
Y1289306D1*
X1848173Y1280623D1*
X1845456Y1272263D1*
X1841465Y1264431D1*
X1836298Y1257319D1*
X1835937Y1256928D1*
X1842012Y1255626D1*
X1855626D1*
Y1191501D1*
X1947572Y1099567D1*
X1952464Y1099031D1*
X1961012Y1096979D1*
X1969133Y1093615D1*
X1976628Y1089022D1*
X1983313Y1083313D1*
X1989022Y1076628D1*
X1993615Y1069133D1*
X1996979Y1061012D1*
X1999031Y1052464D1*
X1999720Y1043701D1*
X1999031Y1034937D1*
X1996979Y1026390D1*
X1993615Y1018268D1*
X1989022Y1010773D1*
X1985937Y1006928D1*
X1992012Y1005626D1*
X2005626D1*
Y881776D1*
X1881776D1*
Y1005626D1*
X1901476D1*
X1901103Y1007319D1*
X1895936Y1014431D1*
X1891945Y1022263D1*
X1889229Y1030623D1*
X1887854Y1039306D1*
X1887833Y1039838D1*
X1795869Y1131796D1*
X1731776Y1131776D1*
Y1255626D1*
X1751476D1*
X1751103Y1257319D1*
X1745936Y1264431D1*
X1741945Y1272263D1*
X1739229Y1280623D1*
X1737854Y1289306D1*
X1737833Y1289838D1*
X1726203Y1301462D1*
X1235975Y1301461D1*
X1235941Y1230486D1*
X1241465Y1222971D1*
X1245456Y1215139D1*
X1248173Y1206778D1*
X1249548Y1198096D1*
Y1189306D1*
X1248173Y1180623D1*
X1245456Y1172263D1*
X1241465Y1164431D1*
X1236298Y1157319D1*
X1235937Y1156928D1*
X1242012Y1155626D1*
X1255626D1*
Y1031776D1*
X1131776D1*
Y1155626D1*
X1151476D1*
X1151103Y1157319D1*
X1145936Y1164431D1*
X1141945Y1172263D1*
X1139229Y1180623D1*
X1137854Y1189306D1*
Y1198096D1*
X1139229Y1206778D1*
X1141945Y1215139D1*
X1145936Y1222971D1*
X1151103Y1230083D1*
X1151465Y1230474D1*
X1151461Y1326221D1*
X1054953Y1422712D1*
X839086Y1422720D1*
X839087Y1376506D1*
X843615Y1369133D1*
X846979Y1361012D1*
X849031Y1352464D1*
X849720Y1343701D1*
X849031Y1334937D1*
X846979Y1326390D1*
X843615Y1318268D1*
X839022Y1310773D1*
X835937Y1306928D1*
X835811Y1290387D1*
X834774Y1283840D1*
X832726Y1277536D1*
X829717Y1271630D1*
X825821Y1266268D1*
X797586Y1237850D1*
X771134Y1211581D1*
X765771Y1207685D1*
X759865Y1204676D1*
X753562Y1202628D1*
X747015Y1201591D1*
X730531Y1201461D1*
X722971Y1195936D1*
X715139Y1191945D1*
X706778Y1189229D1*
X698096Y1187854D1*
X689306D1*
X680623Y1189229D1*
X672263Y1191945D1*
X664431Y1195936D1*
X657319Y1201103D1*
X656928Y1201465D1*
X640387Y1201591D1*
X633840Y1202628D1*
X627536Y1204676D1*
X621630Y1207685D1*
X616268Y1211581D1*
X587850Y1239815D1*
X561581Y1266268D1*
X557685Y1271630D1*
X554676Y1277536D1*
X552628Y1283840D1*
X551591Y1290387D1*
X551461Y1306870D1*
X545936Y1314431D1*
X541945Y1322263D1*
X539229Y1330623D1*
X537854Y1339306D1*
Y1348096D1*
X539229Y1356778D1*
X541945Y1365139D1*
X545936Y1372971D1*
X551103Y1380083D1*
X551465Y1380474D1*
X551460Y1410912D1*
X539650Y1410909D1*
Y1519012D1*
X548836D1*
X647752Y1422735D2*
Y1410909D1*
X635946D1*
X635941Y1385908D1*
X754641Y1385941D1*
X754606Y1422742D1*
X647748Y1422720D1*
X820396Y1088842D2*
X818876Y1079245D1*
X815873Y1070003D1*
X811461Y1061345D1*
X805750Y1053484D1*
X798879Y1046612D1*
X791017Y1040901D1*
X782359Y1036489D1*
X773118Y1033487D1*
X763520Y1031966D1*
X753803D1*
X744205Y1033487D1*
X734964Y1036489D1*
X726306Y1040901D1*
X718444Y1046612D1*
X711573Y1053484D1*
X706294Y1060697D1*
X657360Y1060712D1*
X647768Y1051116D1*
X647752Y1024153D1*
X651618Y1025035D1*
X656788Y1025441D1*
X1268281D1*
X1325690Y1082842D1*
X1325673Y1141325D1*
X1318444Y1146612D1*
X1311573Y1153484D1*
X1305862Y1161345D1*
X1301450Y1170003D1*
X1298447Y1179245D1*
X1296927Y1188842D1*
Y1198559D1*
X1298447Y1208157D1*
X1301450Y1217399D1*
X1305862Y1226057D1*
X1311573Y1233918D1*
X1318444Y1240789D1*
X1326306Y1246501D1*
X1334964Y1250912D1*
X1344205Y1253915D1*
X1353803Y1255435D1*
X1363520D1*
X1373118Y1253915D1*
X1382359Y1250912D1*
X1391017Y1246501D1*
X1398879Y1240789D1*
X1405750Y1233918D1*
X1411461Y1226057D1*
X1415873Y1217399D1*
X1418876Y1208157D1*
X1420396Y1198559D1*
Y1188842D1*
X1418876Y1179245D1*
X1415873Y1170003D1*
X1411461Y1161345D1*
X1405750Y1153484D1*
X1398879Y1146612D1*
X1391665Y1141334D1*
X1391548Y1066573D1*
X1390738Y1061460D1*
X1389139Y1056537D1*
X1386789Y1051925D1*
X1383746Y1047737D1*
X1336518Y1000365D1*
X1303377Y967368D1*
X1299189Y964326D1*
X1294577Y961976D1*
X1289654Y960376D1*
X1284541Y959566D1*
X1217648Y959465D1*
X670450D1*
X654117Y943283D1*
X649929Y940240D1*
X645317Y937890D1*
X642877Y936991D1*
X658005Y936714D1*
X1440029D1*
X1446736Y943701D1*
X1447499Y953388D1*
X1449767Y962837D1*
X1453486Y971814D1*
X1458563Y980100D1*
X1464874Y987489D1*
X1472263Y993799D1*
X1480548Y998877D1*
X1489525Y1002595D1*
X1498974Y1004864D1*
X1508661Y1005626D1*
X1518349Y1004864D1*
X1527797Y1002595D1*
X1536775Y998877D1*
X1545060Y993799D1*
X1552449Y987489D1*
X1558760Y980100D1*
X1563837Y971814D1*
X1567556Y962837D1*
X1569824Y953388D1*
X1570587Y943701D1*
X1569824Y934014D1*
X1567556Y924565D1*
X1563837Y915587D1*
X1558760Y907302D1*
X1552449Y899913D1*
X1545060Y893602D1*
X1536775Y888525D1*
X1527797Y884806D1*
X1518349Y882538D1*
X1508661Y881776D1*
X1498974Y882538D1*
X1489525Y884806D1*
X1483705Y887070D1*
X1475150Y878641D1*
X1470962Y875599D1*
X1466350Y873249D1*
X1461427Y871649D1*
X1456314Y870839D1*
X1389421Y870737D1*
X645506D1*
X643638Y865536D1*
X639787Y857979D1*
X638599Y856201D1*
X1816789Y856087D1*
X1821902Y855278D1*
X1826825Y853678D1*
X1831437Y851328D1*
X1835625Y848285D1*
X1882997Y801057D1*
X1915615Y768296D1*
X1918657Y764108D1*
X1921007Y759495D1*
X1922607Y754572D1*
X1923417Y749460D1*
X1923518Y699110D1*
X1954424Y699135D1*
Y571348D1*
X1826637D1*
Y582508D1*
X1819537Y578312D1*
X1810274Y574475D1*
X1800525Y572134D1*
X1790530Y571348D1*
X1780535Y572134D1*
X1770786Y574475D1*
X1761523Y578312D1*
X1752974Y583550D1*
X1745351Y590062D1*
X1738839Y597686D1*
X1733600Y606234D1*
X1729764Y615497D1*
X1727423Y625246D1*
X1726636Y635241D1*
X1727423Y645237D1*
X1729764Y654986D1*
X1733600Y664249D1*
X1738839Y672797D1*
X1745351Y680421D1*
X1752974Y686933D1*
X1761523Y692171D1*
X1770786Y696008D1*
X1780535Y698349D1*
X1790530Y699135D1*
X1800525Y698349D1*
X1810274Y696008D1*
X1819537Y692171D1*
X1826636Y687902D1*
X1826637Y699135D1*
X1857533D1*
X1857542Y733241D1*
X1800547Y790203D1*
X644915Y790213D1*
X641861Y782942D1*
X638083Y776689D1*
X1396289Y776587D1*
X1401402Y775778D1*
X1406325Y774178D1*
X1410937Y771828D1*
X1415125Y768785D1*
X1462497Y721557D1*
X1466367Y717544D1*
X1469409Y713356D1*
X1471759Y708743D1*
X1473359Y703820D1*
X1473865Y701270D1*
X1478438Y700262D1*
X1505176D1*
Y572475D1*
X1377389D1*
Y583635D1*
X1370289Y579439D1*
X1361026Y575602D1*
X1351277Y573262D1*
X1341282Y572475D1*
X1331287Y573262D1*
X1321538Y575602D1*
X1312275Y579439D1*
X1303726Y584678D1*
X1296102Y591189D1*
X1289591Y598813D1*
X1284352Y607362D1*
X1280516Y616625D1*
X1278175Y626374D1*
X1277388Y636369D1*
X1278175Y646364D1*
X1280516Y656113D1*
X1284352Y665376D1*
X1289591Y673925D1*
X1296102Y681548D1*
X1303726Y688060D1*
X1312275Y693298D1*
X1321538Y697135D1*
X1331287Y699476D1*
X1341282Y700262D1*
X1351277Y699476D1*
X1361026Y697135D1*
X1370289Y693298D1*
X1377388Y689029D1*
X1377389Y700262D1*
X1390486D1*
X1380022Y710727D1*
X644690Y710712D1*
X641861Y704201D1*
X637429Y696970D1*
X631921Y690520D1*
X630716Y689406D1*
X636475Y682981D1*
X642562Y682582D1*
X647595Y681374D1*
X652378Y679393D1*
X656792Y676688D1*
X660735Y673319D1*
X782548Y551506D1*
X1013292Y551505D1*
X1034983Y573231D1*
X926637Y573227D1*
Y584387D1*
X919537Y580191D1*
X910274Y576354D1*
X900525Y574014D1*
X890530Y573227D1*
X880535Y574014D1*
X870786Y576354D1*
X861523Y580191D1*
X852974Y585430D1*
X845351Y591941D1*
X838839Y599565D1*
X833600Y608114D1*
X829764Y617376D1*
X827423Y627126D1*
X826636Y637121D1*
X827423Y647116D1*
X829764Y656865D1*
X833600Y666128D1*
X838839Y674677D1*
X845351Y682300D1*
X852974Y688812D1*
X861523Y694050D1*
X870786Y697887D1*
X880535Y700228D1*
X890530Y701014D1*
X900525Y700228D1*
X910274Y697887D1*
X919537Y694050D1*
X926636Y689781D1*
X926637Y701014D1*
X1054424D1*
Y679663D1*
X1102658Y631252D1*
X1105701Y627064D1*
X1108051Y622452D1*
X1109650Y617529D1*
X1110460Y612416D1*
X1110562Y569168D1*
X1110155Y564007D1*
X1108947Y558974D1*
X1106966Y554191D1*
X1104261Y549778D1*
X1100899Y545841D1*
X1048345Y493433D1*
X1044158Y490390D1*
X1039545Y488040D1*
X1034622Y486440D1*
X1029509Y485631D1*
X962617Y485529D1*
X766296Y485631D1*
X761184Y486440D1*
X756260Y488040D1*
X751648Y490390D1*
X747460Y493433D1*
X700088Y540661D1*
X630437Y610312D1*
X625471Y606272D1*
X618240Y601840D1*
X610404Y598594D1*
X602156Y596614D1*
X593701Y595949D1*
X585245Y596614D1*
X576998Y598594D1*
X569162Y601840D1*
X561930Y606272D1*
X555481Y611780D1*
X549972Y618230D1*
X545541Y625461D1*
X542295Y633297D1*
X540315Y641545D1*
X539650Y650000D1*
X540315Y658455D1*
X542295Y666703D1*
X545541Y674539D1*
X549972Y681770D1*
X555481Y688220D1*
X556686Y689334D1*
X552600Y693637D1*
X547615Y700498D1*
X543764Y708056D1*
X541143Y716122D1*
X539816Y724499D1*
Y732981D1*
X541143Y741358D1*
X543764Y749425D1*
X547615Y756982D1*
X552600Y763844D1*
X556686Y768074D1*
X552600Y772377D1*
X547615Y779239D1*
X543764Y786796D1*
X541143Y794862D1*
X539816Y803240D1*
Y811721D1*
X541143Y820098D1*
X543764Y828165D1*
X547615Y835722D1*
X552600Y842584D1*
X556686Y846814D1*
X552600Y851117D1*
X547615Y857979D1*
X543764Y865536D1*
X541143Y873602D1*
X539816Y881980D1*
Y890461D1*
X541143Y898838D1*
X543764Y906905D1*
X547615Y914462D1*
X552600Y921324D1*
X556686Y925555D1*
X552600Y929857D1*
X547615Y936719D1*
X543764Y944276D1*
X541143Y952343D1*
X539816Y960720D1*
Y969201D1*
X541143Y977579D1*
X543764Y985645D1*
X545630Y989658D1*
X539650Y989650D1*
Y1097752D1*
X601119D1*
X622277Y1118785D1*
X626464Y1121828D1*
X631077Y1124178D1*
X636000Y1125778D1*
X641113Y1126587D1*
X706247Y1126689D1*
X711573Y1133918D1*
X718444Y1140789D1*
X726306Y1146501D1*
X734964Y1150912D1*
X744205Y1153915D1*
X753803Y1155435D1*
X763520D1*
X773118Y1153915D1*
X782359Y1150912D1*
X791017Y1146501D1*
X798879Y1140789D1*
X805750Y1133918D1*
X811461Y1126057D1*
X815873Y1117399D1*
X818876Y1108157D1*
X820396Y1098559D1*
Y1088842D1*
X2091819Y1604922D2*
X2087431Y1599971D1*
X2080052Y1593668D1*
X2071777Y1588598D1*
X2062812Y1584884D1*
X2053375Y1582618D1*
X2043701Y1581857D1*
X2034026Y1582618D1*
X2024590Y1584884D1*
X2015624Y1588598D1*
X2007350Y1593668D1*
X1999971Y1599971D1*
X1993668Y1607350D1*
X1988598Y1615624D1*
X1984884Y1624590D1*
X1982618Y1634026D1*
X1981857Y1643701D1*
X1982618Y1653375D1*
X1984884Y1662812D1*
X1988598Y1671777D1*
X1993668Y1680052D1*
X1999971Y1687431D1*
X2004922Y1691819D1*
X532567Y1691831D1*
X537431Y1687431D1*
X543733Y1680052D1*
X548804Y1671777D1*
X552518Y1662812D1*
X554783Y1653375D1*
X555545Y1643701D1*
X554783Y1634026D1*
X552518Y1624590D1*
X548804Y1615624D1*
X543733Y1607350D1*
X537431Y1599971D1*
X530052Y1593668D1*
X521777Y1588598D1*
X512812Y1584884D1*
X503375Y1582618D1*
X493701Y1581857D1*
X484026Y1582618D1*
X474590Y1584884D1*
X465624Y1588598D1*
X457350Y1593668D1*
X449971Y1599971D1*
X445582Y1604922D1*
X445571Y532533D1*
X449971Y537431D1*
X457350Y543733D1*
X465624Y548804D1*
X474590Y552518D1*
X484026Y554783D1*
X493701Y555545D1*
X503375Y554783D1*
X512812Y552518D1*
X521777Y548804D1*
X530052Y543733D1*
X537431Y537431D1*
X543733Y530052D1*
X548804Y521777D1*
X552518Y512812D1*
X554783Y503375D1*
X555545Y493701D1*
X554783Y484026D1*
X552518Y474590D1*
X548804Y465624D1*
X543733Y457350D1*
X537431Y449971D1*
X532480Y445582D1*
X2004834Y445571D1*
X1999971Y449971D1*
X1993668Y457350D1*
X1988598Y465624D1*
X1984884Y474590D1*
X1982618Y484026D1*
X1981857Y493701D1*
X1982618Y503375D1*
X1984884Y512812D1*
X1988598Y521777D1*
X1993668Y530052D1*
X1999971Y537431D1*
X2007350Y543733D1*
X2015624Y548804D1*
X2024590Y552518D1*
X2034026Y554783D1*
X2043701Y555545D1*
X2053375Y554783D1*
X2062812Y552518D1*
X2071777Y548804D1*
X2080052Y543733D1*
X2087431Y537431D1*
X2091819Y532480D1*
X2091831Y1604869D1*
X659275Y1287841D2*
X664431Y1291465D1*
X672263Y1295456D1*
X680623Y1298173D1*
X689306Y1299548D1*
X698096D1*
X706778Y1298173D1*
X715139Y1295456D1*
X722971Y1291465D1*
X728126Y1287841D1*
X741718Y1301455D1*
X645679Y1301460D1*
X659270Y1287868D1*
D17*
X593701Y1464961D3*
D18*
Y1543701D3*
D19*
X1193701Y1093701D3*
D20*
X758661D3*
D19*
X1793701Y1193701D3*
D20*
X1358661D3*
D19*
X1943701Y943701D3*
D20*
X1508661D3*
D17*
X593701Y1043701D3*
D18*
Y964961D3*
Y886220D3*
Y807480D3*
Y728740D3*
Y650000D3*
Y571260D3*
D21*
X990530Y637121D3*
D22*
X890530D3*
X790530D3*
D21*
X1441282Y636369D3*
D22*
X1341282D3*
X1241282D3*
D21*
X1890530Y635241D3*
D22*
X1790530D3*
X1690530D3*
D23*
X1943701Y1043701D3*
X1793701Y1293701D3*
X1193701Y1193701D3*
X793701Y1343701D3*
X693701Y1243701D3*
X593701Y1343701D3*
M02*
