G04 DipTrace 3.2.0.1*
G04 TopSilk.gto*
%MOIN*%
G04 #@! TF.FileFunction,Legend,Top*
G04 #@! TF.Part,Single*
%ADD10C,0.009843*%
%ADD41C,0.00772*%
%FSLAX26Y26*%
G04*
G70*
G90*
G75*
G01*
G04 TopSilk*
%LPD*%
X550394Y1425591D2*
D10*
Y1583071D1*
X637008Y1425591D2*
Y1583071D1*
X550394Y1425591D2*
X637008D1*
X550394Y1583071D2*
X637008D1*
X1070785Y1148819D2*
Y1038583D1*
X1068762D2*
X883600D1*
X1040937Y1148819D2*
Y1038583D1*
X883600Y1148819D2*
Y1038583D1*
X1068762Y1148819D2*
X883600D1*
X1670785Y1248819D2*
Y1138583D1*
X1668762D2*
X1483600D1*
X1640937Y1248819D2*
Y1138583D1*
X1483600Y1248819D2*
Y1138583D1*
X1668762Y1248819D2*
X1483600D1*
X1820785Y998819D2*
Y888583D1*
X1818762D2*
X1633600D1*
X1790937Y998819D2*
Y888583D1*
X1633600Y998819D2*
Y888583D1*
X1818762Y998819D2*
X1633600D1*
X637008Y1083071D2*
Y531890D1*
X550394Y1083071D2*
Y531890D1*
X637008Y1083071D2*
X550394D1*
X637008Y531890D2*
X550394D1*
X1087381Y530822D2*
X693680D1*
Y707987D1*
X1087381D1*
Y530822D1*
Y566255D2*
X693680D1*
X1538133Y530070D2*
X1144432D1*
Y707235D1*
X1538133D1*
Y530070D1*
Y565503D2*
X1144432D1*
X1987381Y528942D2*
X1593680D1*
Y706108D1*
X1987381D1*
Y528942D1*
Y564375D2*
X1593680D1*
X657587Y1439278D2*
D41*
X700642D1*
X679142Y1417778D2*
Y1460833D1*
X663584Y1476272D2*
X661152Y1481080D1*
X654022Y1488265D1*
X704207D1*
X665960Y1506137D2*
X663584D1*
X658775Y1508513D1*
X656398Y1510890D1*
X654022Y1515698D1*
Y1525260D1*
X656398Y1530013D1*
X658775Y1532390D1*
X663584Y1534821D1*
X668337D1*
X673145Y1532390D1*
X680275Y1527636D1*
X704207Y1503705D1*
Y1537198D1*
X653967Y1552637D2*
X704207Y1571760D1*
X653967Y1590884D1*
X857415Y1212425D2*
X862223Y1214857D1*
X869408Y1221987D1*
Y1171802D1*
X918341Y1222042D2*
Y1171802D1*
X884847Y1222042D1*
Y1171802D1*
X957712D2*
Y1221987D1*
X933780Y1188549D1*
X969650D1*
X999459Y1221987D2*
X992274Y1219610D1*
X987466Y1212425D1*
X985089Y1200487D1*
Y1193302D1*
X987466Y1181364D1*
X992274Y1174179D1*
X999459Y1171802D1*
X1004212D1*
X1011397Y1174179D1*
X1016150Y1181364D1*
X1018582Y1193302D1*
Y1200487D1*
X1016150Y1212425D1*
X1011397Y1219610D1*
X1004212Y1221987D1*
X999459D1*
X1016150Y1212425D2*
X987466Y1181364D1*
X1048392Y1221987D2*
X1041207Y1219610D1*
X1036398Y1212425D1*
X1034022Y1200487D1*
Y1193302D1*
X1036398Y1181364D1*
X1041207Y1174179D1*
X1048392Y1171802D1*
X1053145D1*
X1060330Y1174179D1*
X1065083Y1181364D1*
X1067515Y1193302D1*
Y1200487D1*
X1065083Y1212425D1*
X1060330Y1219610D1*
X1053145Y1221987D1*
X1048392D1*
X1065083Y1212425D2*
X1036398Y1181364D1*
X1082954Y1212425D2*
X1087763Y1214857D1*
X1094948Y1221987D1*
Y1171802D1*
X1433574Y1312425D2*
X1438383Y1314857D1*
X1445568Y1321987D1*
Y1271802D1*
X1494500Y1322042D2*
Y1271802D1*
X1461007Y1322042D1*
Y1271802D1*
X1533871D2*
Y1321987D1*
X1509940Y1288549D1*
X1545810D1*
X1575619Y1321987D2*
X1568434Y1319610D1*
X1563625Y1312425D1*
X1561249Y1300487D1*
Y1293302D1*
X1563625Y1281364D1*
X1568434Y1274179D1*
X1575619Y1271802D1*
X1580372D1*
X1587557Y1274179D1*
X1592310Y1281364D1*
X1594742Y1293302D1*
Y1300487D1*
X1592310Y1312425D1*
X1587557Y1319610D1*
X1580372Y1321987D1*
X1575619D1*
X1592310Y1312425D2*
X1563625Y1281364D1*
X1624551Y1321987D2*
X1617366Y1319610D1*
X1612558Y1312425D1*
X1610181Y1300487D1*
Y1293302D1*
X1612558Y1281364D1*
X1617366Y1274179D1*
X1624551Y1271802D1*
X1629305D1*
X1636490Y1274179D1*
X1641243Y1281364D1*
X1643675Y1293302D1*
Y1300487D1*
X1641243Y1312425D1*
X1636490Y1319610D1*
X1629305Y1321987D1*
X1624551D1*
X1641243Y1312425D2*
X1612558Y1281364D1*
X1659114Y1312425D2*
X1663922Y1314857D1*
X1671107Y1321987D1*
Y1271802D1*
X1688923Y1276610D2*
X1686547Y1274179D1*
X1688923Y1271802D1*
X1691355Y1274179D1*
X1688923Y1276610D1*
X1706794Y1312425D2*
X1711603Y1314857D1*
X1718788Y1321987D1*
Y1271802D1*
X1572824Y1062425D2*
X1577633Y1064857D1*
X1584818Y1071987D1*
Y1021802D1*
X1633750Y1072042D2*
Y1021802D1*
X1600257Y1072042D1*
Y1021802D1*
X1673121D2*
Y1071987D1*
X1649190Y1038549D1*
X1685060D1*
X1714869Y1071987D2*
X1707684Y1069610D1*
X1702875Y1062425D1*
X1700499Y1050487D1*
Y1043302D1*
X1702875Y1031364D1*
X1707684Y1024179D1*
X1714869Y1021802D1*
X1719622D1*
X1726807Y1024179D1*
X1731560Y1031364D1*
X1733992Y1043302D1*
Y1050487D1*
X1731560Y1062425D1*
X1726807Y1069610D1*
X1719622Y1071987D1*
X1714869D1*
X1731560Y1062425D2*
X1702875Y1031364D1*
X1763802Y1071987D2*
X1756617Y1069610D1*
X1751808Y1062425D1*
X1749431Y1050487D1*
Y1043302D1*
X1751808Y1031364D1*
X1756617Y1024179D1*
X1763802Y1021802D1*
X1768555D1*
X1775740Y1024179D1*
X1780493Y1031364D1*
X1782925Y1043302D1*
Y1050487D1*
X1780493Y1062425D1*
X1775740Y1069610D1*
X1768555Y1071987D1*
X1763802D1*
X1780493Y1062425D2*
X1751808Y1031364D1*
X1798364Y1062425D2*
X1803172Y1064857D1*
X1810358Y1071987D1*
Y1021802D1*
X1828173Y1026610D2*
X1825797Y1024179D1*
X1828173Y1021802D1*
X1830605Y1024179D1*
X1828173Y1026610D1*
X1848476Y1060048D2*
Y1062425D1*
X1850853Y1067234D1*
X1853230Y1069610D1*
X1858038Y1071987D1*
X1867600D1*
X1872353Y1069610D1*
X1874729Y1067234D1*
X1877161Y1062425D1*
Y1057672D1*
X1874729Y1052863D1*
X1869976Y1045734D1*
X1846044Y1021802D1*
X1879538D1*
X653967Y864303D2*
X704207D1*
X653967Y897796D2*
X704207D1*
X677898Y864303D2*
Y897796D1*
X685083Y913235D2*
Y941920D1*
X680275D1*
X675466Y939544D1*
X673090Y937167D1*
X670713Y932359D1*
Y925174D1*
X673090Y920420D1*
X677898Y915612D1*
X685083Y913235D1*
X689837D1*
X697022Y915612D1*
X701775Y920420D1*
X704207Y925174D1*
Y932359D1*
X701775Y937167D1*
X697022Y941920D1*
X670713Y986044D2*
X704207D1*
X677898D2*
X673090Y981291D1*
X670713Y976483D1*
Y969353D1*
X673090Y964545D1*
X677898Y959791D1*
X685083Y957359D1*
X689837D1*
X697022Y959791D1*
X701775Y964544D1*
X704207Y969353D1*
Y976483D1*
X701775Y981291D1*
X697022Y986044D1*
X653967Y1030168D2*
X704207D1*
X677898D2*
X673090Y1025415D1*
X670713Y1020607D1*
Y1013422D1*
X673090Y1008669D1*
X677898Y1003860D1*
X685083Y1001484D1*
X689837D1*
X697022Y1003860D1*
X701775Y1008669D1*
X704207Y1013422D1*
Y1020607D1*
X701775Y1025415D1*
X697022Y1030168D1*
X685083Y1045608D2*
Y1074293D1*
X680275D1*
X675466Y1071916D1*
X673090Y1069539D1*
X670713Y1064731D1*
Y1057546D1*
X673090Y1052793D1*
X677898Y1047984D1*
X685083Y1045608D1*
X689837D1*
X697022Y1047984D1*
X701775Y1052793D1*
X704207Y1057546D1*
Y1064731D1*
X701775Y1069539D1*
X697022Y1074293D1*
X670713Y1089732D2*
X704207D1*
X685083D2*
X677898Y1092164D1*
X673090Y1096917D1*
X670713Y1101725D1*
Y1108910D1*
X677898Y1150658D2*
X673090Y1148281D1*
X670713Y1141096D1*
Y1133911D1*
X673090Y1126726D1*
X677898Y1124350D1*
X682651Y1126726D1*
X685083Y1131535D1*
X687460Y1143473D1*
X689837Y1148281D1*
X694645Y1150658D1*
X697022D1*
X701775Y1148281D1*
X704207Y1141096D1*
Y1133911D1*
X701775Y1126726D1*
X697022Y1124350D1*
X732448Y781210D2*
Y730970D1*
X747887Y757278D2*
X769387D1*
X776572Y759710D1*
X779004Y762087D1*
X781381Y766840D1*
Y771648D1*
X779004Y776402D1*
X776572Y778833D1*
X769387Y781210D1*
X747887D1*
Y730970D1*
X764634Y757278D2*
X781381Y730970D1*
X796820Y781210D2*
Y730970D1*
X825505D1*
X840944Y781210D2*
Y730970D1*
X862499D1*
X869684Y733402D1*
X872061Y735778D1*
X874437Y740532D1*
Y747717D1*
X872061Y752525D1*
X869684Y754902D1*
X862499Y757278D1*
X869684Y759710D1*
X872061Y762087D1*
X874437Y766840D1*
Y771648D1*
X872061Y776402D1*
X869684Y778833D1*
X862499Y781210D1*
X840944D1*
Y757278D2*
X862499D1*
X901815Y781155D2*
X894685Y778778D1*
X892253Y774025D1*
Y769216D1*
X894685Y764463D1*
X899438Y762031D1*
X909000Y759655D1*
X916185Y757278D1*
X920938Y752470D1*
X923315Y747717D1*
Y740532D1*
X920938Y735778D1*
X918561Y733347D1*
X911376Y730970D1*
X901815D1*
X894685Y733347D1*
X892253Y735778D1*
X889876Y740532D1*
Y747717D1*
X892253Y752470D1*
X897062Y757278D1*
X904191Y759655D1*
X913753Y762031D1*
X918561Y764463D1*
X920938Y769216D1*
Y774025D1*
X918561Y778778D1*
X911376Y781155D1*
X901815D1*
X948315Y730970D2*
X972247Y781155D1*
X938754D1*
X990118Y769216D2*
Y771593D1*
X992495Y776402D1*
X994871Y778778D1*
X999680Y781155D1*
X1009241D1*
X1013995Y778778D1*
X1016371Y776402D1*
X1018803Y771593D1*
Y766840D1*
X1016371Y762031D1*
X1011618Y754902D1*
X987686Y730970D1*
X1021180D1*
X1036619Y771593D2*
X1041427Y774025D1*
X1048612Y781155D1*
Y730970D1*
X1159360Y780458D2*
Y730218D1*
X1174799Y756526D2*
X1196299D1*
X1203484Y758958D1*
X1205916Y761335D1*
X1208292Y766088D1*
Y770896D1*
X1205916Y775650D1*
X1203484Y778081D1*
X1196299Y780458D1*
X1174799D1*
Y730218D1*
X1191546Y756526D2*
X1208292Y730218D1*
X1223732Y780458D2*
Y730218D1*
X1252416D1*
X1267856Y780458D2*
Y730218D1*
X1289411D1*
X1296596Y732650D1*
X1298972Y735026D1*
X1301349Y739780D1*
Y746965D1*
X1298972Y751773D1*
X1296596Y754150D1*
X1289411Y756526D1*
X1296596Y758958D1*
X1298972Y761335D1*
X1301349Y766088D1*
Y770896D1*
X1298972Y775650D1*
X1296596Y778081D1*
X1289411Y780458D1*
X1267856D1*
Y756526D2*
X1289411D1*
X1328726Y780403D2*
X1321597Y778026D1*
X1319165Y773273D1*
Y768464D1*
X1321597Y763711D1*
X1326350Y761279D1*
X1335911Y758903D1*
X1343097Y756526D1*
X1347850Y751718D1*
X1350226Y746965D1*
Y739780D1*
X1347850Y735026D1*
X1345473Y732595D1*
X1338288Y730218D1*
X1328726D1*
X1321597Y732595D1*
X1319165Y735026D1*
X1316788Y739780D1*
Y746965D1*
X1319165Y751718D1*
X1323973Y756526D1*
X1331103Y758903D1*
X1340665Y761279D1*
X1345473Y763711D1*
X1347850Y768464D1*
Y773273D1*
X1345473Y778026D1*
X1338288Y780403D1*
X1328726D1*
X1375227Y730218D2*
X1399159Y780403D1*
X1365666D1*
X1417030Y768464D2*
Y770841D1*
X1419407Y775650D1*
X1421783Y778026D1*
X1426592Y780403D1*
X1436153D1*
X1440906Y778026D1*
X1443283Y775650D1*
X1445715Y770841D1*
Y766088D1*
X1443283Y761279D1*
X1438530Y754150D1*
X1414598Y730218D1*
X1448091D1*
X1463531Y770841D2*
X1468339Y773273D1*
X1475524Y780403D1*
Y730218D1*
X1493340Y735026D2*
X1490963Y732595D1*
X1493340Y730218D1*
X1495772Y732595D1*
X1493340Y735026D1*
X1511211Y770841D2*
X1516020Y773273D1*
X1523205Y780403D1*
Y730218D1*
X1597858Y779331D2*
Y729091D1*
X1613297Y755399D2*
X1634797D1*
X1641982Y757831D1*
X1644414Y760207D1*
X1646790Y764961D1*
Y769769D1*
X1644414Y774522D1*
X1641982Y776954D1*
X1634797Y779331D1*
X1613297D1*
Y729091D1*
X1630044Y755399D2*
X1646790Y729091D1*
X1662230Y779331D2*
Y729091D1*
X1690915D1*
X1706354Y779331D2*
Y729091D1*
X1727909D1*
X1735094Y731523D1*
X1737470Y733899D1*
X1739847Y738652D1*
Y745837D1*
X1737470Y750646D1*
X1735094Y753022D1*
X1727909Y755399D1*
X1735094Y757831D1*
X1737470Y760207D1*
X1739847Y764961D1*
Y769769D1*
X1737470Y774522D1*
X1735094Y776954D1*
X1727909Y779331D1*
X1706354D1*
Y755399D2*
X1727909D1*
X1767225Y779275D2*
X1760095Y776899D1*
X1757663Y772146D1*
Y767337D1*
X1760095Y762584D1*
X1764848Y760152D1*
X1774410Y757776D1*
X1781595Y755399D1*
X1786348Y750591D1*
X1788724Y745837D1*
Y738652D1*
X1786348Y733899D1*
X1783971Y731467D1*
X1776786Y729091D1*
X1767225D1*
X1760095Y731467D1*
X1757663Y733899D1*
X1755286Y738652D1*
Y745837D1*
X1757663Y750591D1*
X1762471Y755399D1*
X1769601Y757776D1*
X1779163Y760152D1*
X1783971Y762584D1*
X1786348Y767337D1*
Y772146D1*
X1783971Y776899D1*
X1776786Y779275D1*
X1767225D1*
X1813725Y729091D2*
X1837657Y779275D1*
X1804164D1*
X1855528Y767337D2*
Y769714D1*
X1857905Y774522D1*
X1860281Y776899D1*
X1865090Y779275D1*
X1874651D1*
X1879405Y776899D1*
X1881781Y774522D1*
X1884213Y769714D1*
Y764961D1*
X1881781Y760152D1*
X1877028Y753022D1*
X1853096Y729091D1*
X1886590D1*
X1902029Y769714D2*
X1906837Y772146D1*
X1914022Y779275D1*
Y729091D1*
X1931838Y733899D2*
X1929462Y731467D1*
X1931838Y729091D1*
X1934270Y731467D1*
X1931838Y733899D1*
X1952141Y767337D2*
Y769714D1*
X1954518Y774522D1*
X1956894Y776899D1*
X1961703Y779275D1*
X1971264D1*
X1976018Y776899D1*
X1978394Y774522D1*
X1980826Y769714D1*
Y764961D1*
X1978394Y760152D1*
X1973641Y753022D1*
X1949709Y729091D1*
X1983203D1*
X1179543Y1532663D2*
Y1489608D1*
X1158044Y1511108D2*
X1201099D1*
X1221346Y1536228D2*
X1247599D1*
X1233284Y1517104D1*
X1240469D1*
X1245223Y1514728D1*
X1247599Y1512351D1*
X1250031Y1505166D1*
Y1500413D1*
X1247599Y1493228D1*
X1242846Y1488419D1*
X1235661Y1486043D1*
X1228476D1*
X1221346Y1488419D1*
X1218970Y1490851D1*
X1216538Y1495604D1*
X1267847Y1490851D2*
X1265470Y1488419D1*
X1267847Y1486043D1*
X1270279Y1488419D1*
X1267847Y1490851D1*
X1290526Y1536228D2*
X1316780D1*
X1302465Y1517104D1*
X1309650D1*
X1314403Y1514728D1*
X1316780Y1512351D1*
X1319211Y1505166D1*
Y1500413D1*
X1316780Y1493228D1*
X1312026Y1488419D1*
X1304841Y1486043D1*
X1297656D1*
X1290526Y1488419D1*
X1288150Y1490851D1*
X1285718Y1495604D1*
X1334651Y1536283D2*
X1353774Y1486043D1*
X1372897Y1536283D1*
X1444122D2*
Y1495604D1*
X1446499Y1488475D1*
X1451307Y1486043D1*
X1456061D1*
X1436937Y1519536D2*
X1453684D1*
X1483438D2*
X1478685Y1517160D1*
X1473876Y1512351D1*
X1471500Y1505166D1*
Y1500413D1*
X1473876Y1493228D1*
X1478685Y1488475D1*
X1483438Y1486043D1*
X1490623D1*
X1495432Y1488475D1*
X1500185Y1493228D1*
X1502617Y1500413D1*
Y1505166D1*
X1500185Y1512351D1*
X1495432Y1517160D1*
X1490623Y1519536D1*
X1483438D1*
X1588157Y1532663D2*
Y1489608D1*
X1566657Y1511108D2*
X1609712D1*
X1625151Y1526666D2*
X1629959Y1529098D1*
X1637145Y1536228D1*
Y1486043D1*
X1655016Y1524289D2*
Y1526666D1*
X1657392Y1531474D1*
X1659769Y1533851D1*
X1664577Y1536228D1*
X1674139D1*
X1678892Y1533851D1*
X1681269Y1531474D1*
X1683701Y1526666D1*
Y1521913D1*
X1681269Y1517104D1*
X1676515Y1509974D1*
X1652584Y1486043D1*
X1686077D1*
X1701516Y1536283D2*
X1720640Y1486043D1*
X1739763Y1536283D1*
X877368Y1625586D2*
X874991Y1630339D1*
X870182Y1635148D1*
X865429Y1637524D1*
X855868D1*
X851059Y1635148D1*
X846306Y1630339D1*
X843874Y1625586D1*
X841498Y1618401D1*
Y1606408D1*
X843874Y1599278D1*
X846306Y1594469D1*
X851059Y1589716D1*
X855868Y1587284D1*
X865429D1*
X870182Y1589716D1*
X874991Y1594469D1*
X877368Y1599278D1*
X904745Y1620778D2*
X899992Y1618401D1*
X895183Y1613593D1*
X892807Y1606408D1*
Y1601654D1*
X895183Y1594469D1*
X899992Y1589716D1*
X904745Y1587284D1*
X911930D1*
X916738Y1589716D1*
X921492Y1594469D1*
X923924Y1601654D1*
Y1606408D1*
X921492Y1613593D1*
X916738Y1618401D1*
X911930Y1620778D1*
X904745D1*
X939363D2*
Y1587284D1*
Y1611216D2*
X946548Y1618401D1*
X951356Y1620778D1*
X958486D1*
X963294Y1618401D1*
X965671Y1611216D1*
Y1587284D1*
X988295Y1637524D2*
Y1596846D1*
X990672Y1589716D1*
X995480Y1587284D1*
X1000234D1*
X981110Y1620778D2*
X997857D1*
X1015673D2*
Y1587284D1*
Y1606408D2*
X1018105Y1613593D1*
X1022858Y1618401D1*
X1027666Y1620778D1*
X1034851D1*
X1062229D2*
X1057476Y1618401D1*
X1052667Y1613593D1*
X1050291Y1606408D1*
Y1601654D1*
X1052667Y1594469D1*
X1057476Y1589716D1*
X1062229Y1587284D1*
X1069414D1*
X1074222Y1589716D1*
X1078975Y1594469D1*
X1081407Y1601654D1*
Y1606408D1*
X1078975Y1613593D1*
X1074222Y1618401D1*
X1069414Y1620778D1*
X1062229D1*
X1096847Y1637524D2*
Y1587284D1*
X1194380Y1630339D2*
X1189627Y1635148D1*
X1182442Y1637524D1*
X1172880D1*
X1165695Y1635148D1*
X1160887Y1630339D1*
Y1625586D1*
X1163319Y1620778D1*
X1165695Y1618401D1*
X1170448Y1616024D1*
X1184819Y1611216D1*
X1189627Y1608839D1*
X1192004Y1606408D1*
X1194380Y1601654D1*
Y1594469D1*
X1189627Y1589716D1*
X1182442Y1587284D1*
X1172880D1*
X1165695Y1589716D1*
X1160887Y1594469D1*
X1209819Y1637524D2*
X1212196Y1635148D1*
X1214628Y1637524D1*
X1212196Y1639956D1*
X1209819Y1637524D1*
X1212196Y1620778D2*
Y1587284D1*
X1258752Y1618401D2*
Y1580099D1*
X1256375Y1572969D1*
X1253999Y1570538D1*
X1249190Y1568161D1*
X1242005D1*
X1237252Y1570538D1*
X1258752Y1611216D2*
X1253999Y1615969D1*
X1249190Y1618401D1*
X1242005D1*
X1237252Y1615969D1*
X1232444Y1611216D1*
X1230067Y1604031D1*
Y1599222D1*
X1232444Y1592093D1*
X1237252Y1587284D1*
X1242005Y1584908D1*
X1249190D1*
X1253999Y1587284D1*
X1258752Y1592093D1*
X1274191Y1620778D2*
Y1587284D1*
Y1611216D2*
X1281376Y1618401D1*
X1286185Y1620778D1*
X1293314D1*
X1298123Y1618401D1*
X1300500Y1611216D1*
Y1587284D1*
X1344624Y1620778D2*
Y1587284D1*
Y1613593D2*
X1339870Y1618401D1*
X1335062Y1620778D1*
X1327932D1*
X1323124Y1618401D1*
X1318371Y1613593D1*
X1315939Y1606408D1*
Y1601654D1*
X1318371Y1594469D1*
X1323124Y1589716D1*
X1327932Y1587284D1*
X1335062D1*
X1339870Y1589716D1*
X1344624Y1594469D1*
X1360063Y1637524D2*
Y1587284D1*
X1462405D2*
X1443226Y1637524D1*
X1424103Y1587284D1*
X1431288Y1604031D2*
X1455220D1*
X1477844Y1620778D2*
Y1587284D1*
Y1611216D2*
X1485029Y1618401D1*
X1489838Y1620778D1*
X1496967D1*
X1501776Y1618401D1*
X1504152Y1611216D1*
Y1587284D1*
Y1611216D2*
X1511337Y1618401D1*
X1516146Y1620778D1*
X1523276D1*
X1528084Y1618401D1*
X1530516Y1611216D1*
Y1587284D1*
X1545955Y1620778D2*
Y1570538D1*
Y1613593D2*
X1550764Y1618346D1*
X1555517Y1620778D1*
X1562702D1*
X1567510Y1618346D1*
X1572264Y1613593D1*
X1574695Y1606408D1*
Y1601599D1*
X1572264Y1594469D1*
X1567510Y1589661D1*
X1562702Y1587284D1*
X1555517D1*
X1550764Y1589661D1*
X1545955Y1594469D1*
X1590135Y1637524D2*
Y1587284D1*
X1605574Y1637524D2*
X1607950Y1635148D1*
X1610382Y1637524D1*
X1607950Y1639956D1*
X1605574Y1637524D1*
X1607950Y1620778D2*
Y1587284D1*
X1644945Y1637524D2*
X1640192D1*
X1635383Y1635148D1*
X1633007Y1627963D1*
Y1587284D1*
X1625822Y1620778D2*
X1642568D1*
X1660384Y1637524D2*
X1662761Y1635148D1*
X1665193Y1637524D1*
X1662761Y1639956D1*
X1660384Y1637524D1*
X1662761Y1620778D2*
Y1587284D1*
X1680632Y1606408D2*
X1709317D1*
Y1611216D1*
X1706940Y1616024D1*
X1704564Y1618401D1*
X1699755Y1620778D1*
X1692570D1*
X1687817Y1618401D1*
X1683008Y1613593D1*
X1680632Y1606408D1*
Y1601654D1*
X1683008Y1594469D1*
X1687817Y1589716D1*
X1692570Y1587284D1*
X1699755D1*
X1704564Y1589716D1*
X1709317Y1594469D1*
X1724756Y1620778D2*
Y1587284D1*
Y1606408D2*
X1727188Y1613593D1*
X1731941Y1618401D1*
X1736749Y1620778D1*
X1743934D1*
X1231570Y1427907D2*
X1236378Y1430339D1*
X1243563Y1437469D1*
Y1387284D1*
X1259003D2*
X1292496Y1437469D1*
X1322305D2*
X1315120Y1435092D1*
X1310312Y1427907D1*
X1307935Y1415969D1*
Y1408784D1*
X1310312Y1396846D1*
X1315120Y1389661D1*
X1322305Y1387284D1*
X1327058D1*
X1334243Y1389661D1*
X1338997Y1396846D1*
X1341428Y1408784D1*
Y1415969D1*
X1338997Y1427907D1*
X1334243Y1435092D1*
X1327058Y1437469D1*
X1322305D1*
X1338997Y1427907D2*
X1310312Y1396846D1*
X1434154Y1420778D2*
Y1387284D1*
Y1413593D2*
X1429400Y1418401D1*
X1424592Y1420778D1*
X1417462D1*
X1412654Y1418401D1*
X1407901Y1413593D1*
X1405469Y1406408D1*
Y1401654D1*
X1407901Y1394469D1*
X1412654Y1389716D1*
X1417462Y1387284D1*
X1424592D1*
X1429400Y1389716D1*
X1434154Y1394469D1*
X1449593Y1420778D2*
Y1387284D1*
Y1411216D2*
X1456778Y1418401D1*
X1461586Y1420778D1*
X1468716D1*
X1473524Y1418401D1*
X1475901Y1411216D1*
Y1387284D1*
X1520025Y1437524D2*
Y1387284D1*
Y1413593D2*
X1515272Y1418401D1*
X1510464Y1420778D1*
X1503279D1*
X1498525Y1418401D1*
X1493717Y1413593D1*
X1491340Y1406408D1*
Y1401654D1*
X1493717Y1394469D1*
X1498525Y1389716D1*
X1503279Y1387284D1*
X1510464D1*
X1515272Y1389716D1*
X1520025Y1394469D1*
X1584065Y1411216D2*
X1605621D1*
X1612750Y1413593D1*
X1615182Y1416024D1*
X1617559Y1420778D1*
Y1427963D1*
X1615182Y1432716D1*
X1612750Y1435148D1*
X1605621Y1437524D1*
X1584065D1*
Y1387284D1*
X1632998Y1437524D2*
X1644992Y1387284D1*
X1656930Y1437524D1*
X1668868Y1387284D1*
X1680861Y1437524D1*
X1734547Y1387284D2*
Y1437524D1*
X1715424Y1387284D1*
X1696301Y1437524D1*
Y1387284D1*
M02*
