G04 DipTrace 3.2.0.1*
G04 Bottom.gbl*
%MOIN*%
G04 #@! TF.FileFunction,Copper,L2,Bot*
G04 #@! TF.Part,Single*
G04 #@! TA.AperFunction,Conductor*
%ADD14C,0.012992*%
G04 #@! TA.AperFunction,CopperBalancing*
%ADD15C,0.025*%
G04 #@! TA.AperFunction,ComponentPad*
%ADD16C,0.05*%
%ADD17C,0.05*%
%ADD18C,0.062992*%
%ADD19R,0.062992X0.062992*%
%ADD20R,0.059055X0.059055*%
%ADD21C,0.059055*%
%ADD22R,0.055118X0.055118*%
%ADD23C,0.055118*%
%ADD24C,0.059055*%
%FSLAX26Y26*%
G04*
G70*
G90*
G75*
G01*
G04 Bottom*
%LPD*%
X793701Y1143701D2*
D14*
X943701D1*
X1023491Y1063911D1*
Y994751D1*
X1022441Y993701D1*
Y872441D1*
X943701Y793701D1*
Y644134D1*
X2293701Y1493701D2*
X2343701D1*
X2393701Y1443701D1*
Y1093701D1*
Y693701D1*
X2243701Y543701D1*
X1044134D1*
X943701Y644134D1*
X2493701Y1093701D2*
X2393701D1*
X2593701Y693701D2*
Y1267117D1*
X2693701Y1367117D1*
Y1743701D1*
X2443701Y1993701D1*
X1893701D1*
X1493701Y1593701D1*
Y1122042D1*
X1365360Y993701D1*
X1258661D1*
X1693701Y1393701D2*
X1643701D1*
X1593701Y1343701D1*
Y1136413D1*
X1715101Y1015013D1*
Y897783D1*
X1642276Y824957D1*
X1288337D1*
X1174409Y938885D1*
Y993701D1*
X1179921D1*
X2593701Y1593701D2*
X2563537D1*
X2363537Y1793701D1*
X1943701D1*
X1793701Y1643701D1*
Y1443701D1*
X1743701Y1393701D1*
X1693701D1*
X1393701Y1193701D2*
X1093701D1*
Y1001181D1*
X1101181Y993701D1*
X1193701Y1593701D2*
X1093701Y1493701D1*
Y1193701D1*
X2043701Y693701D2*
X1993701D1*
X1943745Y743656D1*
X1220986D1*
X1093701Y870942D1*
Y986220D1*
X1101181Y993701D1*
X2043701Y693701D2*
X2045833D1*
Y754287D1*
X2243701Y952155D1*
Y1343701D1*
X2293701Y1393701D1*
X1693701Y1293701D2*
X1943701D1*
X548924Y2166962D2*
D15*
X2688470D1*
X553803Y2142093D2*
X2683589D1*
X547381Y2117224D2*
X2690013D1*
X448089Y2092356D2*
X465014D1*
X522369D2*
X2715025D1*
X2772379D2*
X2789340D1*
X448089Y2067487D2*
X2789340D1*
X448089Y2042618D2*
X2789340D1*
X448089Y2017749D2*
X1868623D1*
X2468799D2*
X2789340D1*
X448089Y1992881D2*
X914391D1*
X973038D2*
X1843720D1*
X2493667D2*
X2789340D1*
X448089Y1968012D2*
X890744D1*
X996686D2*
X1818853D1*
X2518534D2*
X2789340D1*
X448089Y1943143D2*
X885182D1*
X1002213D2*
X1176812D1*
X1210592D2*
X1793984D1*
X1892283D2*
X1926828D1*
X1960571D2*
X2226820D1*
X2260598D2*
X2445104D1*
X2543403D2*
X2664858D1*
X2722537D2*
X2789340D1*
X448089Y1918274D2*
X891282D1*
X996112D2*
X1145953D1*
X1241453D2*
X1769117D1*
X1867416D2*
X1895967D1*
X1991467D2*
X2195959D1*
X2291459D2*
X2469971D1*
X2568270D2*
X2640852D1*
X2746543D2*
X2789340D1*
X448089Y1893406D2*
X915361D1*
X972034D2*
X1139709D1*
X1247696D2*
X1744249D1*
X1842549D2*
X1889724D1*
X1997676D2*
X2189715D1*
X2297703D2*
X2494839D1*
X2593138D2*
X2635182D1*
X2752213D2*
X2789340D1*
X448089Y1868537D2*
X890995D1*
X996399D2*
X1146276D1*
X1241130D2*
X1719382D1*
X1817681D2*
X1896291D1*
X1991109D2*
X2196282D1*
X2291136D2*
X2519706D1*
X2618005D2*
X2641139D1*
X2746256D2*
X2789340D1*
X448089Y1843668D2*
X885182D1*
X1002213D2*
X1179038D1*
X1208367D2*
X1694514D1*
X1792812D2*
X1929017D1*
X1958382D2*
X2229045D1*
X2258374D2*
X2544575D1*
X2642873D2*
X2666007D1*
X2721388D2*
X2789340D1*
X448089Y1818799D2*
X891031D1*
X996399D2*
X1669646D1*
X1767945D2*
X1919795D1*
X2387450D2*
X2569442D1*
X2667741D2*
X2789340D1*
X448089Y1793930D2*
X885182D1*
X1002213D2*
X1644778D1*
X1743077D2*
X1894783D1*
X2412461D2*
X2594310D1*
X2692609D2*
X2789340D1*
X448089Y1769062D2*
X885182D1*
X1002213D2*
X1619911D1*
X1718210D2*
X1869916D1*
X2437328D2*
X2619177D1*
X2717476D2*
X2789340D1*
X448089Y1744193D2*
X885182D1*
X1002213D2*
X1595043D1*
X1693341D2*
X1845049D1*
X1943346D2*
X2235181D1*
X2352211D2*
X2363898D1*
X2462197D2*
X2566930D1*
X2620482D2*
X2644046D1*
X2729175D2*
X2789340D1*
X448089Y1719324D2*
X885182D1*
X1002213D2*
X1570176D1*
X1668474D2*
X1820180D1*
X1918479D2*
X2235181D1*
X2352211D2*
X2388765D1*
X2487064D2*
X2541381D1*
X2646031D2*
X2658219D1*
X2729175D2*
X2789340D1*
X448089Y1694455D2*
X885182D1*
X1002213D2*
X1545307D1*
X1643606D2*
X1795312D1*
X1893612D2*
X2235181D1*
X2352211D2*
X2413633D1*
X2511932D2*
X2535173D1*
X2729175D2*
X2789340D1*
X448089Y1669587D2*
X1520440D1*
X1618739D2*
X1770445D1*
X1868744D2*
X2235181D1*
X2352211D2*
X2438501D1*
X2646749D2*
X2658219D1*
X2729175D2*
X2789340D1*
X448089Y1644718D2*
X1184205D1*
X1203164D2*
X1495572D1*
X1593871D2*
X1758244D1*
X1843877D2*
X1934220D1*
X1953157D2*
X2134239D1*
X2153213D2*
X2235181D1*
X2352211D2*
X2463369D1*
X2623388D2*
X2658219D1*
X2729175D2*
X2789340D1*
X448089Y1619849D2*
X1146849D1*
X1240555D2*
X1470705D1*
X1569003D2*
X1758209D1*
X1829199D2*
X1896829D1*
X1990571D2*
X2096848D1*
X2190552D2*
X2241676D1*
X2345752D2*
X2488236D1*
X2645744D2*
X2658219D1*
X2729175D2*
X2789340D1*
X448089Y1594980D2*
X1139709D1*
X1247660D2*
X1458252D1*
X1544135D2*
X1758209D1*
X1829199D2*
X1889724D1*
X1997676D2*
X2089743D1*
X2197694D2*
X2235181D1*
X2352211D2*
X2513104D1*
X2729175D2*
X2789340D1*
X448089Y1570112D2*
X1120941D1*
X1241954D2*
X1458217D1*
X1529172D2*
X1758209D1*
X1829199D2*
X1895429D1*
X1991970D2*
X2095412D1*
X2191988D2*
X2240385D1*
X2347008D2*
X2537971D1*
X2647000D2*
X2658219D1*
X2729175D2*
X2789340D1*
X448089Y1545243D2*
X1096073D1*
X1213606D2*
X1335169D1*
X1529172D2*
X1669252D1*
X1718138D2*
X1758209D1*
X1829199D2*
X1923778D1*
X1963622D2*
X2123797D1*
X2163604D2*
X2263098D1*
X2324294D2*
X2563091D1*
X2624322D2*
X2658219D1*
X2729175D2*
X2789340D1*
X448089Y1520374D2*
X1071206D1*
X1169541D2*
X1335169D1*
X1529172D2*
X1641944D1*
X1745446D2*
X1758209D1*
X1829199D2*
X2541955D1*
X2645457D2*
X2658219D1*
X2729175D2*
X2789340D1*
X448089Y1495505D2*
X1058252D1*
X1144673D2*
X1335169D1*
X1529172D2*
X1635197D1*
X1829199D2*
X2535209D1*
X2729175D2*
X2789340D1*
X448089Y1470636D2*
X1058215D1*
X1129206D2*
X1335169D1*
X1529172D2*
X1640150D1*
X1747240D2*
X1758209D1*
X1829199D2*
X2540160D1*
X2647251D2*
X2658219D1*
X2729175D2*
X2789340D1*
X448089Y1445768D2*
X1058215D1*
X1129206D2*
X1335169D1*
X1529172D2*
X1662218D1*
X1725207D2*
X1746618D1*
X1829199D2*
X2270526D1*
X2316865D2*
X2562193D1*
X2625182D2*
X2658219D1*
X2729175D2*
X2789340D1*
X448089Y1420899D2*
X547476D1*
X639925D2*
X847467D1*
X939917D2*
X1058215D1*
X1129206D2*
X1147495D1*
X1239909D2*
X1342239D1*
X1445167D2*
X1458217D1*
X1529172D2*
X1622530D1*
X1820049D2*
X2242214D1*
X2345178D2*
X2542241D1*
X2645169D2*
X2658219D1*
X2729175D2*
X2789340D1*
X448089Y1396030D2*
X539761D1*
X647640D2*
X839752D1*
X947633D2*
X1058215D1*
X1129206D2*
X1139738D1*
X1247625D2*
X1335241D1*
X1529172D2*
X1596873D1*
X1795181D2*
X2235217D1*
X2352176D2*
X2535244D1*
X2729175D2*
X2789340D1*
X448089Y1371161D2*
X544892D1*
X642509D2*
X844920D1*
X942501D2*
X1058215D1*
X1129206D2*
X1144912D1*
X1242493D2*
X1339907D1*
X1447499D2*
X1458217D1*
X1529172D2*
X1572005D1*
X1770314D2*
X2222012D1*
X2347475D2*
X2539909D1*
X2729175D2*
X2789340D1*
X448089Y1346293D2*
X571088D1*
X616314D2*
X871115D1*
X916306D2*
X1058215D1*
X1129206D2*
X1171108D1*
X1216298D2*
X1361365D1*
X1426041D2*
X1458217D1*
X1529172D2*
X1558298D1*
X1645437D2*
X1661357D1*
X1726033D2*
X2208303D1*
X2326051D2*
X2561369D1*
X2721782D2*
X2789340D1*
X448089Y1321424D2*
X1058215D1*
X1129206D2*
X1342526D1*
X1444879D2*
X1458217D1*
X1529172D2*
X1558226D1*
X1629181D2*
X1642518D1*
X1989601D2*
X2097816D1*
X2189584D2*
X2208196D1*
X2279188D2*
X2598867D1*
X2697167D2*
X2789340D1*
X448089Y1296555D2*
X733213D1*
X854190D2*
X1058215D1*
X1129206D2*
X1335241D1*
X1529172D2*
X1558226D1*
X1997604D2*
X2089778D1*
X2197622D2*
X2208196D1*
X2279188D2*
X2574000D1*
X2672298D2*
X2789340D1*
X448089Y1271686D2*
X733213D1*
X854190D2*
X1058215D1*
X1129206D2*
X1339692D1*
X1447715D2*
X1458217D1*
X1529172D2*
X1558226D1*
X1629181D2*
X1639682D1*
X1992760D2*
X2094659D1*
X2192741D2*
X2208196D1*
X2279188D2*
X2558533D1*
X2739437D2*
X2789340D1*
X448089Y1246818D2*
X733213D1*
X854190D2*
X1058215D1*
X1129206D2*
X1360539D1*
X1426866D2*
X1458217D1*
X1529172D2*
X1558226D1*
X1629181D2*
X1660531D1*
X1726858D2*
X1919903D1*
X1967497D2*
X2119921D1*
X2167479D2*
X2208196D1*
X2279188D2*
X2558210D1*
X2629201D2*
X2639811D1*
X2747584D2*
X2789340D1*
X448089Y1221949D2*
X733213D1*
X854190D2*
X1058215D1*
X1444593D2*
X1458217D1*
X1529172D2*
X1558226D1*
X1629181D2*
X1642841D1*
X1744584D2*
X2208196D1*
X2279188D2*
X2558210D1*
X2629201D2*
X2644512D1*
X2742882D2*
X2789340D1*
X448089Y1197080D2*
X733213D1*
X854190D2*
X1058215D1*
X1529172D2*
X1558226D1*
X1752121D2*
X2035198D1*
X2152228D2*
X2208196D1*
X2279188D2*
X2558210D1*
X2629201D2*
X2669344D1*
X2718051D2*
X2789340D1*
X448089Y1172211D2*
X1058215D1*
X1447930D2*
X1458217D1*
X1529172D2*
X1558226D1*
X1629181D2*
X1639467D1*
X1747921D2*
X2035198D1*
X2152228D2*
X2208196D1*
X2279188D2*
X2558210D1*
X2629201D2*
X2789340D1*
X448089Y1147343D2*
X1058215D1*
X1129206D2*
X1359751D1*
X1427655D2*
X1458217D1*
X1529172D2*
X1558226D1*
X1631908D2*
X1659743D1*
X1727647D2*
X2035198D1*
X2152228D2*
X2208196D1*
X2279188D2*
X2558210D1*
X2629201D2*
X2789340D1*
X448089Y1122474D2*
X548480D1*
X638921D2*
X1058215D1*
X1129206D2*
X1444975D1*
X1529172D2*
X1561312D1*
X1656776D2*
X2035198D1*
X2152228D2*
X2208196D1*
X2279188D2*
X2558210D1*
X2629201D2*
X2789340D1*
X448089Y1097605D2*
X539869D1*
X647533D2*
X1058215D1*
X1129206D2*
X1420108D1*
X1518407D2*
X1583345D1*
X1681680D2*
X2035198D1*
X2152228D2*
X2208196D1*
X2279188D2*
X2558210D1*
X2629201D2*
X2789340D1*
X448089Y1072736D2*
X544175D1*
X643227D2*
X1058215D1*
X1129206D2*
X1395240D1*
X1493538D2*
X1608213D1*
X1706547D2*
X2043308D1*
X2144119D2*
X2208196D1*
X2279188D2*
X2558210D1*
X2629201D2*
X2789340D1*
X448089Y1047867D2*
X567751D1*
X619651D2*
X1058215D1*
X1129206D2*
X1370373D1*
X1468671D2*
X1633080D1*
X1731415D2*
X2035343D1*
X2152050D2*
X2208196D1*
X2279188D2*
X2558210D1*
X2629201D2*
X2789340D1*
X448089Y1022999D2*
X887156D1*
X1000239D2*
X1053264D1*
X1443803D2*
X1657948D1*
X1749608D2*
X2039146D1*
X2148245D2*
X2208196D1*
X2279188D2*
X2558210D1*
X2629201D2*
X2789340D1*
X448089Y998130D2*
X887156D1*
X1000239D2*
X1044795D1*
X1418936D2*
X1441064D1*
X1562042D2*
X1584026D1*
X1619097D2*
X1679622D1*
X1750577D2*
X2058631D1*
X2128797D2*
X2208196D1*
X2279188D2*
X2558210D1*
X2629201D2*
X2789340D1*
X448089Y973261D2*
X887156D1*
X1000239D2*
X1048634D1*
X1394068D2*
X1441064D1*
X1652972D2*
X1679622D1*
X1750577D2*
X1799045D1*
X1888373D2*
X2043631D1*
X2143797D2*
X2208196D1*
X2279188D2*
X2558210D1*
X2629201D2*
X2649033D1*
X2738361D2*
X2789340D1*
X448089Y948392D2*
X887156D1*
X1000239D2*
X1058215D1*
X1214037D2*
X1226692D1*
X1290650D2*
X1441064D1*
X1661728D2*
X1679622D1*
X1750577D2*
X1789930D1*
X1897487D2*
X2035378D1*
X2152013D2*
X2190793D1*
X2278971D2*
X2558210D1*
X2629201D2*
X2639919D1*
X2747475D2*
X2789340D1*
X448089Y923524D2*
X1058215D1*
X1129206D2*
X1142723D1*
X1238941D2*
X1441064D1*
X1659001D2*
X1679622D1*
X1750577D2*
X1793841D1*
X1893576D2*
X2038930D1*
X2148461D2*
X2165924D1*
X2264223D2*
X2558210D1*
X2629201D2*
X2643831D1*
X2743564D2*
X2789340D1*
X448089Y898655D2*
X1058215D1*
X1129206D2*
X1165474D1*
X1263808D2*
X1441064D1*
X1642458D2*
X1666811D1*
X1750577D2*
X1816269D1*
X1871148D2*
X2057913D1*
X2129514D2*
X2141031D1*
X2239356D2*
X2558210D1*
X2629201D2*
X2666257D1*
X2721136D2*
X2789340D1*
X448089Y873786D2*
X1058215D1*
X1140008D2*
X1190341D1*
X1288676D2*
X1641944D1*
X1740243D2*
X2116189D1*
X2214488D2*
X2558210D1*
X2629201D2*
X2789340D1*
X448089Y848917D2*
X1066648D1*
X1164875D2*
X1215209D1*
X1715375D2*
X2091322D1*
X2189621D2*
X2558210D1*
X2629201D2*
X2789340D1*
X448089Y824049D2*
X1091445D1*
X1189743D2*
X1240076D1*
X1690507D2*
X2066454D1*
X2164752D2*
X2449589D1*
X2537804D2*
X2558210D1*
X2629201D2*
X2789340D1*
X448089Y799180D2*
X1116312D1*
X1214612D2*
X1265268D1*
X1665352D2*
X2041585D1*
X2139885D2*
X2440008D1*
X2547386D2*
X2558210D1*
X2629201D2*
X2789340D1*
X448089Y774311D2*
X1141180D1*
X1958419D2*
X2017113D1*
X2115017D2*
X2443488D1*
X2543904D2*
X2558210D1*
X2629201D2*
X2789340D1*
X448089Y749442D2*
X1166047D1*
X2102206D2*
X2135638D1*
X2151797D2*
X2235612D1*
X2251780D2*
X2464875D1*
X2522518D2*
X2558210D1*
X2629201D2*
X2789340D1*
X448089Y724573D2*
X1190915D1*
X2292930D2*
X2544467D1*
X2642945D2*
X2789340D1*
X448089Y699705D2*
X1489866D1*
X1497520D2*
X1535188D1*
X1652219D2*
X1938562D1*
X2301902D2*
X2535496D1*
X2651881D2*
X2789340D1*
X448089Y674836D2*
X1199850D1*
X1287528D2*
X1344643D1*
X1652219D2*
X1800193D1*
X1887224D2*
X1963430D1*
X2298959D2*
X2538438D1*
X2648938D2*
X2789340D1*
X448089Y649967D2*
X1190054D1*
X1297360D2*
X1335529D1*
X1652219D2*
X1790073D1*
X1897307D2*
X1985176D1*
X2181223D2*
X2206186D1*
X2281197D2*
X2556201D1*
X2631211D2*
X2789340D1*
X448089Y625098D2*
X1193356D1*
X1294059D2*
X1338364D1*
X1652219D2*
X1793196D1*
X1894222D2*
X2789340D1*
X448089Y600230D2*
X1214312D1*
X1273102D2*
X1355875D1*
X1431530D2*
X1455885D1*
X1652219D2*
X1813614D1*
X1873803D2*
X2789340D1*
X448089Y575361D2*
X2789340D1*
X448089Y550492D2*
X481413D1*
X506005D2*
X2731387D1*
X2756016D2*
X2789340D1*
X544186Y525623D2*
X2693207D1*
X553409Y500755D2*
X2684021D1*
X551005Y475886D2*
X2686388D1*
X534929Y451017D2*
X2702465D1*
X2545034Y789661D2*
X2543770Y781680D1*
X2541273Y773996D1*
X2537605Y766797D1*
X2532856Y760260D1*
X2527142Y754546D1*
X2520605Y749797D1*
X2513406Y746129D1*
X2505722Y743631D1*
X2497740Y742367D1*
X2489661D1*
X2481680Y743631D1*
X2473996Y746129D1*
X2466797Y749797D1*
X2460260Y754546D1*
X2454546Y760260D1*
X2449797Y766797D1*
X2446129Y773996D1*
X2443631Y781680D1*
X2442367Y789661D1*
Y797740D1*
X2443631Y805722D1*
X2446129Y813406D1*
X2449797Y820605D1*
X2454546Y827142D1*
X2460260Y832856D1*
X2466797Y837605D1*
X2473996Y841273D1*
X2481680Y843770D1*
X2489661Y845034D1*
X2497740D1*
X2505722Y843770D1*
X2513406Y841273D1*
X2520605Y837605D1*
X2527142Y832856D1*
X2532856Y827142D1*
X2537605Y820605D1*
X2541273Y813406D1*
X2543770Y805722D1*
X2545034Y797740D1*
Y789661D1*
X1245034Y1389661D2*
X1243770Y1381680D1*
X1241273Y1373996D1*
X1237605Y1366797D1*
X1232856Y1360260D1*
X1227142Y1354546D1*
X1220605Y1349797D1*
X1213406Y1346129D1*
X1205722Y1343631D1*
X1197740Y1342367D1*
X1189661D1*
X1181680Y1343631D1*
X1173996Y1346129D1*
X1166797Y1349797D1*
X1160260Y1354546D1*
X1154546Y1360260D1*
X1149797Y1366797D1*
X1146129Y1373996D1*
X1143631Y1381680D1*
X1142367Y1389661D1*
Y1397740D1*
X1143631Y1405722D1*
X1146129Y1413406D1*
X1149797Y1420605D1*
X1154546Y1427142D1*
X1160260Y1432856D1*
X1166797Y1437605D1*
X1173996Y1441273D1*
X1181680Y1443770D1*
X1189661Y1445034D1*
X1197740D1*
X1205722Y1443770D1*
X1213406Y1441273D1*
X1220605Y1437605D1*
X1227142Y1432856D1*
X1232856Y1427142D1*
X1237605Y1420605D1*
X1241273Y1413406D1*
X1243770Y1405722D1*
X1245034Y1397740D1*
Y1389661D1*
X945034D2*
X943770Y1381680D1*
X941273Y1373996D1*
X937605Y1366797D1*
X932856Y1360260D1*
X927142Y1354546D1*
X920605Y1349797D1*
X913406Y1346129D1*
X905722Y1343631D1*
X897740Y1342367D1*
X889661D1*
X881680Y1343631D1*
X873996Y1346129D1*
X866797Y1349797D1*
X860260Y1354546D1*
X854546Y1360260D1*
X849797Y1366797D1*
X846129Y1373996D1*
X843631Y1381680D1*
X842367Y1389661D1*
Y1397740D1*
X843631Y1405722D1*
X846129Y1413406D1*
X849797Y1420605D1*
X854546Y1427142D1*
X860260Y1432856D1*
X866797Y1437605D1*
X873996Y1441273D1*
X881680Y1443770D1*
X889661Y1445034D1*
X897740D1*
X905722Y1443770D1*
X913406Y1441273D1*
X920605Y1437605D1*
X927142Y1432856D1*
X932856Y1427142D1*
X937605Y1420605D1*
X941273Y1413406D1*
X943770Y1405722D1*
X945034Y1397740D1*
Y1389661D1*
X1295034Y640093D2*
X1293770Y632113D1*
X1291273Y624428D1*
X1287605Y617228D1*
X1282856Y610692D1*
X1277142Y604979D1*
X1270605Y600230D1*
X1263406Y596560D1*
X1255722Y594064D1*
X1247740Y592801D1*
X1239661D1*
X1231680Y594064D1*
X1223996Y596560D1*
X1216797Y600230D1*
X1210260Y604979D1*
X1204546Y610692D1*
X1199797Y617228D1*
X1196129Y624428D1*
X1193631Y632113D1*
X1192367Y640093D1*
Y648173D1*
X1193631Y656154D1*
X1196129Y663839D1*
X1199797Y671038D1*
X1204546Y677575D1*
X1210260Y683289D1*
X1216797Y688038D1*
X1223996Y691706D1*
X1231680Y694203D1*
X1239661Y695467D1*
X1247740D1*
X1255722Y694203D1*
X1263406Y691706D1*
X1270605Y688038D1*
X1277142Y683289D1*
X1282856Y677575D1*
X1287605Y671038D1*
X1291273Y663839D1*
X1293770Y656154D1*
X1295034Y648173D1*
Y640093D1*
X1659378Y937577D2*
X1657954Y928591D1*
X1655143Y919936D1*
X1651012Y911828D1*
X1645663Y904467D1*
X1639228Y898033D1*
X1631867Y892684D1*
X1623760Y888552D1*
X1615106Y885741D1*
X1606118Y884318D1*
X1597018D1*
X1588031Y885741D1*
X1579378Y888552D1*
X1571270Y892684D1*
X1563908Y898033D1*
X1559563Y902207D1*
X1559556Y884139D1*
X1443580D1*
Y1000115D1*
X1559556D1*
Y982066D1*
X1563908Y986222D1*
X1571270Y991571D1*
X1579378Y995701D1*
X1588031Y998513D1*
X1597018Y999937D1*
X1606118D1*
X1615106Y998513D1*
X1623760Y995701D1*
X1631867Y991571D1*
X1639228Y986222D1*
X1645663Y979787D1*
X1651012Y972427D1*
X1655143Y964319D1*
X1657954Y955664D1*
X1659378Y946677D1*
Y937577D1*
X1895034Y639661D2*
X1893770Y631680D1*
X1891273Y623996D1*
X1887605Y616797D1*
X1882856Y610260D1*
X1877142Y604546D1*
X1870605Y599797D1*
X1863406Y596129D1*
X1855722Y593631D1*
X1847740Y592367D1*
X1839661D1*
X1831680Y593631D1*
X1823996Y596129D1*
X1816797Y599797D1*
X1810260Y604546D1*
X1804546Y610260D1*
X1799797Y616797D1*
X1796129Y623996D1*
X1793631Y631680D1*
X1792367Y639661D1*
Y647740D1*
X1793631Y655722D1*
X1796129Y663406D1*
X1799797Y670605D1*
X1804546Y677142D1*
X1810260Y682856D1*
X1816797Y687605D1*
X1823996Y691273D1*
X1831680Y693770D1*
X1839661Y695034D1*
X1847740D1*
X1855722Y693770D1*
X1863406Y691273D1*
X1870605Y687605D1*
X1877142Y682856D1*
X1882856Y677142D1*
X1887605Y670605D1*
X1891273Y663406D1*
X1893770Y655722D1*
X1895034Y647740D1*
Y639661D1*
Y939661D2*
X1893770Y931680D1*
X1891273Y923996D1*
X1887605Y916797D1*
X1882856Y910260D1*
X1877142Y904546D1*
X1870605Y899797D1*
X1863406Y896129D1*
X1855722Y893631D1*
X1847740Y892367D1*
X1839661D1*
X1831680Y893631D1*
X1823996Y896129D1*
X1816797Y899797D1*
X1810260Y904546D1*
X1804546Y910260D1*
X1799797Y916797D1*
X1796129Y923996D1*
X1793631Y931680D1*
X1792367Y939661D1*
Y947740D1*
X1793631Y955722D1*
X1796129Y963406D1*
X1799797Y970605D1*
X1804546Y977142D1*
X1810260Y982856D1*
X1816797Y987605D1*
X1823996Y991273D1*
X1831680Y993770D1*
X1839661Y995034D1*
X1847740D1*
X1855722Y993770D1*
X1863406Y991273D1*
X1870605Y987605D1*
X1877142Y982856D1*
X1882856Y977142D1*
X1887605Y970605D1*
X1891273Y963406D1*
X1893770Y955722D1*
X1895034Y947740D1*
Y939661D1*
X744899Y1301689D2*
X851689D1*
Y1185713D1*
X735713D1*
Y1301689D1*
X744899D1*
X2745034Y939661D2*
X2743770Y931680D1*
X2741273Y923996D1*
X2737605Y916797D1*
X2732856Y910260D1*
X2727142Y904546D1*
X2720605Y899797D1*
X2713406Y896129D1*
X2705722Y893631D1*
X2697740Y892367D1*
X2689661D1*
X2681680Y893631D1*
X2673996Y896129D1*
X2666797Y899797D1*
X2660260Y904546D1*
X2654546Y910260D1*
X2649797Y916797D1*
X2646129Y923996D1*
X2643631Y931680D1*
X2642367Y939661D1*
Y947740D1*
X2643631Y955722D1*
X2646129Y963406D1*
X2649797Y970605D1*
X2654546Y977142D1*
X2660260Y982856D1*
X2666797Y987605D1*
X2673996Y991273D1*
X2681680Y993770D1*
X2689661Y995034D1*
X2697740D1*
X2705722Y993770D1*
X2713406Y991273D1*
X2720605Y987605D1*
X2727142Y982856D1*
X2732856Y977142D1*
X2737605Y970605D1*
X2741273Y963406D1*
X2743770Y955722D1*
X2745034Y947740D1*
Y939661D1*
Y1239661D2*
X2743770Y1231680D1*
X2741273Y1223996D1*
X2737605Y1216797D1*
X2732856Y1210260D1*
X2727142Y1204546D1*
X2720605Y1199797D1*
X2713406Y1196129D1*
X2705722Y1193631D1*
X2697740Y1192367D1*
X2689661D1*
X2681680Y1193631D1*
X2673996Y1196129D1*
X2666797Y1199797D1*
X2660260Y1204546D1*
X2654546Y1210260D1*
X2649797Y1216797D1*
X2646129Y1223996D1*
X2643631Y1231680D1*
X2642367Y1239661D1*
Y1247740D1*
X2643631Y1255722D1*
X2646129Y1263406D1*
X2649797Y1270605D1*
X2654546Y1277142D1*
X2660260Y1282856D1*
X2666797Y1287605D1*
X2673996Y1291273D1*
X2681680Y1293770D1*
X2689661Y1295034D1*
X2697740D1*
X2705722Y1293770D1*
X2713406Y1291273D1*
X2720605Y1287605D1*
X2727142Y1282856D1*
X2732856Y1277142D1*
X2737605Y1270605D1*
X2741273Y1263406D1*
X2743770Y1255722D1*
X2745034Y1247740D1*
Y1239661D1*
X1245034Y1589661D2*
X1243770Y1581680D1*
X1241273Y1573996D1*
X1237605Y1566797D1*
X1232856Y1560260D1*
X1227142Y1554546D1*
X1220605Y1549797D1*
X1213406Y1546129D1*
X1205722Y1543631D1*
X1197740Y1542367D1*
X1189080Y1542436D1*
X1126671Y1480018D1*
X1126689Y1226686D1*
X1348442Y1226689D1*
X1354089Y1233312D1*
X1360773Y1239022D1*
X1368440Y1243694D1*
X1360773Y1248379D1*
X1354089Y1254089D1*
X1348379Y1260773D1*
X1343787Y1268269D1*
X1340423Y1276390D1*
X1338371Y1284937D1*
X1337681Y1293701D1*
X1338371Y1302465D1*
X1340423Y1311012D1*
X1343787Y1319133D1*
X1348379Y1326629D1*
X1354089Y1333312D1*
X1360773Y1339022D1*
X1368440Y1343694D1*
X1360773Y1348379D1*
X1354089Y1354089D1*
X1348379Y1360773D1*
X1343787Y1368269D1*
X1340423Y1376390D1*
X1338371Y1384937D1*
X1337681Y1393701D1*
X1338371Y1402465D1*
X1340423Y1411012D1*
X1343787Y1419133D1*
X1348379Y1426629D1*
X1354089Y1433312D1*
X1359059Y1437671D1*
X1337681Y1437681D1*
Y1549720D1*
X1449720D1*
Y1437681D1*
X1428370D1*
X1433312Y1433312D1*
X1439022Y1426629D1*
X1443614Y1419133D1*
X1446979Y1411012D1*
X1449030Y1402465D1*
X1449720Y1393701D1*
X1449030Y1384937D1*
X1446979Y1376390D1*
X1443614Y1368269D1*
X1439022Y1360773D1*
X1433312Y1354089D1*
X1426629Y1348379D1*
X1418962Y1343707D1*
X1426629Y1339022D1*
X1433312Y1333312D1*
X1439022Y1326629D1*
X1443614Y1319133D1*
X1446979Y1311012D1*
X1449030Y1302465D1*
X1449720Y1293701D1*
X1449030Y1284937D1*
X1446979Y1276390D1*
X1443614Y1268269D1*
X1439022Y1260773D1*
X1433312Y1254089D1*
X1426629Y1248379D1*
X1418962Y1243707D1*
X1426629Y1239022D1*
X1433312Y1233312D1*
X1439022Y1226629D1*
X1443614Y1219133D1*
X1446979Y1211012D1*
X1449030Y1202465D1*
X1449720Y1193701D1*
X1449030Y1184937D1*
X1446979Y1176390D1*
X1443614Y1168269D1*
X1439022Y1160773D1*
X1433312Y1154089D1*
X1426629Y1148379D1*
X1419133Y1143787D1*
X1411012Y1140423D1*
X1402465Y1138371D1*
X1393701Y1137681D1*
X1384937Y1138371D1*
X1376390Y1140423D1*
X1368269Y1143787D1*
X1360773Y1148379D1*
X1354089Y1154089D1*
X1348433Y1160706D1*
X1126686Y1160713D1*
X1126689Y1041373D1*
X1132951Y1037429D1*
X1139402Y1031921D1*
X1140516Y1030715D1*
X1144818Y1034802D1*
X1151680Y1039787D1*
X1159236Y1043638D1*
X1167303Y1046259D1*
X1175681Y1047585D1*
X1184161D1*
X1192539Y1046259D1*
X1200606Y1043638D1*
X1208163Y1039787D1*
X1215025Y1034802D1*
X1219256Y1030715D1*
X1223558Y1034802D1*
X1230420Y1039787D1*
X1237976Y1043638D1*
X1246043Y1046259D1*
X1254421Y1047585D1*
X1262902D1*
X1271280Y1046259D1*
X1279346Y1043638D1*
X1286903Y1039787D1*
X1293765Y1034802D1*
X1299762Y1028804D1*
X1301436Y1026682D1*
X1351709Y1026689D1*
X1460707Y1135701D1*
X1460814Y1596289D1*
X1461623Y1601402D1*
X1463223Y1606325D1*
X1465573Y1610937D1*
X1468617Y1615125D1*
X1515845Y1662497D1*
X1872277Y2018785D1*
X1876465Y2021828D1*
X1881076Y2024178D1*
X1886000Y2025778D1*
X1891113Y2026588D1*
X1958005Y2026689D1*
X2446289Y2026588D1*
X2451402Y2025778D1*
X2456325Y2024178D1*
X2460937Y2021828D1*
X2465125Y2018785D1*
X2512497Y1971556D1*
X2718785Y1765125D1*
X2721828Y1760937D1*
X2724178Y1756325D1*
X2725778Y1751402D1*
X2726588Y1746289D1*
X2726689Y1679396D1*
X2726588Y1364529D1*
X2725778Y1359416D1*
X2724178Y1354493D1*
X2721828Y1349881D1*
X2718785Y1345693D1*
X2671556Y1298322D1*
X2626671Y1253434D1*
X2626689Y739009D1*
X2633312Y733312D1*
X2639022Y726629D1*
X2643614Y719133D1*
X2646979Y711012D1*
X2649030Y702465D1*
X2649720Y693701D1*
X2649030Y684937D1*
X2646979Y676390D1*
X2643614Y668269D1*
X2639022Y660773D1*
X2633312Y654089D1*
X2626629Y648379D1*
X2619133Y643787D1*
X2611012Y640423D1*
X2602465Y638371D1*
X2593701Y637681D1*
X2584937Y638371D1*
X2576390Y640423D1*
X2568269Y643787D1*
X2560773Y648379D1*
X2554089Y654089D1*
X2548379Y660773D1*
X2543787Y668269D1*
X2540423Y676390D1*
X2538371Y684937D1*
X2537681Y693701D1*
X2538371Y702465D1*
X2540423Y711012D1*
X2543787Y719133D1*
X2548379Y726629D1*
X2554089Y733312D1*
X2560706Y738969D1*
X2560814Y1269706D1*
X2561623Y1274819D1*
X2563223Y1279741D1*
X2565573Y1284354D1*
X2568617Y1288542D1*
X2615845Y1335913D1*
X2660731Y1380801D1*
X2660713Y1730014D1*
X2430058Y1960692D1*
X1907340Y1960713D1*
X1526699Y1580047D1*
X1526588Y1119454D1*
X1525778Y1114341D1*
X1524178Y1109417D1*
X1521828Y1104806D1*
X1518785Y1100618D1*
X1471556Y1053245D1*
X1386783Y968617D1*
X1382596Y965573D1*
X1377984Y963223D1*
X1373060Y961623D1*
X1367948Y960814D1*
X1301450Y960713D1*
X1296882Y955480D1*
X1290432Y949972D1*
X1283201Y945541D1*
X1275364Y942295D1*
X1267117Y940315D1*
X1258661Y939650D1*
X1250206Y940315D1*
X1241959Y942295D1*
X1234122Y945541D1*
X1226891Y949972D1*
X1220441Y955480D1*
X1219327Y956686D1*
X1215025Y952600D1*
X1210727Y949219D1*
X1301997Y857949D1*
X1628626Y857945D1*
X1682105Y911438D1*
X1682113Y1001381D1*
X1568617Y1114990D1*
X1565573Y1119177D1*
X1563223Y1123790D1*
X1561625Y1128713D1*
X1560814Y1133825D1*
X1560713Y1200718D1*
X1560814Y1346289D1*
X1561623Y1351402D1*
X1563223Y1356325D1*
X1565573Y1360937D1*
X1568617Y1365125D1*
X1615845Y1412497D1*
X1622277Y1418785D1*
X1626465Y1421828D1*
X1631076Y1424178D1*
X1636000Y1425778D1*
X1641113Y1426588D1*
X1643711Y1426689D1*
X1651104Y1430083D1*
X1657319Y1436298D1*
X1664430Y1441466D1*
X1668269Y1443787D1*
X1660773Y1448379D1*
X1654089Y1454089D1*
X1648379Y1460773D1*
X1643787Y1468269D1*
X1640423Y1476390D1*
X1638371Y1484937D1*
X1637681Y1493701D1*
X1638371Y1502465D1*
X1640423Y1511012D1*
X1643787Y1519133D1*
X1648379Y1526629D1*
X1654089Y1533312D1*
X1660773Y1539022D1*
X1668269Y1543614D1*
X1676390Y1546979D1*
X1684937Y1549030D1*
X1693701Y1549720D1*
X1702465Y1549030D1*
X1711012Y1546979D1*
X1719133Y1543614D1*
X1726629Y1539022D1*
X1733312Y1533312D1*
X1739022Y1526629D1*
X1743614Y1519133D1*
X1746979Y1511012D1*
X1749030Y1502465D1*
X1749720Y1493701D1*
X1749030Y1484937D1*
X1746979Y1476390D1*
X1743614Y1468269D1*
X1739022Y1460773D1*
X1733312Y1454089D1*
X1726629Y1448379D1*
X1718962Y1443707D1*
X1726629Y1439022D1*
X1733312Y1433312D1*
X1734911Y1431584D1*
X1760694Y1457346D1*
X1760814Y1646289D1*
X1761623Y1651402D1*
X1763223Y1656325D1*
X1765573Y1660937D1*
X1768617Y1665125D1*
X1815845Y1712497D1*
X1922277Y1818785D1*
X1926465Y1821828D1*
X1931076Y1824178D1*
X1936000Y1825778D1*
X1941113Y1826588D1*
X2008005Y1826689D1*
X2366125Y1826588D1*
X2371238Y1825778D1*
X2376161Y1824178D1*
X2380773Y1821828D1*
X2384961Y1818785D1*
X2432333Y1771556D1*
X2563186Y1640703D1*
X2568269Y1643787D1*
X2560773Y1648379D1*
X2554089Y1654089D1*
X2548379Y1660773D1*
X2543787Y1668269D1*
X2540423Y1676390D1*
X2538371Y1684937D1*
X2537681Y1693701D1*
X2538371Y1702465D1*
X2540423Y1711012D1*
X2543787Y1719133D1*
X2548379Y1726629D1*
X2554089Y1733312D1*
X2560773Y1739022D1*
X2568269Y1743614D1*
X2576390Y1746979D1*
X2584937Y1749030D1*
X2593701Y1749720D1*
X2602465Y1749030D1*
X2611012Y1746979D1*
X2619133Y1743614D1*
X2626629Y1739022D1*
X2633312Y1733312D1*
X2639022Y1726629D1*
X2643614Y1719133D1*
X2646979Y1711012D1*
X2649030Y1702465D1*
X2649720Y1693701D1*
X2649030Y1684937D1*
X2646979Y1676390D1*
X2643614Y1668269D1*
X2639022Y1660773D1*
X2633312Y1654089D1*
X2626629Y1648379D1*
X2618962Y1643707D1*
X2626629Y1639022D1*
X2633312Y1633312D1*
X2639022Y1626629D1*
X2643614Y1619133D1*
X2646979Y1611012D1*
X2649030Y1602465D1*
X2649720Y1593701D1*
X2649030Y1584937D1*
X2646979Y1576390D1*
X2643614Y1568269D1*
X2639022Y1560773D1*
X2633312Y1554089D1*
X2626629Y1548379D1*
X2618962Y1543707D1*
X2626629Y1539022D1*
X2633312Y1533312D1*
X2639022Y1526629D1*
X2643614Y1519133D1*
X2646979Y1511012D1*
X2649030Y1502465D1*
X2649720Y1493701D1*
X2649030Y1484937D1*
X2646979Y1476390D1*
X2643614Y1468269D1*
X2639022Y1460773D1*
X2633312Y1454089D1*
X2626629Y1448379D1*
X2618962Y1443707D1*
X2626629Y1439022D1*
X2633312Y1433312D1*
X2639022Y1426629D1*
X2643614Y1419133D1*
X2646979Y1411012D1*
X2649030Y1402465D1*
X2649720Y1393701D1*
X2649030Y1384937D1*
X2646979Y1376390D1*
X2643614Y1368269D1*
X2639022Y1360773D1*
X2633312Y1354089D1*
X2626629Y1348379D1*
X2619133Y1343787D1*
X2611012Y1340423D1*
X2602465Y1338371D1*
X2593701Y1337681D1*
X2584937Y1338371D1*
X2576390Y1340423D1*
X2568269Y1343787D1*
X2560773Y1348379D1*
X2554089Y1354089D1*
X2548379Y1360773D1*
X2543787Y1368269D1*
X2540423Y1376390D1*
X2538371Y1384937D1*
X2537681Y1393701D1*
X2538371Y1402465D1*
X2540423Y1411012D1*
X2543787Y1419133D1*
X2548379Y1426629D1*
X2554089Y1433312D1*
X2560773Y1439022D1*
X2568440Y1443694D1*
X2560773Y1448379D1*
X2554089Y1454089D1*
X2548379Y1460773D1*
X2543787Y1468269D1*
X2540423Y1476390D1*
X2538371Y1484937D1*
X2537681Y1493701D1*
X2538371Y1502465D1*
X2540423Y1511012D1*
X2543787Y1519133D1*
X2548379Y1526629D1*
X2554089Y1533312D1*
X2560773Y1539022D1*
X2568440Y1543694D1*
X2560773Y1548379D1*
X2554089Y1554089D1*
X2548379Y1560773D1*
X2544719Y1566605D1*
X2540210Y1570374D1*
X2349881Y1760705D1*
X1957364Y1760713D1*
X1826684Y1630031D1*
X1826588Y1441113D1*
X1825778Y1436000D1*
X1824178Y1431076D1*
X1821828Y1426465D1*
X1818785Y1422277D1*
X1771556Y1374904D1*
X1765125Y1368617D1*
X1760937Y1365573D1*
X1756325Y1363223D1*
X1751402Y1361623D1*
X1746289Y1360814D1*
X1739000Y1360713D1*
X1733312Y1354089D1*
X1726629Y1348379D1*
X1718962Y1343707D1*
X1726629Y1339022D1*
X1733312Y1333312D1*
X1738969Y1326696D1*
X1904161Y1326689D1*
X1910260Y1332856D1*
X1916797Y1337605D1*
X1923996Y1341273D1*
X1931680Y1343770D1*
X1939661Y1345034D1*
X1947740D1*
X1955722Y1343770D1*
X1963406Y1341273D1*
X1970605Y1337605D1*
X1977142Y1332856D1*
X1982856Y1327142D1*
X1987605Y1320605D1*
X1991273Y1313406D1*
X1993770Y1305722D1*
X1995034Y1297740D1*
Y1289661D1*
X1993770Y1281680D1*
X1991273Y1273996D1*
X1987605Y1266797D1*
X1982856Y1260260D1*
X1977142Y1254546D1*
X1970605Y1249797D1*
X1963406Y1246129D1*
X1955722Y1243631D1*
X1947740Y1242367D1*
X1939661D1*
X1931680Y1243631D1*
X1923996Y1246129D1*
X1916797Y1249797D1*
X1910260Y1254546D1*
X1904184Y1260718D1*
X1738982Y1260713D1*
X1733312Y1254089D1*
X1726629Y1248379D1*
X1718962Y1243707D1*
X1726629Y1239022D1*
X1733312Y1233312D1*
X1739022Y1226629D1*
X1743614Y1219133D1*
X1746979Y1211012D1*
X1749030Y1202465D1*
X1749720Y1193701D1*
X1749030Y1184937D1*
X1746979Y1176390D1*
X1743614Y1168269D1*
X1739022Y1160773D1*
X1733312Y1154089D1*
X1726629Y1148379D1*
X1719133Y1143787D1*
X1711012Y1140423D1*
X1702465Y1138371D1*
X1693701Y1137681D1*
X1684937Y1138371D1*
X1676390Y1140423D1*
X1668269Y1143787D1*
X1660773Y1148379D1*
X1654089Y1154089D1*
X1648379Y1160773D1*
X1643787Y1168269D1*
X1640423Y1176390D1*
X1638371Y1184937D1*
X1637681Y1193701D1*
X1638371Y1202465D1*
X1640423Y1211012D1*
X1643787Y1219133D1*
X1648379Y1226629D1*
X1654089Y1233312D1*
X1660773Y1239022D1*
X1668440Y1243694D1*
X1660773Y1248379D1*
X1654089Y1254089D1*
X1648379Y1260773D1*
X1643787Y1268269D1*
X1640423Y1276390D1*
X1638371Y1284937D1*
X1637681Y1293701D1*
X1638371Y1302465D1*
X1640423Y1311012D1*
X1643787Y1319133D1*
X1648379Y1326629D1*
X1654089Y1333312D1*
X1660773Y1339022D1*
X1668440Y1343694D1*
X1660773Y1348379D1*
X1654089Y1354089D1*
X1652491Y1355818D1*
X1626707Y1330055D1*
X1626689Y1150105D1*
X1740185Y1036437D1*
X1743228Y1032249D1*
X1745579Y1027638D1*
X1747177Y1022714D1*
X1747988Y1017601D1*
X1748089Y950709D1*
X1747988Y895194D1*
X1747177Y890081D1*
X1745579Y885159D1*
X1743228Y880546D1*
X1740185Y876358D1*
X1692957Y828987D1*
X1663699Y799873D1*
X1659512Y796829D1*
X1654899Y794480D1*
X1649976Y792881D1*
X1644864Y792071D1*
X1577971Y791969D1*
X1285748Y792071D1*
X1280636Y792881D1*
X1275713Y794480D1*
X1271101Y796829D1*
X1266912Y799873D1*
X1219541Y847101D1*
X1149325Y917461D1*
X1146282Y921648D1*
X1143932Y926260D1*
X1142333Y931184D1*
X1141522Y936297D1*
X1141421Y955786D1*
X1139402Y955480D1*
X1132951Y949972D1*
X1126689Y946084D1*
Y884633D1*
X1234635Y776660D1*
X1946333Y776543D1*
X1951446Y775734D1*
X1956369Y774134D1*
X1960982Y771783D1*
X1965169Y768741D1*
X1987699Y746354D1*
X1987681Y749720D1*
X2012836D1*
X2012946Y756875D1*
X2013756Y761988D1*
X2015356Y766911D1*
X2017706Y771524D1*
X2020749Y775711D1*
X2067978Y823084D1*
X2210706Y965812D1*
X2210814Y1346289D1*
X2211623Y1351402D1*
X2213223Y1356325D1*
X2215573Y1360937D1*
X2218617Y1365125D1*
X2238365Y1385017D1*
X2237681Y1393701D1*
X2238371Y1402465D1*
X2240423Y1411012D1*
X2243787Y1419133D1*
X2248379Y1426629D1*
X2254089Y1433312D1*
X2260773Y1439022D1*
X2268269Y1443614D1*
X2276390Y1446979D1*
X2284937Y1449030D1*
X2293701Y1449720D1*
X2302465Y1449030D1*
X2311012Y1446979D1*
X2319133Y1443614D1*
X2326629Y1439022D1*
X2333312Y1433312D1*
X2339022Y1426629D1*
X2343614Y1419133D1*
X2346979Y1411012D1*
X2349030Y1402465D1*
X2349720Y1393701D1*
X2349030Y1384937D1*
X2346979Y1376390D1*
X2343614Y1368269D1*
X2339022Y1360773D1*
X2333312Y1354089D1*
X2326629Y1348379D1*
X2319133Y1343787D1*
X2311012Y1340423D1*
X2302465Y1338371D1*
X2293701Y1337681D1*
X2285022Y1338361D1*
X2276707Y1330055D1*
X2276588Y949567D1*
X2275778Y944454D1*
X2274178Y939530D1*
X2271828Y934919D1*
X2268785Y930731D1*
X2221556Y883358D1*
X2087912Y749714D1*
X2099720Y749720D1*
Y728369D1*
X2104089Y733312D1*
X2110773Y739022D1*
X2118269Y743614D1*
X2126390Y746979D1*
X2134937Y749030D1*
X2143701Y749720D1*
X2152465Y749030D1*
X2161012Y746979D1*
X2169133Y743614D1*
X2176629Y739022D1*
X2183312Y733312D1*
X2189022Y726629D1*
X2193694Y718962D1*
X2198379Y726629D1*
X2204089Y733312D1*
X2210773Y739022D1*
X2218269Y743614D1*
X2226390Y746979D1*
X2234937Y749030D1*
X2243701Y749720D1*
X2252465Y749030D1*
X2261012Y746979D1*
X2269133Y743614D1*
X2276629Y739022D1*
X2283312Y733312D1*
X2289022Y726629D1*
X2293614Y719133D1*
X2296979Y711012D1*
X2299030Y702465D1*
X2299720Y693701D1*
X2299030Y684937D1*
X2296979Y676390D1*
X2293614Y668269D1*
X2289022Y660773D1*
X2283312Y654089D1*
X2276629Y648379D1*
X2269133Y643787D1*
X2261012Y640423D1*
X2252465Y638371D1*
X2243701Y637681D1*
X2234937Y638371D1*
X2226390Y640423D1*
X2218269Y643787D1*
X2210773Y648379D1*
X2204089Y654089D1*
X2198379Y660773D1*
X2193707Y668440D1*
X2189022Y660773D1*
X2183312Y654089D1*
X2176629Y648379D1*
X2169133Y643787D1*
X2161012Y640423D1*
X2152465Y638371D1*
X2143701Y637681D1*
X2134937Y638371D1*
X2126390Y640423D1*
X2118269Y643787D1*
X2110773Y648379D1*
X2104089Y654089D1*
X2099731Y659059D1*
X2099720Y637681D1*
X1987681D1*
Y661257D1*
X1981076Y663223D1*
X1976465Y665573D1*
X1972277Y668617D1*
X1930055Y710694D1*
X1218398Y710770D1*
X1213285Y711580D1*
X1208362Y713180D1*
X1203749Y715530D1*
X1199562Y718572D1*
X1152189Y765801D1*
X1068617Y849517D1*
X1065573Y853706D1*
X1063223Y858318D1*
X1061625Y863241D1*
X1060814Y868353D1*
X1060713Y935247D1*
Y957890D1*
X1057453Y961930D1*
X1053021Y969161D1*
X1049776Y976999D1*
X1047795Y985245D1*
X1047130Y993701D1*
X1047795Y1002156D1*
X1049776Y1010403D1*
X1053021Y1018240D1*
X1057453Y1025471D1*
X1060722Y1029499D1*
X1060814Y1496289D1*
X1061623Y1501402D1*
X1063223Y1506325D1*
X1065573Y1510937D1*
X1068617Y1515125D1*
X1115845Y1562497D1*
X1142411Y1589064D1*
X1142367Y1597740D1*
X1143631Y1605722D1*
X1146129Y1613406D1*
X1149797Y1620605D1*
X1154546Y1627142D1*
X1160260Y1632856D1*
X1166797Y1637605D1*
X1173996Y1641273D1*
X1181680Y1643770D1*
X1189661Y1645034D1*
X1197740D1*
X1205722Y1643770D1*
X1213406Y1641273D1*
X1220605Y1637605D1*
X1227142Y1632856D1*
X1232856Y1627142D1*
X1237605Y1620605D1*
X1241273Y1613406D1*
X1243770Y1605722D1*
X1245034Y1597740D1*
Y1589661D1*
Y1889661D2*
X1243770Y1881680D1*
X1241273Y1873996D1*
X1237605Y1866797D1*
X1232856Y1860260D1*
X1227142Y1854546D1*
X1220605Y1849797D1*
X1213406Y1846129D1*
X1205722Y1843631D1*
X1197740Y1842367D1*
X1189661D1*
X1181680Y1843631D1*
X1173996Y1846129D1*
X1166797Y1849797D1*
X1160260Y1854546D1*
X1154546Y1860260D1*
X1149797Y1866797D1*
X1146129Y1873996D1*
X1143631Y1881680D1*
X1142367Y1889661D1*
Y1897740D1*
X1143631Y1905722D1*
X1146129Y1913406D1*
X1149797Y1920605D1*
X1154546Y1927142D1*
X1160260Y1932856D1*
X1166797Y1937605D1*
X1173996Y1941273D1*
X1181680Y1943770D1*
X1189661Y1945034D1*
X1197740D1*
X1205722Y1943770D1*
X1213406Y1941273D1*
X1220605Y1937605D1*
X1227142Y1932856D1*
X1232856Y1927142D1*
X1237605Y1920605D1*
X1241273Y1913406D1*
X1243770Y1905722D1*
X1245034Y1897740D1*
Y1889661D1*
X1546867Y699720D2*
X1649720D1*
Y587681D1*
X1537681D1*
Y609031D1*
X1533312Y604089D1*
X1526629Y598379D1*
X1519133Y593787D1*
X1511012Y590423D1*
X1502465Y588371D1*
X1493701Y587681D1*
X1484937Y588371D1*
X1476390Y590423D1*
X1468269Y593787D1*
X1460773Y598379D1*
X1454089Y604089D1*
X1448379Y610773D1*
X1443707Y618440D1*
X1439022Y610773D1*
X1433312Y604089D1*
X1426629Y598379D1*
X1419133Y593787D1*
X1411012Y590423D1*
X1402465Y588371D1*
X1393701Y587681D1*
X1384937Y588371D1*
X1376390Y590423D1*
X1368269Y593787D1*
X1360773Y598379D1*
X1354089Y604089D1*
X1348379Y610773D1*
X1343787Y618269D1*
X1340423Y626390D1*
X1338371Y634937D1*
X1337681Y643701D1*
X1338371Y652465D1*
X1340423Y661012D1*
X1343787Y669133D1*
X1348379Y676629D1*
X1354089Y683312D1*
X1360773Y689022D1*
X1368269Y693614D1*
X1376390Y696979D1*
X1384937Y699030D1*
X1393701Y699720D1*
X1402465Y699030D1*
X1411012Y696979D1*
X1419133Y693614D1*
X1426629Y689022D1*
X1433312Y683312D1*
X1439022Y676629D1*
X1443694Y668962D1*
X1448379Y676629D1*
X1454089Y683312D1*
X1460773Y689022D1*
X1468269Y693614D1*
X1476390Y696979D1*
X1484937Y699030D1*
X1493701Y699720D1*
X1502465Y699030D1*
X1511012Y696979D1*
X1519133Y693614D1*
X1526629Y689022D1*
X1533312Y683312D1*
X1537671Y678343D1*
X1537681Y699720D1*
X1546867D1*
X645034Y1389661D2*
X643770Y1381680D1*
X641273Y1373996D1*
X637605Y1366797D1*
X632856Y1360260D1*
X627142Y1354546D1*
X620605Y1349797D1*
X613406Y1346129D1*
X605722Y1343631D1*
X597740Y1342367D1*
X589661D1*
X581680Y1343631D1*
X573996Y1346129D1*
X566797Y1349797D1*
X560260Y1354546D1*
X554546Y1360260D1*
X549797Y1366797D1*
X546129Y1373996D1*
X543631Y1381680D1*
X542367Y1389661D1*
Y1397740D1*
X543631Y1405722D1*
X546129Y1413406D1*
X549797Y1420605D1*
X554546Y1427142D1*
X560260Y1432856D1*
X566797Y1437605D1*
X573996Y1441273D1*
X581680Y1443770D1*
X589661Y1445034D1*
X597740D1*
X605722Y1443770D1*
X613406Y1441273D1*
X620605Y1437605D1*
X627142Y1432856D1*
X632856Y1427142D1*
X637605Y1420605D1*
X641273Y1413406D1*
X643770Y1405722D1*
X645034Y1397740D1*
Y1389661D1*
Y1089661D2*
X643770Y1081680D1*
X641273Y1073996D1*
X637605Y1066797D1*
X632856Y1060260D1*
X627142Y1054546D1*
X620605Y1049797D1*
X613406Y1046129D1*
X605722Y1043631D1*
X597740Y1042367D1*
X589661D1*
X581680Y1043631D1*
X573996Y1046129D1*
X566797Y1049797D1*
X560260Y1054546D1*
X554546Y1060260D1*
X549797Y1066797D1*
X546129Y1073996D1*
X543631Y1081680D1*
X542367Y1089661D1*
Y1097740D1*
X543631Y1105722D1*
X546129Y1113406D1*
X549797Y1120605D1*
X554546Y1127142D1*
X560260Y1132856D1*
X566797Y1137605D1*
X573996Y1141273D1*
X581680Y1143770D1*
X589661Y1145034D1*
X597740D1*
X605722Y1143770D1*
X613406Y1141273D1*
X620605Y1137605D1*
X627142Y1132856D1*
X632856Y1127142D1*
X637605Y1120605D1*
X641273Y1113406D1*
X643770Y1105722D1*
X645034Y1097740D1*
Y1089661D1*
X2295034Y1889661D2*
X2293770Y1881680D1*
X2291273Y1873996D1*
X2287605Y1866797D1*
X2282856Y1860260D1*
X2277142Y1854546D1*
X2270605Y1849797D1*
X2263406Y1846129D1*
X2255722Y1843631D1*
X2247740Y1842367D1*
X2239661D1*
X2231680Y1843631D1*
X2223996Y1846129D1*
X2216797Y1849797D1*
X2210260Y1854546D1*
X2204546Y1860260D1*
X2199797Y1866797D1*
X2196129Y1873996D1*
X2193631Y1881680D1*
X2192367Y1889661D1*
Y1897740D1*
X2193631Y1905722D1*
X2196129Y1913406D1*
X2199797Y1920605D1*
X2204546Y1927142D1*
X2210260Y1932856D1*
X2216797Y1937605D1*
X2223996Y1941273D1*
X2231680Y1943770D1*
X2239661Y1945034D1*
X2247740D1*
X2255722Y1943770D1*
X2263406Y1941273D1*
X2270605Y1937605D1*
X2277142Y1932856D1*
X2282856Y1927142D1*
X2287605Y1920605D1*
X2291273Y1913406D1*
X2293770Y1905722D1*
X2295034Y1897740D1*
Y1889661D1*
X1995034D2*
X1993770Y1881680D1*
X1991273Y1873996D1*
X1987605Y1866797D1*
X1982856Y1860260D1*
X1977142Y1854546D1*
X1970605Y1849797D1*
X1963406Y1846129D1*
X1955722Y1843631D1*
X1947740Y1842367D1*
X1939661D1*
X1931680Y1843631D1*
X1923996Y1846129D1*
X1916797Y1849797D1*
X1910260Y1854546D1*
X1904546Y1860260D1*
X1899797Y1866797D1*
X1896129Y1873996D1*
X1893631Y1881680D1*
X1892367Y1889661D1*
Y1897740D1*
X1893631Y1905722D1*
X1896129Y1913406D1*
X1899797Y1920605D1*
X1904546Y1927142D1*
X1910260Y1932856D1*
X1916797Y1937605D1*
X1923996Y1941273D1*
X1931680Y1943770D1*
X1939661Y1945034D1*
X1947740D1*
X1955722Y1943770D1*
X1963406Y1941273D1*
X1970605Y1937605D1*
X1977142Y1932856D1*
X1982856Y1927142D1*
X1987605Y1920605D1*
X1991273Y1913406D1*
X1993770Y1905722D1*
X1995034Y1897740D1*
Y1889661D1*
Y1589661D2*
X1993770Y1581680D1*
X1991273Y1573996D1*
X1987605Y1566797D1*
X1982856Y1560260D1*
X1977142Y1554546D1*
X1970605Y1549797D1*
X1963406Y1546129D1*
X1955722Y1543631D1*
X1947740Y1542367D1*
X1939661D1*
X1931680Y1543631D1*
X1923996Y1546129D1*
X1916797Y1549797D1*
X1910260Y1554546D1*
X1904546Y1560260D1*
X1899797Y1566797D1*
X1896129Y1573996D1*
X1893631Y1581680D1*
X1892367Y1589661D1*
Y1597740D1*
X1893631Y1605722D1*
X1896129Y1613406D1*
X1899797Y1620605D1*
X1904546Y1627142D1*
X1910260Y1632856D1*
X1916797Y1637605D1*
X1923996Y1641273D1*
X1931680Y1643770D1*
X1939661Y1645034D1*
X1947740D1*
X1955722Y1643770D1*
X1963406Y1641273D1*
X1970605Y1637605D1*
X1977142Y1632856D1*
X1982856Y1627142D1*
X1987605Y1620605D1*
X1991273Y1613406D1*
X1993770Y1605722D1*
X1995034Y1597740D1*
Y1589661D1*
X2046867Y1199720D2*
X2149720D1*
Y1087681D1*
X2128370D1*
X2133312Y1083312D1*
X2139022Y1076629D1*
X2143614Y1069133D1*
X2146979Y1061012D1*
X2149030Y1052465D1*
X2149720Y1043701D1*
X2149030Y1034937D1*
X2146979Y1026390D1*
X2143614Y1018269D1*
X2139022Y1010773D1*
X2133312Y1004089D1*
X2126629Y998379D1*
X2118962Y993707D1*
X2126629Y989022D1*
X2133312Y983312D1*
X2139022Y976629D1*
X2143614Y969133D1*
X2146979Y961012D1*
X2149030Y952465D1*
X2149720Y943701D1*
X2149030Y934937D1*
X2146979Y926390D1*
X2143614Y918269D1*
X2139022Y910773D1*
X2133312Y904089D1*
X2126629Y898379D1*
X2119133Y893787D1*
X2111012Y890423D1*
X2102465Y888371D1*
X2093701Y887681D1*
X2084937Y888371D1*
X2076390Y890423D1*
X2068269Y893787D1*
X2060773Y898379D1*
X2054089Y904089D1*
X2048379Y910773D1*
X2043787Y918269D1*
X2040423Y926390D1*
X2038371Y934937D1*
X2037681Y943701D1*
X2038371Y952465D1*
X2040423Y961012D1*
X2043787Y969133D1*
X2048379Y976629D1*
X2054089Y983312D1*
X2060773Y989022D1*
X2068440Y993694D1*
X2060773Y998379D1*
X2054089Y1004089D1*
X2048379Y1010773D1*
X2043787Y1018269D1*
X2040423Y1026390D1*
X2038371Y1034937D1*
X2037681Y1043701D1*
X2038371Y1052465D1*
X2040423Y1061012D1*
X2043787Y1069133D1*
X2048379Y1076629D1*
X2054089Y1083312D1*
X2059059Y1087671D1*
X2037681Y1087681D1*
Y1199720D1*
X2046867D1*
X2195034Y1289661D2*
X2193770Y1281680D1*
X2191273Y1273996D1*
X2187605Y1266797D1*
X2182856Y1260260D1*
X2177142Y1254546D1*
X2170605Y1249797D1*
X2163406Y1246129D1*
X2155722Y1243631D1*
X2147740Y1242367D1*
X2139661D1*
X2131680Y1243631D1*
X2123996Y1246129D1*
X2116797Y1249797D1*
X2110260Y1254546D1*
X2104546Y1260260D1*
X2099797Y1266797D1*
X2096129Y1273996D1*
X2093631Y1281680D1*
X2092367Y1289661D1*
Y1297740D1*
X2093631Y1305722D1*
X2096129Y1313406D1*
X2099797Y1320605D1*
X2104546Y1327142D1*
X2110260Y1332856D1*
X2116797Y1337605D1*
X2123996Y1341273D1*
X2131680Y1343770D1*
X2139661Y1345034D1*
X2147740D1*
X2155722Y1343770D1*
X2163406Y1341273D1*
X2170605Y1337605D1*
X2177142Y1332856D1*
X2182856Y1327142D1*
X2187605Y1320605D1*
X2191273Y1313406D1*
X2193770Y1305722D1*
X2195034Y1297740D1*
Y1289661D1*
Y1589661D2*
X2193770Y1581680D1*
X2191273Y1573996D1*
X2187605Y1566797D1*
X2182856Y1560260D1*
X2177142Y1554546D1*
X2170605Y1549797D1*
X2163406Y1546129D1*
X2155722Y1543631D1*
X2147740Y1542367D1*
X2139661D1*
X2131680Y1543631D1*
X2123996Y1546129D1*
X2116797Y1549797D1*
X2110260Y1554546D1*
X2104546Y1560260D1*
X2099797Y1566797D1*
X2096129Y1573996D1*
X2093631Y1581680D1*
X2092367Y1589661D1*
Y1597740D1*
X2093631Y1605722D1*
X2096129Y1613406D1*
X2099797Y1620605D1*
X2104546Y1627142D1*
X2110260Y1632856D1*
X2116797Y1637605D1*
X2123996Y1641273D1*
X2131680Y1643770D1*
X2139661Y1645034D1*
X2147740D1*
X2155722Y1643770D1*
X2163406Y1641273D1*
X2170605Y1637605D1*
X2177142Y1632856D1*
X2182856Y1627142D1*
X2187605Y1620605D1*
X2191273Y1613406D1*
X2193770Y1605722D1*
X2195034Y1597740D1*
Y1589661D1*
X896867Y1799720D2*
X909033D1*
X904089Y1804089D1*
X898379Y1810773D1*
X893787Y1818269D1*
X890423Y1826390D1*
X888371Y1834937D1*
X887681Y1843701D1*
X888371Y1852465D1*
X890423Y1861012D1*
X893787Y1869133D1*
X898379Y1876629D1*
X904089Y1883312D1*
X910773Y1889022D1*
X918440Y1893694D1*
X910773Y1898379D1*
X904089Y1904089D1*
X898379Y1910773D1*
X893787Y1918269D1*
X890423Y1926390D1*
X888371Y1934937D1*
X887681Y1943701D1*
X888371Y1952465D1*
X890423Y1961012D1*
X893787Y1969133D1*
X898379Y1976629D1*
X904089Y1983312D1*
X910773Y1989022D1*
X918269Y1993614D1*
X926390Y1996979D1*
X934937Y1999030D1*
X943701Y1999720D1*
X952465Y1999030D1*
X961012Y1996979D1*
X969133Y1993614D1*
X976629Y1989022D1*
X983312Y1983312D1*
X989022Y1976629D1*
X993614Y1969133D1*
X996979Y1961012D1*
X999030Y1952465D1*
X999720Y1943701D1*
X999030Y1934937D1*
X996979Y1926390D1*
X993614Y1918269D1*
X989022Y1910773D1*
X983312Y1904089D1*
X976629Y1898379D1*
X968962Y1893707D1*
X976629Y1889022D1*
X983312Y1883312D1*
X989022Y1876629D1*
X993614Y1869133D1*
X996979Y1861012D1*
X999030Y1852465D1*
X999720Y1843701D1*
X999030Y1834937D1*
X996979Y1826390D1*
X993614Y1818269D1*
X989022Y1810773D1*
X983312Y1804089D1*
X978343Y1799731D1*
X999720Y1799720D1*
Y1687681D1*
X887681D1*
Y1799720D1*
X896867D1*
X898836Y1047752D2*
X997752D1*
Y939650D1*
X889650D1*
Y1047752D1*
X898836D1*
X551155Y2139178D2*
X549740Y2130247D1*
X546945Y2121646D1*
X542840Y2113588D1*
X537524Y2106272D1*
X531130Y2099878D1*
X523814Y2094562D1*
X515756Y2090457D1*
X507155Y2087661D1*
X498223Y2086247D1*
X489178D1*
X480247Y2087661D1*
X471646Y2090457D1*
X463588Y2094562D1*
X456272Y2099878D1*
X449878Y2106272D1*
X445573Y2112075D1*
X445571Y525417D1*
X449878Y531130D1*
X456272Y537524D1*
X463588Y542840D1*
X471646Y546945D1*
X480247Y549740D1*
X489178Y551155D1*
X498223D1*
X507155Y549740D1*
X515756Y546945D1*
X523814Y542840D1*
X531130Y537524D1*
X537524Y531130D1*
X542840Y523814D1*
X546945Y515756D1*
X549740Y507155D1*
X551155Y498223D1*
Y489178D1*
X549740Y480247D1*
X546945Y471646D1*
X542840Y463588D1*
X537524Y456272D1*
X531130Y449878D1*
X525327Y445573D1*
X2711969Y445571D1*
X2706272Y449878D1*
X2699878Y456272D1*
X2694562Y463588D1*
X2690457Y471646D1*
X2687661Y480247D1*
X2686247Y489178D1*
Y498223D1*
X2687661Y507155D1*
X2690457Y515756D1*
X2694562Y523814D1*
X2699878Y531130D1*
X2706272Y537524D1*
X2713588Y542840D1*
X2721646Y546945D1*
X2730247Y549740D1*
X2739178Y551155D1*
X2748223D1*
X2757155Y549740D1*
X2765756Y546945D1*
X2773814Y542840D1*
X2781130Y537524D1*
X2787524Y531130D1*
X2791828Y525327D1*
X2791831Y2111984D1*
X2787524Y2106272D1*
X2781130Y2099878D1*
X2773814Y2094562D1*
X2765756Y2090457D1*
X2757155Y2087661D1*
X2748223Y2086247D1*
X2739178D1*
X2730247Y2087661D1*
X2721646Y2090457D1*
X2713588Y2094562D1*
X2706272Y2099878D1*
X2699878Y2106272D1*
X2694562Y2113588D1*
X2690457Y2121646D1*
X2687661Y2130247D1*
X2686247Y2139178D1*
Y2148223D1*
X2687661Y2157155D1*
X2690457Y2165756D1*
X2694562Y2173814D1*
X2699878Y2181130D1*
X2706272Y2187524D1*
X2712075Y2191828D1*
X525433Y2191831D1*
X531130Y2187524D1*
X537524Y2181130D1*
X542840Y2173814D1*
X546945Y2165756D1*
X549740Y2157155D1*
X551155Y2148223D1*
Y2139178D1*
X2749547Y1889306D2*
X2748173Y1880623D1*
X2745457Y1872262D1*
X2741466Y1864430D1*
X2736298Y1857319D1*
X2730083Y1851104D1*
X2722971Y1845936D1*
X2715139Y1841945D1*
X2706778Y1839228D1*
X2698096Y1837854D1*
X2689306D1*
X2680623Y1839228D1*
X2672262Y1841945D1*
X2664430Y1845936D1*
X2657319Y1851104D1*
X2651104Y1857319D1*
X2645936Y1864430D1*
X2641945Y1872262D1*
X2639228Y1880623D1*
X2637854Y1889306D1*
Y1898096D1*
X2639228Y1906778D1*
X2641945Y1915139D1*
X2645936Y1922971D1*
X2651104Y1930083D1*
X2657319Y1936298D1*
X2664430Y1941466D1*
X2672262Y1945457D1*
X2680623Y1948173D1*
X2689306Y1949547D1*
X2698096D1*
X2706778Y1948173D1*
X2715139Y1945457D1*
X2722971Y1941466D1*
X2730083Y1936298D1*
X2736298Y1930083D1*
X2741466Y1922971D1*
X2745457Y1915139D1*
X2748173Y1906778D1*
X2749547Y1898096D1*
Y1889306D1*
X2246867Y1749720D2*
X2349720D1*
Y1637681D1*
X2328370D1*
X2333312Y1633312D1*
X2339022Y1626629D1*
X2343614Y1619133D1*
X2346979Y1611012D1*
X2349030Y1602465D1*
X2349720Y1593701D1*
X2349030Y1584937D1*
X2346979Y1576390D1*
X2343614Y1568269D1*
X2339022Y1560773D1*
X2333312Y1554089D1*
X2326629Y1548379D1*
X2319133Y1543787D1*
X2311012Y1540423D1*
X2302465Y1538371D1*
X2293701Y1537681D1*
X2284937Y1538371D1*
X2276390Y1540423D1*
X2268269Y1543787D1*
X2260773Y1548379D1*
X2254089Y1554089D1*
X2248379Y1560773D1*
X2243787Y1568269D1*
X2240423Y1576390D1*
X2238371Y1584937D1*
X2237681Y1593701D1*
X2238371Y1602465D1*
X2240423Y1611012D1*
X2243787Y1619133D1*
X2248379Y1626629D1*
X2254089Y1633312D1*
X2259059Y1637671D1*
X2237681Y1637681D1*
Y1749720D1*
X2246867D1*
D16*
X2493701Y1093701D3*
D17*
Y793701D3*
D16*
X1193701Y1393701D3*
D17*
X893701D3*
D16*
X1243701Y644134D3*
D17*
X943701D3*
D18*
X1601568Y942127D3*
D19*
X1501568D3*
D16*
X1843701Y643701D3*
D17*
Y943701D3*
D18*
X793701Y1143701D3*
D19*
Y1243701D3*
D16*
X2693701Y943701D3*
D17*
Y1243701D3*
D16*
X1193701Y1593701D3*
D17*
Y1893701D3*
D20*
X1593701Y643701D3*
D21*
X1493701D3*
X1393701D3*
D16*
X593701Y1393701D3*
D17*
Y1093701D3*
D16*
X2243701Y1893701D3*
D17*
X1943701D3*
D16*
Y1593701D3*
D17*
Y1293701D3*
D20*
X2093701Y1143701D3*
D21*
Y1043701D3*
Y943701D3*
D20*
X2043701Y693701D3*
D21*
X2143701D3*
X2243701D3*
D16*
X2143701Y1293701D3*
D17*
Y1593701D3*
D20*
X943701Y1743701D3*
D21*
Y1843701D3*
Y1943701D3*
D20*
X1393701Y1493701D3*
D21*
Y1393701D3*
Y1293701D3*
Y1193701D3*
X1693701D3*
Y1293701D3*
Y1393701D3*
Y1493701D3*
D22*
X943701Y993701D3*
D23*
X1022441D3*
X1101181D3*
X1179921D3*
X1258661D3*
D24*
X2593701Y693701D3*
X2693701Y1893701D3*
D20*
X2293701Y1693701D3*
D21*
Y1593701D3*
Y1493701D3*
Y1393701D3*
X2593701D3*
Y1493701D3*
Y1593701D3*
Y1693701D3*
M02*
