G04 DipTrace 3.2.0.1*
G04 Bottom.gbl*
%MOIN*%
G04 #@! TF.FileFunction,Copper,L2,Bot*
G04 #@! TF.Part,Single*
G04 #@! TA.AperFunction,Conductor*
%ADD14C,0.012992*%
G04 #@! TA.AperFunction,CopperBalancing*
%ADD15C,0.025*%
G04 #@! TA.AperFunction,ComponentPad*
%ADD16C,0.062992*%
%ADD17R,0.062992X0.062992*%
%ADD18C,0.05*%
%ADD19C,0.05*%
%ADD20C,0.062992*%
%ADD21C,0.129921*%
%ADD22R,0.055118X0.055118*%
%ADD23C,0.055118*%
%ADD24C,0.059055*%
%ADD25R,0.059055X0.059055*%
%ADD26R,0.074803X0.074803*%
%ADD27C,0.074803*%
%ADD28C,0.059055*%
%FSLAX26Y26*%
G04*
G70*
G90*
G75*
G01*
G04 Bottom*
%LPD*%
X2793701Y1793701D2*
D14*
X2393701D1*
X2343701Y1843701D1*
Y1943701D1*
X993701Y1093701D2*
Y1243701D1*
X858661Y1378740D1*
X543701D1*
X3093701Y2393701D2*
X3043701D1*
X2893701Y2243701D1*
X2743701D1*
X2693701Y2293701D1*
X2093701D1*
X1893701Y2093701D1*
X1843701D1*
X2893701Y2243701D2*
D3*
X1843701Y1993701D2*
X1793701D1*
X1743701Y1943701D1*
X1143701D1*
X893701Y1693701D1*
X543701D1*
X1843701Y1893701D2*
X1798050D1*
X1519310Y1614961D1*
X543701D1*
X1843701Y1793699D2*
X1809014D1*
X1548772Y1533457D1*
X546465D1*
X543701Y1536220D1*
X1843701Y1293701D2*
Y1043701D1*
Y993701D1*
X1793701Y943701D1*
X993701D1*
X843701Y1093701D1*
Y1243701D1*
X787402Y1300000D1*
X543701D1*
X1843701Y1043701D2*
D3*
X548924Y2566962D2*
D15*
X3188480D1*
X553803Y2542093D2*
X3183600D1*
X547381Y2517224D2*
X3190024D1*
X448089Y2492356D2*
X465014D1*
X522369D2*
X3215034D1*
X3272390D2*
X3289315D1*
X448089Y2467487D2*
X3289315D1*
X448089Y2442618D2*
X2075138D1*
X2112290D2*
X2375129D1*
X2412281D2*
X2775130D1*
X2812282D2*
X3075122D1*
X3112274D2*
X3289315D1*
X448089Y2417749D2*
X2045677D1*
X2141715D2*
X2345668D1*
X2441743D2*
X2745669D1*
X2841743D2*
X3018605D1*
X3141735D2*
X3289315D1*
X448089Y2392881D2*
X2039719D1*
X2147672D2*
X2339711D1*
X2447699D2*
X2739713D1*
X2847701D2*
X2993736D1*
X3147692D2*
X3289315D1*
X448089Y2368012D2*
X2046573D1*
X2140818D2*
X2346566D1*
X2440810D2*
X2746567D1*
X2840811D2*
X2968869D1*
X3140839D2*
X3289315D1*
X448089Y2343143D2*
X1114877D1*
X1172555D2*
X1264873D1*
X1322550D2*
X1464856D1*
X1522533D2*
X1614850D1*
X1672529D2*
X2081453D1*
X2105974D2*
X2381445D1*
X2405966D2*
X2781446D1*
X2805967D2*
X2944001D1*
X3042301D2*
X3081438D1*
X3105959D2*
X3289315D1*
X448089Y2318274D2*
X1090870D1*
X1196525D2*
X1240866D1*
X1346556D2*
X1440849D1*
X1546539D2*
X1590844D1*
X1696535D2*
X2069181D1*
X2718194D2*
X2919134D1*
X3017432D2*
X3289315D1*
X448089Y2293406D2*
X919487D1*
X1040465D2*
X1085164D1*
X1202231D2*
X1235197D1*
X1352227D2*
X1435178D1*
X1552209D2*
X1585175D1*
X1702205D2*
X2044241D1*
X2743134D2*
X2865379D1*
X2992564D2*
X3289315D1*
X448089Y2268537D2*
X919487D1*
X1040465D2*
X1091157D1*
X1196238D2*
X1241154D1*
X1346234D2*
X1441135D1*
X1546252D2*
X1591168D1*
X1696248D2*
X2019374D1*
X2967697D2*
X3289315D1*
X448089Y2243668D2*
X919487D1*
X1040465D2*
X1115990D1*
X1171407D2*
X1266021D1*
X1321402D2*
X1466004D1*
X1521385D2*
X1615999D1*
X1671381D2*
X1785193D1*
X1902223D2*
X1994505D1*
X2092804D2*
X2565890D1*
X2621522D2*
X2694571D1*
X2952231D2*
X3289315D1*
X448089Y2218799D2*
X919487D1*
X1040465D2*
X1785193D1*
X1902223D2*
X1969638D1*
X2067937D2*
X2541130D1*
X2646282D2*
X2719581D1*
X2946382D2*
X3289315D1*
X448089Y2193930D2*
X1785193D1*
X1902223D2*
X1944770D1*
X2043070D2*
X2535173D1*
X2652203D2*
X2865487D1*
X2921908D2*
X3289315D1*
X448089Y2169062D2*
X1785193D1*
X1902223D2*
X1919903D1*
X2018201D2*
X2540878D1*
X2646497D2*
X3289315D1*
X448089Y2144193D2*
X1116923D1*
X1170474D2*
X1227302D1*
X1360085D2*
X1452045D1*
X1535344D2*
X1616932D1*
X1670448D2*
X1785193D1*
X1993333D2*
X2116942D1*
X2170458D2*
X2564992D1*
X2622419D2*
X2781087D1*
X2806290D2*
X3081114D1*
X3106282D2*
X3289315D1*
X448089Y2119324D2*
X1091373D1*
X1196022D2*
X1227302D1*
X1360085D2*
X1432667D1*
X1554722D2*
X1591383D1*
X1696033D2*
X1791402D1*
X1968466D2*
X2091392D1*
X2196008D2*
X2746530D1*
X2840882D2*
X3046522D1*
X3140874D2*
X3289315D1*
X448089Y2094455D2*
X1085201D1*
X1202231D2*
X1227302D1*
X1360085D2*
X1427320D1*
X1560104D2*
X1585175D1*
X1702205D2*
X1785193D1*
X1943598D2*
X2085185D1*
X2202215D2*
X2739713D1*
X2847701D2*
X3039705D1*
X3147692D2*
X3289315D1*
X448089Y2069587D2*
X1090619D1*
X1196777D2*
X1227302D1*
X1360085D2*
X1432021D1*
X1555367D2*
X1590629D1*
X1696751D2*
X1790647D1*
X1918694D2*
X2090639D1*
X2196761D2*
X2745705D1*
X2841707D2*
X3045697D1*
X3141699D2*
X3289315D1*
X448089Y2044718D2*
X1114016D1*
X1173381D2*
X1227302D1*
X1360085D2*
X1450178D1*
X1537210D2*
X1614026D1*
X1673390D2*
X1814008D1*
X1873373D2*
X2114000D1*
X2173400D2*
X2775310D1*
X2812067D2*
X3075337D1*
X3112094D2*
X3289315D1*
X448089Y2019849D2*
X1771091D1*
X1895728D2*
X2091644D1*
X2195756D2*
X3289315D1*
X448089Y1994980D2*
X1745828D1*
X1902223D2*
X2085185D1*
X2202215D2*
X2383203D1*
X2504181D2*
X3289315D1*
X448089Y1970112D2*
X1121444D1*
X1897021D2*
X2090388D1*
X2197012D2*
X2383203D1*
X2504181D2*
X3289315D1*
X448089Y1945243D2*
X1096073D1*
X1794391D2*
X1813112D1*
X1874306D2*
X2113102D1*
X2174298D2*
X2383203D1*
X2504181D2*
X2769245D1*
X2818131D2*
X3069238D1*
X3118159D2*
X3289315D1*
X448089Y1920374D2*
X1071206D1*
X1895478D2*
X2091932D1*
X2195470D2*
X2383203D1*
X2504181D2*
X2741937D1*
X2845475D2*
X3041929D1*
X3145467D2*
X3289315D1*
X448089Y1895505D2*
X1046337D1*
X1144673D2*
X1750709D1*
X1902188D2*
X2085220D1*
X2202180D2*
X2383203D1*
X2504181D2*
X2735227D1*
X2852186D2*
X3035219D1*
X3152177D2*
X3289315D1*
X448089Y1870636D2*
X1021470D1*
X1119804D2*
X1725841D1*
X1897236D2*
X2090136D1*
X2197264D2*
X2740143D1*
X2847269D2*
X3040135D1*
X3147261D2*
X3289315D1*
X448089Y1845768D2*
X996602D1*
X1204205D2*
X1483228D1*
X1604206D2*
X1700972D1*
X1799272D2*
X1812214D1*
X1875203D2*
X2112206D1*
X2175194D2*
X2762213D1*
X2825201D2*
X3062203D1*
X3125193D2*
X3289315D1*
X448089Y1820899D2*
X971735D1*
X1070034D2*
X1083227D1*
X1204205D2*
X1483228D1*
X1604206D2*
X1676105D1*
X1774404D2*
X1787849D1*
X1895190D2*
X2092218D1*
X2195182D2*
X3289315D1*
X448089Y1796030D2*
X946867D1*
X1045165D2*
X1083227D1*
X1204205D2*
X1483228D1*
X1604206D2*
X1651238D1*
X1749537D2*
X1762192D1*
X1902188D2*
X2085220D1*
X2202180D2*
X3289315D1*
X448089Y1771161D2*
X921999D1*
X1020298D2*
X1083227D1*
X1204205D2*
X1483228D1*
X1604206D2*
X1626370D1*
X1724669D2*
X1737324D1*
X1897487D2*
X2089921D1*
X2197479D2*
X3289315D1*
X448089Y1746293D2*
X487155D1*
X600238D2*
X897131D1*
X995430D2*
X1083227D1*
X1204205D2*
X1483228D1*
X1699801D2*
X1712455D1*
X1876064D2*
X2111345D1*
X2176056D2*
X3289315D1*
X448089Y1721424D2*
X487155D1*
X970563D2*
X1576634D1*
X1674933D2*
X1687588D1*
X1894867D2*
X2092505D1*
X2194895D2*
X3289315D1*
X448089Y1696555D2*
X487155D1*
X945694D2*
X1551766D1*
X1650066D2*
X1662720D1*
X1761020D2*
X1785265D1*
X1902152D2*
X2085257D1*
X2202143D2*
X3289315D1*
X448089Y1671686D2*
X487155D1*
X920827D2*
X1526899D1*
X1625198D2*
X1637853D1*
X1736152D2*
X1789678D1*
X1897702D2*
X2089671D1*
X2197730D2*
X3289315D1*
X448089Y1646818D2*
X487155D1*
X1600329D2*
X1612986D1*
X1711283D2*
X1810528D1*
X1876853D2*
X2110520D1*
X2176881D2*
X3289315D1*
X448089Y1621949D2*
X487621D1*
X1575462D2*
X1588117D1*
X1686416D2*
X1792836D1*
X1894580D2*
X2092828D1*
X2194572D2*
X3289315D1*
X448089Y1597080D2*
X490205D1*
X1550594D2*
X1563272D1*
X1661549D2*
X1785301D1*
X1902115D2*
X2085293D1*
X2202108D2*
X3289315D1*
X448089Y1572211D2*
X500862D1*
X586530D2*
X1538382D1*
X1636681D2*
X1789463D1*
X1897917D2*
X2089455D1*
X2197945D2*
X3289315D1*
X448089Y1547343D2*
X488303D1*
X1611812D2*
X1809738D1*
X1877643D2*
X2109765D1*
X2177635D2*
X3289315D1*
X448089Y1522474D2*
X488913D1*
X1586945D2*
X1793123D1*
X1894257D2*
X2093151D1*
X2194249D2*
X3289315D1*
X448089Y1497605D2*
X503374D1*
X584018D2*
X1785301D1*
X1902080D2*
X2085328D1*
X2202072D2*
X3289315D1*
X448089Y1472736D2*
X489344D1*
X598049D2*
X1789248D1*
X1898133D2*
X2089240D1*
X2198160D2*
X3289315D1*
X448089Y1447867D2*
X488016D1*
X599377D2*
X1808984D1*
X1878396D2*
X2108976D1*
X2178424D2*
X3289315D1*
X448089Y1422999D2*
X499571D1*
X587822D2*
X1793446D1*
X1893934D2*
X2093438D1*
X2193962D2*
X3289315D1*
X448089Y1398130D2*
X490743D1*
X888424D2*
X1785373D1*
X1902045D2*
X2085365D1*
X2202035D2*
X3289315D1*
X448089Y1373261D2*
X487442D1*
X913291D2*
X1789033D1*
X1898348D2*
X2089025D1*
X2198375D2*
X3289315D1*
X448089Y1348392D2*
X496484D1*
X938159D2*
X1808266D1*
X1879150D2*
X2108259D1*
X2179142D2*
X3289315D1*
X448089Y1323524D2*
X492537D1*
X813031D2*
X864728D1*
X963026D2*
X1793769D1*
X1893612D2*
X2093761D1*
X2193639D2*
X3289315D1*
X448089Y1298655D2*
X487155D1*
X837899D2*
X889596D1*
X1007093D2*
X1430335D1*
X1457080D2*
X1730327D1*
X1757072D2*
X1785408D1*
X1902008D2*
X2085400D1*
X2202000D2*
X2380332D1*
X2407079D2*
X2530328D1*
X2557075D2*
X2980316D1*
X3007062D2*
X3289315D1*
X448089Y1273786D2*
X493937D1*
X862766D2*
X914463D1*
X1043444D2*
X1393948D1*
X1493467D2*
X1693940D1*
X1898563D2*
X2088845D1*
X2198555D2*
X2343946D1*
X2443465D2*
X2493942D1*
X2593461D2*
X2943929D1*
X3043449D2*
X3289315D1*
X448089Y1248917D2*
X494762D1*
X592630D2*
X681755D1*
X705665D2*
X789335D1*
X878770D2*
X935420D1*
X1051984D2*
X1385408D1*
X1501971D2*
X1685436D1*
X1879867D2*
X2107541D1*
X2179860D2*
X2231736D1*
X2255647D2*
X2335441D1*
X2451970D2*
X2485437D1*
X2601966D2*
X2935425D1*
X3051990D2*
X3289315D1*
X448089Y1224049D2*
X487226D1*
X600165D2*
X644112D1*
X743272D2*
X808210D1*
X879201D2*
X938757D1*
X1048647D2*
X1388744D1*
X1498671D2*
X1688736D1*
X1798661D2*
X1808181D1*
X1879186D2*
X2194130D1*
X2293290D2*
X2338743D1*
X2448668D2*
X2488739D1*
X2598664D2*
X2938726D1*
X3048652D2*
X3289315D1*
X448089Y1199180D2*
X491856D1*
X595537D2*
X635463D1*
X751957D2*
X808210D1*
X879201D2*
X957202D1*
X1030202D2*
X1407189D1*
X1480190D2*
X1707217D1*
X1780218D2*
X1808196D1*
X1879186D2*
X2185445D1*
X2301937D2*
X2357188D1*
X2430188D2*
X2507182D1*
X2580219D2*
X2957206D1*
X3030207D2*
X3289315D1*
X448089Y1174311D2*
X514427D1*
X573001D2*
X638657D1*
X748762D2*
X808210D1*
X879201D2*
X958206D1*
X1029197D2*
X1808196D1*
X1879186D2*
X2188639D1*
X2298744D2*
X3289315D1*
X448089Y1149442D2*
X656850D1*
X730533D2*
X808210D1*
X879201D2*
X958206D1*
X1029197D2*
X1808196D1*
X1879186D2*
X2206869D1*
X2280551D2*
X3289315D1*
X448089Y1124573D2*
X649997D1*
X737423D2*
X808210D1*
X879201D2*
X949988D1*
X1037415D2*
X1399976D1*
X1487403D2*
X1700004D1*
X1787394D2*
X1808196D1*
X1879186D2*
X2199979D1*
X2287404D2*
X2500007D1*
X2587396D2*
X2949993D1*
X3037420D2*
X3289315D1*
X448089Y1099705D2*
X640056D1*
X747327D2*
X808210D1*
X886845D2*
X940049D1*
X1047354D2*
X1390072D1*
X1497343D2*
X1690064D1*
X1797335D2*
X1808196D1*
X1879186D2*
X2190075D1*
X2297344D2*
X2490067D1*
X2597336D2*
X2940054D1*
X3047324D2*
X3289315D1*
X448089Y1074836D2*
X643286D1*
X744097D2*
X814131D1*
X911713D2*
X943278D1*
X1044125D2*
X1393302D1*
X1494113D2*
X1693294D1*
X1892786D2*
X2193304D1*
X2294115D2*
X2493295D1*
X2594106D2*
X2943283D1*
X3044130D2*
X3289315D1*
X448089Y1049967D2*
X664028D1*
X723392D2*
X838281D1*
X936580D2*
X964020D1*
X1023385D2*
X1414007D1*
X1473371D2*
X1714035D1*
X1773399D2*
X1785516D1*
X1901865D2*
X2214009D1*
X2273374D2*
X2514037D1*
X2573366D2*
X2964025D1*
X3023390D2*
X3289315D1*
X448089Y1025098D2*
X863150D1*
X961448D2*
X1788350D1*
X1899030D2*
X3289315D1*
X448089Y1000230D2*
X888017D1*
X986316D2*
X1801091D1*
X1881518D2*
X3289315D1*
X448089Y975361D2*
X912885D1*
X1873623D2*
X3289315D1*
X448089Y950492D2*
X937752D1*
X1849654D2*
X3289315D1*
X448089Y925623D2*
X962619D1*
X1824786D2*
X3289315D1*
X448089Y900755D2*
X3289315D1*
X448089Y875886D2*
X3289315D1*
X448089Y851017D2*
X3289315D1*
X448089Y826148D2*
X651217D1*
X736167D2*
X951209D1*
X1036194D2*
X1401232D1*
X1486182D2*
X1701224D1*
X1786175D2*
X2201235D1*
X2286185D2*
X2501226D1*
X2586176D2*
X2951214D1*
X3036199D2*
X3289315D1*
X448089Y801280D2*
X640273D1*
X747147D2*
X940264D1*
X1047139D2*
X1390252D1*
X1497127D2*
X1690280D1*
X1797119D2*
X2190253D1*
X2297129D2*
X2490282D1*
X2597121D2*
X2940269D1*
X3047144D2*
X3289315D1*
X448089Y776411D2*
X642713D1*
X744707D2*
X942705D1*
X1044699D2*
X1392692D1*
X1494686D2*
X1692684D1*
X1794715D2*
X2192694D1*
X2294689D2*
X2492686D1*
X2594717D2*
X2942710D1*
X3044705D2*
X3289315D1*
X448089Y751542D2*
X661623D1*
X725761D2*
X961651D1*
X1025752D2*
X1411639D1*
X1475776D2*
X1711631D1*
X1775768D2*
X2211640D1*
X2275778D2*
X2511633D1*
X2575770D2*
X2961621D1*
X3025757D2*
X3289315D1*
X448089Y726673D2*
X3289315D1*
X448089Y701804D2*
X3289315D1*
X448089Y676936D2*
X646122D1*
X741298D2*
X946113D1*
X1041290D2*
X1396101D1*
X1491314D2*
X1696093D1*
X1791306D2*
X2196104D1*
X2291280D2*
X2496094D1*
X2591307D2*
X2946118D1*
X3041295D2*
X3289315D1*
X448089Y652067D2*
X635823D1*
X751597D2*
X935815D1*
X1051589D2*
X1385802D1*
X1501576D2*
X1685794D1*
X1801605D2*
X2185804D1*
X2301579D2*
X2485797D1*
X2601606D2*
X2935820D1*
X3051594D2*
X3289315D1*
X448089Y627198D2*
X637652D1*
X749731D2*
X937681D1*
X1049723D2*
X1387668D1*
X1499747D2*
X1687660D1*
X1799739D2*
X2187671D1*
X2299748D2*
X2487661D1*
X2599740D2*
X2937650D1*
X3049728D2*
X3289315D1*
X448089Y602329D2*
X653442D1*
X733978D2*
X953433D1*
X1033970D2*
X1403421D1*
X1483958D2*
X1703413D1*
X1783986D2*
X2203424D1*
X2283959D2*
X2503415D1*
X2583987D2*
X2953438D1*
X3033975D2*
X3289315D1*
X448089Y577461D2*
X3289315D1*
X448071Y552592D2*
X3289315D1*
X542715Y527723D2*
X3194688D1*
X553085Y502854D2*
X3184318D1*
X551651Y477986D2*
X3185753D1*
X537117Y453117D2*
X3200286D1*
X1098308Y1851689D2*
X1201689D1*
Y1735713D1*
X1085713D1*
Y1839094D1*
X915125Y1668617D1*
X910937Y1665573D1*
X906325Y1663223D1*
X901402Y1661625D1*
X896289Y1660814D1*
X829396Y1660713D1*
X597764D1*
X597752Y1647958D1*
X1505648Y1647949D1*
X1593394Y1735697D1*
X1485713Y1735713D1*
Y1851689D1*
X1601689D1*
Y1744000D1*
X1776626Y1918785D1*
X1780814Y1921828D1*
X1785425Y1924178D1*
X1790349Y1925777D1*
X1795462Y1926588D1*
X1798060Y1926689D1*
X1804089Y1933312D1*
X1810773Y1939022D1*
X1818440Y1943694D1*
X1810773Y1948379D1*
X1804089Y1954089D1*
X1802491Y1955818D1*
X1765125Y1918617D1*
X1760937Y1915573D1*
X1756325Y1913223D1*
X1751402Y1911623D1*
X1746289Y1910814D1*
X1679396Y1910713D1*
X1157388D1*
X1098340Y1851688D1*
X2394899Y2001689D2*
X2501689D1*
Y1885713D1*
X2385713D1*
Y2001689D1*
X2394899D1*
X2145034Y2389661D2*
X2143770Y2381680D1*
X2141273Y2373996D1*
X2137605Y2366797D1*
X2132856Y2360260D1*
X2127142Y2354546D1*
X2120605Y2349797D1*
X2113406Y2346129D1*
X2105722Y2343631D1*
X2097740Y2342367D1*
X2089661D1*
X2081680Y2343631D1*
X2073996Y2346129D1*
X2066797Y2349797D1*
X2060260Y2354546D1*
X2054546Y2360260D1*
X2049797Y2366797D1*
X2046129Y2373996D1*
X2043631Y2381680D1*
X2042367Y2389661D1*
Y2397740D1*
X2043631Y2405722D1*
X2046129Y2413406D1*
X2049797Y2420605D1*
X2054546Y2427142D1*
X2060260Y2432856D1*
X2066797Y2437605D1*
X2073996Y2441273D1*
X2081680Y2443770D1*
X2089661Y2445034D1*
X2097740D1*
X2105722Y2443770D1*
X2113406Y2441273D1*
X2120605Y2437605D1*
X2127142Y2432856D1*
X2132856Y2427142D1*
X2137605Y2420605D1*
X2141273Y2413406D1*
X2143770Y2405722D1*
X2145034Y2397740D1*
Y2389661D1*
X2445034D2*
X2443770Y2381680D1*
X2441273Y2373996D1*
X2437605Y2366797D1*
X2432856Y2360260D1*
X2427142Y2354546D1*
X2420605Y2349797D1*
X2413406Y2346129D1*
X2405722Y2343631D1*
X2397740Y2342367D1*
X2389661D1*
X2381680Y2343631D1*
X2373996Y2346129D1*
X2366797Y2349797D1*
X2360260Y2354546D1*
X2354546Y2360260D1*
X2349797Y2366797D1*
X2346129Y2373996D1*
X2343631Y2381680D1*
X2342367Y2389661D1*
Y2397740D1*
X2343631Y2405722D1*
X2346129Y2413406D1*
X2349797Y2420605D1*
X2354546Y2427142D1*
X2360260Y2432856D1*
X2366797Y2437605D1*
X2373996Y2441273D1*
X2381680Y2443770D1*
X2389661Y2445034D1*
X2397740D1*
X2405722Y2443770D1*
X2413406Y2441273D1*
X2420605Y2437605D1*
X2427142Y2432856D1*
X2432856Y2427142D1*
X2437605Y2420605D1*
X2441273Y2413406D1*
X2443770Y2405722D1*
X2445034Y2397740D1*
Y2389661D1*
X2595034Y1089661D2*
X2593770Y1081680D1*
X2591273Y1073996D1*
X2587605Y1066797D1*
X2582856Y1060260D1*
X2577142Y1054546D1*
X2570605Y1049797D1*
X2563406Y1046129D1*
X2555722Y1043631D1*
X2547740Y1042367D1*
X2539661D1*
X2531680Y1043631D1*
X2523996Y1046129D1*
X2516797Y1049797D1*
X2510260Y1054546D1*
X2504546Y1060260D1*
X2499797Y1066797D1*
X2496129Y1073996D1*
X2493631Y1081680D1*
X2492367Y1089661D1*
Y1097740D1*
X2493631Y1105722D1*
X2496129Y1113406D1*
X2499797Y1120605D1*
X2504546Y1127142D1*
X2510260Y1132856D1*
X2516797Y1137605D1*
X2523996Y1141273D1*
X2531680Y1143770D1*
X2539661Y1145034D1*
X2547740D1*
X2555722Y1143770D1*
X2563406Y1141273D1*
X2570605Y1137605D1*
X2577142Y1132856D1*
X2582856Y1127142D1*
X2587605Y1120605D1*
X2591273Y1113406D1*
X2593770Y1105722D1*
X2595034Y1097740D1*
Y1089661D1*
Y789661D2*
X2593770Y781680D1*
X2591273Y773996D1*
X2587605Y766797D1*
X2582856Y760260D1*
X2577142Y754546D1*
X2570605Y749797D1*
X2563406Y746129D1*
X2555722Y743631D1*
X2547740Y742367D1*
X2539661D1*
X2531680Y743631D1*
X2523996Y746129D1*
X2516797Y749797D1*
X2510260Y754546D1*
X2504546Y760260D1*
X2499797Y766797D1*
X2496129Y773996D1*
X2493631Y781680D1*
X2492367Y789661D1*
Y797740D1*
X2493631Y805722D1*
X2496129Y813406D1*
X2499797Y820605D1*
X2504546Y827142D1*
X2510260Y832856D1*
X2516797Y837605D1*
X2523996Y841273D1*
X2531680Y843770D1*
X2539661Y845034D1*
X2547740D1*
X2555722Y843770D1*
X2563406Y841273D1*
X2570605Y837605D1*
X2577142Y832856D1*
X2582856Y827142D1*
X2587605Y820605D1*
X2591273Y813406D1*
X2593770Y805722D1*
X2595034Y797740D1*
Y789661D1*
X2295034Y1089661D2*
X2293770Y1081680D1*
X2291273Y1073996D1*
X2287605Y1066797D1*
X2282856Y1060260D1*
X2277142Y1054546D1*
X2270605Y1049797D1*
X2263406Y1046129D1*
X2255722Y1043631D1*
X2247740Y1042367D1*
X2239661D1*
X2231680Y1043631D1*
X2223996Y1046129D1*
X2216797Y1049797D1*
X2210260Y1054546D1*
X2204546Y1060260D1*
X2199797Y1066797D1*
X2196129Y1073996D1*
X2193631Y1081680D1*
X2192367Y1089661D1*
Y1097740D1*
X2193631Y1105722D1*
X2196129Y1113406D1*
X2199797Y1120605D1*
X2204546Y1127142D1*
X2210260Y1132856D1*
X2216797Y1137605D1*
X2223982Y1141266D1*
X2218269Y1143787D1*
X2210773Y1148379D1*
X2204089Y1154089D1*
X2198379Y1160773D1*
X2193787Y1168269D1*
X2190423Y1176390D1*
X2188371Y1184937D1*
X2187681Y1193701D1*
X2188371Y1202465D1*
X2190423Y1211012D1*
X2193787Y1219133D1*
X2198379Y1226629D1*
X2204089Y1233312D1*
X2210773Y1239022D1*
X2218269Y1243614D1*
X2226390Y1246979D1*
X2234937Y1249030D1*
X2243701Y1249720D1*
X2252465Y1249030D1*
X2261012Y1246979D1*
X2269133Y1243614D1*
X2276629Y1239022D1*
X2283312Y1233312D1*
X2289022Y1226629D1*
X2293614Y1219133D1*
X2296979Y1211012D1*
X2299030Y1202465D1*
X2299720Y1193701D1*
X2299030Y1184937D1*
X2296979Y1176390D1*
X2293614Y1168269D1*
X2289022Y1160773D1*
X2283312Y1154089D1*
X2276629Y1148379D1*
X2269133Y1143787D1*
X2263349Y1141285D1*
X2270605Y1137605D1*
X2277142Y1132856D1*
X2282856Y1127142D1*
X2287605Y1120605D1*
X2291273Y1113406D1*
X2293770Y1105722D1*
X2295034Y1097740D1*
Y1089661D1*
Y789661D2*
X2293770Y781680D1*
X2291273Y773996D1*
X2287605Y766797D1*
X2282856Y760260D1*
X2277142Y754546D1*
X2270605Y749797D1*
X2263406Y746129D1*
X2255722Y743631D1*
X2247740Y742367D1*
X2239661D1*
X2231680Y743631D1*
X2223996Y746129D1*
X2216797Y749797D1*
X2210260Y754546D1*
X2204546Y760260D1*
X2199797Y766797D1*
X2196129Y773996D1*
X2193631Y781680D1*
X2192367Y789661D1*
Y797740D1*
X2193631Y805722D1*
X2196129Y813406D1*
X2199797Y820605D1*
X2204546Y827142D1*
X2210260Y832856D1*
X2216797Y837605D1*
X2223996Y841273D1*
X2231680Y843770D1*
X2239661Y845034D1*
X2247740D1*
X2255722Y843770D1*
X2263406Y841273D1*
X2270605Y837605D1*
X2277142Y832856D1*
X2282856Y827142D1*
X2287605Y820605D1*
X2291273Y813406D1*
X2293770Y805722D1*
X2295034Y797740D1*
Y789661D1*
X745034Y1089661D2*
X743770Y1081680D1*
X741273Y1073996D1*
X737605Y1066797D1*
X732856Y1060260D1*
X727142Y1054546D1*
X720605Y1049797D1*
X713406Y1046129D1*
X705722Y1043631D1*
X697740Y1042367D1*
X689661D1*
X681680Y1043631D1*
X673996Y1046129D1*
X666797Y1049797D1*
X660260Y1054546D1*
X654546Y1060260D1*
X649797Y1066797D1*
X646129Y1073996D1*
X643631Y1081680D1*
X642367Y1089661D1*
Y1097740D1*
X643631Y1105722D1*
X646129Y1113406D1*
X649797Y1120605D1*
X654546Y1127142D1*
X660260Y1132856D1*
X666797Y1137605D1*
X673982Y1141266D1*
X668269Y1143787D1*
X660773Y1148379D1*
X654089Y1154089D1*
X648379Y1160773D1*
X643787Y1168269D1*
X640423Y1176390D1*
X638371Y1184937D1*
X637681Y1193701D1*
X638371Y1202465D1*
X640423Y1211012D1*
X643787Y1219133D1*
X648379Y1226629D1*
X654089Y1233312D1*
X660773Y1239022D1*
X668269Y1243614D1*
X676390Y1246979D1*
X684937Y1249030D1*
X693701Y1249720D1*
X702465Y1249030D1*
X711012Y1246979D1*
X719133Y1243614D1*
X726629Y1239022D1*
X733312Y1233312D1*
X739022Y1226629D1*
X743614Y1219133D1*
X746979Y1211012D1*
X749030Y1202465D1*
X749720Y1193701D1*
X749030Y1184937D1*
X746979Y1176390D1*
X743614Y1168269D1*
X739022Y1160773D1*
X733312Y1154089D1*
X726629Y1148379D1*
X719133Y1143787D1*
X713349Y1141285D1*
X720605Y1137605D1*
X727142Y1132856D1*
X732856Y1127142D1*
X737605Y1120605D1*
X741273Y1113406D1*
X743770Y1105722D1*
X745034Y1097740D1*
Y1089661D1*
Y789661D2*
X743770Y781680D1*
X741273Y773996D1*
X737605Y766797D1*
X732856Y760260D1*
X727142Y754546D1*
X720605Y749797D1*
X713406Y746129D1*
X705722Y743631D1*
X697740Y742367D1*
X689661D1*
X681680Y743631D1*
X673996Y746129D1*
X666797Y749797D1*
X660260Y754546D1*
X654546Y760260D1*
X649797Y766797D1*
X646129Y773996D1*
X643631Y781680D1*
X642367Y789661D1*
Y797740D1*
X643631Y805722D1*
X646129Y813406D1*
X649797Y820605D1*
X654546Y827142D1*
X660260Y832856D1*
X666797Y837605D1*
X673996Y841273D1*
X681680Y843770D1*
X689661Y845034D1*
X697740D1*
X705722Y843770D1*
X713406Y841273D1*
X720605Y837605D1*
X727142Y832856D1*
X732856Y827142D1*
X737605Y820605D1*
X741273Y813406D1*
X743770Y805722D1*
X745034Y797740D1*
Y789661D1*
X1045034Y1089661D2*
X1043770Y1081680D1*
X1041273Y1073996D1*
X1037605Y1066797D1*
X1032856Y1060260D1*
X1027142Y1054546D1*
X1020605Y1049797D1*
X1013406Y1046129D1*
X1005722Y1043631D1*
X997740Y1042367D1*
X989661D1*
X981680Y1043631D1*
X973996Y1046129D1*
X966797Y1049797D1*
X960260Y1054546D1*
X954546Y1060260D1*
X949797Y1066797D1*
X946129Y1073996D1*
X943631Y1081680D1*
X942367Y1089661D1*
Y1097740D1*
X943631Y1105722D1*
X946129Y1113406D1*
X949797Y1120605D1*
X954546Y1127142D1*
X960718Y1133218D1*
X960713Y1198446D1*
X954089Y1204089D1*
X948379Y1210773D1*
X943787Y1218269D1*
X940423Y1226390D1*
X938371Y1234937D1*
X937681Y1243701D1*
X938361Y1252379D1*
X845001Y1345747D1*
X586551Y1345752D1*
X580715Y1339406D1*
X586475Y1332982D1*
X789990Y1332887D1*
X795102Y1332077D1*
X800026Y1330478D1*
X804638Y1328127D1*
X808825Y1325084D1*
X856198Y1277856D1*
X868785Y1265125D1*
X871828Y1260937D1*
X874178Y1256325D1*
X875778Y1251402D1*
X876588Y1246289D1*
X876689Y1179396D1*
Y1107377D1*
X1007370Y976684D1*
X1780031Y976689D1*
X1805822Y1002475D1*
X1801104Y1007319D1*
X1795936Y1014430D1*
X1791945Y1022262D1*
X1789228Y1030623D1*
X1787854Y1039306D1*
Y1048096D1*
X1789228Y1056778D1*
X1791945Y1065139D1*
X1795936Y1072971D1*
X1801104Y1080083D1*
X1807319Y1086298D1*
X1810706Y1088969D1*
X1810713Y1248420D1*
X1804089Y1254089D1*
X1798379Y1260773D1*
X1795457Y1265139D1*
X1798173Y1256778D1*
X1799547Y1248096D1*
Y1239306D1*
X1798173Y1230623D1*
X1795457Y1222262D1*
X1791466Y1214430D1*
X1786298Y1207319D1*
X1780083Y1201104D1*
X1772971Y1195936D1*
X1765139Y1191945D1*
X1756778Y1189228D1*
X1748096Y1187854D1*
X1739306D1*
X1730623Y1189228D1*
X1722262Y1191945D1*
X1714430Y1195936D1*
X1707319Y1201104D1*
X1701104Y1207319D1*
X1695936Y1214430D1*
X1691945Y1222262D1*
X1689228Y1230623D1*
X1687854Y1239306D1*
Y1248096D1*
X1689228Y1256778D1*
X1691945Y1265139D1*
X1695936Y1272971D1*
X1701104Y1280083D1*
X1707319Y1286298D1*
X1714430Y1291466D1*
X1722262Y1295457D1*
X1730623Y1298173D1*
X1739306Y1299547D1*
X1748096D1*
X1756778Y1298173D1*
X1765139Y1295457D1*
X1772971Y1291466D1*
X1780083Y1286298D1*
X1786298Y1280083D1*
X1791466Y1272971D1*
X1791945Y1272262D1*
X1789228Y1280623D1*
X1787854Y1289306D1*
Y1298096D1*
X1789228Y1306778D1*
X1791945Y1315139D1*
X1795936Y1322971D1*
X1801104Y1330083D1*
X1807319Y1336298D1*
X1814430Y1341466D1*
X1818269Y1343786D1*
X1810773Y1348378D1*
X1804089Y1354088D1*
X1798379Y1360772D1*
X1793787Y1368268D1*
X1790423Y1376388D1*
X1788371Y1384936D1*
X1787681Y1393699D1*
X1788371Y1402463D1*
X1790423Y1411010D1*
X1793787Y1419131D1*
X1798379Y1426627D1*
X1804089Y1433311D1*
X1810773Y1439021D1*
X1818440Y1443693D1*
X1810773Y1448378D1*
X1804089Y1454088D1*
X1798379Y1460772D1*
X1793787Y1468268D1*
X1790423Y1476388D1*
X1788371Y1484936D1*
X1787681Y1493699D1*
X1788371Y1502463D1*
X1790423Y1511010D1*
X1793787Y1519131D1*
X1798379Y1526627D1*
X1804089Y1533311D1*
X1810773Y1539021D1*
X1818440Y1543693D1*
X1810773Y1548379D1*
X1804089Y1554089D1*
X1798379Y1560773D1*
X1793787Y1568269D1*
X1790423Y1576390D1*
X1788371Y1584937D1*
X1787681Y1593701D1*
X1788371Y1602465D1*
X1790423Y1611012D1*
X1793787Y1619133D1*
X1798379Y1626629D1*
X1804089Y1633312D1*
X1810773Y1639022D1*
X1818440Y1643694D1*
X1810773Y1648378D1*
X1804089Y1654088D1*
X1798379Y1660772D1*
X1793787Y1668268D1*
X1790423Y1676388D1*
X1788371Y1684936D1*
X1787681Y1693699D1*
X1788371Y1702463D1*
X1790423Y1711010D1*
X1793787Y1719131D1*
X1798379Y1726627D1*
X1804089Y1733311D1*
X1810773Y1739021D1*
X1818440Y1743693D1*
X1810543Y1748559D1*
X1570196Y1508373D1*
X1566008Y1505329D1*
X1561396Y1502979D1*
X1556472Y1501379D1*
X1551360Y1500570D1*
X1484467Y1500469D1*
X584240D1*
X580715Y1496886D1*
X584802Y1492584D1*
X589787Y1485722D1*
X593638Y1478165D1*
X596259Y1470098D1*
X597585Y1461720D1*
Y1453240D1*
X596259Y1444862D1*
X593638Y1436795D1*
X589787Y1429239D1*
X584802Y1422377D1*
X580715Y1418146D1*
X586475Y1411722D1*
X861249Y1411627D1*
X866362Y1410818D1*
X871286Y1409218D1*
X875898Y1406867D1*
X880085Y1403824D1*
X927458Y1356596D1*
X985031Y1299022D1*
X993701Y1299720D1*
X1002465Y1299030D1*
X1011012Y1296979D1*
X1019133Y1293614D1*
X1026629Y1289022D1*
X1033312Y1283312D1*
X1039022Y1276629D1*
X1043614Y1269133D1*
X1046979Y1261012D1*
X1049030Y1252465D1*
X1049720Y1243701D1*
X1049030Y1234937D1*
X1046979Y1226390D1*
X1043614Y1218269D1*
X1039022Y1210773D1*
X1033312Y1204089D1*
X1026696Y1198433D1*
X1026689Y1133214D1*
X1032856Y1127142D1*
X1037605Y1120605D1*
X1041273Y1113406D1*
X1043770Y1105722D1*
X1045034Y1097740D1*
Y1089661D1*
Y789661D2*
X1043770Y781680D1*
X1041273Y773996D1*
X1037605Y766797D1*
X1032856Y760260D1*
X1027142Y754546D1*
X1020605Y749797D1*
X1013406Y746129D1*
X1005722Y743631D1*
X997740Y742367D1*
X989661D1*
X981680Y743631D1*
X973996Y746129D1*
X966797Y749797D1*
X960260Y754546D1*
X954546Y760260D1*
X949797Y766797D1*
X946129Y773996D1*
X943631Y781680D1*
X942367Y789661D1*
Y797740D1*
X943631Y805722D1*
X946129Y813406D1*
X949797Y820605D1*
X954546Y827142D1*
X960260Y832856D1*
X966797Y837605D1*
X973996Y841273D1*
X981680Y843770D1*
X989661Y845034D1*
X997740D1*
X1005722Y843770D1*
X1013406Y841273D1*
X1020605Y837605D1*
X1027142Y832856D1*
X1032856Y827142D1*
X1037605Y820605D1*
X1041273Y813406D1*
X1043770Y805722D1*
X1045034Y797740D1*
Y789661D1*
X1495034Y1089661D2*
X1493770Y1081680D1*
X1491273Y1073996D1*
X1487605Y1066797D1*
X1482856Y1060260D1*
X1477142Y1054546D1*
X1470605Y1049797D1*
X1463406Y1046129D1*
X1455722Y1043631D1*
X1447740Y1042367D1*
X1439661D1*
X1431680Y1043631D1*
X1423996Y1046129D1*
X1416797Y1049797D1*
X1410260Y1054546D1*
X1404546Y1060260D1*
X1399797Y1066797D1*
X1396129Y1073996D1*
X1393631Y1081680D1*
X1392367Y1089661D1*
Y1097740D1*
X1393631Y1105722D1*
X1396129Y1113406D1*
X1399797Y1120605D1*
X1404546Y1127142D1*
X1410260Y1132856D1*
X1416797Y1137605D1*
X1423996Y1141273D1*
X1431680Y1143770D1*
X1439661Y1145034D1*
X1447740D1*
X1455722Y1143770D1*
X1463406Y1141273D1*
X1470605Y1137605D1*
X1477142Y1132856D1*
X1482856Y1127142D1*
X1487605Y1120605D1*
X1491273Y1113406D1*
X1493770Y1105722D1*
X1495034Y1097740D1*
Y1089661D1*
Y789661D2*
X1493770Y781680D1*
X1491273Y773996D1*
X1487605Y766797D1*
X1482856Y760260D1*
X1477142Y754546D1*
X1470605Y749797D1*
X1463406Y746129D1*
X1455722Y743631D1*
X1447740Y742367D1*
X1439661D1*
X1431680Y743631D1*
X1423996Y746129D1*
X1416797Y749797D1*
X1410260Y754546D1*
X1404546Y760260D1*
X1399797Y766797D1*
X1396129Y773996D1*
X1393631Y781680D1*
X1392367Y789661D1*
Y797740D1*
X1393631Y805722D1*
X1396129Y813406D1*
X1399797Y820605D1*
X1404546Y827142D1*
X1410260Y832856D1*
X1416797Y837605D1*
X1423996Y841273D1*
X1431680Y843770D1*
X1439661Y845034D1*
X1447740D1*
X1455722Y843770D1*
X1463406Y841273D1*
X1470605Y837605D1*
X1477142Y832856D1*
X1482856Y827142D1*
X1487605Y820605D1*
X1491273Y813406D1*
X1493770Y805722D1*
X1495034Y797740D1*
Y789661D1*
X1795034Y1089661D2*
X1793770Y1081680D1*
X1791273Y1073996D1*
X1787605Y1066797D1*
X1782856Y1060260D1*
X1777142Y1054546D1*
X1770605Y1049797D1*
X1763406Y1046129D1*
X1755722Y1043631D1*
X1747740Y1042367D1*
X1739661D1*
X1731680Y1043631D1*
X1723996Y1046129D1*
X1716797Y1049797D1*
X1710260Y1054546D1*
X1704546Y1060260D1*
X1699797Y1066797D1*
X1696129Y1073996D1*
X1693631Y1081680D1*
X1692367Y1089661D1*
Y1097740D1*
X1693631Y1105722D1*
X1696129Y1113406D1*
X1699797Y1120605D1*
X1704546Y1127142D1*
X1710260Y1132856D1*
X1716797Y1137605D1*
X1723996Y1141273D1*
X1731680Y1143770D1*
X1739661Y1145034D1*
X1747740D1*
X1755722Y1143770D1*
X1763406Y1141273D1*
X1770605Y1137605D1*
X1777142Y1132856D1*
X1782856Y1127142D1*
X1787605Y1120605D1*
X1791273Y1113406D1*
X1793770Y1105722D1*
X1795034Y1097740D1*
Y1089661D1*
Y789661D2*
X1793770Y781680D1*
X1791273Y773996D1*
X1787605Y766797D1*
X1782856Y760260D1*
X1777142Y754546D1*
X1770605Y749797D1*
X1763406Y746129D1*
X1755722Y743631D1*
X1747740Y742367D1*
X1739661D1*
X1731680Y743631D1*
X1723996Y746129D1*
X1716797Y749797D1*
X1710260Y754546D1*
X1704546Y760260D1*
X1699797Y766797D1*
X1696129Y773996D1*
X1693631Y781680D1*
X1692367Y789661D1*
Y797740D1*
X1693631Y805722D1*
X1696129Y813406D1*
X1699797Y820605D1*
X1704546Y827142D1*
X1710260Y832856D1*
X1716797Y837605D1*
X1723996Y841273D1*
X1731680Y843770D1*
X1739661Y845034D1*
X1747740D1*
X1755722Y843770D1*
X1763406Y841273D1*
X1770605Y837605D1*
X1777142Y832856D1*
X1782856Y827142D1*
X1787605Y820605D1*
X1791273Y813406D1*
X1793770Y805722D1*
X1795034Y797740D1*
Y789661D1*
X3145034Y2389661D2*
X3143770Y2381680D1*
X3141273Y2373996D1*
X3137605Y2366797D1*
X3132856Y2360260D1*
X3127142Y2354546D1*
X3120605Y2349797D1*
X3113406Y2346129D1*
X3105722Y2343631D1*
X3097740Y2342367D1*
X3089661D1*
X3081680Y2343631D1*
X3073996Y2346129D1*
X3066797Y2349797D1*
X3060260Y2354546D1*
X3055693Y2359018D1*
X2949063Y2252411D1*
X2949720Y2243701D1*
X2949030Y2234937D1*
X2946979Y2226390D1*
X2943614Y2218269D1*
X2939022Y2210773D1*
X2933312Y2204089D1*
X2926629Y2198379D1*
X2919133Y2193787D1*
X2911012Y2190423D1*
X2902465Y2188371D1*
X2893701Y2187681D1*
X2884937Y2188371D1*
X2876390Y2190423D1*
X2868269Y2193787D1*
X2860773Y2198379D1*
X2854089Y2204089D1*
X2848433Y2210706D1*
X2741113Y2210814D1*
X2736000Y2211623D1*
X2731076Y2213223D1*
X2726465Y2215573D1*
X2722277Y2218617D1*
X2680055Y2260694D1*
X2107388Y2260713D1*
X1915125Y2068617D1*
X1910937Y2065573D1*
X1906325Y2063223D1*
X1901402Y2061623D1*
X1896289Y2060814D1*
X1889000Y2060713D1*
X1883312Y2054089D1*
X1876629Y2048379D1*
X1868962Y2043707D1*
X1876629Y2039022D1*
X1883312Y2033312D1*
X1889022Y2026629D1*
X1893614Y2019133D1*
X1896979Y2011012D1*
X1899030Y2002465D1*
X1899720Y1993701D1*
X1899030Y1984937D1*
X1896979Y1976390D1*
X1893614Y1968269D1*
X1889022Y1960773D1*
X1883312Y1954089D1*
X1876629Y1948379D1*
X1868962Y1943707D1*
X1876629Y1939022D1*
X1883312Y1933312D1*
X1889022Y1926629D1*
X1893614Y1919133D1*
X1896979Y1911012D1*
X1899030Y1902465D1*
X1899720Y1893701D1*
X1899030Y1884937D1*
X1896979Y1876390D1*
X1893614Y1868269D1*
X1889022Y1860773D1*
X1883312Y1854089D1*
X1876629Y1848379D1*
X1868962Y1843707D1*
X1876629Y1839021D1*
X1883312Y1833311D1*
X1889022Y1826627D1*
X1893614Y1819131D1*
X1896979Y1811010D1*
X1899030Y1802463D1*
X1899720Y1793699D1*
X1899030Y1784936D1*
X1896979Y1776388D1*
X1893614Y1768268D1*
X1889022Y1760772D1*
X1883312Y1754088D1*
X1876629Y1748378D1*
X1868962Y1743706D1*
X1876629Y1739021D1*
X1883312Y1733311D1*
X1889022Y1726627D1*
X1893614Y1719131D1*
X1896979Y1711010D1*
X1899030Y1702463D1*
X1899720Y1693699D1*
X1899030Y1684936D1*
X1896979Y1676388D1*
X1893614Y1668268D1*
X1889022Y1660772D1*
X1883312Y1654088D1*
X1876629Y1648378D1*
X1868962Y1643706D1*
X1876629Y1639022D1*
X1883312Y1633312D1*
X1889022Y1626629D1*
X1893614Y1619133D1*
X1896979Y1611012D1*
X1899030Y1602465D1*
X1899720Y1593701D1*
X1899030Y1584937D1*
X1896979Y1576390D1*
X1893614Y1568269D1*
X1889022Y1560773D1*
X1883312Y1554089D1*
X1876629Y1548379D1*
X1868962Y1543707D1*
X1876629Y1539021D1*
X1883312Y1533311D1*
X1889022Y1526627D1*
X1893614Y1519131D1*
X1896979Y1511010D1*
X1899030Y1502463D1*
X1899720Y1493699D1*
X1899030Y1484936D1*
X1896979Y1476388D1*
X1893614Y1468268D1*
X1889022Y1460772D1*
X1883312Y1454088D1*
X1876629Y1448378D1*
X1868962Y1443706D1*
X1876629Y1439021D1*
X1883312Y1433311D1*
X1889022Y1426627D1*
X1893614Y1419131D1*
X1896979Y1411010D1*
X1899030Y1402463D1*
X1899720Y1393699D1*
X1899030Y1384936D1*
X1896979Y1376388D1*
X1893614Y1368268D1*
X1889022Y1360772D1*
X1883312Y1354088D1*
X1876629Y1348378D1*
X1868962Y1343706D1*
X1876629Y1339022D1*
X1883312Y1333312D1*
X1889022Y1326629D1*
X1893614Y1319133D1*
X1896979Y1311012D1*
X1899030Y1302465D1*
X1899720Y1293701D1*
X1899030Y1284937D1*
X1896979Y1276390D1*
X1893614Y1268269D1*
X1889022Y1260773D1*
X1883312Y1254089D1*
X1876696Y1248433D1*
X1876689Y1088982D1*
X1883312Y1083312D1*
X1889022Y1076629D1*
X1893614Y1069133D1*
X1896979Y1061012D1*
X1899030Y1052465D1*
X1899720Y1043701D1*
X1899030Y1034937D1*
X1896979Y1026390D1*
X1893614Y1018269D1*
X1889022Y1010773D1*
X1883312Y1004089D1*
X1876696Y998433D1*
X1876588Y991113D1*
X1875778Y986000D1*
X1874178Y981076D1*
X1871828Y976465D1*
X1868785Y972277D1*
X1821556Y924904D1*
X1815125Y918617D1*
X1810937Y915573D1*
X1806325Y913223D1*
X1801402Y911623D1*
X1796289Y910814D1*
X1729396Y910713D1*
X991113Y910814D1*
X986000Y911623D1*
X981076Y913223D1*
X976465Y915573D1*
X972277Y918617D1*
X924904Y965845D1*
X818617Y1072277D1*
X815573Y1076465D1*
X813223Y1081076D1*
X811623Y1086000D1*
X810814Y1091113D1*
X810713Y1158005D1*
Y1230025D1*
X773762Y1266987D1*
X586486Y1267012D1*
X581921Y1261780D1*
X580715Y1260665D1*
X584802Y1256364D1*
X589787Y1249501D1*
X593638Y1241945D1*
X596259Y1233878D1*
X597585Y1225500D1*
Y1217020D1*
X596259Y1208642D1*
X593638Y1200575D1*
X589787Y1193018D1*
X584802Y1186156D1*
X578804Y1180159D1*
X571942Y1175173D1*
X564386Y1171323D1*
X556319Y1168702D1*
X547941Y1167375D1*
X539461D1*
X531083Y1168702D1*
X523016Y1171323D1*
X515459Y1175173D1*
X508597Y1180159D1*
X502600Y1186156D1*
X497614Y1193018D1*
X493764Y1200575D1*
X491143Y1208642D1*
X489816Y1217020D1*
Y1225500D1*
X491143Y1233878D1*
X493764Y1241945D1*
X497614Y1249501D1*
X502600Y1256364D1*
X506686Y1260594D1*
X502600Y1264896D1*
X497614Y1271759D1*
X493764Y1279315D1*
X491143Y1287382D1*
X489816Y1295760D1*
Y1304240D1*
X491143Y1312618D1*
X493764Y1320685D1*
X497614Y1328241D1*
X502600Y1335104D1*
X506686Y1339335D1*
X502600Y1343636D1*
X497614Y1350499D1*
X493764Y1358055D1*
X491143Y1366122D1*
X489816Y1374500D1*
Y1382980D1*
X491143Y1391358D1*
X493764Y1399425D1*
X497614Y1406982D1*
X502600Y1413844D1*
X506686Y1418075D1*
X502600Y1422377D1*
X497614Y1429239D1*
X493764Y1436795D1*
X491143Y1444862D1*
X489816Y1453240D1*
Y1461720D1*
X491143Y1470098D1*
X493764Y1478165D1*
X497614Y1485722D1*
X502600Y1492584D1*
X506686Y1496815D1*
X502600Y1501117D1*
X497614Y1507979D1*
X493764Y1515535D1*
X491143Y1523602D1*
X489816Y1531980D1*
Y1540461D1*
X491143Y1548839D1*
X493764Y1556906D1*
X497614Y1564462D1*
X502600Y1571324D1*
X506686Y1575555D1*
X502600Y1579857D1*
X497614Y1586719D1*
X493764Y1594276D1*
X491143Y1602343D1*
X489816Y1610720D1*
Y1619201D1*
X491143Y1627579D1*
X493764Y1635646D1*
X495630Y1639659D1*
X489650Y1639650D1*
Y1747752D1*
X597752D1*
Y1726688D1*
X880043Y1726689D1*
X1122277Y1968785D1*
X1126465Y1971828D1*
X1131076Y1974178D1*
X1136000Y1975778D1*
X1141113Y1976588D1*
X1208005Y1976689D1*
X1730013D1*
X1772277Y2018785D1*
X1776465Y2021828D1*
X1781076Y2024178D1*
X1786000Y2025778D1*
X1791113Y2026588D1*
X1793711Y2026689D1*
X1801104Y2030083D1*
X1807319Y2036298D1*
X1814430Y2041466D1*
X1818269Y2043787D1*
X1810773Y2048379D1*
X1804089Y2054089D1*
X1798379Y2060773D1*
X1793787Y2068269D1*
X1790423Y2076390D1*
X1788371Y2084937D1*
X1787681Y2093701D1*
X1788371Y2102465D1*
X1790423Y2111012D1*
X1793787Y2119133D1*
X1798379Y2126629D1*
X1804089Y2133312D1*
X1809059Y2137671D1*
X1787681Y2137681D1*
Y2249720D1*
X1899720D1*
Y2146339D1*
X2072277Y2318785D1*
X2076465Y2321828D1*
X2081076Y2324178D1*
X2086000Y2325778D1*
X2091113Y2326588D1*
X2158005Y2326689D1*
X2696289Y2326588D1*
X2701402Y2325778D1*
X2706325Y2324178D1*
X2710937Y2321828D1*
X2715125Y2318785D1*
X2757346Y2276707D1*
X2848446Y2276689D1*
X2854089Y2283312D1*
X2860773Y2289022D1*
X2868269Y2293614D1*
X2876390Y2296979D1*
X2884937Y2299030D1*
X2893701Y2299720D1*
X2902379Y2299041D1*
X3022277Y2418785D1*
X3026465Y2421828D1*
X3031076Y2424178D1*
X3036000Y2425778D1*
X3041113Y2426588D1*
X3054143Y2426689D1*
X3060260Y2432856D1*
X3066797Y2437605D1*
X3073996Y2441273D1*
X3081680Y2443770D1*
X3089661Y2445034D1*
X3097740D1*
X3105722Y2443770D1*
X3113406Y2441273D1*
X3120605Y2437605D1*
X3127142Y2432856D1*
X3132856Y2427142D1*
X3137605Y2420605D1*
X3141273Y2413406D1*
X3143770Y2405722D1*
X3145034Y2397740D1*
Y2389661D1*
Y2089661D2*
X3143770Y2081680D1*
X3141273Y2073996D1*
X3137605Y2066797D1*
X3132856Y2060260D1*
X3127142Y2054546D1*
X3120605Y2049797D1*
X3113406Y2046129D1*
X3105722Y2043631D1*
X3097740Y2042367D1*
X3089661D1*
X3081680Y2043631D1*
X3073996Y2046129D1*
X3066797Y2049797D1*
X3060260Y2054546D1*
X3054546Y2060260D1*
X3049797Y2066797D1*
X3046129Y2073996D1*
X3043631Y2081680D1*
X3042367Y2089661D1*
Y2097740D1*
X3043631Y2105722D1*
X3046129Y2113406D1*
X3049797Y2120605D1*
X3054546Y2127142D1*
X3060260Y2132856D1*
X3066797Y2137605D1*
X3073996Y2141273D1*
X3081680Y2143770D1*
X3089661Y2145034D1*
X3097740D1*
X3105722Y2143770D1*
X3113406Y2141273D1*
X3120605Y2137605D1*
X3127142Y2132856D1*
X3132856Y2127142D1*
X3137605Y2120605D1*
X3141273Y2113406D1*
X3143770Y2105722D1*
X3145034Y2097740D1*
Y2089661D1*
X2845034Y2389661D2*
X2843770Y2381680D1*
X2841273Y2373996D1*
X2837605Y2366797D1*
X2832856Y2360260D1*
X2827142Y2354546D1*
X2820605Y2349797D1*
X2813406Y2346129D1*
X2805722Y2343631D1*
X2797740Y2342367D1*
X2789661D1*
X2781680Y2343631D1*
X2773996Y2346129D1*
X2766797Y2349797D1*
X2760260Y2354546D1*
X2754546Y2360260D1*
X2749797Y2366797D1*
X2746129Y2373996D1*
X2743631Y2381680D1*
X2742367Y2389661D1*
Y2397740D1*
X2743631Y2405722D1*
X2746129Y2413406D1*
X2749797Y2420605D1*
X2754546Y2427142D1*
X2760260Y2432856D1*
X2766797Y2437605D1*
X2773996Y2441273D1*
X2781680Y2443770D1*
X2789661Y2445034D1*
X2797740D1*
X2805722Y2443770D1*
X2813406Y2441273D1*
X2820605Y2437605D1*
X2827142Y2432856D1*
X2832856Y2427142D1*
X2837605Y2420605D1*
X2841273Y2413406D1*
X2843770Y2405722D1*
X2845034Y2397740D1*
Y2389661D1*
Y2089661D2*
X2843770Y2081680D1*
X2841273Y2073996D1*
X2837605Y2066797D1*
X2832856Y2060260D1*
X2827142Y2054546D1*
X2820605Y2049797D1*
X2813406Y2046129D1*
X2805722Y2043631D1*
X2797740Y2042367D1*
X2789661D1*
X2781680Y2043631D1*
X2773996Y2046129D1*
X2766797Y2049797D1*
X2760260Y2054546D1*
X2754546Y2060260D1*
X2749797Y2066797D1*
X2746129Y2073996D1*
X2743631Y2081680D1*
X2742367Y2089661D1*
Y2097740D1*
X2743631Y2105722D1*
X2746129Y2113406D1*
X2749797Y2120605D1*
X2754546Y2127142D1*
X2760260Y2132856D1*
X2766797Y2137605D1*
X2773996Y2141273D1*
X2781680Y2143770D1*
X2789661Y2145034D1*
X2797740D1*
X2805722Y2143770D1*
X2813406Y2141273D1*
X2820605Y2137605D1*
X2827142Y2132856D1*
X2832856Y2127142D1*
X2837605Y2120605D1*
X2841273Y2113406D1*
X2843770Y2105722D1*
X2845034Y2097740D1*
Y2089661D1*
X3045034Y1089661D2*
X3043770Y1081680D1*
X3041273Y1073996D1*
X3037605Y1066797D1*
X3032856Y1060260D1*
X3027142Y1054546D1*
X3020605Y1049797D1*
X3013406Y1046129D1*
X3005722Y1043631D1*
X2997740Y1042367D1*
X2989661D1*
X2981680Y1043631D1*
X2973996Y1046129D1*
X2966797Y1049797D1*
X2960260Y1054546D1*
X2954546Y1060260D1*
X2949797Y1066797D1*
X2946129Y1073996D1*
X2943631Y1081680D1*
X2942367Y1089661D1*
Y1097740D1*
X2943631Y1105722D1*
X2946129Y1113406D1*
X2949797Y1120605D1*
X2954546Y1127142D1*
X2960260Y1132856D1*
X2966797Y1137605D1*
X2973996Y1141273D1*
X2981680Y1143770D1*
X2989661Y1145034D1*
X2997740D1*
X3005722Y1143770D1*
X3013406Y1141273D1*
X3020605Y1137605D1*
X3027142Y1132856D1*
X3032856Y1127142D1*
X3037605Y1120605D1*
X3041273Y1113406D1*
X3043770Y1105722D1*
X3045034Y1097740D1*
Y1089661D1*
Y789661D2*
X3043770Y781680D1*
X3041273Y773996D1*
X3037605Y766797D1*
X3032856Y760260D1*
X3027142Y754546D1*
X3020605Y749797D1*
X3013406Y746129D1*
X3005722Y743631D1*
X2997740Y742367D1*
X2989661D1*
X2981680Y743631D1*
X2973996Y746129D1*
X2966797Y749797D1*
X2960260Y754546D1*
X2954546Y760260D1*
X2949797Y766797D1*
X2946129Y773996D1*
X2943631Y781680D1*
X2942367Y789661D1*
Y797740D1*
X2943631Y805722D1*
X2946129Y813406D1*
X2949797Y820605D1*
X2954546Y827142D1*
X2960260Y832856D1*
X2966797Y837605D1*
X2973996Y841273D1*
X2981680Y843770D1*
X2989661Y845034D1*
X2997740D1*
X3005722Y843770D1*
X3013406Y841273D1*
X3020605Y837605D1*
X3027142Y832856D1*
X3032856Y827142D1*
X3037605Y820605D1*
X3041273Y813406D1*
X3043770Y805722D1*
X3045034Y797740D1*
Y789661D1*
X931185Y2317240D2*
X1037975D1*
Y2201264D1*
X921999D1*
Y2317240D1*
X931185D1*
X586475Y1581979D2*
X581921Y1576740D1*
X580715Y1575626D1*
X584802Y1571324D1*
X588470Y1566433D1*
X1535110Y1566445D1*
X1787591Y1818783D1*
X1791778Y1821827D1*
X1796400Y1824180D1*
X1804089Y1833311D1*
X1810773Y1839021D1*
X1818440Y1843693D1*
X1810773Y1848379D1*
X1804606Y1853610D1*
X1540734Y1589877D1*
X1536546Y1586833D1*
X1531934Y1584483D1*
X1527010Y1582885D1*
X1521898Y1582073D1*
X1455005Y1581972D1*
X586500D1*
X1799547Y639306D2*
X1798173Y630623D1*
X1795457Y622262D1*
X1791466Y614430D1*
X1786298Y607319D1*
X1780083Y601104D1*
X1772971Y595936D1*
X1765139Y591945D1*
X1756778Y589228D1*
X1748096Y587854D1*
X1739306D1*
X1730623Y589228D1*
X1722262Y591945D1*
X1714430Y595936D1*
X1707319Y601104D1*
X1701104Y607319D1*
X1695936Y614430D1*
X1691945Y622262D1*
X1689228Y630623D1*
X1687854Y639306D1*
Y648096D1*
X1689228Y656778D1*
X1691945Y665139D1*
X1695936Y672971D1*
X1701104Y680083D1*
X1707319Y686298D1*
X1714430Y691466D1*
X1722262Y695457D1*
X1730623Y698173D1*
X1739306Y699547D1*
X1748096D1*
X1756778Y698173D1*
X1765139Y695457D1*
X1772971Y691466D1*
X1780083Y686298D1*
X1786298Y680083D1*
X1791466Y672971D1*
X1795457Y665139D1*
X1798173Y656778D1*
X1799547Y648096D1*
Y639306D1*
X551155Y489178D2*
X549740Y480247D1*
X546945Y471646D1*
X542840Y463588D1*
X537524Y456272D1*
X531130Y449878D1*
X525327Y445573D1*
X3211978Y445571D1*
X3206272Y449878D1*
X3199878Y456272D1*
X3194562Y463588D1*
X3190457Y471646D1*
X3187661Y480247D1*
X3186247Y489178D1*
Y498223D1*
X3187661Y507155D1*
X3190457Y515756D1*
X3194562Y523814D1*
X3199878Y531130D1*
X3206272Y537524D1*
X3213588Y542840D1*
X3221646Y546945D1*
X3230247Y549740D1*
X3239178Y551155D1*
X3248223D1*
X3257155Y549740D1*
X3265756Y546945D1*
X3273814Y542840D1*
X3281130Y537524D1*
X3287524Y531130D1*
X3291828Y525327D1*
X3291831Y2512021D1*
X3287524Y2506272D1*
X3281130Y2499878D1*
X3273814Y2494562D1*
X3265756Y2490457D1*
X3257155Y2487661D1*
X3248223Y2486247D1*
X3239178D1*
X3230247Y2487661D1*
X3221646Y2490457D1*
X3213588Y2494562D1*
X3206272Y2499878D1*
X3199878Y2506272D1*
X3194562Y2513588D1*
X3190457Y2521646D1*
X3187661Y2530247D1*
X3186247Y2539178D1*
Y2548223D1*
X3187661Y2557155D1*
X3190457Y2565756D1*
X3194562Y2573814D1*
X3199878Y2581130D1*
X3206272Y2587524D1*
X3212075Y2591828D1*
X525424Y2591831D1*
X531130Y2587524D1*
X537524Y2581130D1*
X542840Y2573814D1*
X546945Y2565756D1*
X549740Y2557155D1*
X551155Y2548223D1*
Y2539178D1*
X549740Y2530247D1*
X546945Y2521646D1*
X542840Y2513588D1*
X537524Y2506272D1*
X531130Y2499878D1*
X523814Y2494562D1*
X515756Y2490457D1*
X507155Y2487661D1*
X498223Y2486247D1*
X489178D1*
X480247Y2487661D1*
X471646Y2490457D1*
X463588Y2494562D1*
X456272Y2499878D1*
X449878Y2506272D1*
X445573Y2512075D1*
X445571Y525367D1*
X449878Y531130D1*
X456272Y537524D1*
X463588Y542840D1*
X471646Y546945D1*
X480247Y549740D1*
X489178Y551155D1*
X498223D1*
X507155Y549740D1*
X515756Y546945D1*
X523814Y542840D1*
X531130Y537524D1*
X537524Y531130D1*
X542840Y523814D1*
X546945Y515756D1*
X549740Y507155D1*
X551155Y498223D1*
Y489178D1*
X1238993Y2157594D2*
X1357594D1*
Y2029807D1*
X1229807D1*
Y2157594D1*
X1238993D1*
X1557398Y2088688D2*
X1555829Y2078785D1*
X1552731Y2069249D1*
X1548178Y2060316D1*
X1542286Y2052205D1*
X1535197Y2045115D1*
X1527085Y2039223D1*
X1518152Y2034671D1*
X1508617Y2031572D1*
X1498714Y2030004D1*
X1488688D1*
X1478785Y2031572D1*
X1469249Y2034671D1*
X1460316Y2039223D1*
X1452205Y2045115D1*
X1445115Y2052205D1*
X1439223Y2060316D1*
X1434671Y2069249D1*
X1431572Y2078785D1*
X1430004Y2088688D1*
Y2098714D1*
X1431572Y2108617D1*
X1434671Y2118152D1*
X1439223Y2127085D1*
X1445115Y2135197D1*
X1452205Y2142286D1*
X1460316Y2148178D1*
X1469249Y2152731D1*
X1478785Y2155829D1*
X1488688Y2157398D1*
X1498714D1*
X1508617Y2155829D1*
X1518152Y2152731D1*
X1527085Y2148178D1*
X1535197Y2142286D1*
X1542286Y2135197D1*
X1548178Y2127085D1*
X1552731Y2118152D1*
X1555829Y2108617D1*
X1557398Y2098714D1*
Y2088688D1*
X1499547Y639306D2*
X1498173Y630623D1*
X1495457Y622262D1*
X1491466Y614430D1*
X1486298Y607319D1*
X1480083Y601104D1*
X1472971Y595936D1*
X1465139Y591945D1*
X1456778Y589228D1*
X1448096Y587854D1*
X1439306D1*
X1430623Y589228D1*
X1422262Y591945D1*
X1414430Y595936D1*
X1407319Y601104D1*
X1401104Y607319D1*
X1395936Y614430D1*
X1391945Y622262D1*
X1389228Y630623D1*
X1387854Y639306D1*
Y648096D1*
X1389228Y656778D1*
X1391945Y665139D1*
X1395936Y672971D1*
X1401104Y680083D1*
X1407319Y686298D1*
X1414430Y691466D1*
X1422262Y695457D1*
X1430623Y698173D1*
X1439306Y699547D1*
X1448096D1*
X1456778Y698173D1*
X1465139Y695457D1*
X1472971Y691466D1*
X1480083Y686298D1*
X1486298Y680083D1*
X1491466Y672971D1*
X1495457Y665139D1*
X1498173Y656778D1*
X1499547Y648096D1*
Y639306D1*
X1891001Y2137681D2*
X1878370D1*
X1883312Y2133312D1*
X1884911Y2131584D1*
X1891004Y2137656D1*
X2199547Y2089304D2*
X2198173Y2080622D1*
X2195457Y2072261D1*
X2191466Y2064429D1*
X2186298Y2057318D1*
X2180083Y2051102D1*
X2172971Y2045934D1*
X2169133Y2043613D1*
X2176629Y2039021D1*
X2183312Y2033311D1*
X2189022Y2026627D1*
X2193614Y2019131D1*
X2196979Y2011010D1*
X2199030Y2002463D1*
X2199720Y1993699D1*
X2199030Y1984936D1*
X2196979Y1976388D1*
X2193614Y1968268D1*
X2189022Y1960772D1*
X2183312Y1954088D1*
X2176629Y1948378D1*
X2168962Y1943706D1*
X2176629Y1939022D1*
X2183312Y1933312D1*
X2189022Y1926629D1*
X2193614Y1919133D1*
X2196979Y1911012D1*
X2199030Y1902465D1*
X2199720Y1893701D1*
X2199030Y1884937D1*
X2196979Y1876390D1*
X2193614Y1868269D1*
X2189022Y1860773D1*
X2183312Y1854089D1*
X2176629Y1848379D1*
X2168962Y1843707D1*
X2176629Y1839021D1*
X2183312Y1833311D1*
X2189022Y1826627D1*
X2193614Y1819131D1*
X2196979Y1811010D1*
X2199030Y1802463D1*
X2199720Y1793699D1*
X2199030Y1784936D1*
X2196979Y1776388D1*
X2193614Y1768268D1*
X2189022Y1760772D1*
X2183312Y1754088D1*
X2176629Y1748378D1*
X2168962Y1743706D1*
X2176629Y1739021D1*
X2183312Y1733311D1*
X2189022Y1726627D1*
X2193614Y1719131D1*
X2196979Y1711010D1*
X2199030Y1702463D1*
X2199720Y1693699D1*
X2199030Y1684936D1*
X2196979Y1676388D1*
X2193614Y1668268D1*
X2189022Y1660772D1*
X2183312Y1654088D1*
X2176629Y1648378D1*
X2168962Y1643706D1*
X2176629Y1639022D1*
X2183312Y1633312D1*
X2189022Y1626629D1*
X2193614Y1619133D1*
X2196979Y1611012D1*
X2199030Y1602465D1*
X2199720Y1593701D1*
X2199030Y1584937D1*
X2196979Y1576390D1*
X2193614Y1568269D1*
X2189022Y1560773D1*
X2183312Y1554089D1*
X2176629Y1548379D1*
X2168962Y1543707D1*
X2176629Y1539021D1*
X2183312Y1533311D1*
X2189022Y1526627D1*
X2193614Y1519131D1*
X2196979Y1511010D1*
X2199030Y1502463D1*
X2199720Y1493699D1*
X2199030Y1484936D1*
X2196979Y1476388D1*
X2193614Y1468268D1*
X2189022Y1460772D1*
X2183312Y1454088D1*
X2176629Y1448378D1*
X2168962Y1443706D1*
X2176629Y1439021D1*
X2183312Y1433311D1*
X2189022Y1426627D1*
X2193614Y1419131D1*
X2196979Y1411010D1*
X2199030Y1402463D1*
X2199720Y1393699D1*
X2199030Y1384936D1*
X2196979Y1376388D1*
X2193614Y1368268D1*
X2189022Y1360772D1*
X2183312Y1354088D1*
X2176629Y1348378D1*
X2168962Y1343706D1*
X2176629Y1339022D1*
X2183312Y1333312D1*
X2189022Y1326629D1*
X2193614Y1319133D1*
X2196979Y1311012D1*
X2199030Y1302465D1*
X2199720Y1293701D1*
X2199030Y1284937D1*
X2196979Y1276390D1*
X2193614Y1268269D1*
X2189022Y1260773D1*
X2183312Y1254089D1*
X2176629Y1248379D1*
X2169133Y1243787D1*
X2161012Y1240423D1*
X2152465Y1238371D1*
X2143701Y1237681D1*
X2134937Y1238371D1*
X2126390Y1240423D1*
X2118269Y1243787D1*
X2110773Y1248379D1*
X2104089Y1254089D1*
X2098379Y1260773D1*
X2093787Y1268269D1*
X2090423Y1276390D1*
X2088371Y1284937D1*
X2087681Y1293701D1*
X2088371Y1302465D1*
X2090423Y1311012D1*
X2093787Y1319133D1*
X2098379Y1326629D1*
X2104089Y1333312D1*
X2110773Y1339022D1*
X2118440Y1343694D1*
X2110773Y1348378D1*
X2104089Y1354088D1*
X2098379Y1360772D1*
X2093787Y1368268D1*
X2090423Y1376388D1*
X2088371Y1384936D1*
X2087681Y1393699D1*
X2088371Y1402463D1*
X2090423Y1411010D1*
X2093787Y1419131D1*
X2098379Y1426627D1*
X2104089Y1433311D1*
X2110773Y1439021D1*
X2118440Y1443693D1*
X2110773Y1448378D1*
X2104089Y1454088D1*
X2098379Y1460772D1*
X2093787Y1468268D1*
X2090423Y1476388D1*
X2088371Y1484936D1*
X2087681Y1493699D1*
X2088371Y1502463D1*
X2090423Y1511010D1*
X2093787Y1519131D1*
X2098379Y1526627D1*
X2104089Y1533311D1*
X2110773Y1539021D1*
X2118440Y1543693D1*
X2110773Y1548379D1*
X2104089Y1554089D1*
X2098379Y1560773D1*
X2093787Y1568269D1*
X2090423Y1576390D1*
X2088371Y1584937D1*
X2087681Y1593701D1*
X2088371Y1602465D1*
X2090423Y1611012D1*
X2093787Y1619133D1*
X2098379Y1626629D1*
X2104089Y1633312D1*
X2110773Y1639022D1*
X2118440Y1643694D1*
X2110773Y1648378D1*
X2104089Y1654088D1*
X2098379Y1660772D1*
X2093787Y1668268D1*
X2090423Y1676388D1*
X2088371Y1684936D1*
X2087681Y1693699D1*
X2088371Y1702463D1*
X2090423Y1711010D1*
X2093787Y1719131D1*
X2098379Y1726627D1*
X2104089Y1733311D1*
X2110773Y1739021D1*
X2118440Y1743693D1*
X2110773Y1748378D1*
X2104089Y1754088D1*
X2098379Y1760772D1*
X2093787Y1768268D1*
X2090423Y1776388D1*
X2088371Y1784936D1*
X2087681Y1793699D1*
X2088371Y1802463D1*
X2090423Y1811010D1*
X2093787Y1819131D1*
X2098379Y1826627D1*
X2104089Y1833311D1*
X2110773Y1839021D1*
X2118440Y1843693D1*
X2110773Y1848379D1*
X2104089Y1854089D1*
X2098379Y1860773D1*
X2093787Y1868269D1*
X2090423Y1876390D1*
X2088371Y1884937D1*
X2087681Y1893701D1*
X2088371Y1902465D1*
X2090423Y1911012D1*
X2093787Y1919133D1*
X2098379Y1926629D1*
X2104089Y1933312D1*
X2110773Y1939022D1*
X2118440Y1943694D1*
X2110773Y1948378D1*
X2104089Y1954088D1*
X2098379Y1960772D1*
X2093787Y1968268D1*
X2090423Y1976388D1*
X2088371Y1984936D1*
X2087681Y1993699D1*
X2088371Y2002463D1*
X2090423Y2011010D1*
X2093787Y2019131D1*
X2098379Y2026627D1*
X2104089Y2033311D1*
X2110773Y2039021D1*
X2118440Y2043693D1*
X2110773Y2048378D1*
X2104089Y2054088D1*
X2098379Y2060772D1*
X2093787Y2068268D1*
X2090423Y2076388D1*
X2088371Y2084936D1*
X2087681Y2093699D1*
X2088371Y2102463D1*
X2090423Y2111010D1*
X2093787Y2119131D1*
X2098379Y2126627D1*
X2104089Y2133311D1*
X2110773Y2139021D1*
X2118269Y2143613D1*
X2126390Y2146978D1*
X2134937Y2149029D1*
X2143701Y2149719D1*
X2152465Y2149029D1*
X2161012Y2146978D1*
X2169133Y2143613D1*
X2176629Y2139021D1*
X2183312Y2133311D1*
X2189022Y2126627D1*
X2193614Y2119131D1*
X2196979Y2111010D1*
X2199030Y2102463D1*
X2199720Y2093699D1*
X2199547Y2089304D1*
X2299547Y639306D2*
X2298173Y630623D1*
X2295457Y622262D1*
X2291466Y614430D1*
X2286298Y607319D1*
X2280083Y601104D1*
X2272971Y595936D1*
X2265139Y591945D1*
X2256778Y589228D1*
X2248096Y587854D1*
X2239306D1*
X2230623Y589228D1*
X2222262Y591945D1*
X2214430Y595936D1*
X2207319Y601104D1*
X2201104Y607319D1*
X2195936Y614430D1*
X2191945Y622262D1*
X2189228Y630623D1*
X2187854Y639306D1*
Y648096D1*
X2189228Y656778D1*
X2191945Y665139D1*
X2195936Y672971D1*
X2201104Y680083D1*
X2207319Y686298D1*
X2214430Y691466D1*
X2222262Y695457D1*
X2230623Y698173D1*
X2239306Y699547D1*
X2248096D1*
X2256778Y698173D1*
X2265139Y695457D1*
X2272971Y691466D1*
X2280083Y686298D1*
X2286298Y680083D1*
X2291466Y672971D1*
X2295457Y665139D1*
X2298173Y656778D1*
X2299547Y648096D1*
Y639306D1*
X2599547D2*
X2598173Y630623D1*
X2595457Y622262D1*
X2591466Y614430D1*
X2586298Y607319D1*
X2580083Y601104D1*
X2572971Y595936D1*
X2565139Y591945D1*
X2556778Y589228D1*
X2548096Y587854D1*
X2539306D1*
X2530623Y589228D1*
X2522262Y591945D1*
X2514430Y595936D1*
X2507319Y601104D1*
X2501104Y607319D1*
X2495936Y614430D1*
X2491945Y622262D1*
X2489228Y630623D1*
X2487854Y639306D1*
Y648096D1*
X2489228Y656778D1*
X2491945Y665139D1*
X2495936Y672971D1*
X2501104Y680083D1*
X2507319Y686298D1*
X2514430Y691466D1*
X2522262Y695457D1*
X2530623Y698173D1*
X2539306Y699547D1*
X2548096D1*
X2556778Y698173D1*
X2565139Y695457D1*
X2572971Y691466D1*
X2580083Y686298D1*
X2586298Y680083D1*
X2591466Y672971D1*
X2595457Y665139D1*
X2598173Y656778D1*
X2599547Y648096D1*
Y639306D1*
X1049547D2*
X1048173Y630623D1*
X1045457Y622262D1*
X1041466Y614430D1*
X1036298Y607319D1*
X1030083Y601104D1*
X1022971Y595936D1*
X1015139Y591945D1*
X1006778Y589228D1*
X998096Y587854D1*
X989306D1*
X980623Y589228D1*
X972262Y591945D1*
X964430Y595936D1*
X957319Y601104D1*
X951104Y607319D1*
X945936Y614430D1*
X941945Y622262D1*
X939228Y630623D1*
X937854Y639306D1*
Y648096D1*
X939228Y656778D1*
X941945Y665139D1*
X945936Y672971D1*
X951104Y680083D1*
X957319Y686298D1*
X964430Y691466D1*
X972262Y695457D1*
X980623Y698173D1*
X989306Y699547D1*
X998096D1*
X1006778Y698173D1*
X1015139Y695457D1*
X1022971Y691466D1*
X1030083Y686298D1*
X1036298Y680083D1*
X1041466Y672971D1*
X1045457Y665139D1*
X1048173Y656778D1*
X1049547Y648096D1*
Y639306D1*
X749547D2*
X748173Y630623D1*
X745457Y622262D1*
X741466Y614430D1*
X736298Y607319D1*
X730083Y601104D1*
X722971Y595936D1*
X715139Y591945D1*
X706778Y589228D1*
X698096Y587854D1*
X689306D1*
X680623Y589228D1*
X672262Y591945D1*
X664430Y595936D1*
X657319Y601104D1*
X651104Y607319D1*
X645936Y614430D1*
X641945Y622262D1*
X639228Y630623D1*
X637854Y639306D1*
Y648096D1*
X639228Y656778D1*
X641945Y665139D1*
X645936Y672971D1*
X651104Y680083D1*
X657319Y686298D1*
X664430Y691466D1*
X672262Y695457D1*
X680623Y698173D1*
X689306Y699547D1*
X698096D1*
X706778Y698173D1*
X715139Y695457D1*
X722971Y691466D1*
X730083Y686298D1*
X736298Y680083D1*
X741466Y672971D1*
X745457Y665139D1*
X748173Y656778D1*
X749547Y648096D1*
Y639306D1*
X1499547Y1239306D2*
X1498173Y1230623D1*
X1495457Y1222262D1*
X1491466Y1214430D1*
X1486298Y1207319D1*
X1480083Y1201104D1*
X1472971Y1195936D1*
X1465139Y1191945D1*
X1456778Y1189228D1*
X1448096Y1187854D1*
X1439306D1*
X1430623Y1189228D1*
X1422262Y1191945D1*
X1414430Y1195936D1*
X1407319Y1201104D1*
X1401104Y1207319D1*
X1395936Y1214430D1*
X1391945Y1222262D1*
X1389228Y1230623D1*
X1387854Y1239306D1*
Y1248096D1*
X1389228Y1256778D1*
X1391945Y1265139D1*
X1395936Y1272971D1*
X1401104Y1280083D1*
X1407319Y1286298D1*
X1414430Y1291466D1*
X1422262Y1295457D1*
X1430623Y1298173D1*
X1439306Y1299547D1*
X1448096D1*
X1456778Y1298173D1*
X1465139Y1295457D1*
X1472971Y1291466D1*
X1480083Y1286298D1*
X1486298Y1280083D1*
X1491466Y1272971D1*
X1495457Y1265139D1*
X1498173Y1256778D1*
X1499547Y1248096D1*
Y1239306D1*
X2449547D2*
X2448173Y1230623D1*
X2445457Y1222262D1*
X2441466Y1214430D1*
X2436298Y1207319D1*
X2430083Y1201104D1*
X2422971Y1195936D1*
X2415139Y1191945D1*
X2406778Y1189228D1*
X2398096Y1187854D1*
X2389306D1*
X2380623Y1189228D1*
X2372262Y1191945D1*
X2364430Y1195936D1*
X2357319Y1201104D1*
X2351104Y1207319D1*
X2345936Y1214430D1*
X2341945Y1222262D1*
X2339228Y1230623D1*
X2337854Y1239306D1*
Y1248096D1*
X2339228Y1256778D1*
X2341945Y1265139D1*
X2345936Y1272971D1*
X2351104Y1280083D1*
X2357319Y1286298D1*
X2364430Y1291466D1*
X2372262Y1295457D1*
X2380623Y1298173D1*
X2389306Y1299547D1*
X2398096D1*
X2406778Y1298173D1*
X2415139Y1295457D1*
X2422971Y1291466D1*
X2430083Y1286298D1*
X2436298Y1280083D1*
X2441466Y1272971D1*
X2445457Y1265139D1*
X2448173Y1256778D1*
X2449547Y1248096D1*
Y1239306D1*
X2599547D2*
X2598173Y1230623D1*
X2595457Y1222262D1*
X2591466Y1214430D1*
X2586298Y1207319D1*
X2580083Y1201104D1*
X2572971Y1195936D1*
X2565139Y1191945D1*
X2556778Y1189228D1*
X2548096Y1187854D1*
X2539306D1*
X2530623Y1189228D1*
X2522262Y1191945D1*
X2514430Y1195936D1*
X2507319Y1201104D1*
X2501104Y1207319D1*
X2495936Y1214430D1*
X2491945Y1222262D1*
X2489228Y1230623D1*
X2487854Y1239306D1*
Y1248096D1*
X2489228Y1256778D1*
X2491945Y1265139D1*
X2495936Y1272971D1*
X2501104Y1280083D1*
X2507319Y1286298D1*
X2514430Y1291466D1*
X2522262Y1295457D1*
X2530623Y1298173D1*
X2539306Y1299547D1*
X2548096D1*
X2556778Y1298173D1*
X2565139Y1295457D1*
X2572971Y1291466D1*
X2580083Y1286298D1*
X2586298Y1280083D1*
X2591466Y1272971D1*
X2595457Y1265139D1*
X2598173Y1256778D1*
X2599547Y1248096D1*
Y1239306D1*
X3049547D2*
X3048173Y1230623D1*
X3045457Y1222262D1*
X3041466Y1214430D1*
X3036298Y1207319D1*
X3030083Y1201104D1*
X3022971Y1195936D1*
X3015139Y1191945D1*
X3006778Y1189228D1*
X2998096Y1187854D1*
X2989306D1*
X2980623Y1189228D1*
X2972262Y1191945D1*
X2964430Y1195936D1*
X2957319Y1201104D1*
X2951104Y1207319D1*
X2945936Y1214430D1*
X2941945Y1222262D1*
X2939228Y1230623D1*
X2937854Y1239306D1*
Y1248096D1*
X2939228Y1256778D1*
X2941945Y1265139D1*
X2945936Y1272971D1*
X2951104Y1280083D1*
X2957319Y1286298D1*
X2964430Y1291466D1*
X2972262Y1295457D1*
X2980623Y1298173D1*
X2989306Y1299547D1*
X2998096D1*
X3006778Y1298173D1*
X3015139Y1295457D1*
X3022971Y1291466D1*
X3030083Y1286298D1*
X3036298Y1280083D1*
X3041466Y1272971D1*
X3045457Y1265139D1*
X3048173Y1256778D1*
X3049547Y1248096D1*
Y1239306D1*
X2649547Y2189306D2*
X2648173Y2180623D1*
X2645457Y2172262D1*
X2641466Y2164430D1*
X2636298Y2157319D1*
X2630083Y2151104D1*
X2622971Y2145936D1*
X2615139Y2141945D1*
X2606778Y2139228D1*
X2598096Y2137854D1*
X2589306D1*
X2580623Y2139228D1*
X2572262Y2141945D1*
X2564430Y2145936D1*
X2557319Y2151104D1*
X2551104Y2157319D1*
X2545936Y2164430D1*
X2541945Y2172262D1*
X2539228Y2180623D1*
X2537854Y2189306D1*
Y2198096D1*
X2539228Y2206778D1*
X2541945Y2215139D1*
X2545936Y2222971D1*
X2551104Y2230083D1*
X2557319Y2236298D1*
X2564430Y2241466D1*
X2572262Y2245457D1*
X2580623Y2248173D1*
X2589306Y2249547D1*
X2598096D1*
X2606778Y2248173D1*
X2615139Y2245457D1*
X2622971Y2241466D1*
X2630083Y2236298D1*
X2636298Y2230083D1*
X2641466Y2222971D1*
X2645457Y2215139D1*
X2648173Y2206778D1*
X2649547Y2198096D1*
Y2189306D1*
X1199547Y2089306D2*
X1198173Y2080623D1*
X1195457Y2072262D1*
X1191466Y2064430D1*
X1186298Y2057319D1*
X1180083Y2051104D1*
X1172971Y2045936D1*
X1165139Y2041945D1*
X1156778Y2039228D1*
X1148096Y2037854D1*
X1139306D1*
X1130623Y2039228D1*
X1122262Y2041945D1*
X1114430Y2045936D1*
X1107319Y2051104D1*
X1101104Y2057319D1*
X1095936Y2064430D1*
X1091945Y2072262D1*
X1089228Y2080623D1*
X1087854Y2089306D1*
Y2098096D1*
X1089228Y2106778D1*
X1091945Y2115139D1*
X1095936Y2122971D1*
X1101104Y2130083D1*
X1107319Y2136298D1*
X1114430Y2141466D1*
X1122262Y2145457D1*
X1130623Y2148173D1*
X1139306Y2149547D1*
X1148096D1*
X1156778Y2148173D1*
X1165139Y2145457D1*
X1172971Y2141466D1*
X1180083Y2136298D1*
X1186298Y2130083D1*
X1191466Y2122971D1*
X1195457Y2115139D1*
X1198173Y2106778D1*
X1199547Y2098096D1*
Y2089306D1*
X1699547D2*
X1698173Y2080623D1*
X1695457Y2072262D1*
X1691466Y2064430D1*
X1686298Y2057319D1*
X1680083Y2051104D1*
X1672971Y2045936D1*
X1665139Y2041945D1*
X1656778Y2039228D1*
X1648096Y2037854D1*
X1639306D1*
X1630623Y2039228D1*
X1622262Y2041945D1*
X1614430Y2045936D1*
X1607319Y2051104D1*
X1601104Y2057319D1*
X1595936Y2064430D1*
X1591945Y2072262D1*
X1589228Y2080623D1*
X1587854Y2089306D1*
Y2098096D1*
X1589228Y2106778D1*
X1591945Y2115139D1*
X1595936Y2122971D1*
X1601104Y2130083D1*
X1607319Y2136298D1*
X1614430Y2141466D1*
X1622262Y2145457D1*
X1630623Y2148173D1*
X1639306Y2149547D1*
X1648096D1*
X1656778Y2148173D1*
X1665139Y2145457D1*
X1672971Y2141466D1*
X1680083Y2136298D1*
X1686298Y2130083D1*
X1691466Y2122971D1*
X1695457Y2115139D1*
X1698173Y2106778D1*
X1699547Y2098096D1*
Y2089306D1*
X3149547Y1889306D2*
X3148173Y1880623D1*
X3145457Y1872262D1*
X3141466Y1864430D1*
X3136298Y1857319D1*
X3130083Y1851104D1*
X3122971Y1845936D1*
X3115139Y1841945D1*
X3106778Y1839228D1*
X3098096Y1837854D1*
X3089306D1*
X3080623Y1839228D1*
X3072262Y1841945D1*
X3064430Y1845936D1*
X3057319Y1851104D1*
X3051104Y1857319D1*
X3045936Y1864430D1*
X3041945Y1872262D1*
X3039228Y1880623D1*
X3037854Y1889306D1*
Y1898096D1*
X3039228Y1906778D1*
X3041945Y1915139D1*
X3045936Y1922971D1*
X3051104Y1930083D1*
X3057319Y1936298D1*
X3064430Y1941466D1*
X3072262Y1945457D1*
X3080623Y1948173D1*
X3089306Y1949547D1*
X3098096D1*
X3106778Y1948173D1*
X3115139Y1945457D1*
X3122971Y1941466D1*
X3130083Y1936298D1*
X3136298Y1930083D1*
X3141466Y1922971D1*
X3145457Y1915139D1*
X3148173Y1906778D1*
X3149547Y1898096D1*
Y1889306D1*
X2849547D2*
X2848173Y1880623D1*
X2845457Y1872262D1*
X2841466Y1864430D1*
X2836298Y1857319D1*
X2830083Y1851104D1*
X2822971Y1845936D1*
X2815139Y1841945D1*
X2806778Y1839228D1*
X2798096Y1837854D1*
X2789306D1*
X2780623Y1839228D1*
X2772262Y1841945D1*
X2764430Y1845936D1*
X2757319Y1851104D1*
X2751104Y1857319D1*
X2745936Y1864430D1*
X2741945Y1872262D1*
X2739228Y1880623D1*
X2737854Y1889306D1*
Y1898096D1*
X2739228Y1906778D1*
X2741945Y1915139D1*
X2745936Y1922971D1*
X2751104Y1930083D1*
X2757319Y1936298D1*
X2764430Y1941466D1*
X2772262Y1945457D1*
X2780623Y1948173D1*
X2789306Y1949547D1*
X2798096D1*
X2806778Y1948173D1*
X2815139Y1945457D1*
X2822971Y1941466D1*
X2830083Y1936298D1*
X2836298Y1930083D1*
X2841466Y1922971D1*
X2845457Y1915139D1*
X2848173Y1906778D1*
X2849547Y1898096D1*
Y1889306D1*
X3049547Y639306D2*
X3048173Y630623D1*
X3045457Y622262D1*
X3041466Y614430D1*
X3036298Y607319D1*
X3030083Y601104D1*
X3022971Y595936D1*
X3015139Y591945D1*
X3006778Y589228D1*
X2998096Y587854D1*
X2989306D1*
X2980623Y589228D1*
X2972262Y591945D1*
X2964430Y595936D1*
X2957319Y601104D1*
X2951104Y607319D1*
X2945936Y614430D1*
X2941945Y622262D1*
X2939228Y630623D1*
X2937854Y639306D1*
Y648096D1*
X2939228Y656778D1*
X2941945Y665139D1*
X2945936Y672971D1*
X2951104Y680083D1*
X2957319Y686298D1*
X2964430Y691466D1*
X2972262Y695457D1*
X2980623Y698173D1*
X2989306Y699547D1*
X2998096D1*
X3006778Y698173D1*
X3015139Y695457D1*
X3022971Y691466D1*
X3030083Y686298D1*
X3036298Y680083D1*
X3041466Y672971D1*
X3045457Y665139D1*
X3048173Y656778D1*
X3049547Y648096D1*
Y639306D1*
X1549547Y2289306D2*
X1548173Y2280623D1*
X1545457Y2272262D1*
X1541466Y2264430D1*
X1536298Y2257319D1*
X1530083Y2251104D1*
X1522971Y2245936D1*
X1515139Y2241945D1*
X1506778Y2239228D1*
X1498096Y2237854D1*
X1489306D1*
X1480623Y2239228D1*
X1472262Y2241945D1*
X1464430Y2245936D1*
X1457319Y2251104D1*
X1451104Y2257319D1*
X1445936Y2264430D1*
X1441945Y2272262D1*
X1439228Y2280623D1*
X1437854Y2289306D1*
Y2298096D1*
X1439228Y2306778D1*
X1441945Y2315139D1*
X1445936Y2322971D1*
X1451104Y2330083D1*
X1457319Y2336298D1*
X1464430Y2341466D1*
X1472262Y2345457D1*
X1480623Y2348173D1*
X1489306Y2349547D1*
X1498096D1*
X1506778Y2348173D1*
X1515139Y2345457D1*
X1522971Y2341466D1*
X1530083Y2336298D1*
X1536298Y2330083D1*
X1541466Y2322971D1*
X1545457Y2315139D1*
X1548173Y2306778D1*
X1549547Y2298096D1*
Y2289306D1*
X1699547D2*
X1698173Y2280623D1*
X1695457Y2272262D1*
X1691466Y2264430D1*
X1686298Y2257319D1*
X1680083Y2251104D1*
X1672971Y2245936D1*
X1665139Y2241945D1*
X1656778Y2239228D1*
X1648096Y2237854D1*
X1639306D1*
X1630623Y2239228D1*
X1622262Y2241945D1*
X1614430Y2245936D1*
X1607319Y2251104D1*
X1601104Y2257319D1*
X1595936Y2264430D1*
X1591945Y2272262D1*
X1589228Y2280623D1*
X1587854Y2289306D1*
Y2298096D1*
X1589228Y2306778D1*
X1591945Y2315139D1*
X1595936Y2322971D1*
X1601104Y2330083D1*
X1607319Y2336298D1*
X1614430Y2341466D1*
X1622262Y2345457D1*
X1630623Y2348173D1*
X1639306Y2349547D1*
X1648096D1*
X1656778Y2348173D1*
X1665139Y2345457D1*
X1672971Y2341466D1*
X1680083Y2336298D1*
X1686298Y2330083D1*
X1691466Y2322971D1*
X1695457Y2315139D1*
X1698173Y2306778D1*
X1699547Y2298096D1*
Y2289306D1*
X1349547D2*
X1348173Y2280623D1*
X1345457Y2272262D1*
X1341466Y2264430D1*
X1336298Y2257319D1*
X1330083Y2251104D1*
X1322971Y2245936D1*
X1315139Y2241945D1*
X1306778Y2239228D1*
X1298096Y2237854D1*
X1289306D1*
X1280623Y2239228D1*
X1272262Y2241945D1*
X1264430Y2245936D1*
X1257319Y2251104D1*
X1251104Y2257319D1*
X1245936Y2264430D1*
X1241945Y2272262D1*
X1239228Y2280623D1*
X1237854Y2289306D1*
Y2298096D1*
X1239228Y2306778D1*
X1241945Y2315139D1*
X1245936Y2322971D1*
X1251104Y2330083D1*
X1257319Y2336298D1*
X1264430Y2341466D1*
X1272262Y2345457D1*
X1280623Y2348173D1*
X1289306Y2349547D1*
X1298096D1*
X1306778Y2348173D1*
X1315139Y2345457D1*
X1322971Y2341466D1*
X1330083Y2336298D1*
X1336298Y2330083D1*
X1341466Y2322971D1*
X1345457Y2315139D1*
X1348173Y2306778D1*
X1349547Y2298096D1*
Y2289306D1*
X1199547D2*
X1198173Y2280623D1*
X1195457Y2272262D1*
X1191466Y2264430D1*
X1186298Y2257319D1*
X1180083Y2251104D1*
X1172971Y2245936D1*
X1165139Y2241945D1*
X1156778Y2239228D1*
X1148096Y2237854D1*
X1139306D1*
X1130623Y2239228D1*
X1122262Y2241945D1*
X1114430Y2245936D1*
X1107319Y2251104D1*
X1101104Y2257319D1*
X1095936Y2264430D1*
X1091945Y2272262D1*
X1089228Y2280623D1*
X1087854Y2289306D1*
Y2298096D1*
X1089228Y2306778D1*
X1091945Y2315139D1*
X1095936Y2322971D1*
X1101104Y2330083D1*
X1107319Y2336298D1*
X1114430Y2341466D1*
X1122262Y2345457D1*
X1130623Y2348173D1*
X1139306Y2349547D1*
X1148096D1*
X1156778Y2348173D1*
X1165139Y2345457D1*
X1172971Y2341466D1*
X1180083Y2336298D1*
X1186298Y2330083D1*
X1191466Y2322971D1*
X1195457Y2315139D1*
X1198173Y2306778D1*
X1199547Y2298096D1*
Y2289306D1*
D16*
X1243701Y1793701D3*
D17*
X1143701D3*
D16*
X2343701Y1943701D3*
D17*
X2443701D3*
D18*
X2093701Y2393701D3*
D19*
X2393701D3*
D18*
X2793701D3*
D19*
Y2093701D3*
D18*
X2543701Y1093701D3*
D19*
Y793701D3*
D18*
X2243701Y1093701D3*
D19*
Y793701D3*
D18*
X693701Y1093701D3*
D19*
Y793701D3*
D18*
X993701Y1093701D3*
D19*
Y793701D3*
D18*
X1443701Y1093701D3*
D19*
Y793701D3*
D18*
X1743701Y1093701D3*
D19*
Y793701D3*
D18*
X3093701Y2393701D3*
D19*
Y2093701D3*
D18*
X2993701Y1093701D3*
D19*
Y793701D3*
D17*
X1543701Y1793701D3*
D16*
X1443701D3*
D17*
X979987Y2259252D3*
D20*
Y2160827D3*
Y2082087D3*
Y1983661D3*
D21*
X873294Y2380118D3*
Y1862795D3*
D22*
X543701Y1693701D3*
D23*
Y1614961D3*
Y1536220D3*
Y1457480D3*
Y1378740D3*
Y1300000D3*
Y1221260D3*
D24*
X1743701Y643701D3*
D25*
Y543701D3*
D26*
X1293701Y2093701D3*
D27*
X1393701D3*
X1493701D3*
D24*
X1443701Y643701D3*
D25*
Y543701D3*
X1843701Y2193701D3*
D24*
Y2093701D3*
Y1993701D3*
Y1893701D3*
Y1793699D3*
Y1693699D3*
Y1593701D3*
Y1493699D3*
Y1393699D3*
Y1293701D3*
X2143701Y2193699D3*
Y2093699D3*
Y1993699D3*
Y1893701D3*
Y1793699D3*
Y1693699D3*
Y1593701D3*
Y1493699D3*
Y1393699D3*
Y1293701D3*
X2243701Y643701D3*
D25*
Y543701D3*
D24*
X2543701Y643701D3*
D25*
Y543701D3*
D24*
X993701Y643701D3*
D25*
Y543701D3*
D24*
X693701Y643701D3*
D25*
Y543701D3*
D28*
Y1193701D3*
X993701Y1243701D3*
X1443701D3*
X1743701D3*
X2243701Y1193701D3*
X2393701Y1243701D3*
X2543701D3*
X2993701D3*
X2593701Y2193701D3*
X2893701Y2243701D3*
X1143701Y2093701D3*
X1843701Y1043701D3*
X1643701Y2093701D3*
X1393701Y2293701D3*
X1493701D3*
X1643701D3*
X1293701D3*
X1143701D3*
D24*
X3093701Y1893701D3*
D25*
Y1793701D3*
D24*
X2793701Y1893701D3*
D25*
Y1793701D3*
D24*
X2993701Y643701D3*
D25*
Y543701D3*
M02*
