M48
INCH
T01C0.022
T02C0.0315
T03C0.035
T04C0.0354
T05C0.0362
T06C0.0394
T07C0.0433
T08C0.05
T09C0.0906
%
T01
X+020937Y+023937
X+023937Y+023937
X+027937Y+023937
X+027937Y+020937
X+030937Y+020937
X+030937Y+023937
X+029937Y+010937
X+029937Y+007937
X+025437Y+007937
X+025437Y+010937
X+022437Y+010937
X+022437Y+007937
X+017437Y+007937
X+017437Y+010937
X+014437Y+010937
X+014437Y+007937
X+009937Y+007937
X+009937Y+010937
X+006937Y+010937
X+006937Y+007937
T02
X+005437Y+016937
X+005437Y+016150
X+005437Y+015362
X+005437Y+014575
X+005437Y+013787
X+005437Y+013000
X+005437Y+012213
T03
X+017437Y+006437
X+017437Y+005437
X+014437Y+005437
X+014437Y+006437
X+009937Y+006437
X+009937Y+005437
X+006937Y+005437
X+006937Y+006437
X+022437Y+006437
X+022437Y+005437
X+025437Y+005437
X+025437Y+006437
X+029937Y+006437
X+029937Y+005437
X+030937Y+017937
X+030937Y+018937
X+027937Y+018937
X+027937Y+017937
T04
X+015437Y+017937
X+014437Y+017937
X+016437Y+020937
X+016437Y+022937
X+014937Y+022937
X+013937Y+022937
X+012937Y+022937
X+011437Y+022937
X+011437Y+020937
X+018437Y+020937
X+018437Y+021937
X+018437Y+019937
X+018437Y+018937
X+018437Y+017937
X+018437Y+016937
X+018437Y+015937
X+018437Y+014937
X+018437Y+013937
X+018437Y+012937
X+017437Y+012437
X+018437Y+010437
X+021437Y+012937
X+021437Y+013937
X+021437Y+014937
X+021437Y+015937
X+021437Y+016937
X+021437Y+017937
X+021437Y+018937
X+021437Y+019937
X+021437Y+020937
X+021437Y+021937
X+025937Y+021937
X+028937Y+022437
X+029937Y+012437
X+025437Y+012437
X+023937Y+012437
X+022437Y+011937
X+014437Y+012437
X+009937Y+012437
X+006937Y+011937
T05
X+009800Y+022593
X+009800Y+021608
X+009800Y+020821
X+009800Y+019837
T06
X+012437Y+017937
X+011437Y+017937
X+023437Y+019437
X+024437Y+019437
T07
X+012937Y+020937
X+013937Y+020937
X+014937Y+020937
T08
X+004937Y+004937
X+004937Y+025437
X+032437Y+025437
X+032437Y+004937
T09
X+008733Y+023801
X+008733Y+018628
T00
M30
