G04 DipTrace 3.2.0.1*
G04 Top.gtl*
%MOIN*%
G04 #@! TF.FileFunction,Copper,L1,Top*
G04 #@! TF.Part,Single*
G04 #@! TA.AperFunction,Conductor*
%ADD14C,0.012992*%
G04 #@! TA.AperFunction,CopperBalancing*
%ADD15C,0.025*%
G04 #@! TA.AperFunction,ComponentPad*
%ADD16C,0.062992*%
%ADD17R,0.062992X0.062992*%
%ADD18C,0.05*%
%ADD19C,0.05*%
%ADD20C,0.062992*%
%ADD21C,0.129921*%
%ADD22R,0.055118X0.055118*%
%ADD23C,0.055118*%
%ADD24C,0.059055*%
%ADD25R,0.059055X0.059055*%
%ADD26R,0.074803X0.074803*%
%ADD27C,0.074803*%
%ADD28C,0.059055*%
%FSLAX26Y26*%
G04*
G70*
G90*
G75*
G01*
G04 Top*
%LPD*%
X693701Y543701D2*
D14*
X993701D1*
X2993701D1*
X2343701Y1943701D2*
Y2093701D1*
X2243702Y2193699D1*
X2143701D1*
X3093701Y1793701D2*
X2793701D1*
Y1743701D1*
X3143701Y1393701D1*
Y643701D1*
X3043701Y543701D1*
X2993701D1*
X3093701Y1793701D2*
D3*
X873294Y2380118D2*
Y1862795D1*
X979987Y1983661D2*
Y2082087D1*
Y2160827D2*
Y2082087D1*
Y1983661D2*
Y1969488D1*
X873294Y1862795D1*
X1243701Y1793701D2*
X1443701D1*
X1243701D2*
X1393701Y1943701D1*
Y2093701D1*
Y2293701D1*
Y2393701D1*
X886877D1*
X873294Y2380118D1*
X1393701Y2393701D2*
X1743701D1*
X1843701Y2493701D1*
X2143701D1*
X2243701Y2393701D1*
Y2193699D1*
X993701Y543701D2*
X1443701D1*
X1743701D1*
X2243701D1*
X2543701D1*
X1393701Y2293701D2*
D3*
X979987Y2259252D2*
X1028150D1*
X1143701Y2143701D1*
Y2093701D1*
X1293701D1*
X1143701D2*
Y1793701D1*
Y2093701D2*
D3*
X1493701D2*
X1643701D1*
X1743701Y2193701D1*
X1843701D1*
X2093701Y2393701D2*
X1893701D1*
X1843701Y2343701D1*
Y2193701D1*
X1643701Y2093701D2*
Y1893701D1*
X1543701Y1793701D1*
X2143701Y1793699D2*
X2293699D1*
X2443701Y1943701D1*
X2393701Y2393701D2*
X2443701Y2343701D1*
Y1943701D1*
X2543701Y793701D2*
Y643701D1*
X2993701Y793701D2*
Y643701D1*
X2793701Y2093701D2*
Y1893701D1*
X3093701D2*
Y2093701D1*
X1743701Y793701D2*
Y643701D1*
X1443701Y793701D2*
Y643701D1*
X2243701Y793701D2*
Y643701D1*
X993701Y793701D2*
Y643701D1*
X693701Y793701D2*
Y643701D1*
X1843701Y1393699D2*
X1793699D1*
X1743701Y1343701D1*
Y1243701D1*
Y1093701D1*
Y1243701D2*
D3*
X1843701Y1493699D2*
X1693699D1*
X1443701Y1243701D1*
Y1093701D1*
Y1243701D2*
D3*
X1843701Y1593701D2*
X1343701D1*
X993701Y1243701D1*
Y1093701D1*
Y1243701D2*
D3*
X1843701Y1693699D2*
X1193699D1*
X693701Y1193701D1*
Y1093701D1*
X543701Y1457480D2*
X629921D1*
X693701Y1393701D1*
Y1193701D1*
X2143701Y1293701D2*
X2243701Y1193701D1*
Y1093701D1*
Y1193701D2*
D3*
X2143701Y1493699D2*
X2293702D1*
X2543701Y1243701D1*
Y1093701D1*
Y1243701D2*
D3*
X2143701Y1693699D2*
X2443699D1*
X2593701Y1843701D1*
Y2193701D1*
Y2293701D1*
X2693701Y2393701D1*
X2793701D1*
X2593701Y2193701D2*
D3*
X2143701Y1593701D2*
X2643701D1*
X2993701Y1243701D1*
Y1093701D1*
Y1243701D2*
D3*
X2143701Y1393699D2*
X2243702D1*
X2393701Y1243701D1*
Y993701D1*
X2343701Y943701D1*
X543701D1*
Y1221260D1*
X2393701Y1243701D2*
D3*
X1493701Y2293701D2*
X1643701D1*
X1293701D2*
X1143701D1*
X548924Y2566962D2*
D15*
X3188480D1*
X553803Y2542093D2*
X3183600D1*
X547381Y2517224D2*
X3190024D1*
X448089Y2492356D2*
X465014D1*
X522369D2*
X3215034D1*
X3272390D2*
X3289315D1*
X448089Y2467487D2*
X3289315D1*
X448089Y2442618D2*
X2075138D1*
X2112290D2*
X2375129D1*
X2412281D2*
X2775130D1*
X2812282D2*
X3075122D1*
X3112274D2*
X3289315D1*
X448089Y2417749D2*
X1868623D1*
X2141715D2*
X2345668D1*
X2441743D2*
X2668626D1*
X2841743D2*
X3045661D1*
X3141735D2*
X3289315D1*
X448089Y2392881D2*
X1843720D1*
X2147672D2*
X2339711D1*
X2447699D2*
X2643722D1*
X2847701D2*
X3039705D1*
X3147692D2*
X3289315D1*
X448089Y2368012D2*
X1818853D1*
X2140818D2*
X2346566D1*
X2468547D2*
X2618854D1*
X2840811D2*
X3046558D1*
X3140839D2*
X3289315D1*
X448089Y2343143D2*
X1114877D1*
X1172555D2*
X1264873D1*
X1322550D2*
X1464856D1*
X1522533D2*
X1614850D1*
X1672529D2*
X1808196D1*
X1892283D2*
X2081453D1*
X2105974D2*
X2381445D1*
X2479206D2*
X2593987D1*
X2692286D2*
X2781446D1*
X2805967D2*
X3081438D1*
X3105959D2*
X3289315D1*
X448089Y2318274D2*
X1090870D1*
X1346556D2*
X1440849D1*
X1696535D2*
X1808196D1*
X1879186D2*
X2408214D1*
X2479206D2*
X2569119D1*
X2667419D2*
X3289315D1*
X448089Y2293406D2*
X919487D1*
X1040465D2*
X1085164D1*
X1352227D2*
X1435178D1*
X1702205D2*
X1808196D1*
X1879186D2*
X2408214D1*
X2479206D2*
X2558210D1*
X2642550D2*
X2865379D1*
X2922052D2*
X3289315D1*
X448089Y2268537D2*
X919487D1*
X1068024D2*
X1091157D1*
X1346234D2*
X1441135D1*
X1696248D2*
X1808196D1*
X1879186D2*
X2408214D1*
X2479206D2*
X2558210D1*
X2629201D2*
X2840978D1*
X2946417D2*
X3289315D1*
X448089Y2243668D2*
X919487D1*
X1092891D2*
X1115990D1*
X1171407D2*
X1266021D1*
X1321402D2*
X1466004D1*
X1521385D2*
X1615999D1*
X1671381D2*
X1785193D1*
X1902223D2*
X2408214D1*
X2479206D2*
X2558210D1*
X2629201D2*
X2835164D1*
X2952231D2*
X3289315D1*
X448089Y2218799D2*
X919487D1*
X1117760D2*
X1719777D1*
X1902223D2*
X2408214D1*
X2479206D2*
X2541130D1*
X2646282D2*
X2841013D1*
X2946382D2*
X3289315D1*
X448089Y2193930D2*
X1044328D1*
X1142627D2*
X1694765D1*
X1902223D2*
X2408214D1*
X2479206D2*
X2535173D1*
X2652203D2*
X2865487D1*
X2921908D2*
X3289315D1*
X448089Y2169062D2*
X1069196D1*
X1167495D2*
X1669898D1*
X1902223D2*
X2408214D1*
X2479206D2*
X2540878D1*
X2646497D2*
X3289315D1*
X448089Y2144193D2*
X1094064D1*
X1179193D2*
X1227302D1*
X1360085D2*
X1452045D1*
X1535344D2*
X1616932D1*
X1743328D2*
X1785193D1*
X1902223D2*
X2116942D1*
X2170458D2*
X2408214D1*
X2479206D2*
X2558210D1*
X2629201D2*
X2781087D1*
X2806290D2*
X3081114D1*
X3106282D2*
X3289315D1*
X448089Y2119324D2*
X1091373D1*
X1360085D2*
X1432667D1*
X1718461D2*
X1791402D1*
X1896016D2*
X2091392D1*
X2196008D2*
X2408214D1*
X2479206D2*
X2558210D1*
X2629201D2*
X2746530D1*
X2840882D2*
X3046522D1*
X3140874D2*
X3289315D1*
X448089Y2094455D2*
X1085201D1*
X1360085D2*
X1427320D1*
X1702205D2*
X1785193D1*
X1902223D2*
X2085185D1*
X2202215D2*
X2408214D1*
X2479206D2*
X2558210D1*
X2629201D2*
X2739713D1*
X2847701D2*
X3039705D1*
X3147692D2*
X3289315D1*
X448089Y2069587D2*
X1090619D1*
X1360085D2*
X1432021D1*
X1696751D2*
X1790647D1*
X1896769D2*
X2090639D1*
X2196761D2*
X2408214D1*
X2479206D2*
X2558210D1*
X2629201D2*
X2745705D1*
X2841707D2*
X3045697D1*
X3141699D2*
X3289315D1*
X448089Y2044718D2*
X1108202D1*
X1179193D2*
X1227302D1*
X1360085D2*
X1450178D1*
X1537210D2*
X1608213D1*
X1679203D2*
X1814008D1*
X1873373D2*
X2114000D1*
X2173400D2*
X2408214D1*
X2479206D2*
X2558210D1*
X2629201D2*
X2758228D1*
X2829184D2*
X3058220D1*
X3129176D2*
X3289315D1*
X448089Y2019849D2*
X1108202D1*
X1179193D2*
X1608213D1*
X1679203D2*
X1791652D1*
X1895728D2*
X2091644D1*
X2195756D2*
X2408214D1*
X2479206D2*
X2558210D1*
X2629201D2*
X2758228D1*
X2829184D2*
X3058220D1*
X3129176D2*
X3289315D1*
X448089Y1994980D2*
X1108202D1*
X1179193D2*
X1608213D1*
X1679203D2*
X1785193D1*
X1902223D2*
X2085185D1*
X2202215D2*
X2383203D1*
X2504181D2*
X2558210D1*
X2629201D2*
X2758228D1*
X2829184D2*
X3058220D1*
X3129176D2*
X3289315D1*
X448089Y1970112D2*
X1108202D1*
X1179193D2*
X1608213D1*
X1679203D2*
X1790396D1*
X1897021D2*
X2090388D1*
X2197012D2*
X2383203D1*
X2504181D2*
X2558210D1*
X2629201D2*
X2758228D1*
X2829184D2*
X3058220D1*
X3129176D2*
X3289315D1*
X448089Y1945243D2*
X1108202D1*
X1179193D2*
X1608213D1*
X1679203D2*
X1813112D1*
X1874306D2*
X2113102D1*
X2174298D2*
X2383203D1*
X2504181D2*
X2558210D1*
X2629201D2*
X2758228D1*
X2829184D2*
X3058220D1*
X3129176D2*
X3289315D1*
X448089Y1920374D2*
X1108202D1*
X1179193D2*
X1608213D1*
X1679203D2*
X1791940D1*
X1895478D2*
X2091932D1*
X2195470D2*
X2371218D1*
X2504181D2*
X2558210D1*
X2629201D2*
X2741937D1*
X2845475D2*
X3041929D1*
X3145467D2*
X3289315D1*
X448089Y1895505D2*
X1108202D1*
X1179193D2*
X1596370D1*
X1679203D2*
X1785193D1*
X1902188D2*
X2085220D1*
X2202180D2*
X2346350D1*
X2504181D2*
X2558210D1*
X2629201D2*
X2735227D1*
X2852186D2*
X3035219D1*
X3152177D2*
X3289315D1*
X448089Y1870636D2*
X1108202D1*
X1179193D2*
X1571467D1*
X1669802D2*
X1790146D1*
X1897236D2*
X2090136D1*
X2197264D2*
X2321483D1*
X2419781D2*
X2558210D1*
X2629201D2*
X2740143D1*
X2847269D2*
X3040135D1*
X3147261D2*
X3289315D1*
X448089Y1845768D2*
X1083227D1*
X1204205D2*
X1483228D1*
X1644934D2*
X1812214D1*
X1875203D2*
X2112206D1*
X2175194D2*
X2296614D1*
X2394913D2*
X2546619D1*
X2629201D2*
X2762213D1*
X2825201D2*
X3062203D1*
X3125193D2*
X3289315D1*
X448089Y1820899D2*
X1083227D1*
X1204205D2*
X1483228D1*
X1620067D2*
X1792227D1*
X1895190D2*
X2092218D1*
X2370046D2*
X2521752D1*
X2620051D2*
X3289315D1*
X448089Y1796030D2*
X1083227D1*
X1204205D2*
X1483228D1*
X1604206D2*
X1785230D1*
X1902188D2*
X2085220D1*
X2345178D2*
X2496885D1*
X2595184D2*
X3289315D1*
X448089Y1771161D2*
X1083227D1*
X1204205D2*
X1483228D1*
X1604206D2*
X1789930D1*
X1897487D2*
X2089921D1*
X2320310D2*
X2472017D1*
X2570315D2*
X3289315D1*
X448089Y1746293D2*
X487155D1*
X600238D2*
X1083227D1*
X1204205D2*
X1483228D1*
X1604206D2*
X1811353D1*
X1876064D2*
X2111345D1*
X2176056D2*
X2447148D1*
X2545448D2*
X3289315D1*
X448089Y1721424D2*
X487155D1*
X600238D2*
X1173332D1*
X1894867D2*
X2092505D1*
X2520580D2*
X3289315D1*
X448089Y1696555D2*
X487155D1*
X600238D2*
X1147387D1*
X1902152D2*
X2085257D1*
X2495713D2*
X3289315D1*
X448089Y1671686D2*
X487155D1*
X600238D2*
X1122520D1*
X1897702D2*
X2089671D1*
X2470844D2*
X3289315D1*
X448089Y1646818D2*
X487155D1*
X600238D2*
X1097652D1*
X1195987D2*
X1810528D1*
X1876853D2*
X2110520D1*
X2176881D2*
X3289315D1*
X448089Y1621949D2*
X487621D1*
X599807D2*
X1072785D1*
X1171084D2*
X1324154D1*
X1894580D2*
X2092828D1*
X2663256D2*
X3289315D1*
X448089Y1597080D2*
X490205D1*
X597223D2*
X1047917D1*
X1146215D2*
X1297921D1*
X1902115D2*
X2085293D1*
X2689487D2*
X3289315D1*
X448089Y1572211D2*
X500862D1*
X586530D2*
X1023049D1*
X1121348D2*
X1273054D1*
X1897917D2*
X2089455D1*
X2714354D2*
X3289315D1*
X448089Y1547343D2*
X488303D1*
X599089D2*
X998181D1*
X1096480D2*
X1248186D1*
X1346486D2*
X1809738D1*
X1877643D2*
X2109765D1*
X2177635D2*
X2640924D1*
X2739222D2*
X3289315D1*
X448089Y1522474D2*
X488913D1*
X598479D2*
X973314D1*
X1071613D2*
X1223319D1*
X1321618D2*
X1675064D1*
X1894257D2*
X2093151D1*
X2312344D2*
X2665791D1*
X2764091D2*
X3289315D1*
X448089Y1497605D2*
X503374D1*
X584018D2*
X948446D1*
X1046744D2*
X1198451D1*
X1296749D2*
X1648438D1*
X1902080D2*
X2085328D1*
X2338934D2*
X2690659D1*
X2788958D2*
X3289315D1*
X448089Y1472736D2*
X489344D1*
X663824D2*
X923577D1*
X1021877D2*
X1173583D1*
X1271882D2*
X1623571D1*
X1898133D2*
X2089240D1*
X2363802D2*
X2715526D1*
X2813825D2*
X3289315D1*
X448089Y1447867D2*
X488016D1*
X688692D2*
X898710D1*
X997009D2*
X1148715D1*
X1247014D2*
X1598703D1*
X1697038D2*
X1808984D1*
X1878396D2*
X2108976D1*
X2178424D2*
X2290371D1*
X2388669D2*
X2740395D1*
X2838693D2*
X3289315D1*
X448089Y1422999D2*
X499571D1*
X587822D2*
X615261D1*
X713560D2*
X873843D1*
X972142D2*
X1123848D1*
X1222147D2*
X1573836D1*
X1672134D2*
X1776043D1*
X1893934D2*
X2093438D1*
X2261353D2*
X2315239D1*
X2413538D2*
X2765262D1*
X2863560D2*
X3289315D1*
X448089Y1398130D2*
X490743D1*
X596650D2*
X640129D1*
X728882D2*
X848975D1*
X947274D2*
X1098980D1*
X1197278D2*
X1548967D1*
X1647266D2*
X1748986D1*
X1902045D2*
X2085365D1*
X2288409D2*
X2340106D1*
X2438441D2*
X2790130D1*
X2888429D2*
X3289315D1*
X448089Y1373261D2*
X487442D1*
X599987D2*
X658214D1*
X729206D2*
X824108D1*
X922406D2*
X1074112D1*
X1172411D2*
X1524100D1*
X1622399D2*
X1724118D1*
X1898348D2*
X2089025D1*
X2313277D2*
X2364974D1*
X2463308D2*
X2814997D1*
X2913297D2*
X3289315D1*
X448089Y1348392D2*
X496484D1*
X590944D2*
X658214D1*
X729206D2*
X799239D1*
X897538D2*
X1049244D1*
X1147543D2*
X1499232D1*
X1597531D2*
X1708545D1*
X1797550D2*
X1808266D1*
X1879150D2*
X2108259D1*
X2179142D2*
X2239846D1*
X2338144D2*
X2389841D1*
X2488177D2*
X2839865D1*
X2938164D2*
X3289315D1*
X448089Y1323524D2*
X492537D1*
X594856D2*
X658214D1*
X729206D2*
X774371D1*
X872671D2*
X1024377D1*
X1122676D2*
X1474365D1*
X1572663D2*
X1708222D1*
X1779177D2*
X1793769D1*
X1893612D2*
X2093761D1*
X2193639D2*
X2264714D1*
X2363013D2*
X2414710D1*
X2513045D2*
X2864734D1*
X2963031D2*
X3289315D1*
X448089Y1298655D2*
X487155D1*
X600238D2*
X658214D1*
X729206D2*
X749504D1*
X847803D2*
X980311D1*
X1097808D2*
X1430335D1*
X1547795D2*
X1708222D1*
X1902008D2*
X2085400D1*
X2202000D2*
X2289581D1*
X2407079D2*
X2439577D1*
X2557075D2*
X2889601D1*
X3007062D2*
X3289315D1*
X448089Y1273786D2*
X493937D1*
X593455D2*
X658214D1*
X822934D2*
X943961D1*
X1072940D2*
X1393948D1*
X1522928D2*
X1693940D1*
X1898563D2*
X2088845D1*
X2212765D2*
X2314449D1*
X2443465D2*
X2464480D1*
X2593461D2*
X2914469D1*
X3043449D2*
X3289315D1*
X448089Y1248917D2*
X494762D1*
X592630D2*
X658214D1*
X798067D2*
X935420D1*
X1051984D2*
X1385408D1*
X1501971D2*
X1685436D1*
X1879867D2*
X2107541D1*
X2255647D2*
X2335441D1*
X2451970D2*
X2485437D1*
X2601966D2*
X2935425D1*
X3051990D2*
X3289315D1*
X448089Y1224049D2*
X487226D1*
X600165D2*
X644112D1*
X773199D2*
X938757D1*
X1048647D2*
X1388744D1*
X1498671D2*
X1688736D1*
X1798661D2*
X2164202D1*
X2293290D2*
X2338743D1*
X2448668D2*
X2488739D1*
X2598664D2*
X2938726D1*
X3048652D2*
X3289315D1*
X448089Y1199180D2*
X491856D1*
X595537D2*
X635463D1*
X751957D2*
X957202D1*
X1030202D2*
X1407189D1*
X1480190D2*
X1707217D1*
X1780218D2*
X2185445D1*
X2301937D2*
X2357188D1*
X2430188D2*
X2507182D1*
X2580219D2*
X2957206D1*
X3030207D2*
X3289315D1*
X448089Y1174311D2*
X508219D1*
X579173D2*
X638657D1*
X748762D2*
X958206D1*
X1029197D2*
X1408230D1*
X1479185D2*
X1708222D1*
X1779177D2*
X2188639D1*
X2298744D2*
X2358228D1*
X2429182D2*
X2508223D1*
X2579178D2*
X2958211D1*
X3029202D2*
X3289315D1*
X448089Y1149442D2*
X508219D1*
X579173D2*
X656850D1*
X730533D2*
X958206D1*
X1029197D2*
X1408230D1*
X1479185D2*
X1708222D1*
X1779177D2*
X2206869D1*
X2280551D2*
X2358228D1*
X2429182D2*
X2508223D1*
X2579178D2*
X2958211D1*
X3029202D2*
X3289315D1*
X448089Y1124573D2*
X508219D1*
X579173D2*
X649997D1*
X737423D2*
X949988D1*
X1037415D2*
X1399976D1*
X1487403D2*
X1700004D1*
X1787394D2*
X2199979D1*
X2287404D2*
X2358228D1*
X2429182D2*
X2500007D1*
X2587396D2*
X2949993D1*
X3037420D2*
X3289315D1*
X448089Y1099705D2*
X508219D1*
X579173D2*
X640056D1*
X747327D2*
X940049D1*
X1047354D2*
X1390072D1*
X1497343D2*
X1690064D1*
X1797335D2*
X2190075D1*
X2297344D2*
X2358228D1*
X2429182D2*
X2490067D1*
X2597336D2*
X2940054D1*
X3047324D2*
X3289315D1*
X448089Y1074836D2*
X508219D1*
X579173D2*
X643286D1*
X744097D2*
X943278D1*
X1044125D2*
X1393302D1*
X1494113D2*
X1693294D1*
X1892786D2*
X2193304D1*
X2294115D2*
X2358228D1*
X2429182D2*
X2493295D1*
X2594106D2*
X2943283D1*
X3044130D2*
X3289315D1*
X448089Y1049967D2*
X508219D1*
X579173D2*
X664028D1*
X723392D2*
X964020D1*
X1023385D2*
X1414007D1*
X1473371D2*
X1714035D1*
X1773399D2*
X1785516D1*
X1901865D2*
X2214009D1*
X2273374D2*
X2358228D1*
X2429182D2*
X2514037D1*
X2573366D2*
X2964025D1*
X3023390D2*
X3289315D1*
X448089Y1025098D2*
X508219D1*
X579173D2*
X1788350D1*
X1899030D2*
X2358228D1*
X2429182D2*
X3289315D1*
X448089Y1000230D2*
X508219D1*
X579173D2*
X1805862D1*
X1881518D2*
X2351087D1*
X2429182D2*
X3289315D1*
X448089Y975361D2*
X508219D1*
X2423621D2*
X3289315D1*
X448089Y950492D2*
X508219D1*
X2399650D2*
X3289315D1*
X448089Y925623D2*
X513601D1*
X2374782D2*
X3289315D1*
X448089Y900755D2*
X3289315D1*
X448089Y875886D2*
X3289315D1*
X448089Y851017D2*
X3289315D1*
X448089Y826148D2*
X651217D1*
X736167D2*
X951209D1*
X1036194D2*
X1401232D1*
X1486182D2*
X1701224D1*
X1786175D2*
X2201235D1*
X2286185D2*
X2501226D1*
X2586176D2*
X2951214D1*
X3036199D2*
X3289315D1*
X448089Y801280D2*
X640273D1*
X747147D2*
X940264D1*
X1047139D2*
X1390252D1*
X1497127D2*
X1690280D1*
X1797119D2*
X2190253D1*
X2297129D2*
X2490282D1*
X2597121D2*
X2940269D1*
X3047144D2*
X3289315D1*
X448089Y776411D2*
X642713D1*
X744707D2*
X942705D1*
X1044699D2*
X1392692D1*
X1494686D2*
X1692684D1*
X1794715D2*
X2192694D1*
X2294689D2*
X2492686D1*
X2594717D2*
X2942710D1*
X3044705D2*
X3289315D1*
X448089Y751542D2*
X658214D1*
X729206D2*
X958206D1*
X1029197D2*
X1408230D1*
X1479185D2*
X1708222D1*
X1779177D2*
X2208196D1*
X2279188D2*
X2508223D1*
X2579178D2*
X2958211D1*
X3029202D2*
X3289315D1*
X448089Y726673D2*
X658214D1*
X729206D2*
X958206D1*
X1029197D2*
X1408230D1*
X1479185D2*
X1708222D1*
X1779177D2*
X2208196D1*
X2279188D2*
X2508223D1*
X2579178D2*
X2958211D1*
X3029202D2*
X3289315D1*
X448089Y701804D2*
X658214D1*
X729206D2*
X958206D1*
X1029197D2*
X1408230D1*
X1479185D2*
X1708222D1*
X1779177D2*
X2208196D1*
X2279188D2*
X2508223D1*
X2579178D2*
X2958211D1*
X3029202D2*
X3289315D1*
X448089Y676936D2*
X646122D1*
X741298D2*
X946113D1*
X1041290D2*
X1396101D1*
X1491314D2*
X1696093D1*
X1791306D2*
X2196104D1*
X2291280D2*
X2496094D1*
X2591307D2*
X2946118D1*
X3041295D2*
X3289315D1*
X448089Y652067D2*
X635823D1*
X751597D2*
X935815D1*
X1051589D2*
X1385802D1*
X1501576D2*
X1685794D1*
X1801605D2*
X2185804D1*
X2301579D2*
X2485797D1*
X2601606D2*
X2935820D1*
X3051594D2*
X3289315D1*
X448089Y627198D2*
X637652D1*
X749731D2*
X937681D1*
X1049723D2*
X1387668D1*
X1499747D2*
X1687660D1*
X1799739D2*
X2187671D1*
X2299748D2*
X2487661D1*
X2599740D2*
X2937650D1*
X3049728D2*
X3289315D1*
X448089Y602329D2*
X653442D1*
X733978D2*
X953433D1*
X1033970D2*
X1403421D1*
X1483958D2*
X1703413D1*
X1783986D2*
X2203424D1*
X2283959D2*
X2503415D1*
X2583987D2*
X2953438D1*
X3033975D2*
X3289315D1*
X448089Y577461D2*
X3289315D1*
X448089Y552592D2*
X3289315D1*
X542715Y527723D2*
X3194688D1*
X553085Y502854D2*
X3184318D1*
X551651Y477986D2*
X3185753D1*
X537117Y453117D2*
X3200286D1*
X1094899Y1851689D2*
X1110724D1*
X1110713Y2048442D1*
X1104089Y2054089D1*
X1098379Y2060773D1*
X1093787Y2068269D1*
X1090423Y2076390D1*
X1088371Y2084937D1*
X1087681Y2093701D1*
X1088371Y2102465D1*
X1090423Y2111012D1*
X1093787Y2119133D1*
X1098379Y2126629D1*
X1104089Y2133312D1*
X1105818Y2134911D1*
X1037986Y2202764D1*
X1037975Y2201264D1*
X921999D1*
Y2317240D1*
X1037975D1*
Y2290722D1*
X1043126Y2288644D1*
X1047539Y2285940D1*
X1051476Y2282579D1*
X1168785Y2165125D1*
X1171828Y2160937D1*
X1174178Y2156325D1*
X1175778Y2151402D1*
X1176588Y2146289D1*
X1176689Y2139000D1*
X1183312Y2133312D1*
X1188969Y2126696D1*
X1229787Y2126689D1*
X1229807Y2157594D1*
X1357594D1*
Y2029807D1*
X1229807D1*
Y2060703D1*
X1188955Y2060713D1*
X1183312Y2054089D1*
X1176696Y2048433D1*
X1176689Y1851661D1*
X1201689Y1851689D1*
Y1735713D1*
X1085713D1*
Y1851689D1*
X1094899D1*
X2394899Y2001689D2*
X2410724D1*
X2410713Y2330066D1*
X2398324Y2342425D1*
X2389661Y2342367D1*
X2381680Y2343631D1*
X2373996Y2346129D1*
X2366797Y2349797D1*
X2360260Y2354546D1*
X2354546Y2360260D1*
X2349797Y2366797D1*
X2346129Y2373996D1*
X2343631Y2381680D1*
X2342367Y2389661D1*
Y2397740D1*
X2343631Y2405722D1*
X2346129Y2413406D1*
X2349797Y2420605D1*
X2354546Y2427142D1*
X2360260Y2432856D1*
X2366797Y2437605D1*
X2373996Y2441273D1*
X2381680Y2443770D1*
X2389661Y2445034D1*
X2397740D1*
X2405722Y2443770D1*
X2413406Y2441273D1*
X2420605Y2437605D1*
X2427142Y2432856D1*
X2432856Y2427142D1*
X2437605Y2420605D1*
X2441273Y2413406D1*
X2443770Y2405722D1*
X2445034Y2397740D1*
X2444966Y2389080D1*
X2468785Y2365125D1*
X2471828Y2360937D1*
X2474178Y2356325D1*
X2475777Y2351402D1*
X2476588Y2346289D1*
X2476689Y2279396D1*
Y2001689D1*
X2501689D1*
Y1885713D1*
X2432396D1*
X2315123Y1768615D1*
X2310936Y1765572D1*
X2306324Y1763222D1*
X2301400Y1761623D1*
X2296287Y1760812D1*
X2229395Y1760711D1*
X2188954D1*
X2183312Y1754088D1*
X2176629Y1748378D1*
X2168962Y1743706D1*
X2176629Y1739021D1*
X2183312Y1733311D1*
X2188969Y1726694D1*
X2430021Y1726688D1*
X2560717Y1857369D1*
X2560713Y2148394D1*
X2554089Y2154089D1*
X2548379Y2160773D1*
X2543787Y2168269D1*
X2540423Y2176390D1*
X2538371Y2184937D1*
X2537681Y2193701D1*
X2538371Y2202465D1*
X2540423Y2211012D1*
X2543787Y2219133D1*
X2548379Y2226629D1*
X2554089Y2233312D1*
X2560706Y2238969D1*
X2560814Y2296289D1*
X2561623Y2301402D1*
X2563223Y2306325D1*
X2565573Y2310937D1*
X2568617Y2315125D1*
X2615845Y2362497D1*
X2672277Y2418785D1*
X2676465Y2421828D1*
X2681076Y2424178D1*
X2686000Y2425778D1*
X2691113Y2426588D1*
X2754165Y2426689D1*
X2760260Y2432856D1*
X2766797Y2437605D1*
X2773996Y2441273D1*
X2781680Y2443770D1*
X2789661Y2445034D1*
X2797740D1*
X2805722Y2443770D1*
X2813406Y2441273D1*
X2820605Y2437605D1*
X2827142Y2432856D1*
X2832856Y2427142D1*
X2837605Y2420605D1*
X2841273Y2413406D1*
X2843770Y2405722D1*
X2845034Y2397740D1*
Y2389661D1*
X2843770Y2381680D1*
X2841273Y2373996D1*
X2837605Y2366797D1*
X2832856Y2360260D1*
X2827142Y2354546D1*
X2820605Y2349797D1*
X2813406Y2346129D1*
X2805722Y2343631D1*
X2797740Y2342367D1*
X2789661D1*
X2781680Y2343631D1*
X2773996Y2346129D1*
X2766797Y2349797D1*
X2760260Y2354546D1*
X2754184Y2360718D1*
X2707399Y2360713D1*
X2626671Y2280018D1*
X2626689Y2238978D1*
X2633312Y2233312D1*
X2639022Y2226629D1*
X2643614Y2219133D1*
X2646979Y2211012D1*
X2649030Y2202465D1*
X2649720Y2193701D1*
X2649030Y2184937D1*
X2646979Y2176390D1*
X2643614Y2168269D1*
X2639022Y2160773D1*
X2633312Y2154089D1*
X2626696Y2148433D1*
X2626588Y1841113D1*
X2625778Y1836000D1*
X2624178Y1831076D1*
X2621828Y1826465D1*
X2618785Y1822277D1*
X2571556Y1774904D1*
X2465123Y1668615D1*
X2460936Y1665572D1*
X2456324Y1663222D1*
X2451400Y1661622D1*
X2446287Y1660812D1*
X2379395Y1660711D1*
X2188958D1*
X2183312Y1654088D1*
X2176629Y1648378D1*
X2168962Y1643706D1*
X2176629Y1639022D1*
X2183312Y1633312D1*
X2188969Y1626696D1*
X2646289Y1626588D1*
X2651402Y1625778D1*
X2656325Y1624178D1*
X2660937Y1621828D1*
X2665125Y1618785D1*
X2712497Y1571556D1*
X2984988Y1299066D1*
X2993701Y1299720D1*
X3002465Y1299030D1*
X3011012Y1296979D1*
X3019133Y1293614D1*
X3026629Y1289022D1*
X3033312Y1283312D1*
X3039022Y1276629D1*
X3043614Y1269133D1*
X3046979Y1261012D1*
X3049030Y1252465D1*
X3049720Y1243701D1*
X3049030Y1234937D1*
X3046979Y1226390D1*
X3043614Y1218269D1*
X3039022Y1210773D1*
X3033312Y1204089D1*
X3026696Y1198433D1*
X3026689Y1133214D1*
X3030112Y1130112D1*
X3035358Y1123967D1*
X3039580Y1117077D1*
X3042673Y1109613D1*
X3044559Y1101756D1*
X3045193Y1093701D1*
X3044559Y1085646D1*
X3042673Y1077789D1*
X3039580Y1070324D1*
X3035358Y1063434D1*
X3030112Y1057290D1*
X3023967Y1052043D1*
X3017077Y1047822D1*
X3009613Y1044728D1*
X3001756Y1042843D1*
X2993701Y1042209D1*
X2985646Y1042843D1*
X2977789Y1044728D1*
X2970324Y1047822D1*
X2963434Y1052043D1*
X2957290Y1057290D1*
X2952043Y1063434D1*
X2947822Y1070324D1*
X2944728Y1077789D1*
X2942843Y1085646D1*
X2942209Y1093701D1*
X2942843Y1101756D1*
X2944728Y1109613D1*
X2947822Y1117077D1*
X2952043Y1123967D1*
X2957290Y1130112D1*
X2960718Y1133218D1*
X2960713Y1198446D1*
X2954089Y1204089D1*
X2948379Y1210773D1*
X2943787Y1218269D1*
X2940423Y1226390D1*
X2938371Y1234937D1*
X2937681Y1243701D1*
X2938361Y1252379D1*
X2630034Y1560715D1*
X2189012Y1560713D1*
X2183312Y1554089D1*
X2176629Y1548379D1*
X2168962Y1543707D1*
X2176629Y1539021D1*
X2183312Y1533311D1*
X2188969Y1526694D1*
X2296290Y1526587D1*
X2301403Y1525777D1*
X2306327Y1524177D1*
X2310938Y1521827D1*
X2315126Y1518783D1*
X2362499Y1471555D1*
X2535016Y1299038D1*
X2543701Y1299720D1*
X2552465Y1299030D1*
X2561012Y1296979D1*
X2569133Y1293614D1*
X2576629Y1289022D1*
X2583312Y1283312D1*
X2589022Y1276629D1*
X2593614Y1269133D1*
X2596979Y1261012D1*
X2599030Y1252465D1*
X2599720Y1243701D1*
X2599030Y1234937D1*
X2596979Y1226390D1*
X2593614Y1218269D1*
X2589022Y1210773D1*
X2583312Y1204089D1*
X2576696Y1198433D1*
X2576689Y1133214D1*
X2582856Y1127142D1*
X2587605Y1120605D1*
X2591273Y1113406D1*
X2593770Y1105722D1*
X2595034Y1097740D1*
Y1089661D1*
X2593770Y1081680D1*
X2591273Y1073996D1*
X2587605Y1066797D1*
X2582856Y1060260D1*
X2577142Y1054546D1*
X2570605Y1049797D1*
X2563406Y1046129D1*
X2555722Y1043631D1*
X2547740Y1042367D1*
X2539661D1*
X2531680Y1043631D1*
X2523996Y1046129D1*
X2516797Y1049797D1*
X2510260Y1054546D1*
X2504546Y1060260D1*
X2499797Y1066797D1*
X2496129Y1073996D1*
X2493631Y1081680D1*
X2492367Y1089661D1*
Y1097740D1*
X2493631Y1105722D1*
X2496129Y1113406D1*
X2499797Y1120605D1*
X2504546Y1127142D1*
X2510718Y1133218D1*
X2510713Y1198446D1*
X2504089Y1204089D1*
X2498379Y1210773D1*
X2493787Y1218269D1*
X2490423Y1226390D1*
X2488371Y1234937D1*
X2487681Y1243701D1*
X2488361Y1252379D1*
X2280058Y1460692D1*
X2188957Y1460711D1*
X2183312Y1454088D1*
X2176629Y1448378D1*
X2168962Y1443706D1*
X2176629Y1439021D1*
X2183312Y1433311D1*
X2188969Y1426694D1*
X2246290Y1426587D1*
X2251403Y1425776D1*
X2256327Y1424177D1*
X2260938Y1421827D1*
X2265126Y1418783D1*
X2312499Y1371555D1*
X2384992Y1299062D1*
X2393701Y1299720D1*
X2402465Y1299030D1*
X2411012Y1296979D1*
X2419133Y1293614D1*
X2426629Y1289022D1*
X2433312Y1283312D1*
X2439022Y1276629D1*
X2443614Y1269133D1*
X2446979Y1261012D1*
X2449030Y1252465D1*
X2449720Y1243701D1*
X2449030Y1234937D1*
X2446979Y1226390D1*
X2443614Y1218269D1*
X2439022Y1210773D1*
X2433312Y1204089D1*
X2426696Y1198433D1*
X2426588Y991113D1*
X2425777Y986000D1*
X2424178Y981076D1*
X2421828Y976465D1*
X2418785Y972277D1*
X2371556Y924904D1*
X2365125Y918617D1*
X2360937Y915573D1*
X2356325Y913223D1*
X2351402Y911625D1*
X2346289Y910814D1*
X2279396Y910713D1*
X541113Y910814D1*
X536000Y911625D1*
X531076Y913223D1*
X526465Y915573D1*
X522277Y918617D1*
X518617Y922277D1*
X515573Y926465D1*
X513223Y931076D1*
X511625Y936000D1*
X510814Y941113D1*
X510713Y1008005D1*
Y1178419D1*
X505480Y1183039D1*
X499972Y1189490D1*
X495541Y1196720D1*
X492295Y1204558D1*
X490315Y1212804D1*
X489650Y1221260D1*
X490315Y1229715D1*
X492295Y1237962D1*
X495541Y1245799D1*
X499972Y1253030D1*
X505480Y1259480D1*
X506686Y1260594D1*
X502600Y1264896D1*
X497614Y1271759D1*
X493764Y1279315D1*
X491143Y1287382D1*
X489816Y1295760D1*
Y1304240D1*
X491143Y1312618D1*
X493764Y1320685D1*
X497614Y1328241D1*
X502600Y1335104D1*
X506686Y1339335D1*
X502600Y1343636D1*
X497614Y1350499D1*
X493764Y1358055D1*
X491143Y1366122D1*
X489816Y1374500D1*
Y1382980D1*
X491143Y1391358D1*
X493764Y1399425D1*
X497614Y1406982D1*
X502600Y1413844D1*
X506686Y1418075D1*
X502600Y1422377D1*
X497614Y1429239D1*
X493764Y1436795D1*
X491143Y1444862D1*
X489816Y1453240D1*
Y1461720D1*
X491143Y1470098D1*
X493764Y1478165D1*
X497614Y1485722D1*
X502600Y1492584D1*
X506686Y1496815D1*
X502600Y1501117D1*
X497614Y1507979D1*
X493764Y1515535D1*
X491143Y1523602D1*
X489816Y1531980D1*
Y1540461D1*
X491143Y1548839D1*
X493764Y1556906D1*
X497614Y1564462D1*
X502600Y1571324D1*
X506686Y1575555D1*
X502600Y1579857D1*
X497614Y1586719D1*
X493764Y1594276D1*
X491143Y1602343D1*
X489816Y1610720D1*
Y1619201D1*
X491143Y1627579D1*
X493764Y1635646D1*
X495630Y1639659D1*
X489650Y1639650D1*
Y1747752D1*
X597752D1*
Y1639650D1*
X591861Y1639500D1*
X595106Y1631663D1*
X597087Y1623416D1*
X597752Y1614961D1*
X597087Y1606505D1*
X595106Y1598259D1*
X591861Y1590421D1*
X587429Y1583190D1*
X581921Y1576740D1*
X580715Y1575626D1*
X584802Y1571324D1*
X589787Y1564462D1*
X593638Y1556906D1*
X596259Y1548839D1*
X597585Y1540461D1*
Y1531980D1*
X596259Y1523602D1*
X593638Y1515535D1*
X589787Y1507979D1*
X584802Y1501117D1*
X580715Y1496886D1*
X586475Y1490462D1*
X632509Y1490367D1*
X637622Y1489556D1*
X642546Y1487958D1*
X647157Y1485608D1*
X651345Y1482564D1*
X698718Y1435336D1*
X718785Y1415125D1*
X721828Y1410937D1*
X724178Y1406325D1*
X725778Y1401402D1*
X726588Y1396289D1*
X726689Y1329396D1*
Y1273310D1*
X1172276Y1718783D1*
X1176463Y1721827D1*
X1181075Y1724177D1*
X1185999Y1725776D1*
X1191112Y1726587D1*
X1258004Y1726688D1*
X1798455D1*
X1804089Y1733311D1*
X1810773Y1739021D1*
X1818440Y1743693D1*
X1810773Y1748378D1*
X1804089Y1754088D1*
X1798379Y1760772D1*
X1793787Y1768268D1*
X1790423Y1776388D1*
X1788371Y1784936D1*
X1787681Y1793699D1*
X1788371Y1802463D1*
X1790423Y1811010D1*
X1793787Y1819131D1*
X1798379Y1826627D1*
X1804089Y1833311D1*
X1810773Y1839021D1*
X1818440Y1843693D1*
X1810773Y1848379D1*
X1804089Y1854089D1*
X1798379Y1860773D1*
X1793787Y1868269D1*
X1790423Y1876390D1*
X1788371Y1884937D1*
X1787681Y1893701D1*
X1788371Y1902465D1*
X1790423Y1911012D1*
X1793787Y1919133D1*
X1798379Y1926629D1*
X1804089Y1933312D1*
X1810773Y1939022D1*
X1818440Y1943694D1*
X1810773Y1948379D1*
X1804089Y1954089D1*
X1798379Y1960773D1*
X1793787Y1968269D1*
X1790423Y1976390D1*
X1788371Y1984937D1*
X1787681Y1993701D1*
X1788371Y2002465D1*
X1790423Y2011012D1*
X1793787Y2019133D1*
X1798379Y2026629D1*
X1804089Y2033312D1*
X1810773Y2039022D1*
X1818440Y2043694D1*
X1810773Y2048379D1*
X1804089Y2054089D1*
X1798379Y2060773D1*
X1793787Y2068269D1*
X1790423Y2076390D1*
X1788371Y2084937D1*
X1787681Y2093701D1*
X1788371Y2102465D1*
X1790423Y2111012D1*
X1793787Y2119133D1*
X1798379Y2126629D1*
X1804089Y2133312D1*
X1809059Y2137671D1*
X1787681Y2137681D1*
Y2160682D1*
X1757399Y2160713D1*
X1699050Y2102398D1*
X1699720Y2093701D1*
X1699030Y2084937D1*
X1696979Y2076390D1*
X1693614Y2068269D1*
X1689022Y2060773D1*
X1683312Y2054089D1*
X1676696Y2048433D1*
X1676588Y1891113D1*
X1675778Y1886000D1*
X1674178Y1881076D1*
X1671828Y1876465D1*
X1668785Y1872277D1*
X1621556Y1824904D1*
X1601689Y1805037D1*
Y1735713D1*
X1485713D1*
Y1851689D1*
X1555005D1*
X1610731Y1907383D1*
X1610713Y2048398D1*
X1604089Y2054089D1*
X1598433Y2060706D1*
X1548428Y2060713D1*
X1542286Y2052205D1*
X1535197Y2045115D1*
X1527085Y2039223D1*
X1518152Y2034671D1*
X1508617Y2031572D1*
X1498714Y2030004D1*
X1488688D1*
X1478785Y2031572D1*
X1469249Y2034671D1*
X1460316Y2039223D1*
X1452205Y2045115D1*
X1445115Y2052205D1*
X1439223Y2060316D1*
X1434671Y2069249D1*
X1431572Y2078785D1*
X1430004Y2088688D1*
Y2098714D1*
X1431572Y2108617D1*
X1434671Y2118152D1*
X1439223Y2127085D1*
X1445115Y2135197D1*
X1452205Y2142286D1*
X1460316Y2148178D1*
X1469249Y2152731D1*
X1478785Y2155829D1*
X1488688Y2157398D1*
X1498714D1*
X1508617Y2155829D1*
X1518152Y2152731D1*
X1527085Y2148178D1*
X1535197Y2142286D1*
X1542286Y2135197D1*
X1548178Y2127085D1*
X1548819Y2126689D1*
X1598446D1*
X1604089Y2133312D1*
X1610773Y2139022D1*
X1618269Y2143614D1*
X1626390Y2146979D1*
X1634937Y2149030D1*
X1643701Y2149720D1*
X1652379Y2149041D1*
X1722277Y2218785D1*
X1726465Y2221828D1*
X1731076Y2224178D1*
X1736000Y2225778D1*
X1741113Y2226588D1*
X1787659Y2226689D1*
X1787681Y2249720D1*
X1810682D1*
X1810814Y2346289D1*
X1811623Y2351402D1*
X1813223Y2356325D1*
X1815573Y2360937D1*
X1818617Y2365125D1*
X1865845Y2412497D1*
X1872277Y2418785D1*
X1876465Y2421828D1*
X1881076Y2424178D1*
X1886000Y2425778D1*
X1891113Y2426588D1*
X1958005Y2426689D1*
X2054139D1*
X2060260Y2432856D1*
X2066797Y2437605D1*
X2073996Y2441273D1*
X2081680Y2443770D1*
X2089661Y2445034D1*
X2097740D1*
X2105722Y2443770D1*
X2113406Y2441273D1*
X2120605Y2437605D1*
X2127142Y2432856D1*
X2132856Y2427142D1*
X2137605Y2420605D1*
X2141273Y2413406D1*
X2143770Y2405722D1*
X2145034Y2397740D1*
Y2389661D1*
X2143770Y2381680D1*
X2141273Y2373996D1*
X2137605Y2366797D1*
X2132856Y2360260D1*
X2127142Y2354546D1*
X2120605Y2349797D1*
X2113406Y2346129D1*
X2105722Y2343631D1*
X2097740Y2342367D1*
X2089661D1*
X2081680Y2343631D1*
X2073996Y2346129D1*
X2066797Y2349797D1*
X2060260Y2354546D1*
X2054184Y2360718D1*
X1907354Y2360713D1*
X1876707Y2330055D1*
X1876689Y2249720D1*
X1899720D1*
Y2137681D1*
X1878370D1*
X1883312Y2133312D1*
X1889022Y2126629D1*
X1893614Y2119133D1*
X1896979Y2111012D1*
X1899030Y2102465D1*
X1899720Y2093701D1*
X1899030Y2084937D1*
X1896979Y2076390D1*
X1893614Y2068269D1*
X1889022Y2060773D1*
X1883312Y2054089D1*
X1876629Y2048379D1*
X1868962Y2043707D1*
X1876629Y2039022D1*
X1883312Y2033312D1*
X1889022Y2026629D1*
X1893614Y2019133D1*
X1896979Y2011012D1*
X1899030Y2002465D1*
X1899720Y1993701D1*
X1899030Y1984937D1*
X1896979Y1976390D1*
X1893614Y1968269D1*
X1889022Y1960773D1*
X1883312Y1954089D1*
X1876629Y1948379D1*
X1868962Y1943707D1*
X1876629Y1939022D1*
X1883312Y1933312D1*
X1889022Y1926629D1*
X1893614Y1919133D1*
X1896979Y1911012D1*
X1899030Y1902465D1*
X1899720Y1893701D1*
X1899030Y1884937D1*
X1896979Y1876390D1*
X1893614Y1868269D1*
X1889022Y1860773D1*
X1883312Y1854089D1*
X1876629Y1848379D1*
X1868962Y1843707D1*
X1876629Y1839021D1*
X1883312Y1833311D1*
X1889022Y1826627D1*
X1893614Y1819131D1*
X1896979Y1811010D1*
X1899030Y1802463D1*
X1899720Y1793699D1*
X1899030Y1784936D1*
X1896979Y1776388D1*
X1893614Y1768268D1*
X1889022Y1760772D1*
X1883312Y1754088D1*
X1876629Y1748378D1*
X1868962Y1743706D1*
X1876629Y1739021D1*
X1883312Y1733311D1*
X1889022Y1726627D1*
X1893614Y1719131D1*
X1896979Y1711010D1*
X1899030Y1702463D1*
X1899720Y1693699D1*
X1899030Y1684936D1*
X1896979Y1676388D1*
X1893614Y1668268D1*
X1889022Y1660772D1*
X1883312Y1654088D1*
X1876629Y1648378D1*
X1868962Y1643706D1*
X1876629Y1639022D1*
X1883312Y1633312D1*
X1889022Y1626629D1*
X1893614Y1619133D1*
X1896979Y1611012D1*
X1899030Y1602465D1*
X1899720Y1593701D1*
X1899030Y1584937D1*
X1896979Y1576390D1*
X1893614Y1568269D1*
X1889022Y1560773D1*
X1883312Y1554089D1*
X1876629Y1548379D1*
X1868962Y1543707D1*
X1876629Y1539021D1*
X1883312Y1533311D1*
X1889022Y1526627D1*
X1893614Y1519131D1*
X1896979Y1511010D1*
X1899030Y1502463D1*
X1899720Y1493699D1*
X1899030Y1484936D1*
X1896979Y1476388D1*
X1893614Y1468268D1*
X1889022Y1460772D1*
X1883312Y1454088D1*
X1876629Y1448378D1*
X1868962Y1443706D1*
X1876629Y1439021D1*
X1883312Y1433311D1*
X1889022Y1426627D1*
X1893614Y1419131D1*
X1896979Y1411010D1*
X1899030Y1402463D1*
X1899720Y1393699D1*
X1899030Y1384936D1*
X1896979Y1376388D1*
X1893614Y1368268D1*
X1889022Y1360772D1*
X1883312Y1354088D1*
X1876629Y1348378D1*
X1868962Y1343706D1*
X1876629Y1339022D1*
X1883312Y1333312D1*
X1889022Y1326629D1*
X1893614Y1319133D1*
X1896979Y1311012D1*
X1899030Y1302465D1*
X1899720Y1293701D1*
X1899030Y1284937D1*
X1896979Y1276390D1*
X1893614Y1268269D1*
X1889022Y1260773D1*
X1883312Y1254089D1*
X1876629Y1248379D1*
X1869133Y1243787D1*
X1861012Y1240423D1*
X1852465Y1238371D1*
X1843701Y1237681D1*
X1834937Y1238371D1*
X1826390Y1240423D1*
X1818269Y1243787D1*
X1810773Y1248379D1*
X1804089Y1254089D1*
X1798379Y1260773D1*
X1795457Y1265139D1*
X1798173Y1256778D1*
X1799547Y1248096D1*
Y1239306D1*
X1798173Y1230623D1*
X1795457Y1222262D1*
X1791466Y1214430D1*
X1786298Y1207319D1*
X1780083Y1201104D1*
X1776696Y1198433D1*
X1776689Y1133214D1*
X1782856Y1127142D1*
X1787605Y1120605D1*
X1791273Y1113406D1*
X1793770Y1105722D1*
X1795034Y1097740D1*
Y1089661D1*
X1793770Y1081680D1*
X1791273Y1073996D1*
X1787605Y1066797D1*
X1782856Y1060260D1*
X1777142Y1054546D1*
X1770605Y1049797D1*
X1763406Y1046129D1*
X1755722Y1043631D1*
X1747740Y1042367D1*
X1739661D1*
X1731680Y1043631D1*
X1723996Y1046129D1*
X1716797Y1049797D1*
X1710260Y1054546D1*
X1704546Y1060260D1*
X1699797Y1066797D1*
X1696129Y1073996D1*
X1693631Y1081680D1*
X1692367Y1089661D1*
Y1097740D1*
X1693631Y1105722D1*
X1696129Y1113406D1*
X1699797Y1120605D1*
X1704546Y1127142D1*
X1710718Y1133218D1*
X1710713Y1198446D1*
X1704089Y1204089D1*
X1698379Y1210773D1*
X1693787Y1218269D1*
X1690423Y1226390D1*
X1688371Y1234937D1*
X1687681Y1243701D1*
X1688371Y1252465D1*
X1690423Y1261012D1*
X1693787Y1269133D1*
X1698379Y1276629D1*
X1704089Y1283312D1*
X1710706Y1288969D1*
X1710814Y1346289D1*
X1711623Y1351402D1*
X1713223Y1356325D1*
X1715573Y1360937D1*
X1718617Y1365125D1*
X1765845Y1412497D1*
X1772276Y1418783D1*
X1776463Y1421827D1*
X1781075Y1424177D1*
X1785999Y1425777D1*
X1791112Y1426587D1*
X1793710Y1426688D1*
X1801104Y1430081D1*
X1807319Y1436297D1*
X1814430Y1441465D1*
X1818269Y1443786D1*
X1810773Y1448378D1*
X1804089Y1454088D1*
X1798433Y1460705D1*
X1707377Y1460711D1*
X1499038Y1252386D1*
X1499720Y1243701D1*
X1499030Y1234937D1*
X1496979Y1226390D1*
X1493614Y1218269D1*
X1489022Y1210773D1*
X1483312Y1204089D1*
X1476696Y1198433D1*
X1476689Y1133214D1*
X1482856Y1127142D1*
X1487605Y1120605D1*
X1491273Y1113406D1*
X1493770Y1105722D1*
X1495034Y1097740D1*
Y1089661D1*
X1493770Y1081680D1*
X1491273Y1073996D1*
X1487605Y1066797D1*
X1482856Y1060260D1*
X1477142Y1054546D1*
X1470605Y1049797D1*
X1463406Y1046129D1*
X1455722Y1043631D1*
X1447740Y1042367D1*
X1439661D1*
X1431680Y1043631D1*
X1423996Y1046129D1*
X1416797Y1049797D1*
X1410260Y1054546D1*
X1404546Y1060260D1*
X1399797Y1066797D1*
X1396129Y1073996D1*
X1393631Y1081680D1*
X1392367Y1089661D1*
Y1097740D1*
X1393631Y1105722D1*
X1396129Y1113406D1*
X1399797Y1120605D1*
X1404546Y1127142D1*
X1410718Y1133218D1*
X1410713Y1198446D1*
X1404089Y1204089D1*
X1398379Y1210773D1*
X1393787Y1218269D1*
X1390423Y1226390D1*
X1388371Y1234937D1*
X1387681Y1243701D1*
X1388371Y1252465D1*
X1390423Y1261012D1*
X1393787Y1269133D1*
X1398379Y1276629D1*
X1404089Y1283312D1*
X1410773Y1289022D1*
X1418269Y1293614D1*
X1426390Y1296979D1*
X1434937Y1299030D1*
X1443701Y1299720D1*
X1452379Y1299041D1*
X1672276Y1518783D1*
X1676463Y1521827D1*
X1681075Y1524177D1*
X1685999Y1525777D1*
X1691112Y1526587D1*
X1758004Y1526688D1*
X1798445D1*
X1804089Y1533311D1*
X1810773Y1539021D1*
X1818440Y1543693D1*
X1810773Y1548379D1*
X1804089Y1554089D1*
X1798433Y1560706D1*
X1357362Y1560713D1*
X1049066Y1252413D1*
X1049720Y1243701D1*
X1049030Y1234937D1*
X1046979Y1226390D1*
X1043614Y1218269D1*
X1039022Y1210773D1*
X1033312Y1204089D1*
X1026696Y1198433D1*
X1026689Y1133214D1*
X1030112Y1130112D1*
X1035358Y1123967D1*
X1039580Y1117077D1*
X1042673Y1109613D1*
X1044559Y1101756D1*
X1045193Y1093701D1*
X1044559Y1085646D1*
X1042673Y1077789D1*
X1039580Y1070324D1*
X1035358Y1063434D1*
X1030112Y1057290D1*
X1023967Y1052043D1*
X1017077Y1047822D1*
X1009613Y1044728D1*
X1001756Y1042843D1*
X993701Y1042209D1*
X985646Y1042843D1*
X977789Y1044728D1*
X970324Y1047822D1*
X963434Y1052043D1*
X957290Y1057290D1*
X952043Y1063434D1*
X947822Y1070324D1*
X944728Y1077789D1*
X942843Y1085646D1*
X942209Y1093701D1*
X942843Y1101756D1*
X944728Y1109613D1*
X947822Y1117077D1*
X952043Y1123967D1*
X957290Y1130112D1*
X960718Y1133218D1*
X960713Y1198446D1*
X954089Y1204089D1*
X948379Y1210773D1*
X943787Y1218269D1*
X940423Y1226390D1*
X938371Y1234937D1*
X937681Y1243701D1*
X938371Y1252465D1*
X940423Y1261012D1*
X943787Y1269133D1*
X948379Y1276629D1*
X954089Y1283312D1*
X960773Y1289022D1*
X968269Y1293614D1*
X976390Y1296979D1*
X984937Y1299030D1*
X993701Y1299720D1*
X1002379Y1299041D1*
X1322277Y1618785D1*
X1326465Y1621828D1*
X1331076Y1624178D1*
X1336000Y1625778D1*
X1341113Y1626588D1*
X1408005Y1626689D1*
X1798390D1*
X1804089Y1633312D1*
X1810773Y1639022D1*
X1818440Y1643694D1*
X1810773Y1648378D1*
X1804089Y1654088D1*
X1798433Y1660705D1*
X1207366Y1660711D1*
X749054Y1202402D1*
X749720Y1193701D1*
X749030Y1184937D1*
X746979Y1176390D1*
X743614Y1168269D1*
X739022Y1160773D1*
X733312Y1154089D1*
X726696Y1148433D1*
X726689Y1133236D1*
X732856Y1127142D1*
X737605Y1120605D1*
X741273Y1113406D1*
X743770Y1105722D1*
X745034Y1097740D1*
Y1089661D1*
X743770Y1081680D1*
X741273Y1073996D1*
X737605Y1066797D1*
X732856Y1060260D1*
X727142Y1054546D1*
X720605Y1049797D1*
X713406Y1046129D1*
X705722Y1043631D1*
X697740Y1042367D1*
X689661D1*
X681680Y1043631D1*
X673996Y1046129D1*
X666797Y1049797D1*
X660260Y1054546D1*
X654546Y1060260D1*
X649797Y1066797D1*
X646129Y1073996D1*
X643631Y1081680D1*
X642367Y1089661D1*
Y1097740D1*
X643631Y1105722D1*
X646129Y1113406D1*
X649797Y1120605D1*
X654546Y1127142D1*
X660718Y1133218D1*
X660713Y1148424D1*
X654089Y1154089D1*
X648379Y1160773D1*
X643787Y1168269D1*
X640423Y1176390D1*
X638371Y1184937D1*
X637681Y1193701D1*
X638371Y1202465D1*
X640423Y1211012D1*
X643787Y1219133D1*
X648379Y1226629D1*
X654089Y1233312D1*
X660706Y1238969D1*
X660713Y1380047D1*
X616252Y1424497D1*
X586537Y1424492D1*
X581921Y1419260D1*
X580715Y1418146D1*
X584802Y1413844D1*
X589787Y1406982D1*
X593638Y1399425D1*
X596259Y1391358D1*
X597585Y1382980D1*
Y1374500D1*
X596259Y1366122D1*
X593638Y1358055D1*
X589787Y1350499D1*
X584802Y1343636D1*
X580715Y1339406D1*
X584802Y1335104D1*
X589787Y1328241D1*
X593638Y1320685D1*
X596259Y1312618D1*
X597585Y1304240D1*
Y1295760D1*
X596259Y1287382D1*
X593638Y1279315D1*
X589787Y1271759D1*
X584802Y1264896D1*
X580715Y1260665D1*
X584802Y1256364D1*
X589787Y1249501D1*
X593638Y1241945D1*
X596259Y1233878D1*
X597585Y1225500D1*
Y1217020D1*
X596259Y1208642D1*
X593638Y1200575D1*
X589787Y1193018D1*
X584802Y1186156D1*
X578804Y1180159D1*
X576682Y1178486D1*
X576689Y976709D1*
X2330051Y976689D1*
X2360694Y1007346D1*
X2360713Y1198420D1*
X2354089Y1204089D1*
X2348379Y1210773D1*
X2343787Y1218269D1*
X2340423Y1226390D1*
X2338371Y1234937D1*
X2337681Y1243701D1*
X2338361Y1252379D1*
X2230031Y1360718D1*
X2188979Y1360711D1*
X2183312Y1354088D1*
X2176629Y1348378D1*
X2168962Y1343706D1*
X2176629Y1339022D1*
X2183312Y1333312D1*
X2189022Y1326629D1*
X2193614Y1319133D1*
X2196979Y1311012D1*
X2199030Y1302465D1*
X2199720Y1293701D1*
X2199041Y1285022D1*
X2235004Y1249050D1*
X2243701Y1249720D1*
X2252465Y1249030D1*
X2261012Y1246979D1*
X2269133Y1243614D1*
X2276629Y1239022D1*
X2283312Y1233312D1*
X2289022Y1226629D1*
X2293614Y1219133D1*
X2296979Y1211012D1*
X2299030Y1202465D1*
X2299720Y1193701D1*
X2299030Y1184937D1*
X2296979Y1176390D1*
X2293614Y1168269D1*
X2289022Y1160773D1*
X2283312Y1154089D1*
X2276696Y1148433D1*
X2276689Y1133236D1*
X2282856Y1127142D1*
X2287605Y1120605D1*
X2291273Y1113406D1*
X2293770Y1105722D1*
X2295034Y1097740D1*
Y1089661D1*
X2293770Y1081680D1*
X2291273Y1073996D1*
X2287605Y1066797D1*
X2282856Y1060260D1*
X2277142Y1054546D1*
X2270605Y1049797D1*
X2263406Y1046129D1*
X2255722Y1043631D1*
X2247740Y1042367D1*
X2239661D1*
X2231680Y1043631D1*
X2223996Y1046129D1*
X2216797Y1049797D1*
X2210260Y1054546D1*
X2204546Y1060260D1*
X2199797Y1066797D1*
X2196129Y1073996D1*
X2193631Y1081680D1*
X2192367Y1089661D1*
Y1097740D1*
X2193631Y1105722D1*
X2196129Y1113406D1*
X2199797Y1120605D1*
X2204546Y1127142D1*
X2210718Y1133218D1*
X2210713Y1148424D1*
X2204089Y1154089D1*
X2198379Y1160773D1*
X2193787Y1168269D1*
X2190423Y1176390D1*
X2188371Y1184937D1*
X2187681Y1193701D1*
X2188361Y1202379D1*
X2152398Y1238352D1*
X2143701Y1237681D1*
X2134937Y1238371D1*
X2126390Y1240423D1*
X2118269Y1243787D1*
X2110773Y1248379D1*
X2104089Y1254089D1*
X2098379Y1260773D1*
X2093787Y1268269D1*
X2090423Y1276390D1*
X2088371Y1284937D1*
X2087681Y1293701D1*
X2088371Y1302465D1*
X2090423Y1311012D1*
X2093787Y1319133D1*
X2098379Y1326629D1*
X2104089Y1333312D1*
X2110773Y1339022D1*
X2118440Y1343694D1*
X2110773Y1348378D1*
X2104089Y1354088D1*
X2098379Y1360772D1*
X2093787Y1368268D1*
X2090423Y1376388D1*
X2088371Y1384936D1*
X2087681Y1393699D1*
X2088371Y1402463D1*
X2090423Y1411010D1*
X2093787Y1419131D1*
X2098379Y1426627D1*
X2104089Y1433311D1*
X2110773Y1439021D1*
X2118440Y1443693D1*
X2110773Y1448378D1*
X2104089Y1454088D1*
X2098379Y1460772D1*
X2093787Y1468268D1*
X2090423Y1476388D1*
X2088371Y1484936D1*
X2087681Y1493699D1*
X2088371Y1502463D1*
X2090423Y1511010D1*
X2093787Y1519131D1*
X2098379Y1526627D1*
X2104089Y1533311D1*
X2110773Y1539021D1*
X2118440Y1543693D1*
X2110773Y1548379D1*
X2104089Y1554089D1*
X2098379Y1560773D1*
X2093787Y1568269D1*
X2090423Y1576390D1*
X2088371Y1584937D1*
X2087681Y1593701D1*
X2088371Y1602465D1*
X2090423Y1611012D1*
X2093787Y1619133D1*
X2098379Y1626629D1*
X2104089Y1633312D1*
X2110773Y1639022D1*
X2118440Y1643694D1*
X2110773Y1648378D1*
X2104089Y1654088D1*
X2098379Y1660772D1*
X2093787Y1668268D1*
X2090423Y1676388D1*
X2088371Y1684936D1*
X2087681Y1693699D1*
X2088371Y1702463D1*
X2090423Y1711010D1*
X2093787Y1719131D1*
X2098379Y1726627D1*
X2104089Y1733311D1*
X2110773Y1739021D1*
X2118440Y1743693D1*
X2110773Y1748378D1*
X2104089Y1754088D1*
X2098379Y1760772D1*
X2093787Y1768268D1*
X2090423Y1776388D1*
X2088371Y1784936D1*
X2087681Y1793699D1*
X2088371Y1802463D1*
X2090423Y1811010D1*
X2093787Y1819131D1*
X2098379Y1826627D1*
X2104089Y1833311D1*
X2110773Y1839021D1*
X2118440Y1843693D1*
X2110773Y1848379D1*
X2104089Y1854089D1*
X2098379Y1860773D1*
X2093787Y1868269D1*
X2090423Y1876390D1*
X2088371Y1884937D1*
X2087681Y1893701D1*
X2088371Y1902465D1*
X2090423Y1911012D1*
X2093787Y1919133D1*
X2098379Y1926629D1*
X2104089Y1933312D1*
X2110773Y1939022D1*
X2118440Y1943694D1*
X2110773Y1948378D1*
X2104089Y1954088D1*
X2098379Y1960772D1*
X2093787Y1968268D1*
X2090423Y1976388D1*
X2088371Y1984936D1*
X2087681Y1993699D1*
X2088371Y2002463D1*
X2090423Y2011010D1*
X2093787Y2019131D1*
X2098379Y2026627D1*
X2104089Y2033311D1*
X2110773Y2039021D1*
X2118440Y2043693D1*
X2110773Y2048378D1*
X2104089Y2054088D1*
X2098379Y2060772D1*
X2093787Y2068268D1*
X2090423Y2076388D1*
X2088371Y2084936D1*
X2087681Y2093699D1*
X2088371Y2102463D1*
X2090423Y2111010D1*
X2093787Y2119131D1*
X2098379Y2126627D1*
X2104089Y2133311D1*
X2110773Y2139021D1*
X2118269Y2143613D1*
X2126390Y2146978D1*
X2134937Y2149029D1*
X2143701Y2149719D1*
X2152465Y2149029D1*
X2161012Y2146978D1*
X2169133Y2143613D1*
X2176629Y2139021D1*
X2183312Y2133311D1*
X2189022Y2126627D1*
X2193614Y2119131D1*
X2196979Y2111010D1*
X2199030Y2102463D1*
X2199720Y2093699D1*
X2199030Y2084936D1*
X2196979Y2076388D1*
X2193614Y2068268D1*
X2189022Y2060772D1*
X2183312Y2054088D1*
X2176629Y2048378D1*
X2168962Y2043706D1*
X2176629Y2039021D1*
X2183312Y2033311D1*
X2189022Y2026627D1*
X2193614Y2019131D1*
X2196979Y2011010D1*
X2199030Y2002463D1*
X2199720Y1993699D1*
X2199030Y1984936D1*
X2196979Y1976388D1*
X2193614Y1968268D1*
X2189022Y1960772D1*
X2183312Y1954088D1*
X2176629Y1948378D1*
X2168962Y1943706D1*
X2176629Y1939022D1*
X2183312Y1933312D1*
X2189022Y1926629D1*
X2193614Y1919133D1*
X2196979Y1911012D1*
X2199030Y1902465D1*
X2199720Y1893701D1*
X2199030Y1884937D1*
X2196979Y1876390D1*
X2193614Y1868269D1*
X2189022Y1860773D1*
X2183312Y1854089D1*
X2176629Y1848379D1*
X2168962Y1843707D1*
X2176629Y1839021D1*
X2183312Y1833311D1*
X2188969Y1826694D1*
X2280025Y1826688D1*
X2385698Y1932350D1*
X2385713Y2001689D1*
X2394899D1*
X2595034Y789661D2*
X2593770Y781680D1*
X2591273Y773996D1*
X2587605Y766797D1*
X2582856Y760260D1*
X2576684Y754184D1*
X2576689Y688955D1*
X2583312Y683312D1*
X2589022Y676629D1*
X2593614Y669133D1*
X2596979Y661012D1*
X2599030Y652465D1*
X2599720Y643701D1*
X2599030Y634937D1*
X2596979Y626390D1*
X2593614Y618269D1*
X2589022Y610773D1*
X2583312Y604089D1*
X2576629Y598379D1*
X2569133Y593787D1*
X2561012Y590423D1*
X2552465Y588371D1*
X2543701Y587681D1*
X2534937Y588371D1*
X2526390Y590423D1*
X2518269Y593787D1*
X2510773Y598379D1*
X2504089Y604089D1*
X2498379Y610773D1*
X2493787Y618269D1*
X2490423Y626390D1*
X2488371Y634937D1*
X2487681Y643701D1*
X2488371Y652465D1*
X2490423Y661012D1*
X2493787Y669133D1*
X2498379Y676629D1*
X2504089Y683312D1*
X2510706Y688969D1*
X2510713Y754188D1*
X2507290Y757290D1*
X2502043Y763434D1*
X2497822Y770324D1*
X2494728Y777789D1*
X2492843Y785646D1*
X2492209Y793701D1*
X2492843Y801756D1*
X2494728Y809613D1*
X2497822Y817077D1*
X2502043Y823967D1*
X2507290Y830112D1*
X2513434Y835358D1*
X2520324Y839580D1*
X2527789Y842673D1*
X2535646Y844559D1*
X2543701Y845193D1*
X2551756Y844559D1*
X2559613Y842673D1*
X2567077Y839580D1*
X2573967Y835358D1*
X2580112Y830112D1*
X2585358Y823967D1*
X2589580Y817077D1*
X2592673Y809613D1*
X2594559Y801756D1*
X2595193Y793701D1*
X2595034Y789661D1*
X2295034D2*
X2293770Y781680D1*
X2291273Y773996D1*
X2287605Y766797D1*
X2282856Y760260D1*
X2276684Y754184D1*
X2276689Y688955D1*
X2283312Y683312D1*
X2289022Y676629D1*
X2293614Y669133D1*
X2296979Y661012D1*
X2299030Y652465D1*
X2299720Y643701D1*
X2299030Y634937D1*
X2296979Y626390D1*
X2293614Y618269D1*
X2289022Y610773D1*
X2283312Y604089D1*
X2276629Y598379D1*
X2269133Y593787D1*
X2261012Y590423D1*
X2252465Y588371D1*
X2243701Y587681D1*
X2234937Y588371D1*
X2226390Y590423D1*
X2218269Y593787D1*
X2210773Y598379D1*
X2204089Y604089D1*
X2198379Y610773D1*
X2193787Y618269D1*
X2190423Y626390D1*
X2188371Y634937D1*
X2187681Y643701D1*
X2188371Y652465D1*
X2190423Y661012D1*
X2193787Y669133D1*
X2198379Y676629D1*
X2204089Y683312D1*
X2210706Y688969D1*
X2210713Y754188D1*
X2204546Y760260D1*
X2199797Y766797D1*
X2196129Y773996D1*
X2193631Y781680D1*
X2192367Y789661D1*
Y797740D1*
X2193631Y805722D1*
X2196129Y813406D1*
X2199797Y820605D1*
X2204546Y827142D1*
X2210260Y832856D1*
X2216797Y837605D1*
X2223996Y841273D1*
X2231680Y843770D1*
X2239661Y845034D1*
X2247740D1*
X2255722Y843770D1*
X2263406Y841273D1*
X2270605Y837605D1*
X2277142Y832856D1*
X2282856Y827142D1*
X2287605Y820605D1*
X2291273Y813406D1*
X2293770Y805722D1*
X2295034Y797740D1*
Y789661D1*
X745034D2*
X743770Y781680D1*
X741273Y773996D1*
X737605Y766797D1*
X732856Y760260D1*
X726684Y754184D1*
X726689Y688955D1*
X733312Y683312D1*
X739022Y676629D1*
X743614Y669133D1*
X746979Y661012D1*
X749030Y652465D1*
X749720Y643701D1*
X749030Y634937D1*
X746979Y626390D1*
X743614Y618269D1*
X739022Y610773D1*
X733312Y604089D1*
X726629Y598379D1*
X719133Y593787D1*
X711012Y590423D1*
X702465Y588371D1*
X693701Y587681D1*
X684937Y588371D1*
X676390Y590423D1*
X668269Y593787D1*
X660773Y598379D1*
X654089Y604089D1*
X648379Y610773D1*
X643787Y618269D1*
X640423Y626390D1*
X638371Y634937D1*
X637681Y643701D1*
X638371Y652465D1*
X640423Y661012D1*
X643787Y669133D1*
X648379Y676629D1*
X654089Y683312D1*
X660706Y688969D1*
X660713Y754188D1*
X654546Y760260D1*
X649797Y766797D1*
X646129Y773996D1*
X643631Y781680D1*
X642367Y789661D1*
Y797740D1*
X643631Y805722D1*
X646129Y813406D1*
X649797Y820605D1*
X654546Y827142D1*
X660260Y832856D1*
X666797Y837605D1*
X673996Y841273D1*
X681680Y843770D1*
X689661Y845034D1*
X697740D1*
X705722Y843770D1*
X713406Y841273D1*
X720605Y837605D1*
X727142Y832856D1*
X732856Y827142D1*
X737605Y820605D1*
X741273Y813406D1*
X743770Y805722D1*
X745034Y797740D1*
Y789661D1*
X1045034D2*
X1043770Y781680D1*
X1041273Y773996D1*
X1037605Y766797D1*
X1032856Y760260D1*
X1026684Y754184D1*
X1026689Y688955D1*
X1033312Y683312D1*
X1039022Y676629D1*
X1043614Y669133D1*
X1046979Y661012D1*
X1049030Y652465D1*
X1049720Y643701D1*
X1049030Y634937D1*
X1046979Y626390D1*
X1043614Y618269D1*
X1039022Y610773D1*
X1033312Y604089D1*
X1026629Y598379D1*
X1019133Y593787D1*
X1011012Y590423D1*
X1002465Y588371D1*
X993701Y587681D1*
X984937Y588371D1*
X976390Y590423D1*
X968269Y593787D1*
X960773Y598379D1*
X954089Y604089D1*
X948379Y610773D1*
X943787Y618269D1*
X940423Y626390D1*
X938371Y634937D1*
X937681Y643701D1*
X938371Y652465D1*
X940423Y661012D1*
X943787Y669133D1*
X948379Y676629D1*
X954089Y683312D1*
X960706Y688969D1*
X960713Y754188D1*
X954546Y760260D1*
X949797Y766797D1*
X946129Y773996D1*
X943631Y781680D1*
X942367Y789661D1*
Y797740D1*
X943631Y805722D1*
X946129Y813406D1*
X949797Y820605D1*
X954546Y827142D1*
X960260Y832856D1*
X966797Y837605D1*
X973996Y841273D1*
X981680Y843770D1*
X989661Y845034D1*
X997740D1*
X1005722Y843770D1*
X1013406Y841273D1*
X1020605Y837605D1*
X1027142Y832856D1*
X1032856Y827142D1*
X1037605Y820605D1*
X1041273Y813406D1*
X1043770Y805722D1*
X1045034Y797740D1*
Y789661D1*
X1495034D2*
X1493770Y781680D1*
X1491273Y773996D1*
X1487605Y766797D1*
X1482856Y760260D1*
X1476684Y754184D1*
X1476689Y688955D1*
X1483312Y683312D1*
X1489022Y676629D1*
X1493614Y669133D1*
X1496979Y661012D1*
X1499030Y652465D1*
X1499720Y643701D1*
X1499030Y634937D1*
X1496979Y626390D1*
X1493614Y618269D1*
X1489022Y610773D1*
X1483312Y604089D1*
X1476629Y598379D1*
X1469133Y593787D1*
X1461012Y590423D1*
X1452465Y588371D1*
X1443701Y587681D1*
X1434937Y588371D1*
X1426390Y590423D1*
X1418269Y593787D1*
X1410773Y598379D1*
X1404089Y604089D1*
X1398379Y610773D1*
X1393787Y618269D1*
X1390423Y626390D1*
X1388371Y634937D1*
X1387681Y643701D1*
X1388371Y652465D1*
X1390423Y661012D1*
X1393787Y669133D1*
X1398379Y676629D1*
X1404089Y683312D1*
X1410706Y688969D1*
X1410713Y754188D1*
X1404546Y760260D1*
X1399797Y766797D1*
X1396129Y773996D1*
X1393631Y781680D1*
X1392367Y789661D1*
Y797740D1*
X1393631Y805722D1*
X1396129Y813406D1*
X1399797Y820605D1*
X1404546Y827142D1*
X1410260Y832856D1*
X1416797Y837605D1*
X1423996Y841273D1*
X1431680Y843770D1*
X1439661Y845034D1*
X1447740D1*
X1455722Y843770D1*
X1463406Y841273D1*
X1470605Y837605D1*
X1477142Y832856D1*
X1482856Y827142D1*
X1487605Y820605D1*
X1491273Y813406D1*
X1493770Y805722D1*
X1495034Y797740D1*
Y789661D1*
X1795034D2*
X1793770Y781680D1*
X1791273Y773996D1*
X1787605Y766797D1*
X1782856Y760260D1*
X1776684Y754184D1*
X1776689Y688955D1*
X1783312Y683312D1*
X1789022Y676629D1*
X1793614Y669133D1*
X1796979Y661012D1*
X1799030Y652465D1*
X1799720Y643701D1*
X1799030Y634937D1*
X1796979Y626390D1*
X1793614Y618269D1*
X1789022Y610773D1*
X1783312Y604089D1*
X1776629Y598379D1*
X1769133Y593787D1*
X1761012Y590423D1*
X1752465Y588371D1*
X1743701Y587681D1*
X1734937Y588371D1*
X1726390Y590423D1*
X1718269Y593787D1*
X1710773Y598379D1*
X1704089Y604089D1*
X1698379Y610773D1*
X1693787Y618269D1*
X1690423Y626390D1*
X1688371Y634937D1*
X1687681Y643701D1*
X1688371Y652465D1*
X1690423Y661012D1*
X1693787Y669133D1*
X1698379Y676629D1*
X1704089Y683312D1*
X1710706Y688969D1*
X1710713Y754188D1*
X1704546Y760260D1*
X1699797Y766797D1*
X1696129Y773996D1*
X1693631Y781680D1*
X1692367Y789661D1*
Y797740D1*
X1693631Y805722D1*
X1696129Y813406D1*
X1699797Y820605D1*
X1704546Y827142D1*
X1710260Y832856D1*
X1716797Y837605D1*
X1723996Y841273D1*
X1731680Y843770D1*
X1739661Y845034D1*
X1747740D1*
X1755722Y843770D1*
X1763406Y841273D1*
X1770605Y837605D1*
X1777142Y832856D1*
X1782856Y827142D1*
X1787605Y820605D1*
X1791273Y813406D1*
X1793770Y805722D1*
X1795034Y797740D1*
Y789661D1*
X3145034Y2389661D2*
X3143770Y2381680D1*
X3141273Y2373996D1*
X3137605Y2366797D1*
X3132856Y2360260D1*
X3127142Y2354546D1*
X3120605Y2349797D1*
X3113406Y2346129D1*
X3105722Y2343631D1*
X3097740Y2342367D1*
X3089661D1*
X3081680Y2343631D1*
X3073996Y2346129D1*
X3066797Y2349797D1*
X3060260Y2354546D1*
X3054546Y2360260D1*
X3049797Y2366797D1*
X3046129Y2373996D1*
X3043631Y2381680D1*
X3042367Y2389661D1*
Y2397740D1*
X3043631Y2405722D1*
X3046129Y2413406D1*
X3049797Y2420605D1*
X3054546Y2427142D1*
X3060260Y2432856D1*
X3066797Y2437605D1*
X3073996Y2441273D1*
X3081680Y2443770D1*
X3089661Y2445034D1*
X3097740D1*
X3105722Y2443770D1*
X3113406Y2441273D1*
X3120605Y2437605D1*
X3127142Y2432856D1*
X3132856Y2427142D1*
X3137605Y2420605D1*
X3141273Y2413406D1*
X3143770Y2405722D1*
X3145034Y2397740D1*
Y2389661D1*
Y2089661D2*
X3143770Y2081680D1*
X3141273Y2073996D1*
X3137605Y2066797D1*
X3132856Y2060260D1*
X3126684Y2054184D1*
X3126689Y1939004D1*
X3133312Y1933312D1*
X3139022Y1926629D1*
X3143614Y1919133D1*
X3146979Y1911012D1*
X3149030Y1902465D1*
X3149720Y1893701D1*
X3149030Y1884937D1*
X3146979Y1876390D1*
X3143614Y1868269D1*
X3139022Y1860773D1*
X3133312Y1854089D1*
X3126629Y1848379D1*
X3119133Y1843787D1*
X3111012Y1840423D1*
X3102465Y1838371D1*
X3093701Y1837681D1*
X3084937Y1838371D1*
X3076390Y1840423D1*
X3068269Y1843787D1*
X3060773Y1848379D1*
X3054089Y1854089D1*
X3048379Y1860773D1*
X3043787Y1868269D1*
X3040423Y1876390D1*
X3038371Y1884937D1*
X3037681Y1893701D1*
X3038371Y1902465D1*
X3040423Y1911012D1*
X3043787Y1919133D1*
X3048379Y1926629D1*
X3054089Y1933312D1*
X3060706Y1938969D1*
X3060713Y2054139D1*
X3054546Y2060260D1*
X3049797Y2066797D1*
X3046129Y2073996D1*
X3043631Y2081680D1*
X3042367Y2089661D1*
Y2097740D1*
X3043631Y2105722D1*
X3046129Y2113406D1*
X3049797Y2120605D1*
X3054546Y2127142D1*
X3060260Y2132856D1*
X3066797Y2137605D1*
X3073996Y2141273D1*
X3081680Y2143770D1*
X3089661Y2145034D1*
X3097740D1*
X3105722Y2143770D1*
X3113406Y2141273D1*
X3120605Y2137605D1*
X3127142Y2132856D1*
X3132856Y2127142D1*
X3137605Y2120605D1*
X3141273Y2113406D1*
X3143770Y2105722D1*
X3145034Y2097740D1*
Y2089661D1*
X2845034D2*
X2843770Y2081680D1*
X2841273Y2073996D1*
X2837605Y2066797D1*
X2832856Y2060260D1*
X2826684Y2054184D1*
X2826689Y1939004D1*
X2833312Y1933312D1*
X2839022Y1926629D1*
X2843614Y1919133D1*
X2846979Y1911012D1*
X2849030Y1902465D1*
X2849720Y1893701D1*
X2849030Y1884937D1*
X2846979Y1876390D1*
X2843614Y1868269D1*
X2839022Y1860773D1*
X2833312Y1854089D1*
X2826629Y1848379D1*
X2819133Y1843787D1*
X2811012Y1840423D1*
X2802465Y1838371D1*
X2793701Y1837681D1*
X2784937Y1838371D1*
X2776390Y1840423D1*
X2768269Y1843787D1*
X2760773Y1848379D1*
X2754089Y1854089D1*
X2748379Y1860773D1*
X2743787Y1868269D1*
X2740423Y1876390D1*
X2738371Y1884937D1*
X2737681Y1893701D1*
X2738371Y1902465D1*
X2740423Y1911012D1*
X2743787Y1919133D1*
X2748379Y1926629D1*
X2754089Y1933312D1*
X2760706Y1938969D1*
X2760713Y2054139D1*
X2754546Y2060260D1*
X2749797Y2066797D1*
X2746129Y2073996D1*
X2743631Y2081680D1*
X2742367Y2089661D1*
Y2097740D1*
X2743631Y2105722D1*
X2746129Y2113406D1*
X2749797Y2120605D1*
X2754546Y2127142D1*
X2760260Y2132856D1*
X2766797Y2137605D1*
X2773996Y2141273D1*
X2781680Y2143770D1*
X2789661Y2145034D1*
X2797740D1*
X2805722Y2143770D1*
X2813406Y2141273D1*
X2820605Y2137605D1*
X2827142Y2132856D1*
X2832856Y2127142D1*
X2837605Y2120605D1*
X2841273Y2113406D1*
X2843770Y2105722D1*
X2845034Y2097740D1*
Y2089661D1*
X3045034Y789661D2*
X3043770Y781680D1*
X3041273Y773996D1*
X3037605Y766797D1*
X3032856Y760260D1*
X3026684Y754184D1*
X3026689Y688955D1*
X3033312Y683312D1*
X3039022Y676629D1*
X3043614Y669133D1*
X3046979Y661012D1*
X3049030Y652465D1*
X3049720Y643701D1*
X3049030Y634937D1*
X3046979Y626390D1*
X3043614Y618269D1*
X3039022Y610773D1*
X3033312Y604089D1*
X3026629Y598379D1*
X3019133Y593787D1*
X3011012Y590423D1*
X3002465Y588371D1*
X2993701Y587681D1*
X2984937Y588371D1*
X2976390Y590423D1*
X2968269Y593787D1*
X2960773Y598379D1*
X2954089Y604089D1*
X2948379Y610773D1*
X2943787Y618269D1*
X2940423Y626390D1*
X2938371Y634937D1*
X2937681Y643701D1*
X2938371Y652465D1*
X2940423Y661012D1*
X2943787Y669133D1*
X2948379Y676629D1*
X2954089Y683312D1*
X2960706Y688969D1*
X2960713Y754188D1*
X2957290Y757290D1*
X2952043Y763434D1*
X2947822Y770324D1*
X2944728Y777789D1*
X2942843Y785646D1*
X2942209Y793701D1*
X2942843Y801756D1*
X2944728Y809613D1*
X2947822Y817077D1*
X2952043Y823967D1*
X2957290Y830112D1*
X2963434Y835358D1*
X2970324Y839580D1*
X2977789Y842673D1*
X2985646Y844559D1*
X2993701Y845193D1*
X3001756Y844559D1*
X3009613Y842673D1*
X3017077Y839580D1*
X3023967Y835358D1*
X3030112Y830112D1*
X3035358Y823967D1*
X3039580Y817077D1*
X3042673Y809613D1*
X3044559Y801756D1*
X3045193Y793701D1*
X3045034Y789661D1*
X551155Y489178D2*
X549740Y480247D1*
X546945Y471646D1*
X542840Y463588D1*
X537524Y456272D1*
X531130Y449878D1*
X525327Y445573D1*
X3211978Y445571D1*
X3206272Y449878D1*
X3199878Y456272D1*
X3194562Y463588D1*
X3190457Y471646D1*
X3187661Y480247D1*
X3186247Y489178D1*
Y498223D1*
X3187661Y507155D1*
X3190457Y515756D1*
X3194562Y523814D1*
X3199878Y531130D1*
X3206272Y537524D1*
X3213588Y542840D1*
X3221646Y546945D1*
X3230247Y549740D1*
X3239178Y551155D1*
X3248223D1*
X3257155Y549740D1*
X3265756Y546945D1*
X3273814Y542840D1*
X3281130Y537524D1*
X3287524Y531130D1*
X3291828Y525327D1*
X3291831Y2512021D1*
X3287524Y2506272D1*
X3281130Y2499878D1*
X3273814Y2494562D1*
X3265756Y2490457D1*
X3257155Y2487661D1*
X3248223Y2486247D1*
X3239178D1*
X3230247Y2487661D1*
X3221646Y2490457D1*
X3213588Y2494562D1*
X3206272Y2499878D1*
X3199878Y2506272D1*
X3194562Y2513588D1*
X3190457Y2521646D1*
X3187661Y2530247D1*
X3186247Y2539178D1*
Y2548223D1*
X3187661Y2557155D1*
X3190457Y2565756D1*
X3194562Y2573814D1*
X3199878Y2581130D1*
X3206272Y2587524D1*
X3212075Y2591828D1*
X525424Y2591831D1*
X531130Y2587524D1*
X537524Y2581130D1*
X542840Y2573814D1*
X546945Y2565756D1*
X549740Y2557155D1*
X551155Y2548223D1*
Y2539178D1*
X549740Y2530247D1*
X546945Y2521646D1*
X542840Y2513588D1*
X537524Y2506272D1*
X531130Y2499878D1*
X523814Y2494562D1*
X515756Y2490457D1*
X507155Y2487661D1*
X498223Y2486247D1*
X489178D1*
X480247Y2487661D1*
X471646Y2490457D1*
X463588Y2494562D1*
X456272Y2499878D1*
X449878Y2506272D1*
X445573Y2512075D1*
X445571Y525367D1*
X449878Y531130D1*
X456272Y537524D1*
X463588Y542840D1*
X471646Y546945D1*
X480247Y549740D1*
X489178Y551155D1*
X498223D1*
X507155Y549740D1*
X515756Y546945D1*
X523814Y542840D1*
X531130Y537524D1*
X537524Y531130D1*
X542840Y523814D1*
X546945Y515756D1*
X549740Y507155D1*
X551155Y498223D1*
Y489178D1*
X1818440Y1343706D2*
X1810773Y1348378D1*
X1804089Y1354088D1*
X1802491Y1355816D1*
X1776706Y1330054D1*
X1776689Y1288978D1*
X1783312Y1283312D1*
X1789022Y1276629D1*
X1791945Y1272262D1*
X1789228Y1280623D1*
X1787854Y1289306D1*
Y1298096D1*
X1789228Y1306778D1*
X1791945Y1315139D1*
X1795936Y1322971D1*
X1801104Y1330083D1*
X1807319Y1336298D1*
X1814430Y1341466D1*
X1818440Y1343694D1*
X2949547Y2239306D2*
X2948173Y2230623D1*
X2945457Y2222262D1*
X2941466Y2214430D1*
X2936298Y2207319D1*
X2930083Y2201104D1*
X2922971Y2195936D1*
X2915139Y2191945D1*
X2906778Y2189228D1*
X2898096Y2187854D1*
X2889306D1*
X2880623Y2189228D1*
X2872262Y2191945D1*
X2864430Y2195936D1*
X2857319Y2201104D1*
X2851104Y2207319D1*
X2845936Y2214430D1*
X2841945Y2222262D1*
X2839228Y2230623D1*
X2837854Y2239306D1*
Y2248096D1*
X2839228Y2256778D1*
X2841945Y2265139D1*
X2845936Y2272971D1*
X2851104Y2280083D1*
X2857319Y2286298D1*
X2864430Y2291466D1*
X2872262Y2295457D1*
X2880623Y2298173D1*
X2889306Y2299547D1*
X2898096D1*
X2906778Y2298173D1*
X2915139Y2295457D1*
X2922971Y2291466D1*
X2930083Y2286298D1*
X2936298Y2280083D1*
X2941466Y2272971D1*
X2945457Y2265139D1*
X2948173Y2256778D1*
X2949547Y2248096D1*
Y2239306D1*
X1538969Y2260706D2*
X1533312Y2254089D1*
X1526629Y2248379D1*
X1519133Y2243787D1*
X1511012Y2240423D1*
X1502465Y2238371D1*
X1493701Y2237681D1*
X1484937Y2238371D1*
X1476390Y2240423D1*
X1468269Y2243787D1*
X1460773Y2248379D1*
X1454089Y2254089D1*
X1448379Y2260773D1*
X1443787Y2268269D1*
X1440423Y2276390D1*
X1438371Y2284937D1*
X1437681Y2293701D1*
X1438371Y2302465D1*
X1440423Y2311012D1*
X1443787Y2319133D1*
X1448379Y2326629D1*
X1454089Y2333312D1*
X1460773Y2339022D1*
X1468269Y2343614D1*
X1476390Y2346979D1*
X1484937Y2349030D1*
X1493701Y2349720D1*
X1502465Y2349030D1*
X1511012Y2346979D1*
X1519133Y2343614D1*
X1526629Y2339022D1*
X1533312Y2333312D1*
X1538969Y2326696D1*
X1598446Y2326689D1*
X1604089Y2333312D1*
X1610773Y2339022D1*
X1618269Y2343614D1*
X1626390Y2346979D1*
X1634937Y2349030D1*
X1643701Y2349720D1*
X1652465Y2349030D1*
X1661012Y2346979D1*
X1669133Y2343614D1*
X1676629Y2339022D1*
X1683312Y2333312D1*
X1689022Y2326629D1*
X1693614Y2319133D1*
X1696979Y2311012D1*
X1699030Y2302465D1*
X1699720Y2293701D1*
X1699030Y2284937D1*
X1696979Y2276390D1*
X1693614Y2268269D1*
X1689022Y2260773D1*
X1683312Y2254089D1*
X1676629Y2248379D1*
X1669133Y2243787D1*
X1661012Y2240423D1*
X1652465Y2238371D1*
X1643701Y2237681D1*
X1634937Y2238371D1*
X1626390Y2240423D1*
X1618269Y2243787D1*
X1610773Y2248379D1*
X1604089Y2254089D1*
X1598433Y2260706D1*
X1538955Y2260713D1*
X1349547Y2289306D2*
X1348173Y2280623D1*
X1345457Y2272262D1*
X1341466Y2264430D1*
X1336298Y2257319D1*
X1330083Y2251104D1*
X1322971Y2245936D1*
X1315139Y2241945D1*
X1306778Y2239228D1*
X1298096Y2237854D1*
X1289306D1*
X1280623Y2239228D1*
X1272262Y2241945D1*
X1264430Y2245936D1*
X1257319Y2251104D1*
X1251104Y2257319D1*
X1248433Y2260706D1*
X1188955Y2260713D1*
X1183312Y2254089D1*
X1176629Y2248379D1*
X1169133Y2243787D1*
X1161012Y2240423D1*
X1152465Y2238371D1*
X1143701Y2237681D1*
X1134937Y2238371D1*
X1126390Y2240423D1*
X1118269Y2243787D1*
X1110773Y2248379D1*
X1104089Y2254089D1*
X1098379Y2260773D1*
X1093787Y2268269D1*
X1090423Y2276390D1*
X1088371Y2284937D1*
X1087681Y2293701D1*
X1088371Y2302465D1*
X1090423Y2311012D1*
X1093787Y2319133D1*
X1098379Y2326629D1*
X1104089Y2333312D1*
X1110773Y2339022D1*
X1118269Y2343614D1*
X1126390Y2346979D1*
X1134937Y2349030D1*
X1143701Y2349720D1*
X1152465Y2349030D1*
X1161012Y2346979D1*
X1169133Y2343614D1*
X1176629Y2339022D1*
X1183312Y2333312D1*
X1188969Y2326696D1*
X1248446Y2326689D1*
X1254089Y2333312D1*
X1260773Y2339022D1*
X1268269Y2343614D1*
X1276390Y2346979D1*
X1284937Y2349030D1*
X1293701Y2349720D1*
X1302465Y2349030D1*
X1311012Y2346979D1*
X1319133Y2343614D1*
X1326629Y2339022D1*
X1333312Y2333312D1*
X1339022Y2326629D1*
X1343614Y2319133D1*
X1346979Y2311012D1*
X1349030Y2302465D1*
X1349720Y2293701D1*
X1349547Y2289306D1*
X1899547Y1039306D2*
X1898173Y1030623D1*
X1895457Y1022262D1*
X1891466Y1014430D1*
X1886298Y1007319D1*
X1880083Y1001104D1*
X1872971Y995936D1*
X1865139Y991945D1*
X1856778Y989228D1*
X1848096Y987854D1*
X1839306D1*
X1830623Y989228D1*
X1822262Y991945D1*
X1814430Y995936D1*
X1807319Y1001104D1*
X1801104Y1007319D1*
X1795936Y1014430D1*
X1791945Y1022262D1*
X1789228Y1030623D1*
X1787854Y1039306D1*
Y1048096D1*
X1789228Y1056778D1*
X1791945Y1065139D1*
X1795936Y1072971D1*
X1801104Y1080083D1*
X1807319Y1086298D1*
X1814430Y1091466D1*
X1822262Y1095457D1*
X1830623Y1098173D1*
X1839306Y1099547D1*
X1848096D1*
X1856778Y1098173D1*
X1865139Y1095457D1*
X1872971Y1091466D1*
X1880083Y1086298D1*
X1886298Y1080083D1*
X1891466Y1072971D1*
X1895457Y1065139D1*
X1898173Y1056778D1*
X1899547Y1048096D1*
Y1039306D1*
D16*
X1243701Y1793701D3*
D17*
X1143701D3*
D16*
X2343701Y1943701D3*
D17*
X2443701D3*
D18*
X2093701Y2393701D3*
D19*
X2393701D3*
D18*
X2793701D3*
D19*
Y2093701D3*
D18*
X2543701Y1093701D3*
D19*
Y793701D3*
D18*
X2243701Y1093701D3*
D19*
Y793701D3*
D18*
X693701Y1093701D3*
D19*
Y793701D3*
D18*
X993701Y1093701D3*
D19*
Y793701D3*
D18*
X1443701Y1093701D3*
D19*
Y793701D3*
D18*
X1743701Y1093701D3*
D19*
Y793701D3*
D18*
X3093701Y2393701D3*
D19*
Y2093701D3*
D18*
X2993701Y1093701D3*
D19*
Y793701D3*
D17*
X1543701Y1793701D3*
D16*
X1443701D3*
D17*
X979987Y2259252D3*
D20*
Y2160827D3*
Y2082087D3*
Y1983661D3*
D21*
X873294Y2380118D3*
Y1862795D3*
D22*
X543701Y1693701D3*
D23*
Y1614961D3*
Y1536220D3*
Y1457480D3*
Y1378740D3*
Y1300000D3*
Y1221260D3*
D24*
X1743701Y643701D3*
D25*
Y543701D3*
D26*
X1293701Y2093701D3*
D27*
X1393701D3*
X1493701D3*
D24*
X1443701Y643701D3*
D25*
Y543701D3*
X1843701Y2193701D3*
D24*
Y2093701D3*
Y1993701D3*
Y1893701D3*
Y1793699D3*
Y1693699D3*
Y1593701D3*
Y1493699D3*
Y1393699D3*
Y1293701D3*
X2143701Y2193699D3*
Y2093699D3*
Y1993699D3*
Y1893701D3*
Y1793699D3*
Y1693699D3*
Y1593701D3*
Y1493699D3*
Y1393699D3*
Y1293701D3*
X2243701Y643701D3*
D25*
Y543701D3*
D24*
X2543701Y643701D3*
D25*
Y543701D3*
D24*
X993701Y643701D3*
D25*
Y543701D3*
D24*
X693701Y643701D3*
D25*
Y543701D3*
D28*
Y1193701D3*
X993701Y1243701D3*
X1443701D3*
X1743701D3*
X2243701Y1193701D3*
X2393701Y1243701D3*
X2543701D3*
X2993701D3*
X2593701Y2193701D3*
X2893701Y2243701D3*
X1143701Y2093701D3*
X1843701Y1043701D3*
X1643701Y2093701D3*
X1393701Y2293701D3*
X1493701D3*
X1643701D3*
X1293701D3*
X1143701D3*
D24*
X3093701Y1893701D3*
D25*
Y1793701D3*
D24*
X2793701Y1893701D3*
D25*
Y1793701D3*
D24*
X2993701Y643701D3*
D25*
Y543701D3*
M02*
