G04 DipTrace 3.2.0.1*
G04 TopSilk.gto*
%MOIN*%
G04 #@! TF.FileFunction,Legend,Top*
G04 #@! TF.Part,Single*
%ADD10C,0.009843*%
%ADD59C,0.00772*%
%FSLAX26Y26*%
G04*
G70*
G90*
G75*
G01*
G04 TopSilk*
%LPD*%
X1123761Y1733701D2*
D10*
X1263641D1*
X1123761Y1853701D2*
X1263641D1*
Y1733701D2*
G03X1263641Y1853701I60J60000D01*
G01*
X1123761D2*
G03X1123761Y1733701I-60J-60000D01*
G01*
X2463641Y2003701D2*
X2323761D1*
X2463641Y1883701D2*
X2323761D1*
Y2003701D2*
G03X2323761Y1883701I-60J-60000D01*
G01*
X2463641D2*
G03X2463641Y2003701I60J60000D01*
G01*
X2163551Y2423701D2*
Y2363701D1*
X2323851Y2423701D2*
X2163551D1*
X2323851D2*
Y2363701D1*
X2163551D1*
X2823701Y2323851D2*
X2763701D1*
X2823701Y2163551D2*
Y2323851D1*
Y2163551D2*
X2763701D1*
Y2323851D1*
X2573701Y1023851D2*
X2513701D1*
X2573701Y863551D2*
Y1023851D1*
Y863551D2*
X2513701D1*
Y1023851D1*
X2273701D2*
X2213701D1*
X2273701Y863551D2*
Y1023851D1*
Y863551D2*
X2213701D1*
Y1023851D1*
X723701D2*
X663701D1*
X723701Y863551D2*
Y1023851D1*
Y863551D2*
X663701D1*
Y1023851D1*
X1023701D2*
X963701D1*
X1023701Y863551D2*
Y1023851D1*
Y863551D2*
X963701D1*
Y1023851D1*
X1473701D2*
X1413701D1*
X1473701Y863551D2*
Y1023851D1*
Y863551D2*
X1413701D1*
Y1023851D1*
X1773701D2*
X1713701D1*
X1773701Y863551D2*
Y1023851D1*
Y863551D2*
X1713701D1*
Y1023851D1*
X3123701Y2323851D2*
X3063701D1*
X3123701Y2163551D2*
Y2323851D1*
Y2163551D2*
X3063701D1*
Y2323851D1*
X3023701Y1023851D2*
X2963701D1*
X3023701Y863551D2*
Y1023851D1*
Y863551D2*
X2963701D1*
Y1023851D1*
X1623582Y1805521D2*
Y1781881D1*
X1635401Y1793701D2*
X1611787D1*
X1393707D2*
G02X1393707Y1793701I99965J0D01*
G01*
X468176Y2381325D2*
Y1861588D1*
Y2381325D2*
X791432D1*
X955189D2*
X1028412D1*
Y1861588D1*
X955189D1*
X791432D2*
X468176D1*
X587008Y1733071D2*
Y1181890D1*
X500394Y1733071D2*
Y1181890D1*
X587008Y1733071D2*
X500394D1*
X587008Y1181890D2*
X500394D1*
X1800930Y495276D2*
X1686472D1*
G02X1800930Y495276I57229J98597D01*
G01*
X1196850Y2200000D2*
X1590551D1*
Y2022835D1*
X1196850D1*
Y2200000D1*
Y2164567D2*
X1590551D1*
X1500930Y495276D2*
X1386472D1*
G02X1500930Y495276I57229J98597D01*
G01*
X2096067Y2255512D2*
Y1231890D1*
X1891334D2*
X2096067D1*
X1891334Y2255512D2*
Y1231890D1*
Y2255512D2*
X1970075D1*
X2096067D2*
X2017327D1*
X1970075D2*
G03X2017327Y2255512I23626J83D01*
G01*
X2300930Y495276D2*
X2186472D1*
G02X2300930Y495276I57229J98597D01*
G01*
X2600930D2*
X2486472D1*
G02X2600930Y495276I57229J98597D01*
G01*
X1050930D2*
X936472D1*
G02X1050930Y495276I57229J98597D01*
G01*
X750930D2*
X636472D1*
G02X750930Y495276I57229J98597D01*
G01*
X3150930Y1745276D2*
X3036472D1*
G02X3150930Y1745276I57229J98597D01*
G01*
X2850930D2*
X2736472D1*
G02X2850930Y1745276I57229J98597D01*
G01*
X3050930Y495276D2*
X2936472D1*
G02X3050930Y495276I57229J98597D01*
G01*
X1056492Y1716687D2*
D59*
X1049307Y1714310D1*
X1044499Y1707125D1*
X1042122Y1695187D1*
Y1688002D1*
X1044499Y1676064D1*
X1049307Y1668879D1*
X1056492Y1666502D1*
X1061245D1*
X1068431Y1668879D1*
X1073184Y1676064D1*
X1075616Y1688002D1*
Y1695187D1*
X1073184Y1707125D1*
X1068431Y1714310D1*
X1061245Y1716687D1*
X1056492D1*
X1073184Y1707125D2*
X1044499Y1676064D1*
X1093431Y1671311D2*
X1091055Y1668879D1*
X1093431Y1666502D1*
X1095863Y1668879D1*
X1093431Y1671311D1*
X1135234Y1666502D2*
Y1716687D1*
X1111303Y1683249D1*
X1147172D1*
X1172173Y1666502D2*
X1196105Y1716687D1*
X1162612D1*
X1211544Y1658212D2*
X1256976D1*
X1272415Y1699995D2*
Y1676064D1*
X1274792Y1668934D1*
X1279600Y1666502D1*
X1286785D1*
X1291538Y1668934D1*
X1298723Y1676064D1*
Y1699995D2*
Y1666502D1*
X1345279Y1716742D2*
X1314163D1*
Y1666502D1*
Y1692810D2*
X1333286D1*
X2264184Y2067307D2*
X2268993Y2069739D1*
X2276178Y2076869D1*
Y2026684D1*
X2305987Y2076869D2*
X2298802Y2074492D1*
X2293994Y2067307D1*
X2291617Y2055369D1*
Y2048184D1*
X2293994Y2036246D1*
X2298802Y2029060D1*
X2305987Y2026684D1*
X2310740D1*
X2317925Y2029060D1*
X2322679Y2036246D1*
X2325110Y2048184D1*
Y2055369D1*
X2322679Y2067307D1*
X2317925Y2074492D1*
X2310740Y2076869D1*
X2305987D1*
X2322679Y2067307D2*
X2293994Y2036246D1*
X2354920Y2076869D2*
X2347735Y2074492D1*
X2342926Y2067307D1*
X2340550Y2055369D1*
Y2048184D1*
X2342926Y2036246D1*
X2347735Y2029060D1*
X2354920Y2026684D1*
X2359673D1*
X2366858Y2029060D1*
X2371611Y2036246D1*
X2374043Y2048184D1*
Y2055369D1*
X2371611Y2067307D1*
X2366858Y2074492D1*
X2359673Y2076869D1*
X2354920D1*
X2371611Y2067307D2*
X2342926Y2036246D1*
X2389482Y2018393D2*
X2434914D1*
X2450353Y2060177D2*
Y2026684D1*
Y2050616D2*
X2457538Y2057801D1*
X2462346Y2060177D1*
X2469476D1*
X2474285Y2057801D1*
X2476661Y2050616D1*
Y2026684D1*
X2523217Y2076924D2*
X2492101D1*
Y2026684D1*
Y2052992D2*
X2511224D1*
X2104595Y2337125D2*
X2109403Y2339557D1*
X2116589Y2346687D1*
Y2296502D1*
X2132028Y2288212D2*
X2177459D1*
X2192899Y2346742D2*
Y2296502D1*
X2226392Y2346742D2*
X2192899Y2313249D1*
X2204837Y2325242D2*
X2226392Y2296502D1*
X2253769Y2329995D2*
X2249016Y2327619D1*
X2244208Y2322810D1*
X2241831Y2315625D1*
Y2310872D1*
X2244208Y2303687D1*
X2249016Y2298934D1*
X2253769Y2296502D1*
X2260954D1*
X2265763Y2298934D1*
X2270516Y2303687D1*
X2272948Y2310872D1*
Y2315625D1*
X2270516Y2322810D1*
X2265763Y2327619D1*
X2260954Y2329995D1*
X2253769D1*
X2288387Y2346742D2*
Y2296502D1*
Y2320434D2*
X2295572Y2327619D1*
X2300381Y2329995D1*
X2307566D1*
X2312319Y2327619D1*
X2314695Y2320434D1*
Y2296502D1*
X2330135Y2329995D2*
Y2296502D1*
Y2320434D2*
X2337320Y2327619D1*
X2342128Y2329995D1*
X2349258D1*
X2354066Y2327619D1*
X2356443Y2320434D1*
Y2296502D1*
Y2320434D2*
X2363628Y2327619D1*
X2368436Y2329995D1*
X2375566D1*
X2380375Y2327619D1*
X2382807Y2320434D1*
Y2296502D1*
X2702471Y2071811D2*
X2700095D1*
X2695286Y2074187D1*
X2692910Y2076564D1*
X2690533Y2081372D1*
Y2090934D1*
X2692910Y2095687D1*
X2695286Y2098064D1*
X2700095Y2100496D1*
X2704848D1*
X2709656Y2098064D1*
X2716786Y2093311D1*
X2740718Y2069379D1*
Y2102872D1*
X2690533Y2132682D2*
X2692910Y2125497D1*
X2700095Y2120688D1*
X2712033Y2118311D1*
X2719218D1*
X2731156Y2120688D1*
X2738341Y2125496D1*
X2740718Y2132681D1*
Y2137435D1*
X2738341Y2144620D1*
X2731156Y2149373D1*
X2719218Y2151805D1*
X2712033D1*
X2700095Y2149373D1*
X2692910Y2144620D1*
X2690533Y2137435D1*
Y2132682D1*
X2700095Y2149373D2*
X2731156Y2120688D1*
X2690533Y2181614D2*
X2692910Y2174429D1*
X2700095Y2169621D1*
X2712033Y2167244D1*
X2719218D1*
X2731156Y2169621D1*
X2738341Y2174429D1*
X2740718Y2181614D1*
Y2186367D1*
X2738341Y2193552D1*
X2731156Y2198305D1*
X2719218Y2200737D1*
X2712033D1*
X2700095Y2198305D1*
X2692910Y2193552D1*
X2690533Y2186367D1*
Y2181614D1*
X2700095Y2198305D2*
X2731156Y2169621D1*
X2749008Y2216177D2*
Y2261608D1*
X2707224Y2288986D2*
X2709601Y2284232D1*
X2714409Y2279424D1*
X2721594Y2277047D1*
X2726348D1*
X2733533Y2279424D1*
X2738286Y2284232D1*
X2740718Y2288986D1*
Y2296171D1*
X2738286Y2300979D1*
X2733533Y2305732D1*
X2726348Y2308164D1*
X2721594D1*
X2714409Y2305732D1*
X2709601Y2300979D1*
X2707224Y2296171D1*
Y2288986D1*
X2690478Y2323603D2*
X2740718D1*
X2716786D2*
X2709601Y2330788D1*
X2707224Y2335597D1*
Y2342782D1*
X2709601Y2347535D1*
X2716786Y2349912D1*
X2740718D1*
X2707224Y2365351D2*
X2740718D1*
X2716786D2*
X2709601Y2372536D1*
X2707224Y2377344D1*
Y2384474D1*
X2709601Y2389283D1*
X2716786Y2391659D1*
X2740718D1*
X2716786D2*
X2709601Y2398844D1*
X2707224Y2403653D1*
Y2410782D1*
X2709601Y2415591D1*
X2716786Y2418023D1*
X2740718D1*
X2452471Y758094D2*
X2450095D1*
X2445286Y760471D1*
X2442910Y762848D1*
X2440533Y767656D1*
Y777218D1*
X2442910Y781971D1*
X2445286Y784347D1*
X2450095Y786779D1*
X2454848D1*
X2459656Y784347D1*
X2466786Y779594D1*
X2490718Y755663D1*
Y789156D1*
X2440533Y818965D2*
X2442910Y811780D1*
X2450095Y806972D1*
X2462033Y804595D1*
X2469218D1*
X2481156Y806972D1*
X2488341Y811780D1*
X2490718Y818965D1*
Y823718D1*
X2488341Y830903D1*
X2481156Y835657D1*
X2469218Y838088D1*
X2462033D1*
X2450095Y835657D1*
X2442910Y830903D1*
X2440533Y823718D1*
Y818965D1*
X2450095Y835657D2*
X2481156Y806972D1*
X2440533Y867898D2*
X2442910Y860713D1*
X2450095Y855904D1*
X2462033Y853528D1*
X2469218D1*
X2481156Y855904D1*
X2488341Y860713D1*
X2490718Y867898D1*
Y872651D1*
X2488341Y879836D1*
X2481156Y884589D1*
X2469218Y887021D1*
X2462033D1*
X2450095Y884589D1*
X2442910Y879836D1*
X2440533Y872651D1*
Y867898D1*
X2450095Y884589D2*
X2481156Y855904D1*
X2499008Y902460D2*
Y947892D1*
X2457224Y975269D2*
X2459601Y970516D1*
X2464409Y965708D1*
X2471594Y963331D1*
X2476348D1*
X2483533Y965708D1*
X2488286Y970516D1*
X2490718Y975269D1*
Y982454D1*
X2488286Y987263D1*
X2483533Y992016D1*
X2476348Y994448D1*
X2471594D1*
X2464409Y992016D1*
X2459601Y987263D1*
X2457224Y982454D1*
Y975269D1*
X2440478Y1009887D2*
X2490718D1*
X2466786D2*
X2459601Y1017072D1*
X2457224Y1021880D1*
Y1029066D1*
X2459601Y1033819D1*
X2466786Y1036195D1*
X2490718D1*
X2457224Y1051635D2*
X2490718D1*
X2466786D2*
X2459601Y1058820D1*
X2457224Y1063628D1*
Y1070758D1*
X2459601Y1075566D1*
X2466786Y1077943D1*
X2490718D1*
X2466786D2*
X2459601Y1085128D1*
X2457224Y1089936D1*
Y1097066D1*
X2459601Y1101875D1*
X2466786Y1104306D1*
X2490718D1*
X2450095Y1119746D2*
X2447663Y1124554D1*
X2440533Y1131739D1*
X2490718D1*
X2152471Y747345D2*
X2150095D1*
X2145286Y749721D1*
X2142910Y752098D1*
X2140533Y756906D1*
Y766468D1*
X2142910Y771221D1*
X2145286Y773598D1*
X2150095Y776029D1*
X2154848D1*
X2159656Y773598D1*
X2166786Y768844D1*
X2190718Y744913D1*
Y778406D1*
X2140533Y808215D2*
X2142910Y801030D1*
X2150095Y796222D1*
X2162033Y793845D1*
X2169218D1*
X2181156Y796222D1*
X2188341Y801030D1*
X2190718Y808215D1*
Y812968D1*
X2188341Y820153D1*
X2181156Y824907D1*
X2169218Y827338D1*
X2162033D1*
X2150095Y824907D1*
X2142910Y820153D1*
X2140533Y812968D1*
Y808215D1*
X2150095Y824907D2*
X2181156Y796222D1*
X2140533Y857148D2*
X2142910Y849963D1*
X2150095Y845154D1*
X2162033Y842778D1*
X2169218D1*
X2181156Y845154D1*
X2188341Y849963D1*
X2190718Y857148D1*
Y861901D1*
X2188341Y869086D1*
X2181156Y873839D1*
X2169218Y876271D1*
X2162033D1*
X2150095Y873839D1*
X2142910Y869086D1*
X2140533Y861901D1*
Y857148D1*
X2150095Y873839D2*
X2181156Y845154D1*
X2199008Y891710D2*
Y937142D1*
X2157224Y964519D2*
X2159601Y959766D1*
X2164409Y954958D1*
X2171594Y952581D1*
X2176348D1*
X2183533Y954958D1*
X2188286Y959766D1*
X2190718Y964519D1*
Y971704D1*
X2188286Y976513D1*
X2183533Y981266D1*
X2176348Y983698D1*
X2171594D1*
X2164409Y981266D1*
X2159601Y976513D1*
X2157224Y971704D1*
Y964519D1*
X2140478Y999137D2*
X2190718D1*
X2166786D2*
X2159601Y1006322D1*
X2157224Y1011131D1*
Y1018316D1*
X2159601Y1023069D1*
X2166786Y1025445D1*
X2190718D1*
X2157224Y1040885D2*
X2190718D1*
X2166786D2*
X2159601Y1048070D1*
X2157224Y1052878D1*
Y1060008D1*
X2159601Y1064816D1*
X2166786Y1067193D1*
X2190718D1*
X2166786D2*
X2159601Y1074378D1*
X2157224Y1079186D1*
Y1086316D1*
X2159601Y1091125D1*
X2166786Y1093556D1*
X2190718D1*
X2152471Y1111428D2*
X2150095D1*
X2145286Y1113804D1*
X2142910Y1116181D1*
X2140533Y1120989D1*
Y1130551D1*
X2142910Y1135304D1*
X2145286Y1137681D1*
X2150095Y1140112D1*
X2154848D1*
X2159656Y1137681D1*
X2166786Y1132927D1*
X2190718Y1108996D1*
Y1142489D1*
X602471Y747345D2*
X600095D1*
X595286Y749721D1*
X592910Y752098D1*
X590533Y756906D1*
Y766468D1*
X592910Y771221D1*
X595286Y773598D1*
X600095Y776029D1*
X604848D1*
X609656Y773598D1*
X616786Y768844D1*
X640718Y744913D1*
Y778406D1*
X590533Y808215D2*
X592910Y801030D1*
X600095Y796222D1*
X612033Y793845D1*
X619218D1*
X631156Y796222D1*
X638341Y801030D1*
X640718Y808215D1*
Y812968D1*
X638341Y820153D1*
X631156Y824907D1*
X619218Y827338D1*
X612033D1*
X600095Y824907D1*
X592910Y820153D1*
X590533Y812968D1*
Y808215D1*
X600095Y824907D2*
X631156Y796222D1*
X590533Y857148D2*
X592910Y849963D1*
X600095Y845154D1*
X612033Y842778D1*
X619218D1*
X631156Y845154D1*
X638341Y849963D1*
X640718Y857148D1*
Y861901D1*
X638341Y869086D1*
X631156Y873839D1*
X619218Y876271D1*
X612033D1*
X600095Y873839D1*
X592910Y869086D1*
X590533Y861901D1*
Y857148D1*
X600095Y873839D2*
X631156Y845154D1*
X649008Y891710D2*
Y937142D1*
X607224Y964519D2*
X609601Y959766D1*
X614409Y954958D1*
X621594Y952581D1*
X626348D1*
X633533Y954958D1*
X638286Y959766D1*
X640718Y964519D1*
Y971704D1*
X638286Y976513D1*
X633533Y981266D1*
X626348Y983698D1*
X621594D1*
X614409Y981266D1*
X609601Y976513D1*
X607224Y971704D1*
Y964519D1*
X590478Y999137D2*
X640718D1*
X616786D2*
X609601Y1006322D1*
X607224Y1011131D1*
Y1018316D1*
X609601Y1023069D1*
X616786Y1025445D1*
X640718D1*
X607224Y1040885D2*
X640718D1*
X616786D2*
X609601Y1048070D1*
X607224Y1052878D1*
Y1060008D1*
X609601Y1064816D1*
X616786Y1067193D1*
X640718D1*
X616786D2*
X609601Y1074378D1*
X607224Y1079186D1*
Y1086316D1*
X609601Y1091125D1*
X616786Y1093556D1*
X640718D1*
X590533Y1113804D2*
Y1140057D1*
X609656Y1125742D1*
Y1132927D1*
X612033Y1137681D1*
X614409Y1140057D1*
X621594Y1142489D1*
X626348D1*
X633533Y1140057D1*
X638341Y1135304D1*
X640718Y1128119D1*
Y1120934D1*
X638341Y1113804D1*
X635909Y1111428D1*
X631156Y1108996D1*
X902471Y746156D2*
X900095D1*
X895286Y748533D1*
X892910Y750909D1*
X890533Y755718D1*
Y765279D1*
X892910Y770033D1*
X895286Y772409D1*
X900095Y774841D1*
X904848D1*
X909656Y772409D1*
X916786Y767656D1*
X940718Y743724D1*
Y777218D1*
X890533Y807027D2*
X892910Y799842D1*
X900095Y795033D1*
X912033Y792657D1*
X919218D1*
X931156Y795033D1*
X938341Y799842D1*
X940718Y807027D1*
Y811780D1*
X938341Y818965D1*
X931156Y823718D1*
X919218Y826150D1*
X912033D1*
X900095Y823718D1*
X892910Y818965D1*
X890533Y811780D1*
Y807027D1*
X900095Y823718D2*
X931156Y795033D1*
X890533Y855960D2*
X892910Y848774D1*
X900095Y843966D1*
X912033Y841589D1*
X919218D1*
X931156Y843966D1*
X938341Y848774D1*
X940718Y855959D1*
Y860713D1*
X938341Y867898D1*
X931156Y872651D1*
X919218Y875083D1*
X912033D1*
X900095Y872651D1*
X892910Y867898D1*
X890533Y860713D1*
Y855960D1*
X900095Y872651D2*
X931156Y843966D1*
X949008Y890522D2*
Y935954D1*
X907224Y963331D2*
X909601Y958578D1*
X914409Y953769D1*
X921594Y951393D1*
X926348D1*
X933533Y953769D1*
X938286Y958578D1*
X940718Y963331D1*
Y970516D1*
X938286Y975324D1*
X933533Y980078D1*
X926348Y982510D1*
X921594D1*
X914409Y980078D1*
X909601Y975324D1*
X907224Y970516D1*
Y963331D1*
X890478Y997949D2*
X940718D1*
X916786D2*
X909601Y1005134D1*
X907224Y1009942D1*
Y1017127D1*
X909601Y1021880D1*
X916786Y1024257D1*
X940718D1*
X907224Y1039696D2*
X940718D1*
X916786D2*
X909601Y1046881D1*
X907224Y1051690D1*
Y1058820D1*
X909601Y1063628D1*
X916786Y1066005D1*
X940718D1*
X916786D2*
X909601Y1073190D1*
X907224Y1077998D1*
Y1085128D1*
X909601Y1089936D1*
X916786Y1092368D1*
X940718D1*
Y1131739D2*
X890533D1*
X923971Y1107807D1*
Y1143677D1*
X1352471Y747345D2*
X1350095D1*
X1345286Y749721D1*
X1342910Y752098D1*
X1340533Y756906D1*
Y766468D1*
X1342910Y771221D1*
X1345286Y773598D1*
X1350095Y776029D1*
X1354848D1*
X1359656Y773598D1*
X1366786Y768844D1*
X1390718Y744913D1*
Y778406D1*
X1340533Y808215D2*
X1342910Y801030D1*
X1350095Y796222D1*
X1362033Y793845D1*
X1369218D1*
X1381156Y796222D1*
X1388341Y801030D1*
X1390718Y808215D1*
Y812968D1*
X1388341Y820153D1*
X1381156Y824907D1*
X1369218Y827338D1*
X1362033D1*
X1350095Y824907D1*
X1342910Y820153D1*
X1340533Y812968D1*
Y808215D1*
X1350095Y824907D2*
X1381156Y796222D1*
X1340533Y857148D2*
X1342910Y849963D1*
X1350095Y845154D1*
X1362033Y842778D1*
X1369218D1*
X1381156Y845154D1*
X1388341Y849963D1*
X1390718Y857148D1*
Y861901D1*
X1388341Y869086D1*
X1381156Y873839D1*
X1369218Y876271D1*
X1362033D1*
X1350095Y873839D1*
X1342910Y869086D1*
X1340533Y861901D1*
Y857148D1*
X1350095Y873839D2*
X1381156Y845154D1*
X1399008Y891710D2*
Y937142D1*
X1357224Y964519D2*
X1359601Y959766D1*
X1364409Y954958D1*
X1371594Y952581D1*
X1376348D1*
X1383533Y954958D1*
X1388286Y959766D1*
X1390718Y964519D1*
Y971704D1*
X1388286Y976513D1*
X1383533Y981266D1*
X1376348Y983698D1*
X1371594D1*
X1364409Y981266D1*
X1359601Y976513D1*
X1357224Y971704D1*
Y964519D1*
X1340478Y999137D2*
X1390718D1*
X1366786D2*
X1359601Y1006322D1*
X1357224Y1011131D1*
Y1018316D1*
X1359601Y1023069D1*
X1366786Y1025445D1*
X1390718D1*
X1357224Y1040885D2*
X1390718D1*
X1366786D2*
X1359601Y1048070D1*
X1357224Y1052878D1*
Y1060008D1*
X1359601Y1064816D1*
X1366786Y1067193D1*
X1390718D1*
X1366786D2*
X1359601Y1074378D1*
X1357224Y1079186D1*
Y1086316D1*
X1359601Y1091125D1*
X1366786Y1093556D1*
X1390718D1*
X1340533Y1137681D2*
Y1113804D1*
X1362033Y1111428D1*
X1359656Y1113804D1*
X1357224Y1120989D1*
Y1128119D1*
X1359656Y1135304D1*
X1364409Y1140112D1*
X1371594Y1142489D1*
X1376348D1*
X1383533Y1140112D1*
X1388341Y1135304D1*
X1390718Y1128119D1*
Y1120989D1*
X1388341Y1113804D1*
X1385909Y1111428D1*
X1381156Y1108996D1*
X1652471Y748560D2*
X1650095D1*
X1645286Y750937D1*
X1642910Y753314D1*
X1640533Y758122D1*
Y767684D1*
X1642910Y772437D1*
X1645286Y774813D1*
X1650095Y777245D1*
X1654848D1*
X1659656Y774813D1*
X1666786Y770060D1*
X1690718Y746129D1*
Y779622D1*
X1640533Y809431D2*
X1642910Y802246D1*
X1650095Y797438D1*
X1662033Y795061D1*
X1669218D1*
X1681156Y797438D1*
X1688341Y802246D1*
X1690718Y809431D1*
Y814184D1*
X1688341Y821369D1*
X1681156Y826123D1*
X1669218Y828554D1*
X1662033D1*
X1650095Y826123D1*
X1642910Y821369D1*
X1640533Y814184D1*
Y809431D1*
X1650095Y826123D2*
X1681156Y797438D1*
X1640533Y858364D2*
X1642910Y851179D1*
X1650095Y846370D1*
X1662033Y843994D1*
X1669218D1*
X1681156Y846370D1*
X1688341Y851179D1*
X1690718Y858364D1*
Y863117D1*
X1688341Y870302D1*
X1681156Y875055D1*
X1669218Y877487D1*
X1662033D1*
X1650095Y875055D1*
X1642910Y870302D1*
X1640533Y863117D1*
Y858364D1*
X1650095Y875055D2*
X1681156Y846370D1*
X1699008Y892926D2*
Y938358D1*
X1657224Y965735D2*
X1659601Y960982D1*
X1664409Y956174D1*
X1671594Y953797D1*
X1676348D1*
X1683533Y956174D1*
X1688286Y960982D1*
X1690718Y965735D1*
Y972920D1*
X1688286Y977729D1*
X1683533Y982482D1*
X1676348Y984914D1*
X1671594D1*
X1664409Y982482D1*
X1659601Y977729D1*
X1657224Y972920D1*
Y965735D1*
X1640478Y1000353D2*
X1690718D1*
X1666786D2*
X1659601Y1007538D1*
X1657224Y1012346D1*
Y1019532D1*
X1659601Y1024285D1*
X1666786Y1026661D1*
X1690718D1*
X1657224Y1042101D2*
X1690718D1*
X1666786D2*
X1659601Y1049286D1*
X1657224Y1054094D1*
Y1061224D1*
X1659601Y1066032D1*
X1666786Y1068409D1*
X1690718D1*
X1666786D2*
X1659601Y1075594D1*
X1657224Y1080402D1*
Y1087532D1*
X1659601Y1092341D1*
X1666786Y1094772D1*
X1690718D1*
X1647663Y1138897D2*
X1642910Y1136520D1*
X1640533Y1129335D1*
Y1124582D1*
X1642910Y1117397D1*
X1650095Y1112588D1*
X1662033Y1110212D1*
X1673971D1*
X1683533Y1112588D1*
X1688341Y1117397D1*
X1690718Y1124582D1*
Y1126958D1*
X1688341Y1134088D1*
X1683533Y1138897D1*
X1676348Y1141273D1*
X1673971D1*
X1666786Y1138897D1*
X1662033Y1134088D1*
X1659656Y1126958D1*
Y1124582D1*
X1662033Y1117397D1*
X1666786Y1112588D1*
X1673971Y1110212D1*
X3002471Y2047345D2*
X3000095D1*
X2995286Y2049721D1*
X2992910Y2052098D1*
X2990533Y2056906D1*
Y2066468D1*
X2992910Y2071221D1*
X2995286Y2073598D1*
X3000095Y2076029D1*
X3004848D1*
X3009656Y2073598D1*
X3016786Y2068844D1*
X3040718Y2044913D1*
Y2078406D1*
X2990533Y2108215D2*
X2992910Y2101030D1*
X3000095Y2096222D1*
X3012033Y2093845D1*
X3019218D1*
X3031156Y2096222D1*
X3038341Y2101030D1*
X3040718Y2108215D1*
Y2112968D1*
X3038341Y2120153D1*
X3031156Y2124907D1*
X3019218Y2127338D1*
X3012033D1*
X3000095Y2124907D1*
X2992910Y2120153D1*
X2990533Y2112968D1*
Y2108215D1*
X3000095Y2124907D2*
X3031156Y2096222D1*
X2990533Y2157148D2*
X2992910Y2149963D1*
X3000095Y2145154D1*
X3012033Y2142778D1*
X3019218D1*
X3031156Y2145154D1*
X3038341Y2149963D1*
X3040718Y2157148D1*
Y2161901D1*
X3038341Y2169086D1*
X3031156Y2173839D1*
X3019218Y2176271D1*
X3012033D1*
X3000095Y2173839D1*
X2992910Y2169086D1*
X2990533Y2161901D1*
Y2157148D1*
X3000095Y2173839D2*
X3031156Y2145154D1*
X3049008Y2191710D2*
Y2237142D1*
X3007224Y2264519D2*
X3009601Y2259766D1*
X3014409Y2254958D1*
X3021594Y2252581D1*
X3026348D1*
X3033533Y2254958D1*
X3038286Y2259766D1*
X3040718Y2264519D1*
Y2271704D1*
X3038286Y2276513D1*
X3033533Y2281266D1*
X3026348Y2283698D1*
X3021594D1*
X3014409Y2281266D1*
X3009601Y2276513D1*
X3007224Y2271704D1*
Y2264519D1*
X2990478Y2299137D2*
X3040718D1*
X3016786D2*
X3009601Y2306322D1*
X3007224Y2311131D1*
Y2318316D1*
X3009601Y2323069D1*
X3016786Y2325445D1*
X3040718D1*
X3007224Y2340885D2*
X3040718D1*
X3016786D2*
X3009601Y2348070D1*
X3007224Y2352878D1*
Y2360008D1*
X3009601Y2364816D1*
X3016786Y2367193D1*
X3040718D1*
X3016786D2*
X3009601Y2374378D1*
X3007224Y2379186D1*
Y2386316D1*
X3009601Y2391125D1*
X3016786Y2393556D1*
X3040718D1*
Y2418557D2*
X2990533Y2442489D1*
Y2408996D1*
X2902471Y747372D2*
X2900095D1*
X2895286Y749749D1*
X2892910Y752125D1*
X2890533Y756934D1*
Y766495D1*
X2892910Y771249D1*
X2895286Y773625D1*
X2900095Y776057D1*
X2904848D1*
X2909656Y773625D1*
X2916786Y768872D1*
X2940718Y744940D1*
Y778434D1*
X2890533Y808243D2*
X2892910Y801058D1*
X2900095Y796249D1*
X2912033Y793873D1*
X2919218D1*
X2931156Y796249D1*
X2938341Y801058D1*
X2940718Y808243D1*
Y812996D1*
X2938341Y820181D1*
X2931156Y824934D1*
X2919218Y827366D1*
X2912033D1*
X2900095Y824934D1*
X2892910Y820181D1*
X2890533Y812996D1*
Y808243D1*
X2900095Y824934D2*
X2931156Y796249D1*
X2890533Y857175D2*
X2892910Y849990D1*
X2900095Y845182D1*
X2912033Y842805D1*
X2919218D1*
X2931156Y845182D1*
X2938341Y849990D1*
X2940718Y857175D1*
Y861929D1*
X2938341Y869114D1*
X2931156Y873867D1*
X2919218Y876299D1*
X2912033D1*
X2900095Y873867D1*
X2892910Y869114D1*
X2890533Y861929D1*
Y857175D1*
X2900095Y873867D2*
X2931156Y845182D1*
X2949008Y891738D2*
Y937169D1*
X2907224Y964547D2*
X2909601Y959794D1*
X2914409Y954985D1*
X2921594Y952609D1*
X2926348D1*
X2933533Y954985D1*
X2938286Y959794D1*
X2940718Y964547D1*
Y971732D1*
X2938286Y976540D1*
X2933533Y981294D1*
X2926348Y983725D1*
X2921594D1*
X2914409Y981294D1*
X2909601Y976540D1*
X2907224Y971732D1*
Y964547D1*
X2890478Y999165D2*
X2940718D1*
X2916786D2*
X2909601Y1006350D1*
X2907224Y1011158D1*
Y1018343D1*
X2909601Y1023096D1*
X2916786Y1025473D1*
X2940718D1*
X2907224Y1040912D2*
X2940718D1*
X2916786D2*
X2909601Y1048097D1*
X2907224Y1052906D1*
Y1060036D1*
X2909601Y1064844D1*
X2916786Y1067221D1*
X2940718D1*
X2916786D2*
X2909601Y1074406D1*
X2907224Y1079214D1*
Y1086344D1*
X2909601Y1091152D1*
X2916786Y1093584D1*
X2940718D1*
X2890533Y1120962D2*
X2892910Y1113832D1*
X2897663Y1111400D1*
X2902471D1*
X2907224Y1113832D1*
X2909656Y1118585D1*
X2912033Y1128147D1*
X2914409Y1135332D1*
X2919218Y1140085D1*
X2923971Y1142461D1*
X2931156D1*
X2935909Y1140085D1*
X2938341Y1137708D1*
X2940718Y1130523D1*
Y1120962D1*
X2938341Y1113832D1*
X2935909Y1111400D1*
X2931156Y1109023D1*
X2923971D1*
X2919218Y1111400D1*
X2914409Y1116208D1*
X2912033Y1123338D1*
X2909656Y1132900D1*
X2907224Y1137708D1*
X2902471Y1140085D1*
X2897663D1*
X2892910Y1137708D1*
X2890533Y1130523D1*
Y1120962D1*
X1403562Y1676687D2*
X1429815D1*
X1415500Y1657564D1*
X1422685D1*
X1427439Y1655187D1*
X1429815Y1652810D1*
X1432247Y1645625D1*
Y1640872D1*
X1429815Y1633687D1*
X1425062Y1628879D1*
X1417877Y1626502D1*
X1410692D1*
X1403562Y1628879D1*
X1401186Y1631311D1*
X1398754Y1636064D1*
X1452495Y1676687D2*
X1478748D1*
X1464433Y1657564D1*
X1471618D1*
X1476371Y1655187D1*
X1478748Y1652810D1*
X1481180Y1645625D1*
Y1640872D1*
X1478748Y1633687D1*
X1473995Y1628879D1*
X1466810Y1626502D1*
X1459624D1*
X1452495Y1628879D1*
X1450118Y1631311D1*
X1447686Y1636064D1*
X1496619Y1618212D2*
X1542050D1*
X1557490Y1659995D2*
Y1636064D1*
X1559866Y1628934D1*
X1564675Y1626502D1*
X1571860D1*
X1576613Y1628934D1*
X1583798Y1636064D1*
Y1659995D2*
Y1626502D1*
X1630354Y1676742D2*
X1599237D1*
Y1626502D1*
Y1652810D2*
X1618360D1*
X558046Y1923452D2*
Y1892335D1*
X608286D1*
X581978D2*
Y1911458D1*
X616576Y1938891D2*
Y1984323D1*
X558046Y1999762D2*
X593916D1*
X601101Y2002138D1*
X605854Y2006947D1*
X608286Y2014132D1*
Y2018885D1*
X605854Y2026070D1*
X601101Y2030879D1*
X593916Y2033255D1*
X558046D1*
X565231Y2082188D2*
X560423Y2077435D1*
X558046Y2070249D1*
Y2060688D1*
X560423Y2053503D1*
X565231Y2048694D1*
X569984D1*
X574793Y2051126D1*
X577169Y2053503D1*
X579546Y2058256D1*
X584354Y2072626D1*
X586731Y2077435D1*
X589163Y2079811D1*
X593916Y2082188D1*
X601101D1*
X605854Y2077435D1*
X608286Y2070249D1*
Y2060688D1*
X605854Y2053503D1*
X601101Y2048694D1*
X558046Y2097627D2*
X608286D1*
Y2119182D1*
X605854Y2126367D1*
X603478Y2128744D1*
X598724Y2131120D1*
X591539D1*
X586731Y2128744D1*
X584354Y2126367D1*
X581978Y2119182D1*
X579546Y2126367D1*
X577169Y2128744D1*
X572416Y2131120D1*
X567608D1*
X562854Y2128744D1*
X560423Y2126367D1*
X558046Y2119182D1*
Y2097627D1*
X581978D2*
Y2119182D1*
X616576Y2146560D2*
Y2191991D1*
X584354Y2207430D2*
Y2228985D1*
X581978Y2236115D1*
X579546Y2238547D1*
X574793Y2240924D1*
X567608D1*
X562854Y2238547D1*
X560423Y2236115D1*
X558046Y2228985D1*
Y2207430D1*
X608286D1*
X558046Y2256363D2*
X608286D1*
X574793Y2271802D2*
X598724D1*
X605854Y2274179D1*
X608286Y2278987D1*
Y2286172D1*
X605854Y2290925D1*
X598724Y2298110D1*
X574793D2*
X608286D1*
X577169Y2342235D2*
X615471D1*
X622601Y2339858D1*
X625033Y2337481D1*
X627409Y2332673D1*
Y2325488D1*
X625033Y2320735D1*
X584354Y2342235D2*
X579601Y2337481D1*
X577169Y2332673D1*
Y2325488D1*
X579601Y2320735D1*
X584354Y2315926D1*
X591539Y2313550D1*
X596348D1*
X603478Y2315926D1*
X608286Y2320735D1*
X610663Y2325488D1*
Y2332673D1*
X608286Y2337481D1*
X603478Y2342235D1*
X603967Y1314303D2*
X654207D1*
X603967Y1347796D2*
X654207D1*
X627898Y1314303D2*
Y1347796D1*
X635083Y1363235D2*
Y1391920D1*
X630275D1*
X625466Y1389544D1*
X623090Y1387167D1*
X620713Y1382359D1*
Y1375174D1*
X623090Y1370420D1*
X627898Y1365612D1*
X635083Y1363235D1*
X639837D1*
X647022Y1365612D1*
X651775Y1370420D1*
X654207Y1375174D1*
Y1382359D1*
X651775Y1387167D1*
X647022Y1391920D1*
X620713Y1436044D2*
X654207D1*
X627898D2*
X623090Y1431291D1*
X620713Y1426483D1*
Y1419353D1*
X623090Y1414545D1*
X627898Y1409791D1*
X635083Y1407359D1*
X639837D1*
X647022Y1409791D1*
X651775Y1414544D1*
X654207Y1419353D1*
Y1426483D1*
X651775Y1431291D1*
X647022Y1436044D1*
X603967Y1480168D2*
X654207D1*
X627898D2*
X623090Y1475415D1*
X620713Y1470607D1*
Y1463422D1*
X623090Y1458669D1*
X627898Y1453860D1*
X635083Y1451484D1*
X639837D1*
X647022Y1453860D1*
X651775Y1458669D1*
X654207Y1463422D1*
Y1470607D1*
X651775Y1475415D1*
X647022Y1480168D1*
X635083Y1495608D2*
Y1524293D1*
X630275D1*
X625466Y1521916D1*
X623090Y1519539D1*
X620713Y1514731D1*
Y1507546D1*
X623090Y1502793D1*
X627898Y1497984D1*
X635083Y1495608D1*
X639837D1*
X647022Y1497984D1*
X651775Y1502793D1*
X654207Y1507546D1*
Y1514731D1*
X651775Y1519539D1*
X647022Y1524293D1*
X620713Y1539732D2*
X654207D1*
X635083D2*
X627898Y1542164D1*
X623090Y1546917D1*
X620713Y1551725D1*
Y1558910D1*
X627898Y1600658D2*
X623090Y1598281D1*
X620713Y1591096D1*
Y1583911D1*
X623090Y1576726D1*
X627898Y1574350D1*
X632651Y1576726D1*
X635083Y1581535D1*
X637460Y1593473D1*
X639837Y1598281D1*
X644645Y1600658D1*
X647022D1*
X651775Y1598281D1*
X654207Y1591096D1*
Y1583911D1*
X651775Y1576726D1*
X647022Y1574350D1*
X1799623Y764184D2*
Y713944D1*
Y737876D2*
X1806808Y745061D1*
X1811617Y747438D1*
X1818802D1*
X1823555Y745061D1*
X1825931Y737876D1*
Y713944D1*
X1841371Y764184D2*
X1843747Y761808D1*
X1846179Y764184D1*
X1843747Y766616D1*
X1841371Y764184D1*
X1843747Y747438D2*
Y713944D1*
X1890303Y745061D2*
Y706759D1*
X1887927Y699630D1*
X1885550Y697198D1*
X1880742Y694821D1*
X1873557D1*
X1868803Y697198D1*
X1890303Y737876D2*
X1885550Y742629D1*
X1880742Y745061D1*
X1873557D1*
X1868803Y742629D1*
X1863995Y737876D1*
X1861618Y730691D1*
Y725883D1*
X1863995Y718753D1*
X1868803Y713944D1*
X1873557Y711568D1*
X1880742D1*
X1885550Y713944D1*
X1890303Y718753D1*
X1905742Y764184D2*
Y713944D1*
Y737876D2*
X1912927Y745061D1*
X1917736Y747438D1*
X1924921D1*
X1929674Y745061D1*
X1932051Y737876D1*
Y713944D1*
X1947490Y764184D2*
Y713944D1*
Y740253D2*
X1952298Y745061D1*
X1957052Y747438D1*
X1964237D1*
X1968990Y745061D1*
X1973798Y740253D1*
X1976175Y733068D1*
Y728314D1*
X1973798Y721129D1*
X1968990Y716376D1*
X1964237Y713944D1*
X1957052D1*
X1952298Y716376D1*
X1947490Y721129D1*
X1254650Y2005876D2*
Y1955636D1*
X1283335D1*
X1337021D2*
Y2005876D1*
X1317898Y1955636D1*
X1298774Y2005876D1*
Y1955636D1*
X1357269Y2005821D2*
X1383522D1*
X1369207Y1986697D1*
X1376392D1*
X1381145Y1984321D1*
X1383522Y1981944D1*
X1385954Y1974759D1*
Y1970006D1*
X1383522Y1962821D1*
X1378768Y1958013D1*
X1371583Y1955636D1*
X1364398D1*
X1357269Y1958013D1*
X1354892Y1960444D1*
X1352460Y1965198D1*
X1432510Y1989129D2*
X1430078Y1981944D1*
X1425324Y1977136D1*
X1418139Y1974759D1*
X1415763D1*
X1408578Y1977136D1*
X1403825Y1981944D1*
X1401393Y1989129D1*
Y1991506D1*
X1403825Y1998691D1*
X1408578Y2003444D1*
X1415763Y2005821D1*
X1418139D1*
X1425324Y2003444D1*
X1430078Y1998691D1*
X1432510Y1989129D1*
Y1977136D1*
X1430078Y1965198D1*
X1425324Y1958013D1*
X1418139Y1955636D1*
X1413386D1*
X1406201Y1958013D1*
X1403825Y1962821D1*
X1471880Y1955636D2*
Y2005821D1*
X1447949Y1972383D1*
X1483819D1*
X1513628Y2005821D2*
X1506443Y2003444D1*
X1501635Y1996259D1*
X1499258Y1984321D1*
Y1977136D1*
X1501635Y1965198D1*
X1506443Y1958013D1*
X1513628Y1955636D1*
X1518381D1*
X1525566Y1958013D1*
X1530319Y1965198D1*
X1532751Y1977136D1*
Y1984321D1*
X1530319Y1996259D1*
X1525566Y2003444D1*
X1518381Y2005821D1*
X1513628D1*
X1530319Y1996259D2*
X1501635Y1965198D1*
X1176724Y670582D2*
Y620342D1*
X1204101Y653835D2*
X1199348Y651459D1*
X1194540Y646650D1*
X1192163Y639465D1*
Y634712D1*
X1194540Y627527D1*
X1199348Y622774D1*
X1204101Y620342D1*
X1211286D1*
X1216095Y622774D1*
X1220848Y627527D1*
X1223280Y634712D1*
Y639465D1*
X1220848Y646650D1*
X1216095Y651459D1*
X1211286Y653835D1*
X1204101D1*
X1238719D2*
X1248281Y620342D1*
X1257842Y653835D1*
X1267404Y620342D1*
X1276966Y653835D1*
X1292405Y670582D2*
Y620342D1*
Y646650D2*
X1297213Y651459D1*
X1301967Y653835D1*
X1309152D1*
X1313905Y651459D1*
X1318713Y646650D1*
X1321090Y639465D1*
Y634712D1*
X1318713Y627527D1*
X1313905Y622774D1*
X1309152Y620342D1*
X1301967D1*
X1297213Y622774D1*
X1292405Y627527D1*
X2020492Y1518084D2*
X1970252D1*
X2020492Y1498961D1*
X1970252Y1479837D1*
X2020492D1*
X1977437Y1567016D2*
X1972629Y1562263D1*
X1970252Y1555078D1*
Y1545517D1*
X1972629Y1538332D1*
X1977437Y1533523D1*
X1982190D1*
X1986999Y1535955D1*
X1989375Y1538332D1*
X1991752Y1543085D1*
X1996560Y1557455D1*
X1998937Y1562263D1*
X2001369Y1564640D1*
X2006122Y1567016D1*
X2013307D1*
X2018060Y1562263D1*
X2020492Y1555078D1*
Y1545516D1*
X2018060Y1538331D1*
X2013307Y1533523D1*
X1996560Y1582456D2*
Y1604011D1*
X1994184Y1611140D1*
X1991752Y1613572D1*
X1986999Y1615949D1*
X1979814D1*
X1975060Y1613572D1*
X1972629Y1611140D1*
X1970252Y1604011D1*
Y1582456D1*
X2020492D1*
Y1655320D2*
X1970307D1*
X2003745Y1631388D1*
Y1667258D1*
X1970307Y1687506D2*
Y1713759D1*
X1989431Y1699444D1*
Y1706629D1*
X1991807Y1711382D1*
X1994184Y1713759D1*
X2001369Y1716191D1*
X2006122D1*
X2013307Y1713759D1*
X2018115Y1709006D1*
X2020492Y1701821D1*
Y1694636D1*
X2018115Y1687506D1*
X2015684Y1685129D1*
X2010930Y1682697D1*
X1970307Y1746000D2*
X1972684Y1738815D1*
X1979869Y1734007D1*
X1991807Y1731630D1*
X1998992D1*
X2010930Y1734007D1*
X2018115Y1738815D1*
X2020492Y1746000D1*
Y1750753D1*
X2018115Y1757938D1*
X2010930Y1762691D1*
X1998992Y1765123D1*
X1991807D1*
X1979869Y1762691D1*
X1972684Y1757938D1*
X1970307Y1750753D1*
Y1746000D1*
X1979869Y1762691D2*
X2010930Y1734007D1*
X1982190Y1816432D2*
X1977437Y1814056D1*
X1972629Y1809247D1*
X1970252Y1804494D1*
Y1794933D1*
X1972629Y1790124D1*
X1977437Y1785371D1*
X1982190Y1782939D1*
X1989375Y1780563D1*
X2001369D1*
X2008499Y1782939D1*
X2013307Y1785371D1*
X2018060Y1790124D1*
X2020492Y1794933D1*
Y1804494D1*
X2018060Y1809247D1*
X2013307Y1814056D1*
X2008499Y1816432D1*
X2001369D1*
Y1804494D1*
X1982245Y1834304D2*
X1979869D1*
X1975060Y1836680D1*
X1972684Y1839057D1*
X1970307Y1843865D1*
Y1853427D1*
X1972684Y1858180D1*
X1975060Y1860557D1*
X1979869Y1862988D1*
X1984622D1*
X1989431Y1860557D1*
X1996560Y1855803D1*
X2020492Y1831872D1*
Y1865365D1*
X1970307Y1909489D2*
Y1885613D1*
X1991807Y1883236D1*
X1989431Y1885613D1*
X1986999Y1892798D1*
Y1899928D1*
X1989431Y1907113D1*
X1994184Y1911921D1*
X2001369Y1914298D1*
X2006122D1*
X2013307Y1911921D1*
X2018115Y1907113D1*
X2020492Y1899928D1*
Y1892798D1*
X2018115Y1885613D1*
X2015684Y1883236D1*
X2010930Y1880804D1*
X1970307Y1958422D2*
Y1934545D1*
X1991807Y1932169D1*
X1989431Y1934545D1*
X1986999Y1941730D1*
Y1948860D1*
X1989431Y1956045D1*
X1994184Y1960854D1*
X2001369Y1963230D1*
X2006122D1*
X2013307Y1960854D1*
X2018115Y1956045D1*
X2020492Y1948860D1*
Y1941730D1*
X2018115Y1934545D1*
X2015684Y1932169D1*
X2010930Y1929737D1*
X1970307Y1983478D2*
Y2009731D1*
X1989431Y1995416D1*
Y2002601D1*
X1991807Y2007354D1*
X1994184Y2009731D1*
X2001369Y2012163D1*
X2006122D1*
X2013307Y2009731D1*
X2018115Y2004978D1*
X2020492Y1997793D1*
Y1990608D1*
X2018115Y1983478D1*
X2015684Y1981101D1*
X2010930Y1978669D1*
X1998502Y651305D2*
X1993749Y648929D1*
X1988940Y644120D1*
X1986564Y636935D1*
Y632182D1*
X1988940Y624997D1*
X1993749Y620244D1*
X1998502Y617812D1*
X2005687D1*
X2010495Y620244D1*
X2015249Y624997D1*
X2017680Y632182D1*
Y636935D1*
X2015249Y644120D1*
X2010495Y648929D1*
X2005687Y651305D1*
X1998502D1*
X2052243Y668052D2*
X2047490D1*
X2042681Y665675D1*
X2040305Y658490D1*
Y617812D1*
X2033120Y651305D2*
X2049866D1*
X2086806Y668052D2*
X2082052D1*
X2077244Y665675D1*
X2074867Y658490D1*
Y617812D1*
X2067682Y651305D2*
X2084429D1*
X2109430Y668052D2*
Y627373D1*
X2111806Y620244D1*
X2116615Y617812D1*
X2121368D1*
X2102245Y651305D2*
X2118991D1*
X2615767Y749968D2*
X2611014Y747591D1*
X2606205Y742783D1*
X2603829Y735598D1*
Y730845D1*
X2606205Y723660D1*
X2611014Y718906D1*
X2615767Y716475D1*
X2622952D1*
X2627760Y718906D1*
X2632513Y723660D1*
X2634945Y730845D1*
Y735598D1*
X2632513Y742783D1*
X2627760Y747591D1*
X2622952Y749968D1*
X2615767D1*
X2650385D2*
Y716475D1*
Y740406D2*
X2657570Y747591D1*
X2662378Y749968D1*
X2669508D1*
X2674316Y747591D1*
X2676693Y740406D1*
Y716475D1*
X2699317Y766715D2*
Y726036D1*
X2701694Y718906D1*
X2706502Y716475D1*
X2711255D1*
X2692132Y749968D2*
X2708879D1*
X1055754Y761570D2*
X1051001Y759194D1*
X1046192Y754385D1*
X1043816Y747200D1*
Y742447D1*
X1046192Y735262D1*
X1051001Y730509D1*
X1055754Y728077D1*
X1062939D1*
X1067747Y730509D1*
X1072501Y735262D1*
X1074932Y742447D1*
Y747200D1*
X1072501Y754385D1*
X1067747Y759194D1*
X1062939Y761570D1*
X1055754D1*
X1090372D2*
Y737639D1*
X1092748Y730509D1*
X1097557Y728077D1*
X1104742D1*
X1109495Y730509D1*
X1116680Y737639D1*
Y761570D2*
Y728077D1*
X1139304Y778317D2*
Y737639D1*
X1141681Y730509D1*
X1146489Y728077D1*
X1151243D1*
X1132119Y761570D2*
X1148866D1*
X1166682Y778317D2*
Y728077D1*
Y752009D2*
X1173867Y759194D1*
X1178675Y761570D1*
X1185860D1*
X1190613Y759194D1*
X1192990Y752009D1*
Y728077D1*
X744206Y761570D2*
X739453Y759194D1*
X734644Y754385D1*
X732268Y747200D1*
Y742447D1*
X734644Y735262D1*
X739453Y730509D1*
X744206Y728077D1*
X751391D1*
X756199Y730509D1*
X760953Y735262D1*
X763385Y742447D1*
Y747200D1*
X760953Y754385D1*
X756199Y759194D1*
X751391Y761570D1*
X744206D1*
X778824D2*
Y737639D1*
X781200Y730509D1*
X786009Y728077D1*
X793194D1*
X797947Y730509D1*
X805132Y737639D1*
Y761570D2*
Y728077D1*
X827756Y778317D2*
Y737639D1*
X830133Y730509D1*
X834941Y728077D1*
X839695D1*
X820571Y761570D2*
X837318D1*
X855134Y778317D2*
Y728077D1*
X2913743Y1714350D2*
Y1664110D1*
Y1707165D2*
X2918551Y1711919D1*
X2923305Y1714350D1*
X2930490D1*
X2935298Y1711919D1*
X2940051Y1707165D1*
X2942483Y1699980D1*
Y1695172D1*
X2940051Y1688042D1*
X2935298Y1683234D1*
X2930490Y1680857D1*
X2923305D1*
X2918551Y1683234D1*
X2913743Y1688042D1*
X2957922Y1714350D2*
Y1680857D1*
Y1699980D2*
X2960354Y1707165D1*
X2965107Y1711974D1*
X2969916Y1714350D1*
X2977101D1*
X2992540Y1731097D2*
X2994917Y1728721D1*
X2997349Y1731097D1*
X2994917Y1733529D1*
X2992540Y1731097D1*
X2994917Y1714350D2*
Y1680857D1*
X3012788Y1714350D2*
Y1680857D1*
Y1704789D2*
X3019973Y1711974D1*
X3024781Y1714350D1*
X3031911D1*
X3036720Y1711974D1*
X3039096Y1704789D1*
Y1680857D1*
X3061720Y1731097D2*
Y1690419D1*
X3064097Y1683289D1*
X3068905Y1680857D1*
X3073659D1*
X3054535Y1714350D2*
X3071282D1*
X2650230Y1707165D2*
X2647854Y1711974D1*
X2640669Y1714350D1*
X2633484D1*
X2626299Y1711974D1*
X2623922Y1707165D1*
X2626299Y1702412D1*
X2631107Y1699980D1*
X2643045Y1697604D1*
X2647854Y1695227D1*
X2650230Y1690419D1*
Y1688042D1*
X2647854Y1683289D1*
X2640669Y1680857D1*
X2633484D1*
X2626299Y1683289D1*
X2623922Y1688042D1*
X2672855Y1731097D2*
Y1690419D1*
X2675231Y1683289D1*
X2680040Y1680857D1*
X2684793D1*
X2665670Y1714350D2*
X2682416D1*
X2728917D2*
Y1680857D1*
Y1707165D2*
X2724164Y1711974D1*
X2719355Y1714350D1*
X2712226D1*
X2707417Y1711974D1*
X2702664Y1707165D1*
X2700232Y1699980D1*
Y1695227D1*
X2702664Y1688042D1*
X2707417Y1683289D1*
X2712226Y1680857D1*
X2719355D1*
X2724164Y1683289D1*
X2728917Y1688042D1*
X2751541Y1731097D2*
Y1690419D1*
X2753918Y1683289D1*
X2758726Y1680857D1*
X2763480D1*
X2744356Y1714350D2*
X2761103D1*
X2727786Y648775D2*
X2737348Y615282D1*
X2746909Y648775D1*
X2756471Y615282D1*
X2766033Y648775D1*
X2810157D2*
Y615282D1*
Y641590D2*
X2805404Y646398D1*
X2800595Y648775D1*
X2793465D1*
X2788657Y646398D1*
X2783904Y641590D1*
X2781472Y634405D1*
Y629652D1*
X2783904Y622467D1*
X2788657Y617713D1*
X2793465Y615282D1*
X2800595D1*
X2805404Y617713D1*
X2810157Y622467D1*
X2825596Y665522D2*
X2827973Y663145D1*
X2830405Y665522D1*
X2827973Y667953D1*
X2825596Y665522D1*
X2827973Y648775D2*
Y615282D1*
X2853029Y665522D2*
Y624843D1*
X2855405Y617713D1*
X2860214Y615282D1*
X2864967D1*
X2845844Y648775D2*
X2862590D1*
X744554Y2538766D2*
Y2502896D1*
X746931Y2495711D1*
X751739Y2490958D1*
X758924Y2488526D1*
X763677D1*
X770862Y2490958D1*
X775671Y2495711D1*
X778047Y2502896D1*
Y2538766D1*
X793487Y2522019D2*
Y2488526D1*
Y2512457D2*
X800672Y2519642D1*
X805480Y2522019D1*
X812610D1*
X817418Y2519642D1*
X819795Y2512457D1*
Y2488526D1*
X835234Y2538766D2*
X837611Y2536389D1*
X840043Y2538766D1*
X837611Y2541198D1*
X835234Y2538766D1*
X837611Y2522019D2*
Y2488526D1*
X855482Y2522019D2*
X869852Y2488526D1*
X884167Y2522019D1*
X899606Y2507649D2*
X928291D1*
Y2512457D1*
X925914Y2517266D1*
X923538Y2519642D1*
X918729Y2522019D1*
X911544D1*
X906791Y2519642D1*
X901983Y2514834D1*
X899606Y2507649D1*
Y2502896D1*
X901983Y2495711D1*
X906791Y2490958D1*
X911544Y2488526D1*
X918729D1*
X923538Y2490958D1*
X928291Y2495711D1*
X970038Y2514834D2*
X967662Y2519642D1*
X960477Y2522019D1*
X953292D1*
X946107Y2519642D1*
X943730Y2514834D1*
X946107Y2510081D1*
X950915Y2507649D1*
X962853Y2505272D1*
X967662Y2502896D1*
X970038Y2498087D1*
Y2495711D1*
X967662Y2490958D1*
X960477Y2488526D1*
X953292D1*
X946107Y2490958D1*
X943730Y2495711D1*
X1014163Y2522019D2*
Y2488526D1*
Y2514834D2*
X1009409Y2519642D1*
X1004601Y2522019D1*
X997471D1*
X992663Y2519642D1*
X987910Y2514834D1*
X985478Y2507649D1*
Y2502896D1*
X987910Y2495711D1*
X992663Y2490958D1*
X997471Y2488526D1*
X1004601D1*
X1009409Y2490958D1*
X1014163Y2495711D1*
X1029602Y2538766D2*
Y2488526D1*
X1127135Y2531581D2*
X1122382Y2536389D1*
X1115197Y2538766D1*
X1105636D1*
X1098450Y2536389D1*
X1093642Y2531581D1*
Y2526827D1*
X1096074Y2522019D1*
X1098450Y2519642D1*
X1103204Y2517266D1*
X1117574Y2512457D1*
X1122382Y2510081D1*
X1124759Y2507649D1*
X1127135Y2502896D1*
Y2495711D1*
X1122382Y2490958D1*
X1115197Y2488526D1*
X1105636D1*
X1098450Y2490958D1*
X1093642Y2495711D1*
X1142575Y2507649D2*
X1171259D1*
Y2512457D1*
X1168883Y2517266D1*
X1166506Y2519642D1*
X1161698Y2522019D1*
X1154513D1*
X1149760Y2519642D1*
X1144951Y2514834D1*
X1142575Y2507649D1*
Y2502896D1*
X1144951Y2495711D1*
X1149760Y2490958D1*
X1154513Y2488526D1*
X1161698D1*
X1166506Y2490958D1*
X1171259Y2495711D1*
X1186699Y2522019D2*
Y2488526D1*
Y2512457D2*
X1193884Y2519642D1*
X1198692Y2522019D1*
X1205822D1*
X1210630Y2519642D1*
X1213007Y2512457D1*
Y2488526D1*
X1254755Y2514834D2*
X1252378Y2519642D1*
X1245193Y2522019D1*
X1238008D1*
X1230823Y2519642D1*
X1228446Y2514834D1*
X1230823Y2510081D1*
X1235631Y2507649D1*
X1247570Y2505272D1*
X1252378Y2502896D1*
X1254755Y2498087D1*
Y2495711D1*
X1252378Y2490958D1*
X1245193Y2488526D1*
X1238008D1*
X1230823Y2490958D1*
X1228446Y2495711D1*
X1282132Y2522019D2*
X1277379Y2519642D1*
X1272570Y2514834D1*
X1270194Y2507649D1*
Y2502896D1*
X1272570Y2495711D1*
X1277379Y2490958D1*
X1282132Y2488526D1*
X1289317D1*
X1294126Y2490958D1*
X1298879Y2495711D1*
X1301311Y2502896D1*
Y2507649D1*
X1298879Y2514834D1*
X1294126Y2519642D1*
X1289317Y2522019D1*
X1282132D1*
X1316750D2*
Y2488526D1*
Y2507649D2*
X1319182Y2514834D1*
X1323935Y2519642D1*
X1328743Y2522019D1*
X1335928D1*
X1435838Y2526827D2*
X1433462Y2531581D1*
X1428653Y2536389D1*
X1423900Y2538766D1*
X1414339D1*
X1409530Y2536389D1*
X1404777Y2531581D1*
X1402345Y2526827D1*
X1399969Y2519642D1*
Y2507649D1*
X1402345Y2500519D1*
X1404777Y2495711D1*
X1409530Y2490958D1*
X1414339Y2488526D1*
X1423900D1*
X1428653Y2490958D1*
X1433462Y2495711D1*
X1435838Y2500519D1*
X1463216Y2522019D2*
X1458463Y2519642D1*
X1453654Y2514834D1*
X1451278Y2507649D1*
Y2502896D1*
X1453654Y2495711D1*
X1458463Y2490958D1*
X1463216Y2488526D1*
X1470401D1*
X1475209Y2490958D1*
X1479963Y2495711D1*
X1482394Y2502896D1*
Y2507649D1*
X1479963Y2514834D1*
X1475209Y2519642D1*
X1470401Y2522019D1*
X1463216D1*
X1497834D2*
Y2488526D1*
Y2512457D2*
X1505019Y2519642D1*
X1509827Y2522019D1*
X1516957D1*
X1521765Y2519642D1*
X1524142Y2512457D1*
Y2488526D1*
X1546766Y2538766D2*
Y2498087D1*
X1549143Y2490958D1*
X1553951Y2488526D1*
X1558705D1*
X1539581Y2522019D2*
X1556328D1*
X1574144D2*
Y2488526D1*
Y2507649D2*
X1576576Y2514834D1*
X1581329Y2519642D1*
X1586137Y2522019D1*
X1593322D1*
X1620700D2*
X1615947Y2519642D1*
X1611138Y2514834D1*
X1608762Y2507649D1*
Y2502896D1*
X1611138Y2495711D1*
X1615947Y2490958D1*
X1620700Y2488526D1*
X1627885D1*
X1632693Y2490958D1*
X1637446Y2495711D1*
X1639878Y2502896D1*
Y2507649D1*
X1637446Y2514834D1*
X1632693Y2519642D1*
X1627885Y2522019D1*
X1620700D1*
X1655318Y2538766D2*
Y2488526D1*
X1670757Y2538766D2*
Y2488526D1*
X1686196Y2507649D2*
X1714881D1*
Y2512457D1*
X1712504Y2517266D1*
X1710128Y2519642D1*
X1705319Y2522019D1*
X1698134D1*
X1693381Y2519642D1*
X1688573Y2514834D1*
X1686196Y2507649D1*
Y2502896D1*
X1688573Y2495711D1*
X1693381Y2490958D1*
X1698134Y2488526D1*
X1705319D1*
X1710128Y2490958D1*
X1714881Y2495711D1*
X1730320Y2522019D2*
Y2488526D1*
Y2507649D2*
X1732752Y2514834D1*
X1737505Y2519642D1*
X1742314Y2522019D1*
X1749499D1*
X1767370D2*
X1764938Y2519587D1*
X1767370Y2517211D1*
X1769746Y2519587D1*
X1767370Y2522019D1*
Y2493334D2*
X1764938Y2490902D1*
X1767370Y2488526D1*
X1769746Y2490902D1*
X1767370Y2493334D1*
X2319796Y2538766D2*
Y2488526D1*
X2348481D1*
X2394982Y2538766D2*
X2363920D1*
Y2488526D1*
X2394982D1*
X2363920Y2514834D2*
X2383044D1*
X2410421Y2538766D2*
Y2488526D1*
X2427168D1*
X2434353Y2490958D1*
X2439161Y2495711D1*
X2441538Y2500519D1*
X2443914Y2507649D1*
Y2519642D1*
X2441538Y2526827D1*
X2439161Y2531581D1*
X2434353Y2536389D1*
X2427168Y2538766D1*
X2410421D1*
X2507955D2*
Y2488526D1*
X2523394Y2522019D2*
Y2488526D1*
Y2512457D2*
X2530579Y2519642D1*
X2535387Y2522019D1*
X2542517D1*
X2547326Y2519642D1*
X2549702Y2512457D1*
Y2488526D1*
X2572327Y2538766D2*
Y2498087D1*
X2574703Y2490958D1*
X2579512Y2488526D1*
X2584265D1*
X2565141Y2522019D2*
X2581888D1*
X2599704Y2507649D2*
X2628389D1*
Y2512457D1*
X2626012Y2517266D1*
X2623636Y2519642D1*
X2618827Y2522019D1*
X2611642D1*
X2606889Y2519642D1*
X2602081Y2514834D1*
X2599704Y2507649D1*
Y2502896D1*
X2602081Y2495711D1*
X2606889Y2490958D1*
X2611642Y2488526D1*
X2618827D1*
X2623636Y2490958D1*
X2628389Y2495711D1*
X2643828Y2522019D2*
Y2488526D1*
Y2507649D2*
X2646260Y2514834D1*
X2651013Y2519642D1*
X2655822Y2522019D1*
X2663007D1*
X2697569Y2538766D2*
X2692816D1*
X2688008Y2536389D1*
X2685631Y2529204D1*
Y2488526D1*
X2678446Y2522019D2*
X2695193D1*
X2741693D2*
Y2488526D1*
Y2514834D2*
X2736940Y2519642D1*
X2732132Y2522019D1*
X2725002D1*
X2720193Y2519642D1*
X2715440Y2514834D1*
X2713008Y2507649D1*
Y2502896D1*
X2715440Y2495711D1*
X2720193Y2490958D1*
X2725002Y2488526D1*
X2732132D1*
X2736940Y2490958D1*
X2741693Y2495711D1*
X2785873Y2514834D2*
X2781064Y2519642D1*
X2776256Y2522019D1*
X2769126D1*
X2764318Y2519642D1*
X2759564Y2514834D1*
X2757133Y2507649D1*
Y2502896D1*
X2759564Y2495711D1*
X2764318Y2490958D1*
X2769126Y2488526D1*
X2776256D1*
X2781064Y2490958D1*
X2785873Y2495711D1*
X2801312Y2507649D2*
X2829997D1*
Y2512457D1*
X2827620Y2517266D1*
X2825244Y2519642D1*
X2820435Y2522019D1*
X2813250D1*
X2808497Y2519642D1*
X2803689Y2514834D1*
X2801312Y2507649D1*
Y2502896D1*
X2803689Y2495711D1*
X2808497Y2490958D1*
X2813250Y2488526D1*
X2820435D1*
X2825244Y2490958D1*
X2829997Y2495711D1*
X3088208Y768426D2*
X3138448D1*
Y785172D1*
X3136016Y792357D1*
X3131263Y797166D1*
X3126455Y799542D1*
X3119325Y801919D1*
X3107331D1*
X3100146Y799542D1*
X3095393Y797166D1*
X3090585Y792357D1*
X3088208Y785172D1*
Y768426D1*
X3104955Y817358D2*
X3128886D1*
X3136016Y819735D1*
X3138448Y824543D1*
Y831728D1*
X3136016Y836481D1*
X3128886Y843666D1*
X3104955D2*
X3138448D1*
X3104955Y887790D2*
X3138448D1*
X3112140D2*
X3107331Y883037D1*
X3104955Y878229D1*
Y871099D1*
X3107331Y866291D1*
X3112140Y861537D1*
X3119325Y859106D1*
X3124078D1*
X3131263Y861537D1*
X3136016Y866291D1*
X3138448Y871099D1*
Y878229D1*
X3136016Y883037D1*
X3131263Y887790D1*
X3088208Y903230D2*
X3138448D1*
X3097825Y967270D2*
X3095393Y972078D1*
X3088263Y979263D1*
X3138448D1*
Y994703D2*
X3088263Y1028196D1*
Y1058005D2*
X3090640Y1050820D1*
X3097825Y1046012D1*
X3109763Y1043635D1*
X3116948D1*
X3128886Y1046012D1*
X3136071Y1050820D1*
X3138448Y1058005D1*
Y1062758D1*
X3136071Y1069944D1*
X3128886Y1074697D1*
X3116948Y1077129D1*
X3109763D1*
X3097825Y1074697D1*
X3090640Y1069944D1*
X3088263Y1062758D1*
Y1058005D1*
X3097825Y1074697D2*
X3128886Y1046012D1*
X3104955Y1153107D2*
X3107331Y1148354D1*
X3112140Y1143545D1*
X3119325Y1141169D1*
X3124078D1*
X3131263Y1143545D1*
X3136016Y1148354D1*
X3138448Y1153107D1*
Y1160292D1*
X3136016Y1165100D1*
X3131263Y1169854D1*
X3124078Y1172286D1*
X3119325D1*
X3112140Y1169854D1*
X3107331Y1165100D1*
X3104955Y1160292D1*
Y1153107D1*
Y1187725D2*
X3138448D1*
X3119325D2*
X3112140Y1190157D1*
X3107331Y1194910D1*
X3104955Y1199718D1*
Y1206903D1*
X3114516Y1270944D2*
Y1292499D1*
X3112140Y1299628D1*
X3109708Y1302060D1*
X3104955Y1304437D1*
X3097770D1*
X3093017Y1302060D1*
X3090585Y1299628D1*
X3088208Y1292499D1*
Y1270944D1*
X3138448D1*
X3088208Y1319876D2*
X3138448Y1331870D1*
X3088208Y1343808D1*
X3138448Y1355746D1*
X3088208Y1367740D1*
X3138448Y1421425D2*
X3088208D1*
X3138448Y1402302D1*
X3088208Y1383179D1*
X3138448D1*
X3198488Y858386D2*
X3193679Y856009D1*
X3191303Y848824D1*
X3191302Y841639D1*
X3193679Y834454D1*
X3198488Y832078D1*
X3203241Y834454D1*
X3205673Y839263D1*
X3208049Y851201D1*
X3210426Y856009D1*
X3215234Y858386D1*
X3217611D1*
X3222364Y856009D1*
X3224796Y848824D1*
Y841639D1*
X3222364Y834454D1*
X3217611Y832078D1*
X3174556Y873825D2*
X3176932Y876202D1*
X3174556Y878634D1*
X3172124Y876202D1*
X3174556Y873825D1*
X3191303Y876202D2*
X3224796D1*
X3193679Y922758D2*
X3231981D1*
X3239111Y920381D1*
X3241542Y918005D1*
X3243919Y913196D1*
Y906011D1*
X3241542Y901258D1*
X3200864Y922758D2*
X3196111Y918005D1*
X3193679Y913196D1*
Y906011D1*
X3196111Y901258D1*
X3200864Y896450D1*
X3208049Y894073D1*
X3212858D1*
X3219987Y896450D1*
X3224796Y901258D1*
X3227172Y906011D1*
Y913196D1*
X3224796Y918005D1*
X3219987Y922758D1*
X3191303Y938197D2*
X3224796D1*
X3200864D2*
X3193679Y945382D1*
X3191303Y950191D1*
Y957320D1*
X3193679Y962129D1*
X3200864Y964505D1*
X3224796D1*
X3191303Y1008629D2*
X3224796D1*
X3198488D2*
X3193679Y1003876D1*
X3191303Y999068D1*
Y991938D1*
X3193679Y987130D1*
X3198488Y982376D1*
X3205673Y979945D1*
X3210426D1*
X3217611Y982376D1*
X3222364Y987130D1*
X3224796Y991938D1*
Y999068D1*
X3222364Y1003876D1*
X3217611Y1008629D1*
X3174556Y1024069D2*
X3224796D1*
X3191302Y1100047D2*
X3193679Y1095294D1*
X3198488Y1090486D1*
X3205673Y1088109D1*
X3210426D1*
X3217611Y1090486D1*
X3222364Y1095294D1*
X3224796Y1100047D1*
Y1107232D1*
X3222364Y1112041D1*
X3217611Y1116794D1*
X3210426Y1119226D1*
X3205673D1*
X3198488Y1116794D1*
X3193679Y1112041D1*
X3191302Y1107232D1*
Y1100047D1*
Y1134665D2*
X3215234D1*
X3222364Y1137042D1*
X3224796Y1141850D1*
Y1149035D1*
X3222364Y1153788D1*
X3215234Y1160973D1*
X3191302D2*
X3224796D1*
X3174556Y1183598D2*
X3215234D1*
X3222364Y1185974D1*
X3224796Y1190783D1*
Y1195536D1*
X3191302Y1176412D2*
Y1193159D1*
Y1210975D2*
X3241542D1*
X3198488D2*
X3193734Y1215783D1*
X3191302Y1220537D1*
Y1227722D1*
X3193734Y1232530D1*
X3198488Y1237283D1*
X3205673Y1239715D1*
X3210481D1*
X3217611Y1237283D1*
X3222419Y1232530D1*
X3224796Y1227722D1*
Y1220537D1*
X3222419Y1215783D1*
X3217611Y1210975D1*
X3191302Y1255154D2*
X3215234D1*
X3222364Y1257531D1*
X3224796Y1262339D1*
Y1269524D1*
X3222364Y1274278D1*
X3215234Y1281463D1*
X3191302D2*
X3224796D1*
X3174556Y1304087D2*
X3215234D1*
X3222364Y1306464D1*
X3224796Y1311272D1*
Y1316025D1*
X3191302Y1296902D2*
Y1313649D1*
X3198488Y1357773D2*
X3193679Y1355396D1*
X3191302Y1348211D1*
Y1341026D1*
X3193679Y1333841D1*
X3198488Y1331464D1*
X3203241Y1333841D1*
X3205673Y1338649D1*
X3208049Y1350588D1*
X3210426Y1355396D1*
X3215234Y1357773D1*
X3217611D1*
X3222364Y1355396D1*
X3224796Y1348211D1*
Y1341026D1*
X3222364Y1333841D1*
X3217611Y1331464D1*
M02*
