M48
INCH
T01C0.022
T02C0.0315
T03C0.0354
T04C0.0433
T05C0.05
%
T01
X+011416Y+011088
X+011436Y+012687
X+014436Y+012687
X+014416Y+011088
X+014937Y+007437
X+013437Y+005437
X+010437Y+005437
X+008437Y+005937
X+005437Y+005937
X+017937Y+007437
X+018437Y+009437
X+021437Y+009437
X+021437Y+012937
X+018437Y+012937
X+017937Y+015937
X+014937Y+015937
T02
X+010437Y+014937
X+010437Y+015724
X+010437Y+016937
X+010437Y+017724
X+010428Y+013491
X+010428Y+012704
X+010428Y+011916
X+010428Y+011129
X+010428Y+010341
X+015937Y+009937
X+016437Y+009437
X+016437Y+010437
X+016455Y+012975
X+015955Y+013475
X+016455Y+013975
T03
X+008437Y+015437
X+006425Y+015425
X+006425Y+011449
X+008437Y+011461
X+011937Y+014937
X+013437Y+014937
T04
X+012886Y+007785
X+011886Y+007785
X+010886Y+007785
X+007937Y+008437
X+006937Y+008437
X+005937Y+008437
T05
X+021937Y+018437
X+021937Y+004937
X+004937Y+004937
X+004937Y+018437
T00
M30
