G04 DipTrace 3.2.0.1*
G04 TopDimension.gbr*
%MOIN*%
G04 #@! TF.FileFunction,Drawing,Top*
G04 #@! TF.Part,Single*
%ADD13C,0.001378*%
%ADD51C,0.006176*%
%FSLAX26Y26*%
G04*
G70*
G90*
G75*
G01*
G04 TopDimension*
%LPD*%
X393701Y393701D2*
D13*
Y74016D1*
X2293701Y393701D2*
Y74016D1*
X1343701Y93701D2*
X433071D1*
G36*
X393701D2*
X433071Y101575D1*
Y85827D1*
X393701Y93701D1*
G37*
X1343701D2*
D13*
X2254331D1*
G36*
X2293701D2*
X2254331Y85827D1*
Y101575D1*
X2293701Y93701D1*
G37*
Y1943701D2*
D13*
X2613386D1*
X2293701Y393701D2*
X2613386D1*
X2593701Y1168701D2*
Y1904331D1*
G36*
Y1943701D2*
X2601575Y1904331D1*
X2585827D1*
X2593701Y1943701D1*
G37*
Y1168701D2*
D13*
Y433071D1*
G36*
Y393701D2*
X2585827Y433071D1*
X2601575D1*
X2593701Y393701D1*
G37*
X1211833Y105912D2*
D51*
Y146059D1*
X1192688Y119309D1*
X1221384D1*
X1243286Y146059D2*
X1237582Y144158D1*
X1235637Y140356D1*
Y136509D1*
X1237582Y132706D1*
X1241385Y130761D1*
X1249034Y128859D1*
X1254782Y126958D1*
X1258585Y123111D1*
X1260486Y119309D1*
Y113561D1*
X1258585Y109758D1*
X1256683Y107813D1*
X1250935Y105912D1*
X1243286D1*
X1237582Y107813D1*
X1235637Y109758D1*
X1233735Y113561D1*
Y119309D1*
X1235637Y123111D1*
X1239483Y126958D1*
X1245187Y128859D1*
X1252837Y130761D1*
X1256683Y132706D1*
X1258585Y136509D1*
Y140356D1*
X1256683Y144158D1*
X1250935Y146059D1*
X1243286D1*
X1274739Y109758D2*
X1272837Y107813D1*
X1274739Y105912D1*
X1276684Y107813D1*
X1274739Y109758D1*
X1290981Y136509D2*
Y138410D1*
X1292882Y142257D1*
X1294783Y144158D1*
X1298630Y146059D1*
X1306280D1*
X1310082Y144158D1*
X1311983Y142257D1*
X1313929Y138410D1*
Y134607D1*
X1311983Y130761D1*
X1308181Y125057D1*
X1289035Y105912D1*
X1315830D1*
X1351129Y140356D2*
X1349228Y144158D1*
X1343480Y146059D1*
X1339678D1*
X1333930Y144158D1*
X1330083Y138410D1*
X1328181Y128859D1*
Y119309D1*
X1330083Y111660D1*
X1333930Y107813D1*
X1339678Y105912D1*
X1341579D1*
X1347283Y107813D1*
X1351129Y111660D1*
X1353031Y117408D1*
Y119309D1*
X1351129Y125057D1*
X1347283Y128859D1*
X1341579Y130761D1*
X1339678D1*
X1333930Y128859D1*
X1330083Y125057D1*
X1328181Y119309D1*
X1404263Y132706D2*
Y105912D1*
Y125057D2*
X1410011Y130805D1*
X1413858Y132706D1*
X1419561D1*
X1423408Y130805D1*
X1425309Y125057D1*
Y105912D1*
Y125057D2*
X1431057Y130805D1*
X1434904Y132706D1*
X1440608D1*
X1444455Y130805D1*
X1446400Y125057D1*
Y105912D1*
X1458752Y132706D2*
Y105912D1*
Y125057D2*
X1464500Y130805D1*
X1468347Y132706D1*
X1474050D1*
X1477897Y130805D1*
X1479798Y125057D1*
Y105912D1*
Y125057D2*
X1485546Y130805D1*
X1489393Y132706D1*
X1495097D1*
X1498944Y130805D1*
X1500889Y125057D1*
Y105912D1*
X2646059Y1314960D2*
Y1293958D1*
X2630761Y1305410D1*
Y1299662D1*
X2628859Y1295859D1*
X2626958Y1293958D1*
X2621210Y1292012D1*
X2617408D1*
X2611660Y1293958D1*
X2607813Y1297760D1*
X2605912Y1303508D1*
Y1309257D1*
X2607813Y1314960D1*
X2609758Y1316862D1*
X2613561Y1318807D1*
X2632706Y1254768D2*
X2626958Y1256713D1*
X2623111Y1260516D1*
X2621210Y1266264D1*
Y1268165D1*
X2623111Y1273913D1*
X2626958Y1277716D1*
X2632706Y1279661D1*
X2634607D1*
X2640356Y1277716D1*
X2644158Y1273913D1*
X2646059Y1268165D1*
Y1266264D1*
X2644158Y1260516D1*
X2640356Y1256713D1*
X2632706Y1254768D1*
X2623111D1*
X2613561Y1256713D1*
X2607813Y1260516D1*
X2605912Y1266264D1*
Y1270066D1*
X2607813Y1275814D1*
X2611660Y1277716D1*
X2609758Y1240515D2*
X2607813Y1242416D1*
X2605912Y1240515D1*
X2607813Y1238569D1*
X2609758Y1240515D1*
X2646059Y1222371D2*
Y1201369D1*
X2630761Y1212821D1*
Y1207073D1*
X2628859Y1203270D1*
X2626958Y1201369D1*
X2621210Y1199423D1*
X2617408D1*
X2611660Y1201369D1*
X2607813Y1205171D1*
X2605912Y1210919D1*
Y1216667D1*
X2607813Y1222371D1*
X2609758Y1224273D1*
X2613561Y1226218D1*
X2605912Y1179423D2*
X2646059Y1160277D1*
Y1187072D1*
X2632706Y1109045D2*
X2605912D1*
X2625057D2*
X2630805Y1103297D1*
X2632706Y1099450D1*
Y1093747D1*
X2630805Y1089900D1*
X2625057Y1087999D1*
X2605912D1*
X2625057D2*
X2630805Y1082250D1*
X2632706Y1078404D1*
Y1072700D1*
X2630805Y1068853D1*
X2625057Y1066908D1*
X2605912D1*
X2632706Y1054556D2*
X2605912D1*
X2625057D2*
X2630805Y1048808D1*
X2632706Y1044961D1*
Y1039258D1*
X2630805Y1035411D1*
X2625057Y1033510D1*
X2605912D1*
X2625057D2*
X2630805Y1027762D1*
X2632706Y1023915D1*
Y1018211D1*
X2630805Y1014364D1*
X2625057Y1012419D1*
X2605912D1*
M02*
