G04 DipTrace 3.2.0.1*
G04 Bottom.gbl*
%MOIN*%
G04 #@! TF.FileFunction,Copper,L2,Bot*
G04 #@! TF.Part,Single*
G04 #@! TA.AperFunction,Conductor*
%ADD14C,0.012992*%
G04 #@! TA.AperFunction,CopperBalancing*
%ADD15C,0.025*%
G04 #@! TA.AperFunction,ComponentPad*
%ADD16R,0.055118X0.055118*%
%ADD17C,0.055118*%
%ADD18C,0.062992*%
%ADD19R,0.062992X0.062992*%
%ADD20C,0.05*%
%ADD21C,0.05*%
%ADD22R,0.059055X0.059055*%
%ADD23C,0.059055*%
%ADD24C,0.062992*%
%ADD25C,0.129921*%
%ADD26R,0.074803X0.074803*%
%ADD27C,0.074803*%
%ADD28R,0.05X0.05*%
%ADD29C,0.059055*%
%FSLAX26Y26*%
G04*
G70*
G90*
G75*
G01*
G04 Bottom*
%LPD*%
X1993701Y1843701D2*
D14*
X1843701Y1693701D1*
X1693701D1*
X1243701D1*
X1143701Y1493701D2*
Y1506345D1*
X1035894Y1614152D1*
X970100D1*
X887008Y1697244D1*
X2126421Y1541971D2*
X2105660D1*
X2008350Y1444661D1*
X1975411D1*
X1826421Y1541972D2*
Y1535629D1*
X1963184D1*
X1975411Y1523402D1*
X844252Y1360857D2*
X760857D1*
X693701Y1293701D1*
Y643701D1*
X1143701Y1343701D2*
Y943701D1*
X1059043Y859043D1*
Y743701D1*
X1826421Y1441972D2*
X1709390D1*
X1593701Y1326283D1*
Y743701D1*
X1293701D2*
X1159043D1*
X1826421Y1341972D2*
Y1359757D1*
X1969247D1*
X1975411Y1365921D1*
Y1287181D2*
X1973921D1*
X1924706Y1237966D1*
X1836869D1*
X1840875Y1241972D1*
X1826421D1*
X2126421Y741971D2*
X2081409D1*
X1883139Y543701D1*
X1743701D1*
X1643701Y643701D1*
X993701D1*
X893701Y743701D1*
X793701D1*
X553517Y2316962D2*
D15*
X2233889D1*
X558038Y2292093D2*
X1112975D1*
X1174421D2*
X1712994D1*
X1774404D2*
X2229368D1*
X552081Y2267224D2*
X1090368D1*
X1197028D2*
X1690351D1*
X1797047D2*
X2235324D1*
X448089Y2242356D2*
X456747D1*
X530658D2*
X1085200D1*
X1202195D2*
X1685184D1*
X1802214D2*
X2256711D1*
X2330681D2*
X2339317D1*
X448089Y2217487D2*
X1091695D1*
X1195700D2*
X1691679D1*
X1795719D2*
X2339317D1*
X448089Y2192618D2*
X1118214D1*
X1169181D2*
X1277324D1*
X1487295D2*
X1500093D1*
X1587304D2*
X1718197D1*
X1769201D2*
X1825132D1*
X1862285D2*
X2125124D1*
X2162276D2*
X2339317D1*
X448089Y2167749D2*
X1277324D1*
X1605390D2*
X1795671D1*
X1891745D2*
X2095663D1*
X2191737D2*
X2339317D1*
X448089Y2142881D2*
X933195D1*
X1054173D2*
X1277324D1*
X1610090D2*
X1789715D1*
X1897702D2*
X2089706D1*
X2197694D2*
X2339317D1*
X448089Y2118012D2*
X933195D1*
X1054173D2*
X1277324D1*
X1604708D2*
X1796569D1*
X1890812D2*
X2096560D1*
X2190840D2*
X2339317D1*
X448089Y2093143D2*
X933195D1*
X1054173D2*
X1277324D1*
X1485285D2*
X1502139D1*
X1585259D2*
X1831448D1*
X1855969D2*
X2131440D1*
X2155961D2*
X2339317D1*
X448089Y2068274D2*
X933195D1*
X1054173D2*
X2339317D1*
X448089Y2043406D2*
X933195D1*
X1054173D2*
X1165366D1*
X1222039D2*
X2339317D1*
X448089Y2018537D2*
X1141000D1*
X1246404D2*
X2339317D1*
X448089Y1993668D2*
X1135187D1*
X1252218D2*
X1278760D1*
X1308627D2*
X1578751D1*
X1608655D2*
X1765888D1*
X1821520D2*
X2339317D1*
X448089Y1968799D2*
X1141036D1*
X1341174D2*
X1546240D1*
X1641166D2*
X1741127D1*
X1846280D2*
X2339317D1*
X448089Y1943930D2*
X1165473D1*
X1221895D2*
X1239718D1*
X1347705D2*
X1539710D1*
X1647697D2*
X1735171D1*
X1852237D2*
X2339317D1*
X448089Y1919062D2*
X1245997D1*
X1341426D2*
X1545989D1*
X1641417D2*
X1740876D1*
X1846496D2*
X2339317D1*
X448089Y1894193D2*
X1277037D1*
X1310350D2*
X1577029D1*
X1610342D2*
X1764990D1*
X1822417D2*
X2033225D1*
X2154202D2*
X2339317D1*
X448089Y1869324D2*
X2033225D1*
X2154202D2*
X2339317D1*
X448089Y1844455D2*
X1183200D1*
X1304178D2*
X1633224D1*
X1754201D2*
X2033225D1*
X2154202D2*
X2339317D1*
X448089Y1819587D2*
X1183200D1*
X1304178D2*
X1633224D1*
X1754201D2*
X2033225D1*
X2154202D2*
X2339317D1*
X448089Y1794718D2*
X1183200D1*
X1304178D2*
X1633224D1*
X1754201D2*
X2033225D1*
X2154202D2*
X2218064D1*
X2269355D2*
X2339317D1*
X448089Y1769849D2*
X1183200D1*
X1304178D2*
X1633224D1*
X1754201D2*
X2191653D1*
X2295730D2*
X2339317D1*
X448089Y1744980D2*
X1183200D1*
X1304178D2*
X1633224D1*
X1754201D2*
X2185194D1*
X2302189D2*
X2339317D1*
X448089Y1720112D2*
X2190397D1*
X2297021D2*
X2339317D1*
X448089Y1695243D2*
X2213076D1*
X2274307D2*
X2339317D1*
X448089Y1670374D2*
X2339317D1*
X448089Y1645505D2*
X2219894D1*
X2267525D2*
X2339317D1*
X448089Y1620637D2*
X547332D1*
X640069D2*
X2192084D1*
X2295335D2*
X2339317D1*
X448089Y1595768D2*
X539761D1*
X647641D2*
X1767897D1*
X1884927D2*
X2185230D1*
X2302189D2*
X2339317D1*
X448089Y1570899D2*
X545036D1*
X642366D2*
X1767897D1*
X1884927D2*
X1947103D1*
X2003704D2*
X2190039D1*
X2297380D2*
X2339317D1*
X448089Y1546030D2*
X571734D1*
X615668D2*
X971196D1*
X1016207D2*
X1767897D1*
X2026993D2*
X2211784D1*
X2275634D2*
X2339317D1*
X448089Y1521161D2*
X539725D1*
X647677D2*
X942381D1*
X1045022D2*
X1767897D1*
X2031909D2*
X2339317D1*
X448089Y1496293D2*
X539725D1*
X647677D2*
X935240D1*
X1052163D2*
X1421902D1*
X1465513D2*
X1485166D1*
X1602232D2*
X1698497D1*
X1731810D2*
X1767897D1*
X1884927D2*
X1926146D1*
X2024660D2*
X2110232D1*
X2142612D2*
X2339317D1*
X448089Y1471424D2*
X539725D1*
X647677D2*
X939798D1*
X1047606D2*
X1392513D1*
X1602232D2*
X1664909D1*
X1876566D2*
X1958083D1*
X1992724D2*
X2076286D1*
X2176558D2*
X2339317D1*
X448089Y1446555D2*
X539725D1*
X647677D2*
X960933D1*
X1026470D2*
X1385264D1*
X1602232D2*
X1656800D1*
X1884748D2*
X2068104D1*
X2184740D2*
X2339317D1*
X448089Y1421686D2*
X1389678D1*
X1602232D2*
X1639934D1*
X1881124D2*
X2071693D1*
X2181151D2*
X2339317D1*
X448089Y1396818D2*
X504881D1*
X583623D2*
X804909D1*
X883615D2*
X1123417D1*
X1164014D2*
X1410526D1*
X1476853D2*
X1485166D1*
X1602232D2*
X1615066D1*
X1750649D2*
X1790755D1*
X1862069D2*
X1928551D1*
X2022256D2*
X2090747D1*
X2162061D2*
X2339317D1*
X448089Y1371949D2*
X491461D1*
X597044D2*
X722806D1*
X897036D2*
X1092808D1*
X1194587D2*
X1590199D1*
X1688533D2*
X1776581D1*
X2031622D2*
X2076609D1*
X2176235D2*
X2339317D1*
X448089Y1347080D2*
X492142D1*
X596362D2*
X697938D1*
X896354D2*
X1085272D1*
X1202123D2*
X1565582D1*
X1663666D2*
X1768148D1*
X2028572D2*
X2068140D1*
X2184704D2*
X2339317D1*
X448089Y1322211D2*
X507716D1*
X580788D2*
X673071D1*
X771369D2*
X807708D1*
X880780D2*
X1089471D1*
X1197925D2*
X1558226D1*
X1638798D2*
X1771485D1*
X1881339D2*
X1918862D1*
X2031945D2*
X2071513D1*
X2181331D2*
X2339317D1*
X448089Y1297343D2*
X658430D1*
X746502D2*
X1108202D1*
X1179193D2*
X1558226D1*
X1629181D2*
X1790073D1*
X1862787D2*
X1918862D1*
X2031945D2*
X2090065D1*
X2162779D2*
X2339317D1*
X448089Y1272474D2*
X486473D1*
X599592D2*
X658214D1*
X729205D2*
X1108202D1*
X1179193D2*
X1558226D1*
X1629181D2*
X1776940D1*
X1875921D2*
X1910070D1*
X2031945D2*
X2076932D1*
X2175912D2*
X2339317D1*
X448089Y1247605D2*
X486473D1*
X599592D2*
X658214D1*
X729205D2*
X1108202D1*
X1179193D2*
X1558226D1*
X1629181D2*
X1768184D1*
X2031945D2*
X2068176D1*
X2184668D2*
X2339317D1*
X448089Y1222736D2*
X486473D1*
X599592D2*
X658214D1*
X729205D2*
X1108202D1*
X1179193D2*
X1558226D1*
X1629181D2*
X1771306D1*
X1958634D2*
X2071298D1*
X2181546D2*
X2339317D1*
X448089Y1197867D2*
X486473D1*
X599592D2*
X658214D1*
X729205D2*
X1108202D1*
X1179193D2*
X1558226D1*
X1629181D2*
X1789392D1*
X1863469D2*
X2089383D1*
X2163461D2*
X2339317D1*
X448089Y1172999D2*
X487693D1*
X598372D2*
X658214D1*
X729205D2*
X1108202D1*
X1179193D2*
X1558226D1*
X1629181D2*
X1777263D1*
X1875562D2*
X2077290D1*
X2175553D2*
X2339317D1*
X448089Y1148130D2*
X488195D1*
X597869D2*
X658214D1*
X729205D2*
X1108202D1*
X1179193D2*
X1558226D1*
X1629181D2*
X1768256D1*
X1884605D2*
X2068248D1*
X2184596D2*
X2339317D1*
X448089Y1123261D2*
X502477D1*
X583587D2*
X658214D1*
X729205D2*
X1108202D1*
X1179193D2*
X1558226D1*
X1629181D2*
X1771127D1*
X1881734D2*
X2071118D1*
X2181726D2*
X2339317D1*
X448089Y1098392D2*
X488769D1*
X597331D2*
X658214D1*
X729205D2*
X1108202D1*
X1179193D2*
X1558226D1*
X1629181D2*
X1788710D1*
X1864115D2*
X2088738D1*
X2164106D2*
X2229081D1*
X2258338D2*
X2339317D1*
X448089Y1073524D2*
X487298D1*
X598766D2*
X658214D1*
X729205D2*
X1108202D1*
X1179193D2*
X1558226D1*
X1629181D2*
X1777622D1*
X1875203D2*
X2077649D1*
X2175195D2*
X2193771D1*
X2293612D2*
X2339317D1*
X448089Y1048655D2*
X498709D1*
X587355D2*
X658214D1*
X729205D2*
X1108202D1*
X1179193D2*
X1558226D1*
X1629181D2*
X1768292D1*
X1884533D2*
X2068319D1*
X2302009D2*
X2339317D1*
X448089Y1023786D2*
X490169D1*
X595896D2*
X658214D1*
X729205D2*
X1108202D1*
X1179193D2*
X1558226D1*
X1629181D2*
X1770947D1*
X1881913D2*
X2070939D1*
X2298564D2*
X2339317D1*
X448089Y998917D2*
X486724D1*
X599341D2*
X658214D1*
X729205D2*
X1108202D1*
X1179193D2*
X1558226D1*
X1629181D2*
X1788064D1*
X1864761D2*
X2088092D1*
X2164752D2*
X2207550D1*
X2279869D2*
X2339317D1*
X448089Y974049D2*
X495623D1*
X590441D2*
X658214D1*
X729205D2*
X1108202D1*
X1179193D2*
X1558226D1*
X1629181D2*
X1777981D1*
X1874844D2*
X2078008D1*
X2174836D2*
X2339317D1*
X448089Y949180D2*
X491999D1*
X594066D2*
X658214D1*
X729205D2*
X1100021D1*
X1179193D2*
X1558226D1*
X1629181D2*
X1768364D1*
X1884461D2*
X2068355D1*
X2184489D2*
X2339317D1*
X448089Y924311D2*
X486509D1*
X599592D2*
X658214D1*
X729205D2*
X1075153D1*
X1172878D2*
X1558226D1*
X1629181D2*
X1770768D1*
X1882093D2*
X2070760D1*
X2182084D2*
X2196641D1*
X2290742D2*
X2339317D1*
X448089Y899442D2*
X493111D1*
X592953D2*
X658214D1*
X729205D2*
X1050285D1*
X1148584D2*
X1558226D1*
X1629181D2*
X1787454D1*
X1865371D2*
X2087446D1*
X2165398D2*
X2187455D1*
X2299964D2*
X2339317D1*
X448089Y874574D2*
X494260D1*
X591841D2*
X658214D1*
X729205D2*
X1027427D1*
X1123716D2*
X1558226D1*
X1629181D2*
X1778375D1*
X1874485D2*
X2078367D1*
X2174477D2*
X2190649D1*
X2296770D2*
X2339317D1*
X448089Y849705D2*
X486580D1*
X599484D2*
X658214D1*
X729205D2*
X1023551D1*
X1098848D2*
X1558226D1*
X1629181D2*
X1659742D1*
X1884389D2*
X2068427D1*
X2184417D2*
X2199799D1*
X2287620D2*
X2339317D1*
X448089Y824836D2*
X491102D1*
X594963D2*
X658214D1*
X729205D2*
X1023551D1*
X1094542D2*
X1558226D1*
X1629181D2*
X1659742D1*
X1882272D2*
X2070580D1*
X2299354D2*
X2339317D1*
X448089Y799967D2*
X496987D1*
X589078D2*
X658214D1*
X729205D2*
X1023551D1*
X1094542D2*
X1558226D1*
X1629181D2*
X1659742D1*
X1772861D2*
X1786844D1*
X1865981D2*
X2086872D1*
X2165972D2*
X2189285D1*
X2298134D2*
X2339317D1*
X448089Y775098D2*
X486975D1*
X599125D2*
X658214D1*
X729205D2*
X744803D1*
X906330D2*
X1005035D1*
X1337012D2*
X1550403D1*
X1637004D2*
X1659742D1*
X1874090D2*
X2078762D1*
X2174082D2*
X2203639D1*
X2283744D2*
X2339317D1*
X448089Y750230D2*
X489451D1*
X596613D2*
X658214D1*
X936329D2*
X1005035D1*
X1347275D2*
X1540140D1*
X1647267D2*
X1660855D1*
X1884317D2*
X2040509D1*
X2298421D2*
X2339317D1*
X448089Y725361D2*
X507214D1*
X578851D2*
X658214D1*
X729205D2*
X738272D1*
X961197D2*
X1005035D1*
X1344332D2*
X1543083D1*
X1644324D2*
X1661608D1*
X1882416D2*
X2015641D1*
X2299139D2*
X2339317D1*
X448089Y700492D2*
X658214D1*
X729205D2*
X755532D1*
X831870D2*
X887766D1*
X986064D2*
X1005035D1*
X1113023D2*
X1128548D1*
X1189564D2*
X1263186D1*
X1324201D2*
X1563178D1*
X1624193D2*
X1676285D1*
X1756354D2*
X1786270D1*
X1866591D2*
X1990774D1*
X2166582D2*
X2187132D1*
X2300251D2*
X2339317D1*
X448089Y675623D2*
X645153D1*
X742231D2*
X912633D1*
X1654515D2*
X1779129D1*
X1873696D2*
X1965906D1*
X2064205D2*
X2079121D1*
X2173723D2*
X2187132D1*
X2300251D2*
X2339317D1*
X448089Y650755D2*
X635643D1*
X751777D2*
X937501D1*
X1685806D2*
X1768579D1*
X1884246D2*
X1941038D1*
X2039337D2*
X2068607D1*
X2300251D2*
X2339317D1*
X448089Y625886D2*
X638083D1*
X749301D2*
X962369D1*
X1710674D2*
X1770265D1*
X1882595D2*
X1916171D1*
X2014469D2*
X2070257D1*
X2300251D2*
X2339317D1*
X448089Y601017D2*
X654913D1*
X732471D2*
X1637243D1*
X1735542D2*
X1785696D1*
X1867129D2*
X1891303D1*
X1989602D2*
X2085687D1*
X2167157D2*
X2339317D1*
X448089Y576148D2*
X1662110D1*
X1964734D2*
X2339317D1*
X448089Y551280D2*
X468638D1*
X518781D2*
X1686978D1*
X1939866D2*
X2268625D1*
X2318767D2*
X2339317D1*
X548672Y526411D2*
X1711846D1*
X1914998D2*
X2238698D1*
X557536Y501542D2*
X2229870D1*
X555670Y476673D2*
X2231736D1*
X541675Y451805D2*
X2245695D1*
X2023484Y1341232D2*
X2029462D1*
Y1233130D1*
X1966557D1*
X1946130Y1212881D1*
X1941942Y1209839D1*
X1937330Y1207489D1*
X1932407Y1205889D1*
X1927294Y1205079D1*
X1868476Y1204978D1*
X1862803Y1199375D1*
X1855691Y1194208D1*
X1851854Y1191885D1*
X1859349Y1187292D1*
X1866033Y1181583D1*
X1871742Y1174899D1*
X1876335Y1167404D1*
X1879699Y1159282D1*
X1881751Y1150735D1*
X1882441Y1141971D1*
X1881751Y1133208D1*
X1879699Y1124660D1*
X1876335Y1116539D1*
X1871742Y1109044D1*
X1866033Y1102359D1*
X1859349Y1096650D1*
X1851682Y1091978D1*
X1859349Y1087292D1*
X1866033Y1081583D1*
X1871742Y1074899D1*
X1876335Y1067404D1*
X1879699Y1059282D1*
X1881751Y1050735D1*
X1882441Y1041971D1*
X1881751Y1033208D1*
X1879699Y1024660D1*
X1876335Y1016539D1*
X1871742Y1009044D1*
X1866033Y1002359D1*
X1859349Y996650D1*
X1851682Y991978D1*
X1859349Y987293D1*
X1866033Y981584D1*
X1871742Y974900D1*
X1876335Y967405D1*
X1879699Y959283D1*
X1881751Y950736D1*
X1882441Y941972D1*
X1881751Y933209D1*
X1879699Y924661D1*
X1876335Y916540D1*
X1871742Y909045D1*
X1866033Y902361D1*
X1859349Y896652D1*
X1851682Y891979D1*
X1859349Y887292D1*
X1866033Y881583D1*
X1871742Y874899D1*
X1876335Y867404D1*
X1879699Y859282D1*
X1881751Y850735D1*
X1882441Y841971D1*
X1881751Y833208D1*
X1879699Y824660D1*
X1876335Y816539D1*
X1871742Y809044D1*
X1866033Y802359D1*
X1859349Y796650D1*
X1851682Y791978D1*
X1859349Y787292D1*
X1866033Y781583D1*
X1871742Y774899D1*
X1876335Y767404D1*
X1879699Y759282D1*
X1881751Y750735D1*
X1882441Y741971D1*
X1881751Y733208D1*
X1879699Y724660D1*
X1876335Y716539D1*
X1871742Y709044D1*
X1866033Y702359D1*
X1859349Y696650D1*
X1851682Y691978D1*
X1859349Y687293D1*
X1866033Y681584D1*
X1871742Y674900D1*
X1876335Y667405D1*
X1879699Y659283D1*
X1881751Y650736D1*
X1882441Y641972D1*
X1881751Y633209D1*
X1879699Y624661D1*
X1876335Y616540D1*
X1871742Y609045D1*
X1866033Y602361D1*
X1859349Y596652D1*
X1851854Y592059D1*
X1843732Y588695D1*
X1835185Y586642D1*
X1826421Y585953D1*
X1817658Y586642D1*
X1809110Y588695D1*
X1800989Y592059D1*
X1793494Y596652D1*
X1786809Y602361D1*
X1781100Y609045D1*
X1776507Y616540D1*
X1773143Y624661D1*
X1771091Y633209D1*
X1770402Y641972D1*
X1771091Y650736D1*
X1773143Y659283D1*
X1776507Y667405D1*
X1781100Y674900D1*
X1786809Y681584D1*
X1793494Y687293D1*
X1801160Y691965D1*
X1793494Y696650D1*
X1786809Y702359D1*
X1781100Y709044D1*
X1776507Y716539D1*
X1773143Y724660D1*
X1771091Y733208D1*
X1770402Y741971D1*
X1771091Y750735D1*
X1773143Y759282D1*
X1776507Y767404D1*
X1781100Y774899D1*
X1786809Y781583D1*
X1793494Y787292D1*
X1801160Y791964D1*
X1793494Y796650D1*
X1786809Y802359D1*
X1781100Y809044D1*
X1776507Y816539D1*
X1773143Y824660D1*
X1771091Y833208D1*
X1770402Y841971D1*
X1771091Y850735D1*
X1773143Y859282D1*
X1776507Y867404D1*
X1781100Y874899D1*
X1786809Y881583D1*
X1793494Y887292D1*
X1801160Y891964D1*
X1793494Y896652D1*
X1786809Y902361D1*
X1781100Y909045D1*
X1776507Y916540D1*
X1773143Y924661D1*
X1771091Y933209D1*
X1770402Y941972D1*
X1771091Y950736D1*
X1773143Y959283D1*
X1776507Y967405D1*
X1781100Y974900D1*
X1786809Y981584D1*
X1793494Y987293D1*
X1801160Y991965D1*
X1793494Y996650D1*
X1786809Y1002359D1*
X1781100Y1009044D1*
X1776507Y1016539D1*
X1773143Y1024660D1*
X1771091Y1033208D1*
X1770402Y1041971D1*
X1771091Y1050735D1*
X1773143Y1059282D1*
X1776507Y1067404D1*
X1781100Y1074899D1*
X1786809Y1081583D1*
X1793494Y1087292D1*
X1801160Y1091964D1*
X1793494Y1096650D1*
X1786809Y1102359D1*
X1781100Y1109044D1*
X1776507Y1116539D1*
X1773143Y1124660D1*
X1771091Y1133208D1*
X1770402Y1141971D1*
X1771091Y1150735D1*
X1773143Y1159282D1*
X1776507Y1167404D1*
X1781100Y1174899D1*
X1786809Y1181583D1*
X1793494Y1187292D1*
X1801160Y1191964D1*
X1793494Y1196652D1*
X1786809Y1202361D1*
X1781100Y1209045D1*
X1776507Y1216540D1*
X1773143Y1224661D1*
X1771091Y1233209D1*
X1770402Y1241972D1*
X1771091Y1250736D1*
X1773143Y1259283D1*
X1776507Y1267405D1*
X1781100Y1274900D1*
X1786809Y1281584D1*
X1793494Y1287293D1*
X1801160Y1291965D1*
X1793494Y1296652D1*
X1786809Y1302361D1*
X1781100Y1309045D1*
X1776507Y1316540D1*
X1773143Y1324661D1*
X1771091Y1333209D1*
X1770402Y1341972D1*
X1771091Y1350736D1*
X1773143Y1359283D1*
X1776507Y1367405D1*
X1781100Y1374900D1*
X1786809Y1381584D1*
X1793494Y1387293D1*
X1801160Y1391965D1*
X1793494Y1396652D1*
X1786809Y1402361D1*
X1781154Y1408977D1*
X1760358Y1408984D1*
X1754764Y1402477D1*
X1748080Y1396768D1*
X1740585Y1392175D1*
X1732463Y1388811D1*
X1723916Y1386759D1*
X1715152Y1386070D1*
X1706389Y1386759D1*
X1701760Y1387706D1*
X1626678Y1312609D1*
X1626689Y783248D1*
X1632856Y777142D1*
X1637605Y770605D1*
X1641273Y763406D1*
X1643770Y755721D1*
X1645034Y747741D1*
Y739661D1*
X1643770Y731680D1*
X1641273Y723996D1*
X1637605Y716796D1*
X1632856Y710259D1*
X1627142Y704546D1*
X1620605Y699797D1*
X1613406Y696128D1*
X1605721Y693631D1*
X1597741Y692367D1*
X1589661D1*
X1581680Y693631D1*
X1573996Y696128D1*
X1566796Y699797D1*
X1560259Y704546D1*
X1554546Y710259D1*
X1549797Y716796D1*
X1546128Y723996D1*
X1543631Y731680D1*
X1542367Y739661D1*
Y747741D1*
X1543631Y755721D1*
X1546128Y763406D1*
X1549797Y770605D1*
X1554546Y777142D1*
X1560718Y783217D1*
X1560814Y1328872D1*
X1561624Y1333984D1*
X1563224Y1338908D1*
X1565574Y1343520D1*
X1568616Y1347708D1*
X1615845Y1395080D1*
X1659260Y1438495D1*
X1659305Y1446484D1*
X1660680Y1455167D1*
X1663397Y1463527D1*
X1667388Y1471359D1*
X1672555Y1478471D1*
X1678770Y1484687D1*
X1685882Y1489854D1*
X1693714Y1493845D1*
X1702075Y1496561D1*
X1710757Y1497936D1*
X1719547D1*
X1728230Y1496561D1*
X1736590Y1493845D1*
X1744422Y1489854D1*
X1751534Y1484687D1*
X1757750Y1478471D1*
X1760502Y1474974D1*
X1781122Y1474961D1*
X1786809Y1481584D1*
X1791780Y1485942D1*
X1770402Y1485953D1*
Y1597992D1*
X1882441D1*
Y1568603D1*
X1945808Y1568617D1*
X1950872Y1571562D1*
X1958708Y1574807D1*
X1966955Y1576787D1*
X1975411Y1577453D1*
X1983866Y1576787D1*
X1992113Y1574807D1*
X1999949Y1571562D1*
X2007181Y1567130D1*
X2013631Y1561622D1*
X2019139Y1555172D1*
X2023571Y1547940D1*
X2026816Y1540104D1*
X2028796Y1531857D1*
X2029462Y1523402D1*
X2028796Y1514946D1*
X2026816Y1506699D1*
X2023571Y1498863D1*
X2019139Y1491631D1*
X2013631Y1485182D1*
X2007181Y1479673D1*
X1999949Y1475242D1*
X1992113Y1471996D1*
X1983866Y1470016D1*
X1975411Y1469350D1*
X1966955Y1470016D1*
X1958708Y1471996D1*
X1950872Y1475242D1*
X1943640Y1479673D1*
X1937191Y1485182D1*
X1931682Y1491631D1*
X1927251Y1498863D1*
X1925509Y1502642D1*
X1882408Y1502640D1*
X1882441Y1485953D1*
X1861090D1*
X1866033Y1481584D1*
X1871742Y1474900D1*
X1876335Y1467405D1*
X1879699Y1459283D1*
X1881751Y1450736D1*
X1882441Y1441972D1*
X1881751Y1433209D1*
X1879699Y1424661D1*
X1876335Y1416540D1*
X1871742Y1409045D1*
X1866033Y1402361D1*
X1859349Y1396652D1*
X1853068Y1392739D1*
X1928512Y1392745D1*
X1931682Y1397692D1*
X1937191Y1404141D1*
X1943640Y1409650D1*
X1950872Y1414081D1*
X1958708Y1417327D1*
X1966955Y1419307D1*
X1975411Y1419972D1*
X1983866Y1419307D1*
X1992113Y1417327D1*
X1999949Y1414081D1*
X2007181Y1409650D1*
X2013631Y1404141D1*
X2019139Y1397692D1*
X2023571Y1390460D1*
X2026816Y1382624D1*
X2028796Y1374377D1*
X2029462Y1365921D1*
X2028796Y1357466D1*
X2026816Y1349219D1*
X2023482Y1341223D1*
X1921360Y1281251D2*
Y1326752D1*
X1880362Y1326769D1*
X1878177Y1320535D1*
X1874186Y1312702D1*
X1869019Y1305591D1*
X1862803Y1299375D1*
X1855691Y1294208D1*
X1851854Y1291886D1*
X1859349Y1287293D1*
X1866033Y1281584D1*
X1871742Y1274900D1*
X1874345Y1270958D1*
X1911041Y1270954D1*
X1921349Y1281261D1*
X2291774Y711531D2*
X2297752D1*
Y603429D1*
X2189650D1*
Y711531D1*
X2195541Y711682D1*
X2192295Y719518D1*
X2190315Y727765D1*
X2189650Y736220D1*
X2190315Y744676D1*
X2192295Y752923D1*
X2195541Y760759D1*
X2199972Y767991D1*
X2205481Y774440D1*
X2206686Y775555D1*
X2202600Y779857D1*
X2197615Y786719D1*
X2193764Y794276D1*
X2191143Y802343D1*
X2189816Y810720D1*
Y819201D1*
X2191143Y827579D1*
X2193764Y835645D1*
X2197615Y843202D1*
X2202600Y850064D1*
X2206686Y854295D1*
X2202600Y858597D1*
X2197615Y865459D1*
X2193764Y873016D1*
X2191143Y881083D1*
X2189816Y889460D1*
Y897942D1*
X2191143Y906319D1*
X2193764Y914385D1*
X2197615Y921942D1*
X2202600Y928804D1*
X2208597Y934802D1*
X2215459Y939787D1*
X2223016Y943638D1*
X2231083Y946259D1*
X2239460Y947585D1*
X2247942D1*
X2256319Y946259D1*
X2264385Y943638D1*
X2271942Y939787D1*
X2278804Y934802D1*
X2284802Y928804D1*
X2289787Y921942D1*
X2293638Y914385D1*
X2296259Y906319D1*
X2297585Y897942D1*
Y889460D1*
X2296259Y881083D1*
X2293638Y873016D1*
X2289787Y865459D1*
X2284802Y858597D1*
X2280716Y854367D1*
X2284802Y850064D1*
X2289787Y843202D1*
X2293638Y835645D1*
X2296259Y827579D1*
X2297585Y819201D1*
Y810720D1*
X2296259Y802343D1*
X2293638Y794276D1*
X2289787Y786719D1*
X2284802Y779857D1*
X2280716Y775627D1*
X2284802Y771324D1*
X2289787Y764462D1*
X2293638Y756905D1*
X2296259Y748838D1*
X2297585Y740461D1*
Y731980D1*
X2296259Y723602D1*
X2293638Y715536D1*
X2291772Y711523D1*
X1194899Y1851689D2*
X1301689D1*
Y1735713D1*
X1185713D1*
Y1851689D1*
X1194899D1*
X1895034Y2139661D2*
X1893770Y2131680D1*
X1891273Y2123996D1*
X1887605Y2116796D1*
X1882856Y2110259D1*
X1877142Y2104546D1*
X1870605Y2099797D1*
X1863406Y2096128D1*
X1855721Y2093631D1*
X1847741Y2092367D1*
X1839661D1*
X1831680Y2093631D1*
X1823996Y2096128D1*
X1816796Y2099797D1*
X1810259Y2104546D1*
X1804546Y2110259D1*
X1799797Y2116796D1*
X1796128Y2123996D1*
X1793631Y2131680D1*
X1792367Y2139661D1*
Y2147741D1*
X1793631Y2155721D1*
X1796128Y2163406D1*
X1799797Y2170605D1*
X1804546Y2177142D1*
X1810259Y2182856D1*
X1816796Y2187605D1*
X1823996Y2191273D1*
X1831680Y2193770D1*
X1839661Y2195034D1*
X1847741D1*
X1855721Y2193770D1*
X1863406Y2191273D1*
X1870605Y2187605D1*
X1877142Y2182856D1*
X1882856Y2177142D1*
X1887605Y2170605D1*
X1891273Y2163406D1*
X1893770Y2155721D1*
X1895034Y2147741D1*
Y2139661D1*
X2195034D2*
X2193770Y2131680D1*
X2191273Y2123996D1*
X2187605Y2116796D1*
X2182856Y2110259D1*
X2177142Y2104546D1*
X2170605Y2099797D1*
X2163406Y2096128D1*
X2155721Y2093631D1*
X2147741Y2092367D1*
X2139661D1*
X2131680Y2093631D1*
X2123996Y2096128D1*
X2116796Y2099797D1*
X2110259Y2104546D1*
X2104546Y2110259D1*
X2099797Y2116796D1*
X2096128Y2123996D1*
X2093631Y2131680D1*
X2092367Y2139661D1*
Y2147741D1*
X2093631Y2155721D1*
X2096128Y2163406D1*
X2099797Y2170605D1*
X2104546Y2177142D1*
X2110259Y2182856D1*
X2116796Y2187605D1*
X2123996Y2191273D1*
X2131680Y2193770D1*
X2139661Y2195034D1*
X2147741D1*
X2155721Y2193770D1*
X2163406Y2191273D1*
X2170605Y2187605D1*
X2177142Y2182856D1*
X2182856Y2177142D1*
X2187605Y2170605D1*
X2191273Y2163406D1*
X2193770Y2155721D1*
X2195034Y2147741D1*
Y2139661D1*
X2044899Y1901689D2*
X2151689D1*
Y1785713D1*
X2035713D1*
Y1901689D1*
X2044899D1*
X1645034Y1939661D2*
X1643770Y1931680D1*
X1641273Y1923996D1*
X1637605Y1916796D1*
X1632856Y1910259D1*
X1627142Y1904546D1*
X1620605Y1899797D1*
X1613406Y1896128D1*
X1605721Y1893631D1*
X1597741Y1892367D1*
X1589661D1*
X1581680Y1893631D1*
X1573996Y1896128D1*
X1566796Y1899797D1*
X1560259Y1904546D1*
X1554546Y1910259D1*
X1549797Y1916796D1*
X1546128Y1923996D1*
X1543631Y1931680D1*
X1542367Y1939661D1*
Y1947741D1*
X1543631Y1955721D1*
X1546128Y1963406D1*
X1549797Y1970605D1*
X1554546Y1977142D1*
X1560259Y1982856D1*
X1566796Y1987605D1*
X1573996Y1991273D1*
X1581680Y1993770D1*
X1589661Y1995034D1*
X1597741D1*
X1605721Y1993770D1*
X1613406Y1991273D1*
X1620605Y1987605D1*
X1627142Y1982856D1*
X1632856Y1977142D1*
X1637605Y1970605D1*
X1641273Y1963406D1*
X1643770Y1955721D1*
X1645034Y1947741D1*
Y1939661D1*
X1345034D2*
X1343770Y1931680D1*
X1341273Y1923996D1*
X1337605Y1916796D1*
X1332856Y1910259D1*
X1327142Y1904546D1*
X1320605Y1899797D1*
X1313406Y1896128D1*
X1305721Y1893631D1*
X1297741Y1892367D1*
X1289661D1*
X1281680Y1893631D1*
X1273996Y1896128D1*
X1266796Y1899797D1*
X1260259Y1904546D1*
X1254546Y1910259D1*
X1249797Y1916796D1*
X1246128Y1923996D1*
X1243631Y1931680D1*
X1242367Y1939661D1*
Y1947741D1*
X1243631Y1955721D1*
X1246128Y1963406D1*
X1249797Y1970605D1*
X1254546Y1977142D1*
X1260259Y1982856D1*
X1266796Y1987605D1*
X1273996Y1991273D1*
X1281680Y1993770D1*
X1289661Y1995034D1*
X1297741D1*
X1305721Y1993770D1*
X1313406Y1991273D1*
X1320605Y1987605D1*
X1327142Y1982856D1*
X1332856Y1977142D1*
X1337605Y1970605D1*
X1341273Y1963406D1*
X1343770Y1955721D1*
X1345034Y1947741D1*
Y1939661D1*
Y739661D2*
X1343770Y731680D1*
X1341273Y723996D1*
X1337605Y716796D1*
X1332856Y710259D1*
X1327142Y704546D1*
X1320605Y699797D1*
X1313406Y696128D1*
X1305721Y693631D1*
X1297741Y692367D1*
X1289661D1*
X1281680Y693631D1*
X1273996Y696128D1*
X1266796Y699797D1*
X1260259Y704546D1*
X1254184Y710718D1*
X1198572Y710713D1*
X1192485Y704546D1*
X1185948Y699797D1*
X1178748Y696128D1*
X1171064Y693631D1*
X1163083Y692367D1*
X1155003D1*
X1147023Y693631D1*
X1139338Y696128D1*
X1132139Y699797D1*
X1125602Y704546D1*
X1119888Y710259D1*
X1115139Y716796D1*
X1111471Y723996D1*
X1110536Y726529D1*
Y692208D1*
X1007551D1*
Y795193D1*
X1026032D1*
X1026157Y861632D1*
X1026967Y866744D1*
X1028566Y871667D1*
X1030916Y876280D1*
X1033959Y880467D1*
X1081187Y927840D1*
X1110697Y957350D1*
X1110712Y1298416D1*
X1104089Y1304089D1*
X1098380Y1310773D1*
X1093787Y1318268D1*
X1090423Y1326390D1*
X1088371Y1334937D1*
X1087681Y1343701D1*
X1088371Y1352464D1*
X1090423Y1361012D1*
X1093787Y1369133D1*
X1098380Y1376628D1*
X1104089Y1383313D1*
X1110773Y1389022D1*
X1118268Y1393615D1*
X1126390Y1396979D1*
X1134937Y1399031D1*
X1143701Y1399720D1*
X1152464Y1399031D1*
X1161012Y1396979D1*
X1169133Y1393615D1*
X1176628Y1389022D1*
X1183313Y1383313D1*
X1189022Y1376628D1*
X1193615Y1369133D1*
X1196979Y1361012D1*
X1199031Y1352464D1*
X1199720Y1343701D1*
X1199031Y1334937D1*
X1196979Y1326390D1*
X1193615Y1318268D1*
X1189022Y1310773D1*
X1183313Y1304089D1*
X1176696Y1298433D1*
X1176587Y941113D1*
X1175778Y936000D1*
X1174178Y931077D1*
X1171828Y926464D1*
X1168785Y922277D1*
X1121557Y874904D1*
X1092047Y845395D1*
X1092032Y795205D1*
X1110536Y795193D1*
Y760995D1*
X1113163Y767078D1*
X1117385Y773967D1*
X1122633Y780111D1*
X1128777Y785359D1*
X1135666Y789581D1*
X1143131Y792673D1*
X1150988Y794559D1*
X1159043Y795193D1*
X1167098Y794559D1*
X1174955Y792673D1*
X1182420Y789581D1*
X1189310Y785359D1*
X1195454Y780111D1*
X1198560Y776683D1*
X1254172Y776689D1*
X1260259Y782856D1*
X1266796Y787605D1*
X1273996Y791273D1*
X1281680Y793770D1*
X1289661Y795034D1*
X1297741D1*
X1305721Y793770D1*
X1313406Y791273D1*
X1320605Y787605D1*
X1327142Y782856D1*
X1332856Y777142D1*
X1337605Y770605D1*
X1341273Y763406D1*
X1343770Y755721D1*
X1345034Y747741D1*
Y739661D1*
X595585Y1356817D2*
X594321Y1348836D1*
X591824Y1341152D1*
X588156Y1333952D1*
X583407Y1327415D1*
X577693Y1321702D1*
X571157Y1316953D1*
X563957Y1313284D1*
X556273Y1310788D1*
X548292Y1309524D1*
X540212D1*
X532231Y1310788D1*
X524547Y1313284D1*
X517347Y1316953D1*
X510811Y1321702D1*
X505097Y1327415D1*
X500348Y1333952D1*
X496679Y1341152D1*
X494183Y1348836D1*
X492919Y1356817D1*
Y1364897D1*
X494183Y1372878D1*
X496679Y1380562D1*
X500348Y1387762D1*
X505097Y1394298D1*
X510811Y1400012D1*
X517347Y1404761D1*
X524547Y1408429D1*
X532231Y1410926D1*
X540212Y1412190D1*
X548292D1*
X556273Y1410926D1*
X563957Y1408429D1*
X571157Y1404761D1*
X577693Y1400012D1*
X583407Y1394298D1*
X588156Y1387762D1*
X591824Y1380562D1*
X594321Y1372878D1*
X595585Y1364897D1*
Y1356817D1*
X895585D2*
X894321Y1348836D1*
X891824Y1341152D1*
X888156Y1333952D1*
X883407Y1327415D1*
X877693Y1321702D1*
X871157Y1316953D1*
X863957Y1313284D1*
X856273Y1310788D1*
X848292Y1309524D1*
X840212D1*
X832231Y1310788D1*
X824547Y1313284D1*
X817347Y1316953D1*
X810811Y1321702D1*
X804735Y1327874D1*
X774529Y1327869D1*
X726711Y1280059D1*
X726689Y688945D1*
X733313Y683313D1*
X739022Y676628D1*
X743615Y669133D1*
X746979Y661012D1*
X749031Y652464D1*
X749720Y643701D1*
X749031Y634937D1*
X746979Y626390D1*
X743615Y618268D1*
X739022Y610773D1*
X733313Y604089D1*
X726628Y598380D1*
X719133Y593787D1*
X711012Y590423D1*
X702464Y588371D1*
X693701Y587681D1*
X684937Y588371D1*
X676390Y590423D1*
X668268Y593787D1*
X660773Y598380D1*
X654089Y604089D1*
X648380Y610773D1*
X643787Y618268D1*
X640423Y626390D1*
X638371Y634937D1*
X637681Y643701D1*
X638371Y652464D1*
X640423Y661012D1*
X643787Y669133D1*
X648380Y676628D1*
X654089Y683313D1*
X660706Y688968D1*
X660814Y1296289D1*
X661624Y1301402D1*
X663224Y1306325D1*
X665574Y1310937D1*
X668616Y1315125D1*
X715845Y1362497D1*
X739433Y1385941D1*
X743621Y1388984D1*
X748233Y1391334D1*
X753156Y1392934D1*
X758269Y1393744D1*
X804743Y1393845D1*
X807842Y1397267D1*
X813986Y1402515D1*
X820875Y1406737D1*
X828340Y1409829D1*
X836197Y1411715D1*
X844252Y1412349D1*
X852307Y1411715D1*
X860164Y1409829D1*
X867629Y1406737D1*
X874518Y1402515D1*
X880662Y1397267D1*
X885910Y1391123D1*
X890132Y1384234D1*
X893224Y1376769D1*
X895110Y1368912D1*
X895744Y1360857D1*
X895585Y1356817D1*
X1496868Y1499720D2*
X1599721D1*
Y1387681D1*
X1487681D1*
Y1409032D1*
X1483313Y1404089D1*
X1476628Y1398380D1*
X1469133Y1393787D1*
X1461012Y1390423D1*
X1452464Y1388371D1*
X1443701Y1387681D1*
X1434937Y1388371D1*
X1426390Y1390423D1*
X1418268Y1393787D1*
X1410773Y1398380D1*
X1404089Y1404089D1*
X1398380Y1410773D1*
X1393787Y1418268D1*
X1390423Y1426390D1*
X1388371Y1434937D1*
X1387681Y1443701D1*
X1388371Y1452464D1*
X1390423Y1461012D1*
X1393787Y1469133D1*
X1398380Y1476628D1*
X1404089Y1483313D1*
X1410773Y1489022D1*
X1418268Y1493615D1*
X1426390Y1496979D1*
X1434937Y1499031D1*
X1443701Y1499720D1*
X1452464Y1499031D1*
X1461012Y1496979D1*
X1469133Y1493615D1*
X1476628Y1489022D1*
X1483313Y1483313D1*
X1487671Y1478342D1*
X1487681Y1499720D1*
X1496868D1*
X1644899Y1851689D2*
X1751689D1*
Y1735713D1*
X1635713D1*
Y1851689D1*
X1644899D1*
X944899Y2151689D2*
X1051689D1*
Y2035712D1*
X935713D1*
Y2151689D1*
X944899D1*
X498169Y1294421D2*
X597085D1*
Y1186319D1*
X591194Y1186169D1*
X594440Y1178333D1*
X596420Y1170085D1*
X597085Y1161630D1*
X596420Y1153174D1*
X594440Y1144927D1*
X591194Y1137091D1*
X586762Y1129859D1*
X581254Y1123410D1*
X580049Y1122296D1*
X584135Y1117993D1*
X589120Y1111131D1*
X592971Y1103574D1*
X595592Y1095508D1*
X596919Y1087131D1*
Y1078649D1*
X595592Y1070272D1*
X592971Y1062205D1*
X589120Y1054648D1*
X584135Y1047786D1*
X580049Y1043556D1*
X584135Y1039253D1*
X589120Y1032391D1*
X592971Y1024834D1*
X595592Y1016768D1*
X596919Y1008390D1*
Y999909D1*
X595592Y991532D1*
X592971Y983465D1*
X589120Y975908D1*
X584135Y969046D1*
X580049Y964816D1*
X584135Y960513D1*
X589120Y953651D1*
X592971Y946094D1*
X595592Y938027D1*
X596919Y929650D1*
Y921169D1*
X595592Y912791D1*
X592971Y904725D1*
X589120Y897168D1*
X584135Y890306D1*
X580049Y886075D1*
X584135Y881773D1*
X589120Y874911D1*
X592971Y867354D1*
X595592Y859287D1*
X596919Y850910D1*
Y842428D1*
X595592Y834051D1*
X592971Y825985D1*
X589120Y818428D1*
X584135Y811566D1*
X580049Y807335D1*
X584135Y803033D1*
X589120Y796171D1*
X592971Y788614D1*
X595592Y780547D1*
X596919Y772170D1*
Y763688D1*
X595592Y755311D1*
X592971Y747245D1*
X589120Y739687D1*
X584135Y732826D1*
X578138Y726828D1*
X571276Y721843D1*
X563719Y717992D1*
X555652Y715371D1*
X547275Y714045D1*
X538793D1*
X530416Y715371D1*
X522350Y717992D1*
X514792Y721843D1*
X507931Y726828D1*
X501933Y732826D1*
X496948Y739687D1*
X493097Y747245D1*
X490476Y755311D1*
X489150Y763688D1*
Y772170D1*
X490476Y780547D1*
X493097Y788614D1*
X496948Y796171D1*
X501933Y803033D1*
X506019Y807263D1*
X501933Y811566D1*
X496948Y818428D1*
X493097Y825985D1*
X490476Y834051D1*
X489150Y842428D1*
Y850910D1*
X490476Y859287D1*
X493097Y867354D1*
X496948Y874911D1*
X501933Y881773D1*
X506019Y886003D1*
X501933Y890306D1*
X496948Y897168D1*
X493097Y904725D1*
X490476Y912791D1*
X489150Y921169D1*
Y929650D1*
X490476Y938027D1*
X493097Y946094D1*
X496948Y953651D1*
X501933Y960513D1*
X506019Y964743D1*
X501933Y969046D1*
X496948Y975908D1*
X493097Y983465D1*
X490476Y991532D1*
X489150Y999909D1*
Y1008390D1*
X490476Y1016768D1*
X493097Y1024834D1*
X496948Y1032391D1*
X501933Y1039253D1*
X506019Y1043484D1*
X501933Y1047786D1*
X496948Y1054648D1*
X493097Y1062205D1*
X490476Y1070272D1*
X489150Y1078649D1*
Y1087131D1*
X490476Y1095508D1*
X493097Y1103574D1*
X496948Y1111131D1*
X501933Y1117993D1*
X506019Y1122224D1*
X501933Y1126526D1*
X496948Y1133388D1*
X493097Y1140945D1*
X490476Y1149012D1*
X489150Y1157389D1*
Y1165871D1*
X490476Y1174248D1*
X493097Y1182314D1*
X494963Y1186328D1*
X488983Y1186319D1*
Y1294421D1*
X498169D1*
X2341819Y2254922D2*
X2337431Y2249971D1*
X2330052Y2243668D1*
X2321777Y2238598D1*
X2312812Y2234884D1*
X2303375Y2232618D1*
X2293701Y2231857D1*
X2284026Y2232618D1*
X2274590Y2234884D1*
X2265624Y2238598D1*
X2257350Y2243668D1*
X2249971Y2249971D1*
X2243668Y2257350D1*
X2238598Y2265624D1*
X2234884Y2274590D1*
X2232618Y2284026D1*
X2231857Y2293701D1*
X2232618Y2303375D1*
X2234884Y2312812D1*
X2238598Y2321777D1*
X2243668Y2330052D1*
X2249971Y2337431D1*
X2254922Y2341819D1*
X532526Y2341831D1*
X537431Y2337431D1*
X543733Y2330052D1*
X548804Y2321777D1*
X552518Y2312812D1*
X554783Y2303375D1*
X555545Y2293701D1*
X554783Y2284026D1*
X552518Y2274590D1*
X548804Y2265624D1*
X543733Y2257350D1*
X537431Y2249971D1*
X530052Y2243668D1*
X521777Y2238598D1*
X512812Y2234884D1*
X503375Y2232618D1*
X493701Y2231857D1*
X484026Y2232618D1*
X474590Y2234884D1*
X465624Y2238598D1*
X457350Y2243668D1*
X449971Y2249971D1*
X445582Y2254922D1*
X445571Y532526D1*
X449971Y537431D1*
X457350Y543733D1*
X465624Y548804D1*
X474590Y552518D1*
X484026Y554783D1*
X493701Y555545D1*
X503375Y554783D1*
X512812Y552518D1*
X521777Y548804D1*
X530052Y543733D1*
X537431Y537431D1*
X543733Y530052D1*
X548804Y521777D1*
X552518Y512812D1*
X554783Y503375D1*
X555545Y493701D1*
X554783Y484026D1*
X552518Y474590D1*
X548804Y465624D1*
X543733Y457350D1*
X537431Y449971D1*
X532480Y445582D1*
X2254875Y445571D1*
X2249971Y449971D1*
X2243668Y457350D1*
X2238598Y465624D1*
X2234884Y474590D1*
X2232618Y484026D1*
X2231857Y493701D1*
X2232618Y503375D1*
X2234884Y512812D1*
X2238598Y521777D1*
X2243668Y530052D1*
X2249971Y537431D1*
X2257350Y543733D1*
X2265624Y548804D1*
X2274590Y552518D1*
X2284026Y554783D1*
X2293701Y555545D1*
X2303375Y554783D1*
X2312812Y552518D1*
X2321777Y548804D1*
X2330052Y543733D1*
X2337431Y537431D1*
X2341819Y532480D1*
X2341831Y2254875D1*
X1288994Y2207594D2*
X1407595D1*
Y2196434D1*
X1414694Y2200630D1*
X1423957Y2204467D1*
X1433706Y2206808D1*
X1443701Y2207594D1*
X1453696Y2206808D1*
X1463445Y2204467D1*
X1472708Y2200630D1*
X1481257Y2195392D1*
X1488880Y2188880D1*
X1493681Y2183427D1*
X1498521Y2188880D1*
X1506145Y2195392D1*
X1514694Y2200630D1*
X1523957Y2204467D1*
X1533706Y2206808D1*
X1543701Y2207594D1*
X1553696Y2206808D1*
X1563445Y2204467D1*
X1572708Y2200630D1*
X1581257Y2195392D1*
X1588880Y2188880D1*
X1595392Y2181257D1*
X1600630Y2172708D1*
X1604467Y2163445D1*
X1606808Y2153696D1*
X1607594Y2143701D1*
X1606808Y2133706D1*
X1604467Y2123957D1*
X1600630Y2114694D1*
X1595392Y2106145D1*
X1588880Y2098521D1*
X1581257Y2092010D1*
X1572708Y2086771D1*
X1563445Y2082934D1*
X1553696Y2080594D1*
X1543701Y2079807D1*
X1533706Y2080594D1*
X1523957Y2082934D1*
X1514694Y2086771D1*
X1506145Y2092010D1*
X1498521Y2098521D1*
X1493720Y2103975D1*
X1488880Y2098521D1*
X1481257Y2092010D1*
X1472708Y2086771D1*
X1463445Y2082934D1*
X1453696Y2080594D1*
X1443701Y2079807D1*
X1433706Y2080594D1*
X1423957Y2082934D1*
X1414694Y2086771D1*
X1407595Y2091041D1*
Y2079807D1*
X1279807D1*
Y2207594D1*
X1288994D1*
X2182268Y1437576D2*
X2180893Y1428894D1*
X2178177Y1420533D1*
X2174186Y1412701D1*
X2169019Y1405589D1*
X2162803Y1399373D1*
X2155691Y1394206D1*
X2151854Y1391885D1*
X2159349Y1387292D1*
X2166033Y1381583D1*
X2171742Y1374899D1*
X2176335Y1367404D1*
X2179699Y1359282D1*
X2181751Y1350735D1*
X2182441Y1341971D1*
X2181751Y1333208D1*
X2179699Y1324660D1*
X2176335Y1316539D1*
X2171742Y1309044D1*
X2166033Y1302359D1*
X2159349Y1296650D1*
X2151682Y1291978D1*
X2159349Y1287293D1*
X2166033Y1281584D1*
X2171742Y1274900D1*
X2176335Y1267405D1*
X2179699Y1259283D1*
X2181751Y1250736D1*
X2182441Y1241972D1*
X2181751Y1233209D1*
X2179699Y1224661D1*
X2176335Y1216540D1*
X2171742Y1209045D1*
X2166033Y1202361D1*
X2159349Y1196652D1*
X2151682Y1191979D1*
X2159349Y1187292D1*
X2166033Y1181583D1*
X2171742Y1174899D1*
X2176335Y1167404D1*
X2179699Y1159282D1*
X2181751Y1150735D1*
X2182441Y1141971D1*
X2181751Y1133208D1*
X2179699Y1124660D1*
X2176335Y1116539D1*
X2171742Y1109044D1*
X2166033Y1102359D1*
X2159349Y1096650D1*
X2151682Y1091978D1*
X2159349Y1087292D1*
X2166033Y1081583D1*
X2171742Y1074899D1*
X2176335Y1067404D1*
X2179699Y1059282D1*
X2181751Y1050735D1*
X2182441Y1041971D1*
X2181751Y1033208D1*
X2179699Y1024660D1*
X2176335Y1016539D1*
X2171742Y1009044D1*
X2166033Y1002359D1*
X2159349Y996650D1*
X2151682Y991978D1*
X2159349Y987293D1*
X2166033Y981584D1*
X2171742Y974900D1*
X2176335Y967405D1*
X2179699Y959283D1*
X2181751Y950736D1*
X2182441Y941972D1*
X2181751Y933209D1*
X2179699Y924661D1*
X2176335Y916540D1*
X2171742Y909045D1*
X2166033Y902361D1*
X2159349Y896652D1*
X2151682Y891979D1*
X2159349Y887292D1*
X2166033Y881583D1*
X2171742Y874899D1*
X2176335Y867404D1*
X2179699Y859282D1*
X2181751Y850735D1*
X2182441Y841971D1*
X2181751Y833208D1*
X2179699Y824660D1*
X2176335Y816539D1*
X2171742Y809044D1*
X2166033Y802359D1*
X2159349Y796650D1*
X2151682Y791978D1*
X2159349Y787292D1*
X2166033Y781583D1*
X2171742Y774899D1*
X2176335Y767404D1*
X2179699Y759282D1*
X2181751Y750735D1*
X2182441Y741971D1*
X2181751Y733208D1*
X2179699Y724660D1*
X2176335Y716539D1*
X2171742Y709044D1*
X2166033Y702359D1*
X2159349Y696650D1*
X2151682Y691978D1*
X2159349Y687293D1*
X2166033Y681584D1*
X2171742Y674900D1*
X2176335Y667405D1*
X2179699Y659283D1*
X2181751Y650736D1*
X2182441Y641972D1*
X2181751Y633209D1*
X2179699Y624661D1*
X2176335Y616540D1*
X2171742Y609045D1*
X2166033Y602361D1*
X2159349Y596652D1*
X2151854Y592059D1*
X2143732Y588695D1*
X2135185Y586642D1*
X2126421Y585953D1*
X2117658Y586642D1*
X2109110Y588695D1*
X2100989Y592059D1*
X2093494Y596652D1*
X2086809Y602361D1*
X2081100Y609045D1*
X2076507Y616540D1*
X2073143Y624661D1*
X2071091Y633209D1*
X2070402Y641972D1*
X2071091Y650736D1*
X2073143Y659283D1*
X2076507Y667405D1*
X2081100Y674900D1*
X2086809Y681584D1*
X2093494Y687293D1*
X2101160Y691965D1*
X2093494Y696650D1*
X2087655Y701578D1*
X1904563Y518616D1*
X1900375Y515574D1*
X1895763Y513224D1*
X1890840Y511624D1*
X1885727Y510814D1*
X1818835Y510712D1*
X1741113Y510814D1*
X1736000Y511624D1*
X1731077Y513224D1*
X1726464Y515574D1*
X1722277Y518616D1*
X1674904Y565845D1*
X1630018Y610731D1*
X991113Y610814D1*
X986000Y611624D1*
X981077Y613224D1*
X976464Y615574D1*
X972277Y618616D1*
X924904Y665845D1*
X880018Y710731D1*
X838977Y710712D1*
X833313Y704089D1*
X826628Y698380D1*
X819133Y693787D1*
X811012Y690423D1*
X802464Y688371D1*
X793701Y687681D1*
X784937Y688371D1*
X776390Y690423D1*
X768268Y693787D1*
X760773Y698380D1*
X754089Y704089D1*
X748380Y710773D1*
X743787Y718268D1*
X740423Y726390D1*
X738371Y734937D1*
X737681Y743701D1*
X738371Y752464D1*
X740423Y761012D1*
X743787Y769133D1*
X748380Y776628D1*
X754089Y783313D1*
X760773Y789022D1*
X768268Y793615D1*
X776390Y796979D1*
X784937Y799031D1*
X793701Y799720D1*
X802464Y799031D1*
X811012Y796979D1*
X819133Y793615D1*
X826628Y789022D1*
X833313Y783313D1*
X838968Y776696D1*
X896289Y776587D1*
X901402Y775778D1*
X906325Y774178D1*
X910937Y771828D1*
X915125Y768785D1*
X962497Y721557D1*
X1007384Y676670D1*
X1646289Y676587D1*
X1651402Y675778D1*
X1656325Y674178D1*
X1660937Y671828D1*
X1665125Y668785D1*
X1712497Y621557D1*
X1757384Y576670D1*
X1869475Y576689D1*
X2059985Y767056D1*
X2064173Y770098D1*
X2068785Y772448D1*
X2073708Y774048D1*
X2078831Y774858D1*
X2083824Y778353D1*
X2090039Y784569D1*
X2097151Y789736D1*
X2100989Y792057D1*
X2093494Y796650D1*
X2086809Y802359D1*
X2081100Y809044D1*
X2076507Y816539D1*
X2073143Y824660D1*
X2071091Y833208D1*
X2070402Y841971D1*
X2071091Y850735D1*
X2073143Y859282D1*
X2076507Y867404D1*
X2081100Y874899D1*
X2086809Y881583D1*
X2093494Y887292D1*
X2101160Y891964D1*
X2093494Y896652D1*
X2086809Y902361D1*
X2081100Y909045D1*
X2076507Y916540D1*
X2073143Y924661D1*
X2071091Y933209D1*
X2070402Y941972D1*
X2071091Y950736D1*
X2073143Y959283D1*
X2076507Y967405D1*
X2081100Y974900D1*
X2086809Y981584D1*
X2093494Y987293D1*
X2101160Y991965D1*
X2093494Y996650D1*
X2086809Y1002359D1*
X2081100Y1009044D1*
X2076507Y1016539D1*
X2073143Y1024660D1*
X2071091Y1033208D1*
X2070402Y1041971D1*
X2071091Y1050735D1*
X2073143Y1059282D1*
X2076507Y1067404D1*
X2081100Y1074899D1*
X2086809Y1081583D1*
X2093494Y1087292D1*
X2101160Y1091964D1*
X2093494Y1096650D1*
X2086809Y1102359D1*
X2081100Y1109044D1*
X2076507Y1116539D1*
X2073143Y1124660D1*
X2071091Y1133208D1*
X2070402Y1141971D1*
X2071091Y1150735D1*
X2073143Y1159282D1*
X2076507Y1167404D1*
X2081100Y1174899D1*
X2086809Y1181583D1*
X2093494Y1187292D1*
X2101160Y1191964D1*
X2093494Y1196652D1*
X2086809Y1202361D1*
X2081100Y1209045D1*
X2076507Y1216540D1*
X2073143Y1224661D1*
X2071091Y1233209D1*
X2070402Y1241972D1*
X2071091Y1250736D1*
X2073143Y1259283D1*
X2076507Y1267405D1*
X2081100Y1274900D1*
X2086809Y1281584D1*
X2093494Y1287293D1*
X2101160Y1291965D1*
X2093494Y1296650D1*
X2086809Y1302359D1*
X2081100Y1309044D1*
X2076507Y1316539D1*
X2073143Y1324660D1*
X2071091Y1333208D1*
X2070402Y1341971D1*
X2071091Y1350735D1*
X2073143Y1359282D1*
X2076507Y1367404D1*
X2081100Y1374899D1*
X2086809Y1381583D1*
X2093494Y1387292D1*
X2101160Y1391964D1*
X2093494Y1396650D1*
X2086809Y1402359D1*
X2081100Y1409044D1*
X2076507Y1416539D1*
X2073143Y1424660D1*
X2071091Y1433208D1*
X2070402Y1441971D1*
X2071091Y1450735D1*
X2073143Y1459282D1*
X2076507Y1467404D1*
X2081100Y1474899D1*
X2086809Y1481583D1*
X2093494Y1487292D1*
X2100989Y1491885D1*
X2109110Y1495249D1*
X2117658Y1497301D1*
X2126421Y1497991D1*
X2135185Y1497301D1*
X2143732Y1495249D1*
X2151854Y1491885D1*
X2159349Y1487292D1*
X2166033Y1481583D1*
X2171742Y1474899D1*
X2176335Y1467404D1*
X2179699Y1459282D1*
X2181751Y1450735D1*
X2182441Y1441971D1*
X2182268Y1437576D1*
X645034Y1589661D2*
X643770Y1581680D1*
X641273Y1573996D1*
X637605Y1566796D1*
X632856Y1560259D1*
X627142Y1554546D1*
X620605Y1549797D1*
X613406Y1546128D1*
X610872Y1545194D1*
X645193Y1545193D1*
Y1442208D1*
X542209D1*
Y1545193D1*
X576406D1*
X570324Y1547821D1*
X563434Y1552043D1*
X557290Y1557290D1*
X552043Y1563434D1*
X547821Y1570324D1*
X544729Y1577789D1*
X542843Y1585646D1*
X542209Y1593701D1*
X542843Y1601756D1*
X544729Y1609613D1*
X547821Y1617078D1*
X552043Y1623967D1*
X557290Y1630111D1*
X563434Y1635359D1*
X570324Y1639581D1*
X577789Y1642673D1*
X585646Y1644559D1*
X593701Y1645193D1*
X601756Y1644559D1*
X609613Y1642673D1*
X617078Y1639581D1*
X623967Y1635359D1*
X630111Y1630111D1*
X635359Y1623967D1*
X639581Y1617078D1*
X642673Y1609613D1*
X644559Y1601756D1*
X645193Y1593701D1*
X645034Y1589661D1*
X2299548Y1739306D2*
X2298173Y1730623D1*
X2295456Y1722263D1*
X2291465Y1714431D1*
X2286298Y1707319D1*
X2280083Y1701103D1*
X2272971Y1695936D1*
X2265139Y1691945D1*
X2256778Y1689229D1*
X2248096Y1687854D1*
X2239306D1*
X2230623Y1689229D1*
X2222263Y1691945D1*
X2214431Y1695936D1*
X2207319Y1701103D1*
X2201103Y1707319D1*
X2195936Y1714431D1*
X2191945Y1722263D1*
X2189229Y1730623D1*
X2187854Y1739306D1*
Y1748096D1*
X2189229Y1756778D1*
X2191945Y1765139D1*
X2195936Y1772971D1*
X2201103Y1780083D1*
X2207319Y1786298D1*
X2214431Y1791465D1*
X2222263Y1795456D1*
X2230623Y1798173D1*
X2239306Y1799548D1*
X2248096D1*
X2256778Y1798173D1*
X2265139Y1795456D1*
X2272971Y1791465D1*
X2280083Y1786298D1*
X2286298Y1780083D1*
X2291465Y1772971D1*
X2295456Y1765139D1*
X2298173Y1756778D1*
X2299548Y1748096D1*
Y1739306D1*
Y1589306D2*
X2298173Y1580623D1*
X2295456Y1572263D1*
X2291465Y1564431D1*
X2286298Y1557319D1*
X2280083Y1551103D1*
X2272971Y1545936D1*
X2265139Y1541945D1*
X2256778Y1539229D1*
X2248096Y1537854D1*
X2239306D1*
X2230623Y1539229D1*
X2222263Y1541945D1*
X2214431Y1545936D1*
X2207319Y1551103D1*
X2201103Y1557319D1*
X2195936Y1564431D1*
X2191945Y1572263D1*
X2189229Y1580623D1*
X2187854Y1589306D1*
Y1598096D1*
X2189229Y1606778D1*
X2191945Y1615139D1*
X2195936Y1622971D1*
X2201103Y1630083D1*
X2207319Y1636298D1*
X2214431Y1641465D1*
X2222263Y1645456D1*
X2230623Y1648173D1*
X2239306Y1649548D1*
X2248096D1*
X2256778Y1648173D1*
X2265139Y1645456D1*
X2272971Y1641465D1*
X2280083Y1636298D1*
X2286298Y1630083D1*
X2291465Y1622971D1*
X2295456Y1615139D1*
X2298173Y1606778D1*
X2299548Y1598096D1*
Y1589306D1*
X1049548Y1489306D2*
X1048173Y1480623D1*
X1045456Y1472263D1*
X1041465Y1464431D1*
X1036298Y1457319D1*
X1030083Y1451103D1*
X1022971Y1445936D1*
X1015139Y1441945D1*
X1006778Y1439229D1*
X998096Y1437854D1*
X989306D1*
X980623Y1439229D1*
X972263Y1441945D1*
X964431Y1445936D1*
X957319Y1451103D1*
X951103Y1457319D1*
X945936Y1464431D1*
X941945Y1472263D1*
X939229Y1480623D1*
X937854Y1489306D1*
Y1498096D1*
X939229Y1506778D1*
X941945Y1515139D1*
X945936Y1522971D1*
X951103Y1530083D1*
X957319Y1536298D1*
X964431Y1541465D1*
X972263Y1545456D1*
X980623Y1548173D1*
X989306Y1549548D1*
X998096D1*
X1006778Y1548173D1*
X1015139Y1545456D1*
X1022971Y1541465D1*
X1030083Y1536298D1*
X1036298Y1530083D1*
X1041465Y1522971D1*
X1045456Y1515139D1*
X1048173Y1506778D1*
X1049548Y1498096D1*
Y1489306D1*
X2299548Y1039306D2*
X2298173Y1030623D1*
X2295456Y1022263D1*
X2291465Y1014431D1*
X2286298Y1007319D1*
X2280083Y1001103D1*
X2272971Y995936D1*
X2265139Y991945D1*
X2256778Y989229D1*
X2248096Y987854D1*
X2239306D1*
X2230623Y989229D1*
X2222263Y991945D1*
X2214431Y995936D1*
X2207319Y1001103D1*
X2201103Y1007319D1*
X2195936Y1014431D1*
X2191945Y1022263D1*
X2189229Y1030623D1*
X2187854Y1039306D1*
Y1048096D1*
X2189229Y1056778D1*
X2191945Y1065139D1*
X2195936Y1072971D1*
X2201103Y1080083D1*
X2207319Y1086298D1*
X2214431Y1091465D1*
X2222263Y1095456D1*
X2230623Y1098173D1*
X2239306Y1099548D1*
X2248096D1*
X2256778Y1098173D1*
X2265139Y1095456D1*
X2272971Y1091465D1*
X2280083Y1086298D1*
X2286298Y1080083D1*
X2291465Y1072971D1*
X2295456Y1065139D1*
X2298173Y1056778D1*
X2299548Y1048096D1*
Y1039306D1*
X1199548Y2239306D2*
X1198173Y2230623D1*
X1195456Y2222263D1*
X1191465Y2214431D1*
X1186298Y2207319D1*
X1180083Y2201103D1*
X1172971Y2195936D1*
X1165139Y2191945D1*
X1156778Y2189229D1*
X1148096Y2187854D1*
X1139306D1*
X1130623Y2189229D1*
X1122263Y2191945D1*
X1114431Y2195936D1*
X1107319Y2201103D1*
X1101103Y2207319D1*
X1095936Y2214431D1*
X1091945Y2222263D1*
X1089229Y2230623D1*
X1087854Y2239306D1*
Y2248096D1*
X1089229Y2256778D1*
X1091945Y2265139D1*
X1095936Y2272971D1*
X1101103Y2280083D1*
X1107319Y2286298D1*
X1114431Y2291465D1*
X1122263Y2295456D1*
X1130623Y2298173D1*
X1139306Y2299548D1*
X1148096D1*
X1156778Y2298173D1*
X1165139Y2295456D1*
X1172971Y2291465D1*
X1180083Y2286298D1*
X1186298Y2280083D1*
X1191465Y2272971D1*
X1195456Y2265139D1*
X1198173Y2256778D1*
X1199548Y2248096D1*
Y2239306D1*
X1799548D2*
X1798173Y2230623D1*
X1795456Y2222263D1*
X1791465Y2214431D1*
X1786298Y2207319D1*
X1780083Y2201103D1*
X1772971Y2195936D1*
X1765139Y2191945D1*
X1756778Y2189229D1*
X1748096Y2187854D1*
X1739306D1*
X1730623Y2189229D1*
X1722263Y2191945D1*
X1714431Y2195936D1*
X1707319Y2201103D1*
X1701103Y2207319D1*
X1695936Y2214431D1*
X1691945Y2222263D1*
X1689229Y2230623D1*
X1687854Y2239306D1*
Y2248096D1*
X1689229Y2256778D1*
X1691945Y2265139D1*
X1695936Y2272971D1*
X1701103Y2280083D1*
X1707319Y2286298D1*
X1714431Y2291465D1*
X1722263Y2295456D1*
X1730623Y2298173D1*
X1739306Y2299548D1*
X1748096D1*
X1756778Y2298173D1*
X1765139Y2295456D1*
X1772971Y2291465D1*
X1780083Y2286298D1*
X1786298Y2280083D1*
X1791465Y2272971D1*
X1795456Y2265139D1*
X1798173Y2256778D1*
X1799548Y2248096D1*
Y2239306D1*
X1849548Y1939306D2*
X1848173Y1930623D1*
X1845456Y1922263D1*
X1841465Y1914431D1*
X1836298Y1907319D1*
X1830083Y1901103D1*
X1822971Y1895936D1*
X1815139Y1891945D1*
X1806778Y1889229D1*
X1798096Y1887854D1*
X1789306D1*
X1780623Y1889229D1*
X1772263Y1891945D1*
X1764431Y1895936D1*
X1757319Y1901103D1*
X1751103Y1907319D1*
X1745936Y1914431D1*
X1741945Y1922263D1*
X1739229Y1930623D1*
X1737854Y1939306D1*
Y1948096D1*
X1739229Y1956778D1*
X1741945Y1965139D1*
X1745936Y1972971D1*
X1751103Y1980083D1*
X1757319Y1986298D1*
X1764431Y1991465D1*
X1772263Y1995456D1*
X1780623Y1998173D1*
X1789306Y1999548D1*
X1798096D1*
X1806778Y1998173D1*
X1815139Y1995456D1*
X1822971Y1991465D1*
X1830083Y1986298D1*
X1836298Y1980083D1*
X1841465Y1972971D1*
X1845456Y1965139D1*
X1848173Y1956778D1*
X1849548Y1948096D1*
Y1939306D1*
X1249548Y1989306D2*
X1248173Y1980623D1*
X1245456Y1972263D1*
X1241465Y1964431D1*
X1236298Y1957319D1*
X1230083Y1951103D1*
X1222971Y1945936D1*
X1215139Y1941945D1*
X1206778Y1939229D1*
X1198096Y1937854D1*
X1189306D1*
X1180623Y1939229D1*
X1172263Y1941945D1*
X1164431Y1945936D1*
X1157319Y1951103D1*
X1151103Y1957319D1*
X1145936Y1964431D1*
X1141945Y1972263D1*
X1139229Y1980623D1*
X1137854Y1989306D1*
Y1998096D1*
X1139229Y2006778D1*
X1141945Y2015139D1*
X1145936Y2022971D1*
X1151103Y2030083D1*
X1157319Y2036298D1*
X1164431Y2041465D1*
X1172263Y2045456D1*
X1180623Y2048173D1*
X1189306Y2049548D1*
X1198096D1*
X1206778Y2048173D1*
X1215139Y2045456D1*
X1222971Y2041465D1*
X1230083Y2036298D1*
X1236298Y2030083D1*
X1241465Y2022971D1*
X1245456Y2015139D1*
X1248173Y2006778D1*
X1249548Y1998096D1*
Y1989306D1*
X1671445Y872178D2*
X1770361D1*
Y764076D1*
X1764470Y763926D1*
X1767715Y756090D1*
X1769695Y747843D1*
X1770361Y739387D1*
X1769695Y730932D1*
X1767715Y722684D1*
X1764470Y714848D1*
X1760038Y707617D1*
X1754530Y701167D1*
X1748080Y695659D1*
X1740848Y691227D1*
X1733012Y687981D1*
X1724765Y686001D1*
X1716310Y685336D1*
X1707854Y686001D1*
X1699607Y687981D1*
X1691771Y691227D1*
X1684539Y695659D1*
X1678090Y701167D1*
X1672581Y707617D1*
X1668150Y714848D1*
X1664904Y722684D1*
X1662924Y730932D1*
X1662259Y739387D1*
X1662924Y747843D1*
X1664904Y756090D1*
X1668239Y764085D1*
X1662259Y764076D1*
Y872178D1*
X1671445D1*
D16*
X1975411Y1287181D3*
D17*
Y1365921D3*
Y1444661D3*
Y1523402D3*
D16*
X2243701Y657480D3*
D17*
Y736220D3*
Y814961D3*
Y893701D3*
D18*
X1243701Y1693701D3*
D19*
Y1793701D3*
D20*
X1843701Y2143701D3*
D21*
X2143701D3*
D18*
X1993701Y1843701D3*
D19*
X2093701D3*
D20*
X1593701Y1943701D3*
D21*
X1293701D3*
D20*
X1593701Y743701D3*
D21*
X1293701D3*
D20*
X544252Y1360857D3*
D21*
X844252D3*
D22*
X1543701Y1443701D3*
D23*
X1443701D3*
X1343701D3*
D19*
X1693701Y1793701D3*
D18*
Y1693701D3*
D19*
X993701Y2093701D3*
D24*
Y1995276D3*
Y1916535D3*
Y1818110D3*
D25*
X887008Y2214567D3*
Y1697244D3*
D16*
X543034Y1240370D3*
D17*
Y1161630D3*
Y1082890D3*
Y1004150D3*
Y925409D3*
Y846669D3*
Y767929D3*
Y689189D3*
D26*
X1343701Y2143701D3*
D27*
X1443701D3*
X1543701D3*
D22*
X1826421Y1541972D3*
D23*
Y1441972D3*
Y1341972D3*
Y1241972D3*
Y1141971D3*
Y1041971D3*
Y941972D3*
Y841971D3*
Y741971D3*
Y641972D3*
X2126421Y1541971D3*
Y1441971D3*
Y1341971D3*
Y1241972D3*
Y1141971D3*
Y1041971D3*
Y941972D3*
Y841971D3*
Y741971D3*
Y641972D3*
D20*
X1159043Y743701D3*
D28*
X1059043D3*
D20*
X593701Y1593701D3*
D28*
Y1493701D3*
D29*
X1143701Y1343701D3*
Y1493701D3*
X2243701Y1743701D3*
Y1593701D3*
X993701Y1343701D3*
Y1493701D3*
X2243701Y1043701D3*
X1715152Y1442089D3*
X1143701Y2243701D3*
X793701Y743701D3*
X693701Y643701D3*
X1038508Y1609948D3*
X1743701Y2243701D3*
X2127038Y1666509D3*
X1978433Y1664441D3*
X1893701Y2043701D3*
X1793701Y1943701D3*
X1193701Y1993701D3*
D16*
X1716310Y818127D3*
D17*
Y739387D3*
M02*
