G04 DipTrace 3.2.0.1*
G04 BottomMask.gbs*
%MOIN*%
G04 #@! TF.FileFunction,Soldermask,Bot*
G04 #@! TF.Part,Single*
%ADD19R,0.062992X0.062992*%
%ADD24C,0.062992*%
%ADD30C,0.049213*%
%ADD41C,0.066929*%
%ADD43R,0.057874X0.057874*%
%ADD45C,0.082677*%
%ADD46C,0.066929*%
%ADD47R,0.082677X0.082677*%
%ADD48R,0.066929X0.066929*%
%ADD49C,0.137795*%
%ADD51C,0.070866*%
%ADD54C,0.057874*%
%ADD56C,0.057874*%
%ADD58R,0.070866X0.070866*%
%ADD59C,0.070866*%
%FSLAX26Y26*%
G04*
G70*
G90*
G75*
G01*
G04 BotMask*
%LPD*%
D19*
X1975411Y1287181D3*
D24*
Y1365921D3*
Y1444661D3*
Y1523402D3*
D19*
X2243701Y657480D3*
D24*
Y736220D3*
Y814961D3*
Y893701D3*
D59*
X1243701Y1693701D3*
D58*
Y1793701D3*
D56*
X1843701Y2143701D3*
D54*
X2143701D3*
D59*
X1993701Y1843701D3*
D58*
X2093701D3*
D56*
X1593701Y1943701D3*
D54*
X1293701D3*
D56*
X1593701Y743701D3*
D54*
X1293701D3*
D56*
X544252Y1360857D3*
D54*
X844252D3*
D48*
X1543701Y1443701D3*
D46*
X1443701D3*
X1343701D3*
D58*
X1693701Y1793701D3*
D59*
Y1693701D3*
D58*
X993701Y2093701D3*
D51*
Y1995276D3*
Y1916535D3*
Y1818110D3*
D49*
X887008Y2214567D3*
Y1697244D3*
D19*
X543034Y1240370D3*
D24*
Y1161630D3*
Y1082890D3*
Y1004150D3*
Y925409D3*
Y846669D3*
Y767929D3*
Y689189D3*
D30*
X2293701Y2293701D3*
X493701D3*
X2293701Y493701D3*
X493701D3*
D47*
X1343701Y2143701D3*
D45*
X1443701D3*
X1543701D3*
D48*
X1826421Y1541972D3*
D46*
Y1441972D3*
Y1341972D3*
Y1241972D3*
Y1141971D3*
Y1041971D3*
Y941972D3*
Y841971D3*
Y741971D3*
Y641972D3*
X2126421Y1541971D3*
Y1441971D3*
Y1341971D3*
Y1241972D3*
Y1141971D3*
Y1041971D3*
Y941972D3*
Y841971D3*
Y741971D3*
Y641972D3*
D56*
X1159043Y743701D3*
D43*
X1059043D3*
D56*
X593701Y1593701D3*
D43*
Y1493701D3*
D41*
X1143701Y1343701D3*
Y1493701D3*
X2243701Y1743701D3*
Y1593701D3*
X993701Y1343701D3*
Y1493701D3*
X2243701Y1043701D3*
X1715152Y1442089D3*
X1143701Y2243701D3*
X793701Y743701D3*
X693701Y643701D3*
X1038508Y1609948D3*
X1743701Y2243701D3*
X2127038Y1666509D3*
X1978433Y1664441D3*
X1893701Y2043701D3*
X1793701Y1943701D3*
X1193701Y1993701D3*
D19*
X1716310Y818127D3*
D24*
Y739387D3*
M02*
