M48
INCH
T01C0.022
T02C0.028
T03C0.0315
T04C0.0354
T05C0.0362
T06C0.0394
T07C0.0433
T08C0.0492
T09C0.0906
%
T03
X+019754Y+012872
X+019754Y+013659
X+019754Y+014447
X+019754Y+015234
X+022437Y+006575
X+022437Y+007362
X+022437Y+008150
X+022437Y+008937
T06
X+012437Y+016937
X+012437Y+017937
T01
X+018437Y+021437
X+021437Y+021437
T06
X+019937Y+018437
X+020937Y+018437
T01
X+015937Y+019437
X+012937Y+019437
X+015937Y+007437
X+012937Y+007437
X+005443Y+013609
X+008443Y+013609
T04
X+015437Y+014437
X+014437Y+014437
X+013437Y+014437
X+016937Y+017937
X+016937Y+016937
T05
X+009937Y+020937
X+009937Y+019953
X+009937Y+019165
X+009937Y+018181
T09
X+008870Y+022146
X+008870Y+016972
T03
X+005430Y+012404
X+005430Y+011616
X+005430Y+010829
X+005430Y+010041
X+005430Y+009254
X+005430Y+008467
X+005430Y+007679
X+005430Y+006892
T08
X+022937Y+022937
X+004937Y+022937
X+022937Y+004937
X+004937Y+004937
T07
X+013437Y+021437
X+014437Y+021437
X+015437Y+021437
T04
X+018264Y+015420
X+018264Y+014420
X+018264Y+013420
X+018264Y+012420
X+018264Y+011420
X+018264Y+010420
X+018264Y+009420
X+018264Y+008420
X+018264Y+007420
X+018264Y+006420
X+021264Y+015420
X+021264Y+014420
X+021264Y+013420
X+021264Y+012420
X+021264Y+011420
X+021264Y+010420
X+021264Y+009420
X+021264Y+008420
X+021264Y+007420
X+021264Y+006420
T02
X+011590Y+007437
X+010590Y+007437
X+005937Y+015937
X+005937Y+014937
T04
X+011437Y+013437
X+011437Y+014937
X+022437Y+017437
X+022437Y+015937
X+009937Y+013437
X+009937Y+014937
X+022437Y+010437
X+017152Y+014421
X+011437Y+022437
X+007937Y+007437
X+006937Y+006437
X+010385Y+016099
X+017437Y+022437
X+021270Y+016665
X+019784Y+016644
X+018937Y+020437
X+017937Y+019437
X+011937Y+019937
T03
X+017163Y+008181
X+017163Y+007394
T00
M30
