G04 DipTrace 3.2.0.1*
G04 TopSilk.gto*
%MOIN*%
G04 #@! TF.FileFunction,Legend,Top*
G04 #@! TF.Part,Single*
%ADD10C,0.009843*%
%ADD63C,0.00772*%
%ADD64C,0.012351*%
%ADD65C,0.004632*%
%FSLAX26Y26*%
G04*
G70*
G90*
G75*
G01*
G04 TopSilk*
%LPD*%
X2200394Y618110D2*
D10*
Y933071D1*
X2287008Y618110D2*
Y933071D1*
X2200394Y618110D2*
X2287008D1*
X2200394Y933071D2*
X2287008D1*
X1183701Y1813641D2*
Y1673761D1*
X1303701Y1813641D2*
Y1673761D1*
X1183701D2*
G03X1303701Y1673761I60000J-60D01*
G01*
Y1813641D2*
G03X1183701Y1813641I-60000J60D01*
G01*
X1913551Y2173701D2*
Y2113701D1*
X2073851Y2173701D2*
X1913551D1*
X2073851D2*
Y2113701D1*
X1913551D1*
X2113641Y1903701D2*
X1973761D1*
X2113641Y1783701D2*
X1973761D1*
Y1903701D2*
G03X1973761Y1783701I-60J-60000D01*
G01*
X2113641D2*
G03X2113641Y1903701I60J60000D01*
G01*
X1523851Y1913701D2*
Y1973701D1*
X1363551Y1913701D2*
X1523851D1*
X1363551D2*
Y1973701D1*
X1523851D1*
Y713701D2*
Y773701D1*
X1363551Y713701D2*
X1523851D1*
X1363551D2*
Y773701D1*
X1523851D1*
X614102Y1390857D2*
Y1330857D1*
X774402Y1390857D2*
X614102D1*
X774402D2*
Y1330857D1*
X614102D1*
X1256693Y1538583D2*
Y1349606D1*
X1630709Y1538583D2*
Y1349606D1*
X1290167Y1526772D2*
X1593307D1*
X1256693Y1538583D2*
X1290167D1*
Y1526772D1*
X1593307D2*
Y1538583D1*
X1630709D1*
X1256693Y1349606D2*
X1630709D1*
X1681881Y1873582D2*
X1705521D1*
X1693701Y1885401D2*
Y1861787D1*
X1593701Y1743671D2*
G02X1593701Y1743671I100000J0D01*
G01*
X481890Y2215774D2*
Y1696037D1*
Y2215774D2*
X805146D1*
X968903D2*
X1042126D1*
Y1696037D1*
X968903D1*
X805146D2*
X481890D1*
X586341Y1279740D2*
Y649819D1*
X499727Y1279740D2*
Y649819D1*
X586341Y1279740D2*
X499727D1*
X586341Y649819D2*
X499727D1*
X1246850Y2250000D2*
X1640551D1*
Y2072835D1*
X1246850D1*
Y2250000D1*
Y2214567D2*
X1640551D1*
X2078788Y1603783D2*
Y580161D1*
X1874055D2*
X2078788D1*
X1874055Y1603783D2*
Y580161D1*
Y1603783D2*
X1952795D1*
X2078788D2*
X2000047D1*
X1952795D2*
G03X2000047Y1603783I23626J83D01*
G01*
X1009050Y668763D2*
Y818639D1*
X1009275Y668463D2*
G03X1009275Y818939I99796J75238D01*
G01*
X668639Y1443707D2*
X518763D1*
X668939Y1443932D2*
G03X518463Y1443932I-75238J99796D01*
G01*
X1759617Y857497D2*
Y700017D1*
X1673003Y857497D2*
Y700017D1*
X1759617Y857497D2*
X1673003D1*
X1759617Y700017D2*
X1673003D1*
X1110533Y1606492D2*
D63*
X1112910Y1599307D1*
X1120095Y1594499D1*
X1132033Y1592122D1*
X1139218D1*
X1151156Y1594499D1*
X1158341Y1599307D1*
X1160718Y1606492D1*
Y1611246D1*
X1158341Y1618431D1*
X1151156Y1623184D1*
X1139218Y1625616D1*
X1132033D1*
X1120095Y1623184D1*
X1112910Y1618431D1*
X1110533Y1611246D1*
Y1606492D1*
X1120095Y1623184D2*
X1151156Y1594499D1*
X1155909Y1643431D2*
X1158341Y1641055D1*
X1160718Y1643431D1*
X1158341Y1645863D1*
X1155909Y1643431D1*
X1160718Y1685234D2*
X1110533D1*
X1143971Y1661303D1*
Y1697172D1*
X1160718Y1722173D2*
X1110533Y1746105D1*
Y1712612D1*
X1169008Y1761544D2*
Y1806976D1*
X1127224Y1822415D2*
X1151156D1*
X1158286Y1824792D1*
X1160718Y1829600D1*
Y1836785D1*
X1158286Y1841538D1*
X1151156Y1848723D1*
X1127224D2*
X1160718D1*
X1110478Y1895279D2*
Y1864163D1*
X1160718D1*
X1134409D2*
Y1883286D1*
X1940220Y2083670D2*
X1945029Y2086102D1*
X1952214Y2093231D1*
Y2043047D1*
X1982023Y2093231D2*
X1974838Y2090855D1*
X1970030Y2083670D1*
X1967653Y2071732D1*
Y2064547D1*
X1970030Y2052608D1*
X1974838Y2045423D1*
X1982023Y2043047D1*
X1986776D1*
X1993961Y2045423D1*
X1998714Y2052608D1*
X2001146Y2064547D1*
Y2071732D1*
X1998714Y2083670D1*
X1993961Y2090855D1*
X1986776Y2093231D1*
X1982023D1*
X1998714Y2083670D2*
X1970030Y2052608D1*
X2030956Y2093231D2*
X2023771Y2090855D1*
X2018962Y2083670D1*
X2016586Y2071732D1*
Y2064547D1*
X2018962Y2052608D1*
X2023771Y2045423D1*
X2030956Y2043047D1*
X2035709D1*
X2042894Y2045423D1*
X2047647Y2052608D1*
X2050079Y2064547D1*
Y2071732D1*
X2047647Y2083670D1*
X2042894Y2090855D1*
X2035709Y2093231D1*
X2030956D1*
X2047647Y2083670D2*
X2018962Y2052608D1*
X2065518Y2034756D2*
X2110950D1*
X2126389Y2093287D2*
Y2043047D1*
X2159882Y2093287D2*
X2126389Y2059793D1*
X2138327Y2071787D2*
X2159882Y2043047D1*
X2187260Y2076540D2*
X2182507Y2074163D1*
X2177698Y2069355D1*
X2175321Y2062170D1*
Y2057417D1*
X2177698Y2050232D1*
X2182507Y2045479D1*
X2187260Y2043047D1*
X2194445D1*
X2199253Y2045479D1*
X2204006Y2050232D1*
X2206438Y2057417D1*
Y2062170D1*
X2204006Y2069355D1*
X2199253Y2074163D1*
X2194445Y2076540D1*
X2187260D1*
X2221877Y2093287D2*
Y2043047D1*
Y2066978D2*
X2229063Y2074163D1*
X2233871Y2076540D1*
X2241056D1*
X2245809Y2074163D1*
X2248186Y2066978D1*
Y2043047D1*
X2263625Y2076540D2*
Y2043047D1*
Y2066978D2*
X2270810Y2074163D1*
X2275619Y2076540D1*
X2282748D1*
X2287557Y2074163D1*
X2289933Y2066978D1*
Y2043047D1*
Y2066978D2*
X2297118Y2074163D1*
X2301927Y2076540D1*
X2309057D1*
X2313865Y2074163D1*
X2316297Y2066978D1*
Y2043047D1*
X1914184Y1967307D2*
X1918993Y1969739D1*
X1926178Y1976869D1*
Y1926684D1*
X1955987Y1976869D2*
X1948802Y1974492D1*
X1943994Y1967307D1*
X1941617Y1955369D1*
Y1948184D1*
X1943994Y1936246D1*
X1948802Y1929060D1*
X1955987Y1926684D1*
X1960740D1*
X1967925Y1929060D1*
X1972679Y1936246D1*
X1975110Y1948184D1*
Y1955369D1*
X1972679Y1967307D1*
X1967925Y1974492D1*
X1960740Y1976869D1*
X1955987D1*
X1972679Y1967307D2*
X1943994Y1936246D1*
X2004920Y1976869D2*
X1997735Y1974492D1*
X1992926Y1967307D1*
X1990550Y1955369D1*
Y1948184D1*
X1992926Y1936246D1*
X1997735Y1929060D1*
X2004920Y1926684D1*
X2009673D1*
X2016858Y1929060D1*
X2021611Y1936246D1*
X2024043Y1948184D1*
Y1955369D1*
X2021611Y1967307D1*
X2016858Y1974492D1*
X2009673Y1976869D1*
X2004920D1*
X2021611Y1967307D2*
X1992926Y1936246D1*
X2039482Y1918393D2*
X2084914D1*
X2100353Y1960177D2*
Y1926684D1*
Y1950616D2*
X2107538Y1957801D1*
X2112346Y1960177D1*
X2119476D1*
X2124285Y1957801D1*
X2126661Y1950616D1*
Y1926684D1*
X2173217Y1976924D2*
X2142101D1*
Y1926684D1*
Y1952992D2*
X2161224D1*
X1280129Y2037307D2*
X1284937Y2039739D1*
X1292122Y2046869D1*
Y1996684D1*
X1321932Y2046869D2*
X1314747Y2044492D1*
X1309938Y2037307D1*
X1307561Y2025369D1*
Y2018184D1*
X1309938Y2006245D1*
X1314747Y1999060D1*
X1321932Y1996684D1*
X1326685D1*
X1333870Y1999060D1*
X1338623Y2006245D1*
X1341055Y2018184D1*
Y2025369D1*
X1338623Y2037307D1*
X1333870Y2044492D1*
X1326685Y2046869D1*
X1321932D1*
X1338623Y2037307D2*
X1309938Y2006245D1*
X1356494Y1988393D2*
X1401926D1*
X1417365Y2046924D2*
Y1996684D1*
X1450858Y2046924D2*
X1417365Y2013431D1*
X1429303Y2025424D2*
X1450858Y1996684D1*
X1478236Y2030177D2*
X1473482Y2027801D1*
X1468674Y2022992D1*
X1466297Y2015807D1*
Y2011054D1*
X1468674Y2003869D1*
X1473482Y1999116D1*
X1478236Y1996684D1*
X1485421D1*
X1490229Y1999116D1*
X1494982Y2003869D1*
X1497414Y2011054D1*
Y2015807D1*
X1494982Y2022992D1*
X1490229Y2027801D1*
X1485421Y2030177D1*
X1478236D1*
X1512853Y2046924D2*
Y1996684D1*
Y2020616D2*
X1520038Y2027801D1*
X1524847Y2030177D1*
X1532032D1*
X1536785Y2027801D1*
X1539162Y2020616D1*
Y1996684D1*
X1554601Y2030177D2*
Y1996684D1*
Y2020616D2*
X1561786Y2027801D1*
X1566594Y2030177D1*
X1573724D1*
X1578533Y2027801D1*
X1580909Y2020616D1*
Y1996684D1*
Y2020616D2*
X1588094Y2027801D1*
X1592903Y2030177D1*
X1600033D1*
X1604841Y2027801D1*
X1607273Y2020616D1*
Y1996684D1*
X1271811Y834930D2*
Y837307D1*
X1274187Y842115D1*
X1276564Y844492D1*
X1281372Y846869D1*
X1290934D1*
X1295687Y844492D1*
X1298064Y842115D1*
X1300496Y837307D1*
Y832554D1*
X1298064Y827745D1*
X1293311Y820616D1*
X1269379Y796684D1*
X1302872D1*
X1332681Y846869D2*
X1325496Y844492D1*
X1320688Y837307D1*
X1318311Y825369D1*
Y818184D1*
X1320688Y806245D1*
X1325496Y799060D1*
X1332681Y796684D1*
X1337435D1*
X1344620Y799060D1*
X1349373Y806245D1*
X1351805Y818184D1*
Y825369D1*
X1349373Y837307D1*
X1344620Y844492D1*
X1337435Y846869D1*
X1332681D1*
X1349373Y837307D2*
X1320688Y806245D1*
X1381614Y846869D2*
X1374429Y844492D1*
X1369621Y837307D1*
X1367244Y825369D1*
Y818184D1*
X1369621Y806245D1*
X1374429Y799060D1*
X1381614Y796684D1*
X1386367D1*
X1393552Y799060D1*
X1398305Y806245D1*
X1400737Y818184D1*
Y825369D1*
X1398305Y837307D1*
X1393552Y844492D1*
X1386367Y846869D1*
X1381614D1*
X1398305Y837307D2*
X1369621Y806245D1*
X1416177Y788393D2*
X1461608D1*
X1488986Y830177D2*
X1484232Y827801D1*
X1479424Y822992D1*
X1477047Y815807D1*
Y811054D1*
X1479424Y803869D1*
X1484232Y799116D1*
X1488986Y796684D1*
X1496171D1*
X1500979Y799116D1*
X1505732Y803869D1*
X1508164Y811054D1*
Y815807D1*
X1505732Y822992D1*
X1500979Y827801D1*
X1496171Y830177D1*
X1488986D1*
X1523603Y846924D2*
Y796684D1*
Y820616D2*
X1530788Y827801D1*
X1535597Y830177D1*
X1542782D1*
X1547535Y827801D1*
X1549912Y820616D1*
Y796684D1*
X1565351Y830177D2*
Y796684D1*
Y820616D2*
X1572536Y827801D1*
X1577344Y830177D1*
X1584474D1*
X1589283Y827801D1*
X1591659Y820616D1*
Y796684D1*
Y820616D2*
X1598844Y827801D1*
X1603653Y830177D1*
X1610782D1*
X1615591Y827801D1*
X1618023Y820616D1*
Y796684D1*
X608645Y1301905D2*
Y1304281D1*
X611022Y1309090D1*
X613399Y1311466D1*
X618207Y1313843D1*
X627769D1*
X632522Y1311466D1*
X634899Y1309090D1*
X637330Y1304281D1*
Y1299528D1*
X634899Y1294720D1*
X630145Y1287590D1*
X606214Y1263658D1*
X639707D1*
X669516Y1313843D2*
X662331Y1311466D1*
X657523Y1304281D1*
X655146Y1292343D1*
Y1285158D1*
X657523Y1273220D1*
X662331Y1266035D1*
X669516Y1263658D1*
X674269D1*
X681455Y1266035D1*
X686208Y1273220D1*
X688640Y1285158D1*
Y1292343D1*
X686208Y1304281D1*
X681455Y1311466D1*
X674269Y1313843D1*
X669516D1*
X686208Y1304281D2*
X657523Y1273220D1*
X718449Y1313843D2*
X711264Y1311466D1*
X706455Y1304281D1*
X704079Y1292343D1*
Y1285158D1*
X706455Y1273220D1*
X711264Y1266035D1*
X718449Y1263658D1*
X723202D1*
X730387Y1266035D1*
X735140Y1273220D1*
X737572Y1285158D1*
Y1292343D1*
X735140Y1304281D1*
X730387Y1311466D1*
X723202Y1313843D1*
X718449D1*
X735140Y1304281D2*
X706455Y1273220D1*
X753011Y1255368D2*
X798443D1*
X825820Y1297152D2*
X821067Y1294775D1*
X816259Y1289967D1*
X813882Y1282782D1*
Y1278028D1*
X816259Y1270843D1*
X821067Y1266090D1*
X825820Y1263658D1*
X833005D1*
X837814Y1266090D1*
X842567Y1270843D1*
X844999Y1278028D1*
Y1282782D1*
X842567Y1289967D1*
X837814Y1294775D1*
X833005Y1297152D1*
X825820D1*
X860438Y1313898D2*
Y1263658D1*
Y1287590D2*
X867623Y1294775D1*
X872432Y1297152D1*
X879617D1*
X884370Y1294775D1*
X886746Y1287590D1*
Y1263658D1*
X902186Y1297152D2*
Y1263658D1*
Y1287590D2*
X909371Y1294775D1*
X914179Y1297152D1*
X921309D1*
X926117Y1294775D1*
X928494Y1287590D1*
Y1263658D1*
Y1287590D2*
X935679Y1294775D1*
X940488Y1297152D1*
X947617D1*
X952426Y1294775D1*
X954858Y1287590D1*
Y1263658D1*
X970297Y1304281D2*
X975105Y1306713D1*
X982290Y1313843D1*
Y1263658D1*
X1271811Y1320654D2*
Y1323031D1*
X1274187Y1327839D1*
X1276564Y1330216D1*
X1281372Y1332592D1*
X1290934D1*
X1295687Y1330216D1*
X1298064Y1327839D1*
X1300496Y1323031D1*
Y1318278D1*
X1298064Y1313469D1*
X1293311Y1306339D1*
X1269379Y1282408D1*
X1302872D1*
X1320743Y1320654D2*
Y1323031D1*
X1323120Y1327839D1*
X1325496Y1330216D1*
X1330305Y1332592D1*
X1339867D1*
X1344620Y1330216D1*
X1346996Y1327839D1*
X1349428Y1323031D1*
Y1318278D1*
X1346996Y1313469D1*
X1342243Y1306339D1*
X1318311Y1282408D1*
X1351805D1*
X1367244Y1274117D2*
X1412676D1*
X1428115Y1332648D2*
Y1282408D1*
X1461608Y1332648D2*
X1428115Y1299154D1*
X1440053Y1311148D2*
X1461608Y1282408D1*
X1488986Y1315901D2*
X1484232Y1313524D1*
X1479424Y1308716D1*
X1477047Y1301531D1*
Y1296778D1*
X1479424Y1289593D1*
X1484232Y1284839D1*
X1488986Y1282408D1*
X1496171D1*
X1500979Y1284839D1*
X1505732Y1289593D1*
X1508164Y1296778D1*
Y1301531D1*
X1505732Y1308716D1*
X1500979Y1313524D1*
X1496171Y1315901D1*
X1488986D1*
X1523603Y1332648D2*
Y1282408D1*
Y1306339D2*
X1530788Y1313524D1*
X1535597Y1315901D1*
X1542782D1*
X1547535Y1313524D1*
X1549912Y1306339D1*
Y1282408D1*
X1565351Y1315901D2*
Y1282408D1*
Y1306339D2*
X1572536Y1313524D1*
X1577344Y1315901D1*
X1584474D1*
X1589283Y1313524D1*
X1591659Y1306339D1*
Y1282408D1*
Y1306339D2*
X1598844Y1313524D1*
X1603653Y1315901D1*
X1610782D1*
X1615591Y1313524D1*
X1618023Y1306339D1*
Y1282408D1*
X1520533Y1653562D2*
Y1679815D1*
X1539656Y1665500D1*
Y1672685D1*
X1542033Y1677439D1*
X1544409Y1679815D1*
X1551595Y1682247D1*
X1556348D1*
X1563533Y1679815D1*
X1568341Y1675062D1*
X1570718Y1667877D1*
Y1660692D1*
X1568341Y1653562D1*
X1565909Y1651186D1*
X1561156Y1648754D1*
X1520533Y1702495D2*
Y1728748D1*
X1539656Y1714433D1*
Y1721618D1*
X1542033Y1726371D1*
X1544409Y1728748D1*
X1551595Y1731180D1*
X1556348D1*
X1563533Y1728748D1*
X1568341Y1723995D1*
X1570718Y1716810D1*
Y1709624D1*
X1568341Y1702495D1*
X1565909Y1700118D1*
X1561156Y1697686D1*
X1579008Y1746619D2*
Y1792050D1*
X1537224Y1807490D2*
X1561156D1*
X1568286Y1809866D1*
X1570718Y1814675D1*
Y1821860D1*
X1568286Y1826613D1*
X1561156Y1833798D1*
X1537224D2*
X1570718D1*
X1520478Y1880354D2*
Y1849237D1*
X1570718D1*
X1544409D2*
Y1868360D1*
X658667Y1762073D2*
Y1730956D1*
X708907D1*
X682598D2*
Y1750079D1*
X717197Y1777512D2*
Y1822943D1*
X658667Y1838383D2*
X694537D1*
X701722Y1840759D1*
X706475Y1845568D1*
X708907Y1852753D1*
Y1857506D1*
X706475Y1864691D1*
X701722Y1869499D1*
X694537Y1871876D1*
X658667D1*
X665852Y1920808D2*
X661043Y1916055D1*
X658667Y1908870D1*
Y1899309D1*
X661043Y1892124D1*
X665852Y1887315D1*
X670605D1*
X675413Y1889747D1*
X677790Y1892124D1*
X680167Y1896877D1*
X684975Y1911247D1*
X687352Y1916055D1*
X689783Y1918432D1*
X694537Y1920808D1*
X701722D1*
X706475Y1916055D1*
X708907Y1908870D1*
Y1899309D1*
X706475Y1892124D1*
X701722Y1887315D1*
X658667Y1936248D2*
X708907D1*
Y1957803D1*
X706475Y1964988D1*
X704098Y1967364D1*
X699345Y1969741D1*
X692160D1*
X687352Y1967364D1*
X684975Y1964988D1*
X682598Y1957803D1*
X680167Y1964988D1*
X677790Y1967364D1*
X673037Y1969741D1*
X668228D1*
X663475Y1967364D1*
X661043Y1964988D1*
X658667Y1957803D1*
Y1936248D1*
X682598D2*
Y1957803D1*
X717197Y1985180D2*
Y2030612D1*
X684975Y2046051D2*
Y2067606D1*
X682598Y2074736D1*
X680167Y2077168D1*
X675413Y2079544D1*
X668228D1*
X663475Y2077168D1*
X661043Y2074736D1*
X658667Y2067606D1*
Y2046051D1*
X708907D1*
X658667Y2094984D2*
X708907D1*
X675413Y2110423D2*
X699345D1*
X706475Y2112799D1*
X708907Y2117608D1*
Y2124793D1*
X706475Y2129546D1*
X699345Y2136731D1*
X675413D2*
X708907D1*
X677790Y2180855D2*
X716092D1*
X723222Y2178479D1*
X725653Y2176102D1*
X728030Y2171294D1*
Y2164109D1*
X725653Y2159355D1*
X684975Y2180855D2*
X680222Y2176102D1*
X677790Y2171294D1*
Y2164109D1*
X680222Y2159355D1*
X684975Y2154547D1*
X692160Y2152170D1*
X696968D1*
X704098Y2154547D1*
X708907Y2159355D1*
X711283Y2164109D1*
Y2171294D1*
X708907Y2176102D1*
X704098Y2180855D1*
X1339867Y2323223D2*
Y2272983D1*
X1368551D1*
X1422237D2*
Y2323223D1*
X1403114Y2272983D1*
X1383991Y2323223D1*
Y2272983D1*
X1442485Y2323168D2*
X1468738D1*
X1454423Y2304045D1*
X1461608D1*
X1466361Y2301668D1*
X1468738Y2299291D1*
X1471170Y2292106D1*
Y2287353D1*
X1468738Y2280168D1*
X1463985Y2275360D1*
X1456800Y2272983D1*
X1449615D1*
X1442485Y2275360D1*
X1440108Y2277792D1*
X1437676Y2282545D1*
X1486609Y2313606D2*
X1491417Y2316038D1*
X1498602Y2323168D1*
Y2272983D1*
X1523603D2*
X1547535Y2323168D1*
X1514042D1*
X2001920Y670690D2*
X1951680D1*
X2001920Y651567D1*
X1951680Y632444D1*
X2001920D1*
X1958865Y719623D2*
X1954056Y714870D1*
X1951680Y707684D1*
Y698123D1*
X1954056Y690938D1*
X1958865Y686129D1*
X1963618D1*
X1968427Y688561D1*
X1970803Y690938D1*
X1973180Y695691D1*
X1977988Y710061D1*
X1980365Y714869D1*
X1982797Y717246D1*
X1987550Y719623D1*
X1994735D1*
X1999488Y714869D1*
X2001920Y707684D1*
Y698123D1*
X1999488Y690938D1*
X1994735Y686129D1*
X1977988Y735062D2*
Y756617D1*
X1975612Y763747D1*
X1973180Y766179D1*
X1968427Y768555D1*
X1961241D1*
X1956488Y766179D1*
X1954056Y763747D1*
X1951680Y756617D1*
Y735062D1*
X2001920D1*
Y807926D2*
X1951735D1*
X1985173Y783994D1*
Y819864D1*
X1951735Y840112D2*
Y866365D1*
X1970858Y852050D1*
Y859235D1*
X1973235Y863989D1*
X1975612Y866365D1*
X1982797Y868797D1*
X1987550D1*
X1994735Y866365D1*
X1999543Y861612D1*
X2001920Y854427D1*
Y847242D1*
X1999543Y840112D1*
X1997111Y837735D1*
X1992358Y835304D1*
X1951735Y898606D2*
X1954112Y891421D1*
X1961297Y886613D1*
X1973235Y884236D1*
X1980420D1*
X1992358Y886613D1*
X1999543Y891421D1*
X2001920Y898606D1*
Y903359D1*
X1999543Y910545D1*
X1992358Y915298D1*
X1980420Y917730D1*
X1973235D1*
X1961297Y915298D1*
X1954112Y910545D1*
X1951735Y903359D1*
Y898606D1*
X1961297Y915298D2*
X1992358Y886613D1*
X1963618Y969039D2*
X1958865Y966662D1*
X1954056Y961854D1*
X1951680Y957101D1*
Y947539D1*
X1954056Y942730D1*
X1958865Y937977D1*
X1963618Y935545D1*
X1970803Y933169D1*
X1982797D1*
X1989926Y935545D1*
X1994735Y937977D1*
X1999488Y942730D1*
X2001920Y947539D1*
Y957101D1*
X1999488Y961854D1*
X1994735Y966662D1*
X1989926Y969039D1*
X1982797D1*
Y957101D1*
X1963673Y986910D2*
X1961297D1*
X1956488Y989286D1*
X1954112Y991663D1*
X1951735Y996471D1*
Y1006033D1*
X1954112Y1010786D1*
X1956488Y1013163D1*
X1961297Y1015595D1*
X1966050D1*
X1970858Y1013163D1*
X1977988Y1008410D1*
X2001920Y984478D1*
Y1017971D1*
X1951735Y1062095D2*
Y1038219D1*
X1973235Y1035842D1*
X1970858Y1038219D1*
X1968426Y1045404D1*
Y1052534D1*
X1970858Y1059719D1*
X1975612Y1064527D1*
X1982797Y1066904D1*
X1987550D1*
X1994735Y1064527D1*
X1999543Y1059719D1*
X2001920Y1052534D1*
Y1045404D1*
X1999543Y1038219D1*
X1997111Y1035842D1*
X1992358Y1033411D1*
X1951735Y1111028D2*
Y1087152D1*
X1973235Y1084775D1*
X1970858Y1087152D1*
X1968426Y1094337D1*
Y1101466D1*
X1970858Y1108651D1*
X1975612Y1113460D1*
X1982797Y1115836D1*
X1987550D1*
X1994735Y1113460D1*
X1999543Y1108651D1*
X2001920Y1101466D1*
Y1094337D1*
X1999543Y1087152D1*
X1997111Y1084775D1*
X1992358Y1082343D1*
X1951735Y1136084D2*
Y1162337D1*
X1970858Y1148022D1*
Y1155207D1*
X1973235Y1159961D1*
X1975612Y1162337D1*
X1982797Y1164769D1*
X1987550D1*
X1994735Y1162337D1*
X1999543Y1157584D1*
X2001920Y1150399D1*
Y1143214D1*
X1999543Y1136084D1*
X1997111Y1133708D1*
X1992358Y1131276D1*
X962135Y678648D2*
Y700203D1*
X959759Y707333D1*
X957327Y709764D1*
X952574Y712141D1*
X945388D1*
X940635Y709764D1*
X938203Y707333D1*
X935827Y700203D1*
Y678648D1*
X986067D1*
X945444Y727580D2*
X943012Y732389D1*
X935882Y739574D1*
X986067D1*
X981258Y757390D2*
X983690Y755013D1*
X986067Y757390D1*
X983690Y759821D1*
X981258Y757390D1*
X935882Y789631D2*
X938259Y782446D1*
X945444Y777637D1*
X957382Y775261D1*
X964567D1*
X976505Y777637D1*
X983690Y782446D1*
X986067Y789631D1*
Y794384D1*
X983690Y801569D1*
X976505Y806322D1*
X964567Y808754D1*
X957382D1*
X945444Y806322D1*
X938259Y801569D1*
X935882Y794384D1*
Y789631D1*
X945444Y806322D2*
X976505Y777637D1*
X761947Y1492370D2*
Y1513925D1*
X759571Y1521055D1*
X757139Y1523487D1*
X752386Y1525864D1*
X745201D1*
X740447Y1523487D1*
X738016Y1521055D1*
X735639Y1513925D1*
Y1492370D1*
X785879D1*
X745256Y1541303D2*
X742824Y1546111D1*
X735694Y1553296D1*
X785879D1*
X781071Y1571112D2*
X783502Y1568735D1*
X785879Y1571112D1*
X783502Y1573544D1*
X781071Y1571112D1*
X742824Y1617668D2*
X738071Y1615291D1*
X735694Y1608106D1*
Y1603353D1*
X738071Y1596168D1*
X745256Y1591360D1*
X757194Y1588983D1*
X769132D1*
X778694Y1591360D1*
X783502Y1596168D1*
X785879Y1603353D1*
Y1605730D1*
X783502Y1612860D1*
X778694Y1617668D1*
X771509Y1620045D1*
X769132D1*
X761947Y1617668D1*
X757194Y1612860D1*
X754818Y1605730D1*
Y1603353D1*
X757194Y1596168D1*
X761947Y1591360D1*
X769132Y1588983D1*
X2242765Y1646175D2*
D64*
Y1690390D1*
X689841Y533425D2*
D63*
Y497555D1*
X692218Y490370D1*
X697026Y485616D1*
X704212Y483185D1*
X708965D1*
X716150Y485616D1*
X720958Y490370D1*
X723335Y497555D1*
Y533425D1*
X738774Y516678D2*
Y483185D1*
Y507116D2*
X745959Y514301D1*
X750768Y516678D1*
X757897D1*
X762706Y514301D1*
X765082Y507116D1*
Y483185D1*
X780522Y533425D2*
X782898Y531048D1*
X785330Y533425D1*
X782898Y535856D1*
X780522Y533425D1*
X782898Y516678D2*
Y483185D1*
X800769Y516678D2*
X815139Y483185D1*
X829454Y516678D1*
X844893Y502308D2*
X873578D1*
Y507116D1*
X871202Y511925D1*
X868825Y514301D1*
X864017Y516678D1*
X856832D1*
X852078Y514301D1*
X847270Y509493D1*
X844893Y502308D1*
Y497555D1*
X847270Y490370D1*
X852078Y485616D1*
X856832Y483185D1*
X864017D1*
X868825Y485616D1*
X873578Y490370D1*
X889018Y516678D2*
Y483185D1*
Y502308D2*
X891449Y509493D1*
X896203Y514301D1*
X901011Y516678D1*
X908196D1*
X949944Y509493D2*
X947567Y514301D1*
X940382Y516678D1*
X933197D1*
X926012Y514301D1*
X923635Y509493D1*
X926012Y504740D1*
X930820Y502308D1*
X942759Y499931D1*
X947567Y497555D1*
X949944Y492746D1*
Y490370D1*
X947567Y485616D1*
X940382Y483185D1*
X933197D1*
X926012Y485616D1*
X923635Y490370D1*
X994068Y516678D2*
Y483185D1*
Y509493D2*
X989315Y514301D1*
X984506Y516678D1*
X977376D1*
X972568Y514301D1*
X967815Y509493D1*
X965383Y502308D1*
Y497555D1*
X967815Y490370D1*
X972568Y485616D1*
X977376Y483185D1*
X984506D1*
X989315Y485616D1*
X994068Y490370D1*
X1009507Y533425D2*
Y483185D1*
X1107041Y526239D2*
X1102287Y531048D1*
X1095102Y533425D1*
X1085541D1*
X1078356Y531048D1*
X1073547Y526239D1*
Y521486D1*
X1075979Y516678D1*
X1078356Y514301D1*
X1083109Y511925D1*
X1097479Y507116D1*
X1102287Y504740D1*
X1104664Y502308D1*
X1107041Y497555D1*
Y490370D1*
X1102287Y485616D1*
X1095102Y483185D1*
X1085541D1*
X1078356Y485616D1*
X1073547Y490370D1*
X1122480Y502308D2*
X1151165D1*
Y507116D1*
X1148788Y511925D1*
X1146411Y514301D1*
X1141603Y516678D1*
X1134418D1*
X1129665Y514301D1*
X1124856Y509493D1*
X1122480Y502308D1*
Y497555D1*
X1124856Y490370D1*
X1129665Y485616D1*
X1134418Y483185D1*
X1141603D1*
X1146411Y485616D1*
X1151165Y490370D1*
X1166604Y516678D2*
Y483185D1*
Y507116D2*
X1173789Y514301D1*
X1178597Y516678D1*
X1185727D1*
X1190536Y514301D1*
X1192912Y507116D1*
Y483185D1*
X1234660Y509493D2*
X1232283Y514301D1*
X1225098Y516678D1*
X1217913D1*
X1210728Y514301D1*
X1208351Y509493D1*
X1210728Y504740D1*
X1215537Y502308D1*
X1227475Y499931D1*
X1232283Y497555D1*
X1234660Y492746D1*
Y490370D1*
X1232283Y485616D1*
X1225098Y483185D1*
X1217913D1*
X1210728Y485616D1*
X1208351Y490370D1*
X1262037Y516678D2*
X1257284Y514301D1*
X1252476Y509493D1*
X1250099Y502308D1*
Y497555D1*
X1252476Y490370D1*
X1257284Y485616D1*
X1262037Y483185D1*
X1269222D1*
X1274031Y485616D1*
X1278784Y490370D1*
X1281216Y497555D1*
Y502308D1*
X1278784Y509493D1*
X1274031Y514301D1*
X1269222Y516678D1*
X1262037D1*
X1296655D2*
Y483185D1*
Y502308D2*
X1299087Y509493D1*
X1303840Y514301D1*
X1308648Y516678D1*
X1315834D1*
X1415744Y521486D2*
X1413367Y526239D1*
X1408559Y531048D1*
X1403805Y533425D1*
X1394244D1*
X1389435Y531048D1*
X1384682Y526239D1*
X1382250Y521486D1*
X1379874Y514301D1*
Y502308D1*
X1382250Y495178D1*
X1384682Y490370D1*
X1389435Y485616D1*
X1394244Y483185D1*
X1403805D1*
X1408559Y485616D1*
X1413367Y490370D1*
X1415744Y495178D1*
X1443121Y516678D2*
X1438368Y514301D1*
X1433560Y509493D1*
X1431183Y502308D1*
Y497555D1*
X1433560Y490370D1*
X1438368Y485616D1*
X1443121Y483185D1*
X1450306D1*
X1455115Y485616D1*
X1459868Y490370D1*
X1462300Y497555D1*
Y502308D1*
X1459868Y509493D1*
X1455115Y514301D1*
X1450306Y516678D1*
X1443121D1*
X1477739D2*
Y483185D1*
Y507116D2*
X1484924Y514301D1*
X1489732Y516678D1*
X1496862D1*
X1501671Y514301D1*
X1504047Y507116D1*
Y483185D1*
X1526671Y533425D2*
Y492746D1*
X1529048Y485616D1*
X1533857Y483185D1*
X1538610D1*
X1519486Y516678D2*
X1536233D1*
X1554049D2*
Y483185D1*
Y502308D2*
X1556481Y509493D1*
X1561234Y514301D1*
X1566042Y516678D1*
X1573227D1*
X1600605D2*
X1595852Y514301D1*
X1591043Y509493D1*
X1588667Y502308D1*
Y497555D1*
X1591043Y490370D1*
X1595852Y485616D1*
X1600605Y483185D1*
X1607790D1*
X1612598Y485616D1*
X1617352Y490370D1*
X1619783Y497555D1*
Y502308D1*
X1617352Y509493D1*
X1612598Y514301D1*
X1607790Y516678D1*
X1600605D1*
X1635223Y533425D2*
Y483185D1*
X1650662Y533425D2*
Y483185D1*
X1666101Y502308D2*
X1694786D1*
Y507116D1*
X1692410Y511925D1*
X1690033Y514301D1*
X1685224Y516678D1*
X1678039D1*
X1673286Y514301D1*
X1668478Y509493D1*
X1666101Y502308D1*
Y497555D1*
X1668478Y490370D1*
X1673286Y485616D1*
X1678039Y483185D1*
X1685224D1*
X1690033Y485616D1*
X1694786Y490370D1*
X1710225Y516678D2*
Y483185D1*
Y502308D2*
X1712657Y509493D1*
X1717410Y514301D1*
X1722219Y516678D1*
X1729404D1*
X1810191Y546523D2*
X1805382Y541770D1*
X1800629Y534585D1*
X1795821Y525024D1*
X1793444Y513030D1*
Y503468D1*
X1795821Y491530D1*
X1800629Y481969D1*
X1805382Y474784D1*
X1810191Y470030D1*
X1825630Y533425D2*
Y497555D1*
X1828007Y490370D1*
X1832815Y485616D1*
X1840000Y483185D1*
X1844753D1*
X1851938Y485616D1*
X1856747Y490370D1*
X1859123Y497555D1*
Y533425D1*
X1912864Y483185D2*
X1893686Y533425D1*
X1874563Y483185D1*
X1881748Y499931D2*
X1905679D1*
X1928304Y509493D2*
X1949803D1*
X1956989Y511925D1*
X1959420Y514301D1*
X1961797Y519054D1*
Y523863D1*
X1959420Y528616D1*
X1956989Y531048D1*
X1949803Y533425D1*
X1928304D1*
Y483185D1*
X1945050Y509493D2*
X1961797Y483185D1*
X1993983Y533425D2*
Y483185D1*
X1977236Y533425D2*
X2010730D1*
X2026169Y546523D2*
X2030977Y541770D1*
X2035730Y534585D1*
X2040539Y525024D1*
X2042915Y513030D1*
Y503468D1*
X2040539Y491530D1*
X2035730Y481969D1*
X2030977Y474784D1*
X2026169Y470030D1*
X1033796Y1181981D2*
D65*
Y1151837D1*
X1023748Y1181981D2*
X1043844D1*
X1053107D2*
X1073203Y1151837D1*
Y1181981D2*
X1053107Y1151837D1*
X1111627Y1181981D2*
Y1160459D1*
X1113053Y1156148D1*
X1115938Y1153296D1*
X1120249Y1151837D1*
X1123101D1*
X1127412Y1153296D1*
X1130297Y1156148D1*
X1131723Y1160459D1*
Y1181981D1*
X1163968Y1151837D2*
X1152461Y1181981D1*
X1140987Y1151837D1*
X1145298Y1161885D2*
X1159657D1*
X1173231Y1167622D2*
X1186131D1*
X1190442Y1169081D1*
X1191902Y1170507D1*
X1193327Y1173359D1*
Y1176244D1*
X1191902Y1179096D1*
X1190442Y1180555D1*
X1186131Y1181981D1*
X1173231D1*
Y1151837D1*
X1183279Y1167622D2*
X1193327Y1151837D1*
X1212639Y1181981D2*
Y1151837D1*
X1202591Y1181981D2*
X1222687D1*
X1024584Y1243563D2*
X1037484D1*
X1041795Y1245022D1*
X1043254Y1246448D1*
X1044680Y1249300D1*
Y1252185D1*
X1043254Y1255037D1*
X1041795Y1256496D1*
X1037484Y1257922D1*
X1024584D1*
Y1227778D1*
X1034632Y1243563D2*
X1044680Y1227778D1*
X1053943Y1257922D2*
X1074039Y1227778D1*
Y1257922D2*
X1053943Y1227778D1*
X1112463Y1257922D2*
Y1236400D1*
X1113889Y1232089D1*
X1116774Y1229237D1*
X1121085Y1227778D1*
X1123937D1*
X1128248Y1229237D1*
X1131133Y1232089D1*
X1132559Y1236400D1*
Y1257922D1*
X1164804Y1227778D2*
X1153297Y1257922D1*
X1141823Y1227778D1*
X1146134Y1237826D2*
X1160493D1*
X1174067Y1243563D2*
X1186967D1*
X1191278Y1245022D1*
X1192738Y1246448D1*
X1194163Y1249300D1*
Y1252185D1*
X1192738Y1255037D1*
X1191278Y1256496D1*
X1186967Y1257922D1*
X1174067D1*
Y1227778D1*
X1184115Y1243563D2*
X1194163Y1227778D1*
X1213475Y1257922D2*
Y1227778D1*
X1203427Y1257922D2*
X1223523D1*
X1142765Y1396175D2*
D64*
Y1440390D1*
X992765Y1396175D2*
Y1440390D1*
X1805578Y2307656D2*
D63*
Y2264601D1*
X1784078Y2286101D2*
X1827133D1*
X1847380Y2311221D2*
X1873633D1*
X1859319Y2292098D1*
X1866504D1*
X1871257Y2289721D1*
X1873633Y2287345D1*
X1876065Y2280159D1*
Y2275406D1*
X1873633Y2268221D1*
X1868880Y2263413D1*
X1861695Y2261036D1*
X1854510D1*
X1847380Y2263413D1*
X1845004Y2265845D1*
X1842572Y2270598D1*
X1893881Y2265845D2*
X1891504Y2263413D1*
X1893881Y2261036D1*
X1896313Y2263413D1*
X1893881Y2265845D1*
X1940437Y2311221D2*
X1916561D1*
X1914184Y2289721D1*
X1916561Y2292098D1*
X1923746Y2294530D1*
X1930875D1*
X1938060Y2292098D1*
X1942869Y2287345D1*
X1945245Y2280159D1*
Y2275406D1*
X1942869Y2268221D1*
X1938060Y2263413D1*
X1930875Y2261036D1*
X1923746D1*
X1916561Y2263413D1*
X1914184Y2265845D1*
X1911752Y2270598D1*
X1960685Y2311276D2*
X1979808Y2261036D1*
X1998931Y2311276D1*
X2074910Y2294530D2*
X2070157Y2292153D1*
X2065348Y2287345D1*
X2062971Y2280159D1*
Y2275406D1*
X2065348Y2268221D1*
X2070157Y2263468D1*
X2074910Y2261036D1*
X2082095D1*
X2086903Y2263468D1*
X2091656Y2268221D1*
X2094088Y2275406D1*
Y2280159D1*
X2091656Y2287345D1*
X2086903Y2292153D1*
X2082095Y2294530D1*
X2074910D1*
X2109527D2*
Y2270598D1*
X2111904Y2263468D1*
X2116713Y2261036D1*
X2123898D1*
X2128651Y2263468D1*
X2135836Y2270598D1*
Y2294530D2*
Y2261036D1*
X2158460Y2311276D2*
Y2270598D1*
X2160837Y2263468D1*
X2165645Y2261036D1*
X2170398D1*
X2151275Y2294530D2*
X2168022D1*
X885816Y1889813D2*
X928871Y1889812D1*
X907371Y1868313D2*
X907372Y1911368D1*
X882252Y1955492D2*
Y1931615D1*
X903751Y1929239D1*
X901375Y1931615D1*
X898943Y1938800D1*
Y1945930D1*
X901375Y1953115D1*
X906128Y1957924D1*
X913313Y1960300D1*
X918066D1*
X925251Y1957924D1*
X930060Y1953115D1*
X932436Y1945930D1*
Y1938800D1*
X930060Y1931615D1*
X927628Y1929239D1*
X922875Y1926807D1*
X882196Y1975739D2*
X932436Y1994863D1*
X882196Y2013986D1*
Y2078026D2*
X884573Y2080403D1*
X882196Y2082835D1*
X879764Y2080403D1*
X882196Y2078026D1*
X898943Y2080403D2*
X932436D1*
X898943Y2098274D2*
X932436D1*
X908505D2*
X901320Y2105459D1*
X898943Y2110267D1*
Y2117397D1*
X901320Y2122206D1*
X908505Y2124582D1*
X932436D1*
X1943731Y1742402D2*
X1941354Y1747155D1*
X1936546Y1751964D1*
X1931793Y1754341D1*
X1922231D1*
X1917423Y1751964D1*
X1912670Y1747155D1*
X1910238Y1742402D1*
X1907861Y1735217D1*
Y1723224D1*
X1910238Y1716094D1*
X1912670Y1711286D1*
X1917423Y1706532D1*
X1922231Y1704101D1*
X1931793D1*
X1936546Y1706532D1*
X1941354Y1711286D1*
X1943731Y1716094D1*
Y1723224D1*
X1931793D1*
X1992664Y1754341D2*
Y1704101D1*
X1959170Y1754341D1*
Y1704101D1*
X2008103Y1754341D2*
Y1704101D1*
X2024850D1*
X2032035Y1706532D1*
X2036843Y1711286D1*
X2039220Y1716094D1*
X2041596Y1723224D1*
Y1735217D1*
X2039220Y1742402D1*
X2036843Y1747155D1*
X2032035Y1751964D1*
X2024850Y1754341D1*
X2008103D1*
X626609Y1099872D2*
D65*
X623757Y1102757D1*
X619446Y1104183D1*
X613709D1*
X609398Y1102757D1*
X606513Y1099872D1*
Y1097020D1*
X607972Y1094135D1*
X609398Y1092709D1*
X612250Y1091283D1*
X620872Y1088398D1*
X623757Y1086972D1*
X625183Y1085513D1*
X626609Y1082661D1*
Y1078350D1*
X623757Y1075498D1*
X619446Y1074039D1*
X613709D1*
X609398Y1075498D1*
X606513Y1078350D1*
X635872Y1085513D2*
X653083D1*
Y1088398D1*
X651657Y1091283D1*
X650231Y1092709D1*
X647346Y1094135D1*
X643035D1*
X640183Y1092709D1*
X637298Y1089824D1*
X635872Y1085513D1*
Y1082661D1*
X637298Y1078350D1*
X640183Y1075498D1*
X643035Y1074039D1*
X647346D1*
X650231Y1075498D1*
X653083Y1078350D1*
X662347Y1094135D2*
Y1074039D1*
Y1088398D2*
X666658Y1092709D1*
X669543Y1094135D1*
X673821D1*
X676706Y1092709D1*
X678132Y1088398D1*
Y1074039D1*
X703180Y1089824D2*
X701754Y1092709D1*
X697443Y1094135D1*
X693132D1*
X688821Y1092709D1*
X687395Y1089824D1*
X688821Y1086972D1*
X691706Y1085513D1*
X698869Y1084087D1*
X701754Y1082661D1*
X703180Y1079776D1*
Y1078350D1*
X701754Y1075498D1*
X697443Y1074039D1*
X693132D1*
X688821Y1075498D1*
X687395Y1078350D1*
X719607Y1094135D2*
X716755Y1092709D1*
X713870Y1089824D1*
X712444Y1085513D1*
Y1082661D1*
X713870Y1078350D1*
X716755Y1075498D1*
X719607Y1074039D1*
X723918D1*
X726803Y1075498D1*
X729655Y1078350D1*
X731114Y1082661D1*
Y1085513D1*
X729655Y1089824D1*
X726803Y1092709D1*
X723918Y1094135D1*
X719607D1*
X740377D2*
Y1074039D1*
Y1085513D2*
X741837Y1089824D1*
X744688Y1092709D1*
X747574Y1094135D1*
X751885D1*
X790309Y1104183D2*
X791735Y1102757D1*
X793194Y1104183D1*
X791735Y1105642D1*
X790309Y1104183D1*
X791735Y1094135D2*
Y1074039D1*
X802457Y1094135D2*
Y1074039D1*
Y1088398D2*
X806768Y1092709D1*
X809653Y1094135D1*
X813931D1*
X816816Y1092709D1*
X818242Y1088398D1*
Y1074039D1*
X827506Y1094135D2*
Y1063991D1*
Y1089824D2*
X830391Y1092676D1*
X833243Y1094135D1*
X837554D1*
X840439Y1092676D1*
X843291Y1089824D1*
X844750Y1085513D1*
Y1082628D1*
X843291Y1078350D1*
X840439Y1075465D1*
X837554Y1074039D1*
X833243D1*
X830391Y1075465D1*
X827506Y1078350D1*
X854013Y1094135D2*
Y1079776D1*
X855439Y1075498D1*
X858324Y1074039D1*
X862635D1*
X865487Y1075498D1*
X869798Y1079776D1*
Y1094135D2*
Y1074039D1*
X883373Y1104183D2*
Y1079776D1*
X884799Y1075498D1*
X887684Y1074039D1*
X890536D1*
X879062Y1094135D2*
X889110D1*
X901259D2*
X899799Y1092676D1*
X901259Y1091250D1*
X902685Y1092676D1*
X901259Y1094135D1*
Y1076924D2*
X899799Y1075465D1*
X901259Y1074039D1*
X902685Y1075465D1*
X901259Y1076924D1*
X949731Y1104150D2*
X945420Y1102724D1*
X942535Y1098413D1*
X941109Y1091250D1*
Y1086939D1*
X942535Y1079776D1*
X945420Y1075465D1*
X949731Y1074039D1*
X952583D1*
X956894Y1075465D1*
X959746Y1079776D1*
X961205Y1086939D1*
Y1091250D1*
X959746Y1098413D1*
X956894Y1102724D1*
X952583Y1104150D1*
X949731D1*
X959746Y1098413D2*
X942535Y1079776D1*
X970468Y1104183D2*
X981942Y1074039D1*
X993416Y1104183D1*
X1036151D2*
Y1079776D1*
X1037577Y1075498D1*
X1040462Y1074039D1*
X1043314D1*
X1031840Y1094135D2*
X1041888D1*
X1059741D2*
X1056889Y1092709D1*
X1054004Y1089824D1*
X1052578Y1085513D1*
Y1082661D1*
X1054004Y1078350D1*
X1056889Y1075498D1*
X1059741Y1074039D1*
X1064052D1*
X1066937Y1075498D1*
X1069789Y1078350D1*
X1071248Y1082661D1*
Y1085513D1*
X1069789Y1089824D1*
X1066937Y1092709D1*
X1064052Y1094135D1*
X1059741D1*
X1122572Y1102011D2*
Y1076178D1*
X1109672Y1089078D2*
X1135505D1*
X1147654Y1104150D2*
X1163405D1*
X1154816Y1092676D1*
X1159127D1*
X1161979Y1091250D1*
X1163405Y1089824D1*
X1164864Y1085513D1*
Y1082661D1*
X1163405Y1078350D1*
X1160553Y1075465D1*
X1156242Y1074039D1*
X1151931D1*
X1147654Y1075465D1*
X1146228Y1076924D1*
X1144768Y1079776D1*
X1174128Y1104183D2*
X1185602Y1074039D1*
X1197076Y1104183D1*
X1242663Y1094135D2*
X1239811Y1092709D1*
X1236926Y1089824D1*
X1235500Y1085513D1*
Y1082661D1*
X1236926Y1078350D1*
X1239811Y1075498D1*
X1242663Y1074039D1*
X1246974D1*
X1249859Y1075498D1*
X1252711Y1078350D1*
X1254170Y1082661D1*
Y1085513D1*
X1252711Y1089824D1*
X1249859Y1092709D1*
X1246974Y1094135D1*
X1242663D1*
X1263434D2*
Y1074039D1*
Y1088398D2*
X1267745Y1092709D1*
X1270630Y1094135D1*
X1274908D1*
X1277793Y1092709D1*
X1279219Y1088398D1*
Y1074039D1*
X1288482Y1104183D2*
Y1074039D1*
X1299205Y1094135D2*
X1307794Y1074039D1*
X1304942Y1068302D1*
X1302057Y1065417D1*
X1299205Y1063991D1*
X1297746D1*
X1316416Y1094135D2*
X1307794Y1074039D1*
X607119Y1018087D2*
X610004Y1019547D1*
X614315Y1023824D1*
Y993714D1*
X623579D2*
X643675Y1023824D1*
X661560D2*
X657249Y1022398D1*
X654364Y1018087D1*
X652938Y1010925D1*
Y1006613D1*
X654364Y999451D1*
X657249Y995140D1*
X661560Y993714D1*
X664412D1*
X668723Y995140D1*
X671575Y999451D1*
X673034Y1006613D1*
Y1010925D1*
X671575Y1018087D1*
X668723Y1022398D1*
X664412Y1023824D1*
X661560D1*
X671575Y1018087D2*
X654364Y999451D1*
X720080Y1023858D2*
X717195Y1022432D1*
X714343Y1019547D1*
X712884Y1016695D1*
X711458Y1012384D1*
Y1005188D1*
X712884Y1000910D1*
X714343Y998025D1*
X717195Y995173D1*
X720080Y993714D1*
X725817D1*
X728669Y995173D1*
X731554Y998025D1*
X732980Y1000910D1*
X734406Y1005188D1*
Y1012384D1*
X732980Y1016695D1*
X731554Y1019547D1*
X728669Y1022432D1*
X725817Y1023858D1*
X720080D1*
X743670Y1013810D2*
Y999451D1*
X745096Y995173D1*
X747981Y993714D1*
X752292D1*
X755144Y995173D1*
X759455Y999451D1*
Y1013810D2*
Y993714D1*
X773029Y1023858D2*
Y999451D1*
X774455Y995173D1*
X777340Y993714D1*
X780192D1*
X768718Y1013810D2*
X778766D1*
X789456D2*
Y983666D1*
Y1009499D2*
X792341Y1012350D1*
X795193Y1013810D1*
X799504D1*
X802389Y1012350D1*
X805241Y1009499D1*
X806700Y1005188D1*
Y1002302D1*
X805241Y998025D1*
X802389Y995140D1*
X799504Y993714D1*
X795193D1*
X792341Y995140D1*
X789456Y998025D1*
X815963Y1013810D2*
Y999451D1*
X817389Y995173D1*
X820275Y993714D1*
X824586D1*
X827437Y995173D1*
X831748Y999451D1*
Y1013810D2*
Y993714D1*
X845323Y1023858D2*
Y999451D1*
X846749Y995173D1*
X849634Y993714D1*
X852486D1*
X841012Y1013810D2*
X851060D1*
X863209D2*
X861750Y1012350D1*
X863209Y1010925D1*
X864635Y1012350D1*
X863209Y1013810D1*
Y996599D2*
X861750Y995140D1*
X863209Y993714D1*
X864635Y995140D1*
X863209Y996599D1*
X903059Y1023858D2*
Y993714D1*
X920270D1*
X936696Y1013810D2*
X933844Y1012384D1*
X930959Y1009499D1*
X929533Y1005188D1*
Y1002336D1*
X930959Y998025D1*
X933844Y995173D1*
X936696Y993714D1*
X941007D1*
X943892Y995173D1*
X946744Y998025D1*
X948203Y1002336D1*
Y1005188D1*
X946744Y1009499D1*
X943892Y1012384D1*
X941007Y1013810D1*
X936696D1*
X957467D2*
X963204Y993714D1*
X968941Y1013810D1*
X974678Y993714D1*
X980415Y1013810D1*
X989678Y1005188D2*
X1006889D1*
Y1008073D1*
X1005463Y1010958D1*
X1004037Y1012384D1*
X1001152Y1013810D1*
X996841D1*
X993989Y1012384D1*
X991104Y1009499D1*
X989678Y1005188D1*
Y1002336D1*
X991104Y998025D1*
X993989Y995173D1*
X996841Y993714D1*
X1001152D1*
X1004037Y995173D1*
X1006889Y998025D1*
X1016153Y1013810D2*
Y993714D1*
Y1005188D2*
X1017612Y1009499D1*
X1020464Y1012384D1*
X1023349Y1013810D1*
X1027660D1*
X607093Y937805D2*
X609978Y939264D1*
X614289Y943542D1*
Y913431D1*
X623552D2*
X643648Y943542D1*
X661534D2*
X657223Y942116D1*
X654338Y937805D1*
X652912Y930642D1*
Y926331D1*
X654338Y919168D1*
X657223Y914857D1*
X661534Y913431D1*
X664386D1*
X668697Y914857D1*
X671549Y919168D1*
X673008Y926331D1*
Y930642D1*
X671549Y937805D1*
X668697Y942116D1*
X664386Y943542D1*
X661534D1*
X671549Y937805D2*
X654338Y919168D1*
X720054Y943575D2*
X717169Y942149D1*
X714317Y939264D1*
X712858Y936413D1*
X711432Y932101D1*
Y924905D1*
X712858Y920628D1*
X714317Y917742D1*
X717169Y914891D1*
X720054Y913431D1*
X725791D1*
X728643Y914891D1*
X731528Y917742D1*
X732954Y920628D1*
X734380Y924905D1*
Y932101D1*
X732954Y936413D1*
X731528Y939264D1*
X728643Y942149D1*
X725791Y943575D1*
X720054D1*
X743644Y933527D2*
Y919168D1*
X745070Y914891D1*
X747955Y913431D1*
X752266D1*
X755118Y914891D1*
X759429Y919168D1*
Y933527D2*
Y913431D1*
X773003Y943575D2*
Y919168D1*
X774429Y914891D1*
X777314Y913431D1*
X780166D1*
X768692Y933527D2*
X778740D1*
X789430D2*
Y903383D1*
Y929216D2*
X792315Y932068D1*
X795167Y933527D1*
X799478D1*
X802363Y932068D1*
X805215Y929216D1*
X806674Y924905D1*
Y922020D1*
X805215Y917742D1*
X802363Y914857D1*
X799478Y913431D1*
X795167D1*
X792315Y914857D1*
X789430Y917742D1*
X815937Y933527D2*
Y919168D1*
X817363Y914891D1*
X820248Y913431D1*
X824559D1*
X827411Y914891D1*
X831722Y919168D1*
Y933527D2*
Y913431D1*
X845297Y943575D2*
Y919168D1*
X846723Y914891D1*
X849608Y913431D1*
X852460D1*
X840986Y933527D2*
X851034D1*
X863182D2*
X861723Y932068D1*
X863182Y930642D1*
X864608Y932068D1*
X863182Y933527D1*
Y916317D2*
X861723Y914857D1*
X863182Y913431D1*
X864608Y914857D1*
X863182Y916317D1*
X903032Y943575D2*
Y913431D1*
X923128Y943575D2*
Y913431D1*
X903032Y929216D2*
X923128D1*
X932392Y943575D2*
X933818Y942149D1*
X935277Y943575D1*
X933818Y945035D1*
X932392Y943575D1*
X933818Y933527D2*
Y913431D1*
X961752Y932101D2*
Y909120D1*
X960326Y904843D1*
X958900Y903383D1*
X956015Y901957D1*
X951704D1*
X948852Y903383D1*
X961752Y927790D2*
X958900Y930642D1*
X956015Y932101D1*
X951704D1*
X948852Y930642D1*
X945967Y927790D1*
X944541Y923479D1*
Y920594D1*
X945967Y916317D1*
X948852Y913431D1*
X951704Y912005D1*
X956015D1*
X958900Y913431D1*
X961752Y916317D1*
X971015Y943575D2*
Y913431D1*
Y927790D2*
X975326Y932101D1*
X978211Y933527D1*
X982522D1*
X985374Y932101D1*
X986800Y927790D1*
Y913431D1*
X996064Y924905D2*
X1013275D1*
Y927790D1*
X1011849Y930676D1*
X1010423Y932101D1*
X1007538Y933527D1*
X1003227D1*
X1000375Y932101D1*
X997490Y929216D1*
X996064Y924905D1*
Y922053D1*
X997490Y917742D1*
X1000375Y914891D1*
X1003227Y913431D1*
X1007538D1*
X1010423Y914891D1*
X1013275Y917742D1*
X1022538Y933527D2*
Y913431D1*
Y924905D2*
X1023997Y929216D1*
X1026849Y932101D1*
X1029734Y933527D1*
X1034045D1*
X608925Y844779D2*
X621858D1*
X626136Y846205D1*
X627595Y847664D1*
X629021Y850516D1*
Y854827D1*
X627595Y857679D1*
X626136Y859138D1*
X621858Y860564D1*
X608925D1*
Y830420D1*
X638284Y860564D2*
X645480Y830420D1*
X652643Y860564D1*
X659806Y830420D1*
X667002Y860564D1*
X699214Y830420D2*
Y860564D1*
X687740Y830420D1*
X676266Y860564D1*
Y830420D1*
X709937Y850516D2*
X708477Y849057D1*
X709937Y847631D1*
X711362Y849057D1*
X709937Y850516D1*
Y833305D2*
X708477Y831846D1*
X709937Y830420D1*
X711362Y831846D1*
X709937Y833305D1*
X749787Y860564D2*
Y830420D1*
X766998D1*
X783424Y850516D2*
X780572Y849090D1*
X777687Y846205D1*
X776261Y841894D1*
Y839042D1*
X777687Y834731D1*
X780572Y831879D1*
X783424Y830420D1*
X787735D1*
X790620Y831879D1*
X793472Y834731D1*
X794931Y839042D1*
Y841894D1*
X793472Y846205D1*
X790620Y849090D1*
X787735Y850516D1*
X783424D1*
X804195D2*
X809932Y830420D1*
X815669Y850516D1*
X821406Y830420D1*
X827143Y850516D1*
X836406Y841894D2*
X853617D1*
Y844779D1*
X852191Y847664D1*
X850765Y849090D1*
X847880Y850516D1*
X843569D1*
X840717Y849090D1*
X837832Y846205D1*
X836406Y841894D1*
Y839042D1*
X837832Y834731D1*
X840717Y831879D1*
X843569Y830420D1*
X847880D1*
X850765Y831879D1*
X853617Y834731D1*
X862881Y850516D2*
Y830420D1*
Y841894D2*
X864340Y846205D1*
X867192Y849090D1*
X870077Y850516D1*
X874388D1*
X608956Y768907D2*
X621889D1*
X626167Y770333D1*
X627626Y771792D1*
X629052Y774644D1*
Y778955D1*
X627626Y781807D1*
X626167Y783266D1*
X621889Y784692D1*
X608956D1*
Y754548D1*
X638316Y784692D2*
X645512Y754548D1*
X652675Y784692D1*
X659838Y754548D1*
X667034Y784692D1*
X699245Y754548D2*
Y784692D1*
X687771Y754548D1*
X676297Y784692D1*
Y754548D1*
X709968Y774644D2*
X708509Y773185D1*
X709968Y771759D1*
X711394Y773185D1*
X709968Y774644D1*
Y757433D2*
X708509Y755974D1*
X709968Y754548D1*
X711394Y755974D1*
X709968Y757433D1*
X608532Y732100D2*
Y701956D1*
X628628Y732100D2*
Y701956D1*
X608532Y717741D2*
X628628D1*
X637892Y732100D2*
X639318Y730674D1*
X640777Y732100D1*
X639318Y733559D1*
X637892Y732100D1*
X639318Y722052D2*
Y701956D1*
X667252Y720626D2*
Y697645D1*
X665826Y693367D1*
X664400Y691908D1*
X661515Y690482D1*
X657204D1*
X654352Y691908D1*
X667252Y716315D2*
X664400Y719167D1*
X661515Y720626D1*
X657204D1*
X654352Y719167D1*
X651467Y716315D1*
X650041Y712004D1*
Y709119D1*
X651467Y704841D1*
X654352Y701956D1*
X657204Y700530D1*
X661515D1*
X664400Y701956D1*
X667252Y704841D1*
X676515Y732100D2*
Y701956D1*
Y716315D2*
X680826Y720626D1*
X683711Y722052D1*
X688022D1*
X690874Y720626D1*
X692300Y716315D1*
Y701956D1*
X701564Y713430D2*
X718775D1*
Y716315D1*
X717349Y719200D1*
X715923Y720626D1*
X713038Y722052D1*
X708727D1*
X705875Y720626D1*
X702990Y717741D1*
X701564Y713430D1*
Y710578D1*
X702990Y706267D1*
X705875Y703415D1*
X708727Y701956D1*
X713038D1*
X715923Y703415D1*
X718775Y706267D1*
X728038Y722052D2*
Y701956D1*
Y713430D2*
X729497Y717741D1*
X732349Y720626D1*
X735234Y722052D1*
X739545D1*
X2244538Y1532404D2*
Y1519505D1*
X2245997Y1515194D1*
X2247423Y1513734D1*
X2250275Y1512308D1*
X2253160D1*
X2256012Y1513734D1*
X2257471Y1515194D1*
X2258897Y1519505D1*
Y1532404D1*
X2228753D1*
X2244538Y1522356D2*
X2228753Y1512309D1*
X2258897Y1484408D2*
Y1503045D1*
X2228753D1*
Y1484408D1*
X2244538Y1503045D2*
Y1491571D1*
X2254586Y1455049D2*
X2257471Y1457900D1*
X2258897Y1462211D1*
Y1467948D1*
X2257471Y1472259D1*
X2254586Y1475145D1*
X2251734D1*
X2248849Y1473685D1*
X2247423Y1472260D1*
X2245997Y1469408D1*
X2243112Y1460786D1*
X2241686Y1457900D1*
X2240227Y1456475D1*
X2237375Y1455049D1*
X2233064D1*
X2230212Y1457901D1*
X2228753Y1462212D1*
Y1467949D1*
X2230212Y1472260D1*
X2233064Y1475145D1*
X2258897Y1427148D2*
Y1445785D1*
X2228753D1*
Y1427148D1*
X2244538Y1445785D2*
Y1434311D1*
X2258897Y1407837D2*
X2228753D1*
X2258897Y1417885D2*
Y1397789D1*
X2248849Y1387066D2*
X2247390Y1388525D1*
X2245964Y1387066D1*
X2247390Y1385640D1*
X2248849Y1387066D1*
X2231638D2*
X2230179Y1388525D1*
X2228753Y1387066D1*
X2230179Y1385640D1*
X2231638Y1387066D1*
X2258897Y1347216D2*
X2228753D1*
X2258897Y1327120D2*
X2228753D1*
X2244538Y1347216D2*
Y1327120D1*
X2258897Y1317856D2*
X2257471Y1316430D1*
X2258897Y1314971D1*
X2260356Y1316430D1*
X2258897Y1317856D1*
X2248849Y1316430D2*
X2228753D1*
X2247423Y1288497D2*
X2224442D1*
X2220164Y1289923D1*
X2218705Y1291349D1*
X2217279Y1294234D1*
Y1298545D1*
X2218705Y1301397D1*
X2243112Y1288497D2*
X2245964Y1291349D1*
X2247423Y1294234D1*
Y1298545D1*
X2245964Y1301397D1*
X2243112Y1304282D1*
X2238801Y1305708D1*
X2235916D1*
X2231638Y1304282D1*
X2228753Y1301397D1*
X2227327Y1298545D1*
Y1294234D1*
X2228753Y1291349D1*
X2231638Y1288497D1*
X2258897Y1279233D2*
X2228753D1*
X2243112D2*
X2247423Y1274922D1*
X2248849Y1272037D1*
Y1267726D1*
X2247423Y1264874D1*
X2243112Y1263448D1*
X2228753D1*
X2248119Y1254185D2*
Y1228352D1*
X2239497Y1254185D2*
Y1228352D1*
X2258897Y1210466D2*
X2257471Y1213351D1*
X2254586Y1216203D1*
X2251734Y1217662D1*
X2247423Y1219088D1*
X2240227D1*
X2235949Y1217662D1*
X2233064Y1216203D1*
X2230212Y1213351D1*
X2228753Y1210466D1*
Y1204729D1*
X2230212Y1201877D1*
X2233064Y1198992D1*
X2235949Y1197566D1*
X2240227Y1196140D1*
X2247423D1*
X2251734Y1197566D1*
X2254586Y1198992D1*
X2257471Y1201877D1*
X2258897Y1204729D1*
Y1210466D1*
Y1175403D2*
Y1178255D1*
X2257471Y1181140D1*
X2253160Y1182566D1*
X2228753D1*
X2248849Y1186877D2*
Y1176829D1*
X2258897Y1154665D2*
Y1157517D1*
X2257471Y1160402D1*
X2253160Y1161828D1*
X2228753D1*
X2248849Y1166139D2*
Y1156091D1*
X539853Y623391D2*
X538427Y626243D1*
X535542Y629128D1*
X532690Y630554D1*
X526953D1*
X524068Y629128D1*
X521216Y626243D1*
X519757Y623391D1*
X518331Y619080D1*
Y611884D1*
X519757Y607606D1*
X521216Y604721D1*
X524068Y601869D1*
X526953Y600410D1*
X532690D1*
X535542Y601869D1*
X538427Y604721D1*
X539853Y607606D1*
Y611884D1*
X532690D1*
X569213Y630554D2*
Y600410D1*
X549117Y630554D1*
Y600410D1*
X578476Y630554D2*
Y600410D1*
X588524D1*
X592835Y601869D1*
X595721Y604721D1*
X597147Y607606D1*
X598572Y611884D1*
Y619080D1*
X597147Y623391D1*
X595721Y626243D1*
X592835Y629128D1*
X588524Y630554D1*
X578476D1*
M02*
