M48
INCH
T01C0.022
T02C0.0315
T03C0.0354
T04C0.0394
T05C0.05
%
T01
X+024937Y+010937
X+026937Y+009437
X+024937Y+007937
X+026937Y+012437
X+021437Y+012937
X+019437Y+012937
X+019437Y+015937
X+021437Y+015937
X+022437Y+018937
X+019437Y+018937
X+011937Y+018937
X+011937Y+015937
X+011937Y+013937
X+008937Y+013937
X+005937Y+013937
X+005937Y+010937
X+009437Y+006937
X+012437Y+006937
X+018437Y+006437
X+018437Y+009437
T02
X+009437Y+009937
X+010224Y+009937
X+011012Y+009937
X+011799Y+009937
X+012587Y+009937
T03
X+015937Y+006437
X+014937Y+006437
X+013937Y+006437
X+013937Y+011937
X+013937Y+012937
X+013937Y+013937
X+013937Y+014937
X+016937Y+014937
X+016937Y+013937
X+016937Y+012937
X+016937Y+011937
X+020937Y+011437
X+020937Y+010437
X+020937Y+009437
X+020437Y+006937
X+021437Y+006937
X+022437Y+006937
X+025937Y+006937
X+025937Y+013937
X+025937Y+014937
X+025937Y+015937
X+025937Y+016937
X+026937Y+018937
X+022937Y+016937
X+022937Y+015937
X+022937Y+014937
X+022937Y+013937
X+009437Y+017437
X+009437Y+018437
X+009437Y+019437
T04
X+015937Y+009437
X+014937Y+009437
X+007937Y+011437
X+007937Y+012437
T05
X+004937Y+021437
X+004937Y+004937
X+027437Y+004937
X+027437Y+021437
T00
M30
