G04 DipTrace 3.2.0.1*
G04 Top.gbr*
%MOIN*%
G04 #@! TF.FileFunction,Copper,L1,Top*
G04 #@! TF.Part,Single*
G04 #@! TA.AperFunction,Conductor*
%ADD14C,0.012992*%
G04 #@! TA.AperFunction,CopperBalancing*
%ADD15C,0.025*%
G04 #@! TA.AperFunction,ComponentPad*
%ADD16C,0.05*%
%ADD17C,0.05*%
%ADD18C,0.062992*%
%ADD19R,0.062992X0.062992*%
%ADD20R,0.059055X0.059055*%
%ADD21C,0.059055*%
%ADD22R,0.055118X0.055118*%
%ADD23C,0.055118*%
%ADD24C,0.059055*%
%FSLAX26Y26*%
G04*
G70*
G90*
G75*
G01*
G04 Top*
%LPD*%
X593701Y1093701D2*
D14*
Y1043701D1*
X643701Y993701D1*
X943701D1*
X593701Y1393701D2*
X793701D1*
Y1243701D1*
Y1393701D2*
X893701D1*
Y1343701D1*
X943701Y1293701D1*
X1393701D1*
X1193701Y1393701D2*
X1393701D1*
X1493701Y643701D2*
Y943701D1*
Y1343701D1*
X1443701Y1393701D1*
X1193701D1*
X2693701Y943701D2*
Y893701D1*
X2593701Y793701D1*
X2589176D1*
X2493701D1*
X2589176D2*
Y698226D1*
X2593701Y693701D1*
X1843701Y643701D2*
X1593701D1*
X943701Y1943701D2*
X993701D1*
X1193701Y1743701D1*
X1593701D1*
X1793701Y1543701D1*
Y1243701D1*
X1743701Y1193701D1*
X1693701D1*
X1393701Y1493701D2*
X1093701D1*
X943701Y1643701D1*
Y1743701D1*
X1193701Y1893701D2*
Y1993701D1*
X1093701Y2093701D1*
X793701D1*
X693701Y1993701D1*
Y1893701D1*
X743701Y1843701D1*
X943701D1*
X1593701Y943701D2*
X1843701D1*
X1693701Y1293701D2*
X1643701D1*
X1593701Y1243701D1*
Y943701D1*
X1943701Y1593701D2*
X2143701D1*
X2293701D1*
X1943701Y1893701D2*
Y1593701D1*
X2243701Y1893701D2*
X2693701D1*
Y1493701D1*
X2593701D1*
X2693701D2*
Y1243701D1*
X1243701Y693701D2*
X1293701Y643701D1*
X1393701D1*
X2093701Y943701D2*
Y893701D1*
X2243701Y743701D1*
Y693701D1*
X2143701D1*
Y1293701D2*
Y1193701D1*
X2093701Y1143701D1*
Y1043701D1*
X548924Y2166962D2*
D15*
X2688470D1*
X553803Y2142093D2*
X2683589D1*
X547381Y2117224D2*
X768056D1*
X1119339D2*
X2690013D1*
X448089Y2092356D2*
X465014D1*
X522369D2*
X743188D1*
X1144206D2*
X2715024D1*
X2772379D2*
X2789340D1*
X448089Y2067487D2*
X718320D1*
X1169073D2*
X2789340D1*
X448089Y2042618D2*
X693453D1*
X791787D2*
X1095643D1*
X1193941D2*
X2789340D1*
X448089Y2017749D2*
X668585D1*
X766885D2*
X1120510D1*
X1218810D2*
X2789340D1*
X448089Y1992881D2*
X658214D1*
X742016D2*
X914391D1*
X973038D2*
X1145378D1*
X1229180D2*
X2789340D1*
X448089Y1968012D2*
X658214D1*
X729206D2*
X890744D1*
X1018504D2*
X1158224D1*
X1229180D2*
X2789340D1*
X448089Y1943143D2*
X658214D1*
X729206D2*
X885182D1*
X1043407D2*
X1158224D1*
X1229180D2*
X1926828D1*
X1960571D2*
X2226820D1*
X2260598D2*
X2664858D1*
X2722537D2*
X2789340D1*
X448089Y1918274D2*
X658214D1*
X729206D2*
X891282D1*
X1068276D2*
X1145953D1*
X1241453D2*
X1895967D1*
X1991467D2*
X2195959D1*
X2746543D2*
X2789340D1*
X448089Y1893406D2*
X658214D1*
X743164D2*
X915361D1*
X972034D2*
X994844D1*
X1093143D2*
X1139709D1*
X1247696D2*
X1889724D1*
X1997676D2*
X2189715D1*
X2752213D2*
X2789340D1*
X448089Y1868537D2*
X669697D1*
X996399D2*
X1019711D1*
X1118010D2*
X1146276D1*
X1241130D2*
X1896290D1*
X1991109D2*
X2196282D1*
X2746256D2*
X2789340D1*
X448089Y1843668D2*
X694566D1*
X1002213D2*
X1044580D1*
X1142878D2*
X1179038D1*
X1208367D2*
X1908205D1*
X1979196D2*
X2229045D1*
X2258374D2*
X2658219D1*
X2729175D2*
X2789340D1*
X448089Y1818799D2*
X719576D1*
X996399D2*
X1069448D1*
X1167747D2*
X1908205D1*
X1979196D2*
X2658219D1*
X2729175D2*
X2789340D1*
X448089Y1793930D2*
X885182D1*
X1002213D2*
X1094315D1*
X1192614D2*
X1908205D1*
X1979196D2*
X2658219D1*
X2729175D2*
X2789340D1*
X448089Y1769062D2*
X885182D1*
X1002213D2*
X1119182D1*
X1617303D2*
X1908205D1*
X1979196D2*
X2658219D1*
X2729175D2*
X2789340D1*
X448089Y1744193D2*
X885182D1*
X1002213D2*
X1144050D1*
X1642350D2*
X1908205D1*
X1979196D2*
X2235181D1*
X2352211D2*
X2566930D1*
X2620482D2*
X2658219D1*
X2729175D2*
X2789340D1*
X448089Y1719324D2*
X885182D1*
X1002213D2*
X1168990D1*
X1667218D2*
X1908205D1*
X1979196D2*
X2235181D1*
X2352211D2*
X2541381D1*
X2646031D2*
X2658219D1*
X2729175D2*
X2789340D1*
X448089Y1694455D2*
X885182D1*
X1002213D2*
X1593787D1*
X1692085D2*
X1908205D1*
X1979196D2*
X2235181D1*
X2352211D2*
X2535173D1*
X2729175D2*
X2789340D1*
X448089Y1669587D2*
X908219D1*
X979175D2*
X1618655D1*
X1716954D2*
X1908205D1*
X1979196D2*
X2235181D1*
X2352211D2*
X2540627D1*
X2646749D2*
X2658219D1*
X2729175D2*
X2789340D1*
X448089Y1644718D2*
X908219D1*
X991841D2*
X1184205D1*
X1203164D2*
X1643522D1*
X1741822D2*
X1908205D1*
X1979196D2*
X2134239D1*
X2153213D2*
X2235181D1*
X2352211D2*
X2564024D1*
X2623388D2*
X2658219D1*
X2729175D2*
X2789340D1*
X448089Y1619849D2*
X918411D1*
X1016710D2*
X1146849D1*
X1240555D2*
X1668390D1*
X1766689D2*
X1896829D1*
X2345752D2*
X2541668D1*
X2645744D2*
X2658219D1*
X2729175D2*
X2789340D1*
X448089Y1594980D2*
X943278D1*
X1041577D2*
X1139709D1*
X1247660D2*
X1693259D1*
X1791556D2*
X1889724D1*
X2352211D2*
X2535209D1*
X2729175D2*
X2789340D1*
X448089Y1570112D2*
X968146D1*
X1066445D2*
X1145415D1*
X1241954D2*
X1718126D1*
X1816425D2*
X1895429D1*
X2347008D2*
X2540375D1*
X2647000D2*
X2658219D1*
X2729175D2*
X2789340D1*
X448089Y1545243D2*
X993014D1*
X1091312D2*
X1173798D1*
X1213606D2*
X1335169D1*
X1452236D2*
X1669252D1*
X1718138D2*
X1742993D1*
X1829164D2*
X1923778D1*
X1963622D2*
X2123797D1*
X2163604D2*
X2263098D1*
X2324294D2*
X2563091D1*
X2624322D2*
X2658219D1*
X2729175D2*
X2789340D1*
X448089Y1520374D2*
X1017882D1*
X1452236D2*
X1641944D1*
X1745446D2*
X1758209D1*
X1829199D2*
X2541955D1*
X2729175D2*
X2789340D1*
X448089Y1495505D2*
X1042749D1*
X1452236D2*
X1635197D1*
X1829199D2*
X2535209D1*
X2729175D2*
X2789340D1*
X448089Y1470636D2*
X1067617D1*
X1452236D2*
X1640150D1*
X1747240D2*
X1758209D1*
X1829199D2*
X2540160D1*
X2729175D2*
X2789340D1*
X448089Y1445768D2*
X1335169D1*
X1452236D2*
X1662218D1*
X1725207D2*
X1758209D1*
X1829199D2*
X2270526D1*
X2316865D2*
X2562193D1*
X2625182D2*
X2658219D1*
X2729175D2*
X2789340D1*
X448089Y1420899D2*
X547476D1*
X939917D2*
X1147495D1*
X1464867D2*
X1642231D1*
X1745159D2*
X1758209D1*
X1829199D2*
X2242214D1*
X2345178D2*
X2542241D1*
X2645169D2*
X2658219D1*
X2729175D2*
X2789340D1*
X448089Y1396030D2*
X539761D1*
X947633D2*
X1139744D1*
X1490525D2*
X1635234D1*
X1829199D2*
X2235217D1*
X2352176D2*
X2535244D1*
X2729175D2*
X2789340D1*
X448089Y1371161D2*
X544892D1*
X942501D2*
X1144912D1*
X1515392D2*
X1639898D1*
X1747491D2*
X1758209D1*
X1829199D2*
X2239917D1*
X2347475D2*
X2539909D1*
X2647503D2*
X2658219D1*
X2729175D2*
X2789340D1*
X448089Y1346293D2*
X571088D1*
X616314D2*
X758223D1*
X829178D2*
X858197D1*
X940277D2*
X1171108D1*
X1216298D2*
X1361365D1*
X1426041D2*
X1441961D1*
X1529100D2*
X1661357D1*
X1726033D2*
X1758209D1*
X1829199D2*
X2261340D1*
X2326051D2*
X2561369D1*
X2626043D2*
X2658219D1*
X2729175D2*
X2789340D1*
X448089Y1321424D2*
X758223D1*
X829178D2*
X866881D1*
X1444879D2*
X1458217D1*
X1529172D2*
X1623320D1*
X1744871D2*
X1758209D1*
X1829199D2*
X1897798D1*
X1989601D2*
X2097816D1*
X2189584D2*
X2658219D1*
X2729175D2*
X2789340D1*
X448089Y1296555D2*
X733213D1*
X854190D2*
X891677D1*
X1529172D2*
X1597411D1*
X1829199D2*
X1889795D1*
X1997604D2*
X2089778D1*
X2197622D2*
X2658219D1*
X2729175D2*
X2789340D1*
X448089Y1271686D2*
X733213D1*
X854190D2*
X916545D1*
X1447714D2*
X1458217D1*
X1529172D2*
X1572543D1*
X1747706D2*
X1758209D1*
X1829199D2*
X1894640D1*
X1992760D2*
X2094659D1*
X2192741D2*
X2647992D1*
X2739437D2*
X2789340D1*
X448089Y1246818D2*
X733213D1*
X854190D2*
X1360539D1*
X1426866D2*
X1458217D1*
X1529172D2*
X1558369D1*
X1645975D2*
X1660531D1*
X1726858D2*
X1747659D1*
X1829199D2*
X1919903D1*
X1967497D2*
X2108223D1*
X2179177D2*
X2639811D1*
X2747583D2*
X2789340D1*
X448089Y1221949D2*
X733213D1*
X854190D2*
X1342812D1*
X1444593D2*
X1458217D1*
X1529172D2*
X1558226D1*
X1629181D2*
X1642841D1*
X1821018D2*
X2108223D1*
X2179177D2*
X2644512D1*
X2742882D2*
X2789340D1*
X448089Y1197080D2*
X733213D1*
X854190D2*
X1335277D1*
X1529172D2*
X1558226D1*
X1796222D2*
X2035198D1*
X2179177D2*
X2669344D1*
X2718051D2*
X2789340D1*
X448089Y1172211D2*
X1339476D1*
X1447930D2*
X1458217D1*
X1529172D2*
X1558226D1*
X1629181D2*
X1639467D1*
X1771354D2*
X2035198D1*
X2171211D2*
X2789340D1*
X448089Y1147343D2*
X1359751D1*
X1427655D2*
X1458217D1*
X1529172D2*
X1558226D1*
X1629181D2*
X1659741D1*
X1727647D2*
X2035198D1*
X2152228D2*
X2789340D1*
X448089Y1122474D2*
X548480D1*
X638921D2*
X1458217D1*
X1529172D2*
X1558226D1*
X1629181D2*
X2035198D1*
X2152228D2*
X2789340D1*
X448089Y1097605D2*
X539869D1*
X647533D2*
X1458217D1*
X1529172D2*
X1558226D1*
X1629181D2*
X2035198D1*
X2152228D2*
X2789340D1*
X448089Y1072736D2*
X544175D1*
X643227D2*
X1458217D1*
X1529172D2*
X1558226D1*
X1629181D2*
X2043308D1*
X2144119D2*
X2789340D1*
X448089Y1047867D2*
X558205D1*
X638669D2*
X1458217D1*
X1529172D2*
X1558226D1*
X1629181D2*
X2035343D1*
X2152050D2*
X2789340D1*
X448089Y1022999D2*
X565526D1*
X1000239D2*
X1053264D1*
X1306583D2*
X1458217D1*
X1529172D2*
X1558226D1*
X1629181D2*
X2039146D1*
X2148245D2*
X2789340D1*
X448089Y998130D2*
X590106D1*
X1000239D2*
X1044795D1*
X1315014D2*
X1433205D1*
X1629181D2*
X2058631D1*
X2128797D2*
X2789340D1*
X448089Y973261D2*
X614974D1*
X1000239D2*
X1048634D1*
X1311211D2*
X1433205D1*
X1888373D2*
X2043631D1*
X2143797D2*
X2649033D1*
X2738361D2*
X2789340D1*
X448089Y948392D2*
X887156D1*
X1000239D2*
X1069196D1*
X1133154D2*
X1147962D1*
X1211883D2*
X1226692D1*
X1290650D2*
X1433205D1*
X1897487D2*
X2035378D1*
X2152013D2*
X2639919D1*
X2747475D2*
X2789340D1*
X448089Y923524D2*
X1433205D1*
X1893576D2*
X2038930D1*
X2148461D2*
X2643829D1*
X2743564D2*
X2789340D1*
X448089Y898655D2*
X1433205D1*
X1632734D2*
X1816269D1*
X1871148D2*
X2057913D1*
X2137911D2*
X2649500D1*
X2729175D2*
X2789340D1*
X448089Y873786D2*
X1458217D1*
X1529172D2*
X2064911D1*
X2162778D2*
X2624633D1*
X2722500D2*
X2789340D1*
X448089Y848917D2*
X1458217D1*
X1529172D2*
X2089348D1*
X2187647D2*
X2599764D1*
X2698063D2*
X2789340D1*
X448089Y824049D2*
X1458217D1*
X1529172D2*
X2114215D1*
X2212514D2*
X2449589D1*
X2673196D2*
X2789340D1*
X448089Y799180D2*
X1458217D1*
X1529172D2*
X2139083D1*
X2237382D2*
X2440008D1*
X2648328D2*
X2789340D1*
X448089Y774311D2*
X1458217D1*
X1529172D2*
X2163951D1*
X2262249D2*
X2443488D1*
X2624680D2*
X2789340D1*
X448089Y749442D2*
X1458217D1*
X1529172D2*
X1985176D1*
X2102206D2*
X2135638D1*
X2151797D2*
X2188819D1*
X2278685D2*
X2464875D1*
X2522517D2*
X2553689D1*
X2624680D2*
X2789340D1*
X448089Y724573D2*
X1199993D1*
X1287420D2*
X1458217D1*
X1529172D2*
X1985176D1*
X2292930D2*
X2544467D1*
X2642945D2*
X2789340D1*
X448089Y699705D2*
X1190054D1*
X1297324D2*
X1458217D1*
X1652219D2*
X1985176D1*
X2301902D2*
X2535496D1*
X2651881D2*
X2789340D1*
X448089Y674836D2*
X1193283D1*
X1887224D2*
X1985176D1*
X2298959D2*
X2538438D1*
X2648938D2*
X2789340D1*
X448089Y649967D2*
X1214025D1*
X1897307D2*
X1985176D1*
X2181223D2*
X2206186D1*
X2281197D2*
X2556201D1*
X2631211D2*
X2789340D1*
X448089Y625098D2*
X1263150D1*
X1894222D2*
X2789340D1*
X448089Y600230D2*
X1355875D1*
X1431530D2*
X1455885D1*
X1652219D2*
X1813613D1*
X1873803D2*
X2789340D1*
X448089Y575361D2*
X2789340D1*
X448089Y550492D2*
X481413D1*
X506005D2*
X2731387D1*
X2756016D2*
X2789340D1*
X544186Y525623D2*
X2693206D1*
X553409Y500755D2*
X2684020D1*
X551005Y475886D2*
X2686388D1*
X534929Y451017D2*
X2702465D1*
X2533218Y760718D2*
X2530112Y757290D1*
X2523967Y752043D1*
X2517077Y747822D1*
X2509613Y744728D1*
X2501756Y742843D1*
X2493701Y742209D1*
X2485646Y742843D1*
X2477789Y744728D1*
X2470324Y747822D1*
X2463434Y752043D1*
X2457290Y757290D1*
X2452043Y763434D1*
X2447822Y770324D1*
X2444728Y777789D1*
X2442843Y785646D1*
X2442209Y793701D1*
X2442843Y801756D1*
X2444728Y809613D1*
X2447822Y817077D1*
X2452043Y823967D1*
X2457290Y830112D1*
X2463434Y835358D1*
X2470324Y839580D1*
X2477789Y842673D1*
X2485646Y844559D1*
X2493701Y845193D1*
X2501756Y844559D1*
X2509613Y842673D1*
X2517077Y839580D1*
X2523967Y835358D1*
X2530112Y830112D1*
X2533218Y826684D1*
X2580003Y826689D1*
X2659005Y905659D1*
X2654546Y910260D1*
X2649797Y916797D1*
X2646129Y923996D1*
X2643631Y931680D1*
X2642367Y939661D1*
Y947740D1*
X2643631Y955722D1*
X2646129Y963406D1*
X2649797Y970605D1*
X2654546Y977142D1*
X2660260Y982856D1*
X2666797Y987605D1*
X2673996Y991273D1*
X2681680Y993770D1*
X2689661Y995034D1*
X2697740D1*
X2705722Y993770D1*
X2713406Y991273D1*
X2720605Y987605D1*
X2727142Y982856D1*
X2732856Y977142D1*
X2737605Y970605D1*
X2741273Y963406D1*
X2743770Y955722D1*
X2745034Y947740D1*
Y939661D1*
X2743770Y931680D1*
X2741273Y923996D1*
X2737605Y916797D1*
X2732856Y910260D1*
X2726684Y904184D1*
X2726588Y891113D1*
X2725777Y886000D1*
X2724178Y881076D1*
X2721828Y876465D1*
X2718785Y872277D1*
X2671556Y824904D1*
X2622164Y775328D1*
Y741920D1*
X2626629Y739022D1*
X2633312Y733312D1*
X2639022Y726629D1*
X2643614Y719133D1*
X2646979Y711012D1*
X2649030Y702465D1*
X2649720Y693701D1*
X2649030Y684937D1*
X2646979Y676390D1*
X2643614Y668269D1*
X2639022Y660773D1*
X2633312Y654089D1*
X2626629Y648379D1*
X2619133Y643787D1*
X2611012Y640423D1*
X2602465Y638371D1*
X2593701Y637681D1*
X2584937Y638371D1*
X2576390Y640423D1*
X2568269Y643787D1*
X2560773Y648379D1*
X2554089Y654089D1*
X2548379Y660773D1*
X2543787Y668269D1*
X2540423Y676390D1*
X2538371Y684937D1*
X2537681Y693701D1*
X2538371Y702465D1*
X2540423Y711012D1*
X2543787Y719133D1*
X2548379Y726629D1*
X2554089Y733312D1*
X2556196Y735260D1*
X2556188Y760699D1*
X2533232Y760713D1*
X1233218Y1360718D2*
X1230112Y1357290D1*
X1223967Y1352043D1*
X1217077Y1347822D1*
X1209613Y1344728D1*
X1201756Y1342843D1*
X1193701Y1342209D1*
X1185646Y1342843D1*
X1177789Y1344728D1*
X1170324Y1347822D1*
X1163434Y1352043D1*
X1157290Y1357290D1*
X1152043Y1363434D1*
X1147822Y1370324D1*
X1144728Y1377789D1*
X1142843Y1385646D1*
X1142209Y1393701D1*
X1142843Y1401756D1*
X1144728Y1409613D1*
X1147822Y1417077D1*
X1152043Y1423967D1*
X1157290Y1430112D1*
X1163434Y1435358D1*
X1170324Y1439580D1*
X1177789Y1442673D1*
X1185646Y1444559D1*
X1193701Y1445193D1*
X1201756Y1444559D1*
X1209613Y1442673D1*
X1217077Y1439580D1*
X1223967Y1435358D1*
X1230112Y1430112D1*
X1233218Y1426684D1*
X1348398Y1426689D1*
X1354089Y1433312D1*
X1359059Y1437671D1*
X1337681Y1437681D1*
Y1460682D1*
X1091113Y1460814D1*
X1086000Y1461623D1*
X1081076Y1463223D1*
X1076465Y1465573D1*
X1072277Y1468617D1*
X1024904Y1515845D1*
X918617Y1622277D1*
X915573Y1626465D1*
X913223Y1631076D1*
X911623Y1636000D1*
X910814Y1641113D1*
X910713Y1687659D1*
X887681Y1687681D1*
Y1799720D1*
X909033D1*
X904089Y1804089D1*
X898433Y1810706D1*
X741113Y1810814D1*
X736000Y1811625D1*
X731076Y1813223D1*
X726465Y1815573D1*
X722277Y1818617D1*
X674904Y1865845D1*
X668617Y1872277D1*
X665573Y1876465D1*
X663223Y1881076D1*
X661625Y1886000D1*
X660814Y1891113D1*
X660713Y1958005D1*
X660814Y1996289D1*
X661625Y2001402D1*
X663223Y2006325D1*
X665573Y2010937D1*
X668617Y2015125D1*
X715845Y2062497D1*
X772277Y2118785D1*
X776465Y2121828D1*
X781076Y2124178D1*
X786000Y2125777D1*
X791113Y2126588D1*
X858005Y2126689D1*
X1096289Y2126588D1*
X1101402Y2125777D1*
X1106325Y2124178D1*
X1110937Y2121828D1*
X1115125Y2118785D1*
X1162497Y2071556D1*
X1218785Y2015125D1*
X1221828Y2010937D1*
X1224178Y2006325D1*
X1225778Y2001402D1*
X1226588Y1996289D1*
X1226689Y1933236D1*
X1232856Y1927142D1*
X1237605Y1920605D1*
X1241273Y1913406D1*
X1243770Y1905722D1*
X1245034Y1897740D1*
Y1889661D1*
X1243770Y1881680D1*
X1241273Y1873996D1*
X1237605Y1866797D1*
X1232856Y1860260D1*
X1227142Y1854546D1*
X1220605Y1849797D1*
X1213406Y1846129D1*
X1205722Y1843631D1*
X1197740Y1842367D1*
X1189661D1*
X1181680Y1843631D1*
X1173996Y1846129D1*
X1166797Y1849797D1*
X1160260Y1854546D1*
X1154546Y1860260D1*
X1149797Y1866797D1*
X1146129Y1873996D1*
X1143631Y1881680D1*
X1142367Y1889661D1*
Y1897740D1*
X1143631Y1905722D1*
X1146129Y1913406D1*
X1149797Y1920605D1*
X1154546Y1927142D1*
X1160718Y1933218D1*
X1160713Y1980003D1*
X1080018Y2060731D1*
X807381Y2060713D1*
X726671Y1980018D1*
X726689Y1907399D1*
X757346Y1876707D1*
X898398Y1876689D1*
X904089Y1883312D1*
X910773Y1889022D1*
X918440Y1893694D1*
X910773Y1898379D1*
X904089Y1904089D1*
X898379Y1910773D1*
X893787Y1918269D1*
X890423Y1926390D1*
X888371Y1934937D1*
X887681Y1943701D1*
X888371Y1952465D1*
X890423Y1961012D1*
X893787Y1969133D1*
X898379Y1976629D1*
X904089Y1983312D1*
X910773Y1989022D1*
X918269Y1993614D1*
X926390Y1996979D1*
X934937Y1999030D1*
X943701Y1999720D1*
X952465Y1999030D1*
X961012Y1996979D1*
X969133Y1993614D1*
X976629Y1989022D1*
X983312Y1983312D1*
X988969Y1976696D1*
X996289Y1976588D1*
X1001402Y1975778D1*
X1006325Y1974178D1*
X1010937Y1971828D1*
X1015125Y1968785D1*
X1062497Y1921556D1*
X1207357Y1776697D1*
X1596289Y1776588D1*
X1601402Y1775778D1*
X1606325Y1774178D1*
X1610937Y1771828D1*
X1615125Y1768785D1*
X1662497Y1721556D1*
X1818785Y1565125D1*
X1821828Y1560937D1*
X1824178Y1556325D1*
X1825778Y1551402D1*
X1826588Y1546289D1*
X1826689Y1479396D1*
X1826588Y1241113D1*
X1825778Y1236000D1*
X1824178Y1231076D1*
X1821828Y1226465D1*
X1818785Y1222277D1*
X1771556Y1174904D1*
X1765125Y1168617D1*
X1760937Y1165573D1*
X1756325Y1163223D1*
X1751402Y1161623D1*
X1746289Y1160814D1*
X1739000Y1160713D1*
X1733312Y1154089D1*
X1726629Y1148379D1*
X1719133Y1143787D1*
X1711012Y1140423D1*
X1702465Y1138371D1*
X1693701Y1137681D1*
X1684937Y1138371D1*
X1676390Y1140423D1*
X1668269Y1143787D1*
X1660773Y1148379D1*
X1654089Y1154089D1*
X1648379Y1160773D1*
X1643787Y1168269D1*
X1640423Y1176390D1*
X1638371Y1184937D1*
X1637681Y1193701D1*
X1638371Y1202465D1*
X1640423Y1211012D1*
X1643787Y1219133D1*
X1648379Y1226629D1*
X1654089Y1233312D1*
X1660773Y1239022D1*
X1668440Y1243694D1*
X1660773Y1248379D1*
X1654089Y1254089D1*
X1652491Y1255818D1*
X1626707Y1230055D1*
X1626689Y991399D1*
X1631361Y987795D1*
X1637795Y981361D1*
X1641356Y976676D1*
X1804161Y976689D1*
X1810260Y982856D1*
X1816797Y987605D1*
X1823996Y991273D1*
X1831680Y993770D1*
X1839661Y995034D1*
X1847740D1*
X1855722Y993770D1*
X1863406Y991273D1*
X1870605Y987605D1*
X1877142Y982856D1*
X1882856Y977142D1*
X1887605Y970605D1*
X1891273Y963406D1*
X1893770Y955722D1*
X1895034Y947740D1*
Y939661D1*
X1893770Y931680D1*
X1891273Y923996D1*
X1887605Y916797D1*
X1882856Y910260D1*
X1877142Y904546D1*
X1870605Y899797D1*
X1863406Y896129D1*
X1855722Y893631D1*
X1847740Y892367D1*
X1839661D1*
X1831680Y893631D1*
X1823996Y896129D1*
X1816797Y899797D1*
X1810260Y904546D1*
X1804184Y910718D1*
X1641421Y910713D1*
X1637795Y906041D1*
X1631361Y899606D1*
X1624000Y894257D1*
X1615892Y890127D1*
X1607238Y887315D1*
X1598251Y885891D1*
X1589151D1*
X1580164Y887315D1*
X1571509Y890127D1*
X1563402Y894257D1*
X1556041Y899606D1*
X1551694Y903781D1*
X1551689Y885713D1*
X1526677D1*
X1526689Y688959D1*
X1533312Y683312D1*
X1537671Y678343D1*
X1537681Y699720D1*
X1649720D1*
Y676719D1*
X1804161Y676689D1*
X1810260Y682856D1*
X1816797Y687605D1*
X1823996Y691273D1*
X1831680Y693770D1*
X1839661Y695034D1*
X1847740D1*
X1855722Y693770D1*
X1863406Y691273D1*
X1870605Y687605D1*
X1877142Y682856D1*
X1882856Y677142D1*
X1887605Y670605D1*
X1891273Y663406D1*
X1893770Y655722D1*
X1895034Y647740D1*
Y639661D1*
X1893770Y631680D1*
X1891273Y623996D1*
X1887605Y616797D1*
X1882856Y610260D1*
X1877142Y604546D1*
X1870605Y599797D1*
X1863406Y596129D1*
X1855722Y593631D1*
X1847740Y592367D1*
X1839661D1*
X1831680Y593631D1*
X1823996Y596129D1*
X1816797Y599797D1*
X1810260Y604546D1*
X1804184Y610718D1*
X1649747Y610713D1*
X1649720Y587681D1*
X1537681D1*
Y609031D1*
X1533312Y604089D1*
X1526629Y598379D1*
X1519133Y593787D1*
X1511012Y590423D1*
X1502465Y588371D1*
X1493701Y587681D1*
X1484937Y588371D1*
X1476390Y590423D1*
X1468269Y593787D1*
X1460773Y598379D1*
X1454089Y604089D1*
X1448379Y610773D1*
X1443707Y618440D1*
X1439022Y610773D1*
X1433312Y604089D1*
X1426629Y598379D1*
X1419133Y593787D1*
X1411012Y590423D1*
X1402465Y588371D1*
X1393701Y587681D1*
X1384937Y588371D1*
X1376390Y590423D1*
X1368269Y593787D1*
X1360773Y598379D1*
X1354089Y604089D1*
X1348433Y610706D1*
X1291113Y610814D1*
X1286000Y611623D1*
X1281076Y613223D1*
X1276465Y615573D1*
X1272277Y618617D1*
X1248324Y642424D1*
X1239661Y642367D1*
X1231680Y643631D1*
X1223996Y646129D1*
X1216797Y649797D1*
X1210260Y654546D1*
X1204546Y660260D1*
X1199797Y666797D1*
X1196129Y673996D1*
X1193631Y681680D1*
X1192367Y689661D1*
Y697740D1*
X1193631Y705722D1*
X1196129Y713406D1*
X1199797Y720605D1*
X1204546Y727142D1*
X1210260Y732856D1*
X1216797Y737605D1*
X1223996Y741273D1*
X1231680Y743770D1*
X1239661Y745034D1*
X1247740D1*
X1255722Y743770D1*
X1263406Y741273D1*
X1270605Y737605D1*
X1277142Y732856D1*
X1282856Y727142D1*
X1287605Y720605D1*
X1291273Y713406D1*
X1293770Y705722D1*
X1295034Y697740D1*
X1294966Y689080D1*
X1307346Y676707D1*
X1348424Y676689D1*
X1354089Y683312D1*
X1360773Y689022D1*
X1368269Y693614D1*
X1376390Y696979D1*
X1384937Y699030D1*
X1393701Y699720D1*
X1402465Y699030D1*
X1411012Y696979D1*
X1419133Y693614D1*
X1426629Y689022D1*
X1433312Y683312D1*
X1439022Y676629D1*
X1443694Y668962D1*
X1448379Y676629D1*
X1454089Y683312D1*
X1460706Y688969D1*
X1460713Y885740D1*
X1435713Y885713D1*
Y1001689D1*
X1460724D1*
X1460713Y1330066D1*
X1434928Y1355822D1*
X1430083Y1351104D1*
X1422971Y1345936D1*
X1419133Y1343614D1*
X1426629Y1339022D1*
X1433312Y1333312D1*
X1439022Y1326629D1*
X1443614Y1319133D1*
X1446979Y1311012D1*
X1449030Y1302465D1*
X1449720Y1293701D1*
X1449030Y1284937D1*
X1446979Y1276390D1*
X1443614Y1268269D1*
X1439022Y1260773D1*
X1433312Y1254089D1*
X1426629Y1248379D1*
X1418962Y1243707D1*
X1426629Y1239022D1*
X1433312Y1233312D1*
X1439022Y1226629D1*
X1443614Y1219133D1*
X1446979Y1211012D1*
X1449030Y1202465D1*
X1449720Y1193701D1*
X1449030Y1184937D1*
X1446979Y1176390D1*
X1443614Y1168269D1*
X1439022Y1160773D1*
X1433312Y1154089D1*
X1426629Y1148379D1*
X1419133Y1143787D1*
X1411012Y1140423D1*
X1402465Y1138371D1*
X1393701Y1137681D1*
X1384937Y1138371D1*
X1376390Y1140423D1*
X1368269Y1143787D1*
X1360773Y1148379D1*
X1354089Y1154089D1*
X1348379Y1160773D1*
X1343787Y1168269D1*
X1340423Y1176390D1*
X1338371Y1184937D1*
X1337681Y1193701D1*
X1338371Y1202465D1*
X1340423Y1211012D1*
X1343787Y1219133D1*
X1348379Y1226629D1*
X1354089Y1233312D1*
X1360773Y1239022D1*
X1368440Y1243694D1*
X1360773Y1248379D1*
X1354089Y1254089D1*
X1348433Y1260706D1*
X941113Y1260814D1*
X936000Y1261623D1*
X931076Y1263223D1*
X926465Y1265573D1*
X922277Y1268617D1*
X874904Y1315845D1*
X868617Y1322277D1*
X865573Y1326465D1*
X863223Y1331076D1*
X861623Y1336000D1*
X860814Y1341113D1*
X860713Y1354143D1*
X854546Y1360260D1*
X854184Y1360718D1*
X826705Y1360713D1*
X826689Y1301657D1*
X851689Y1301689D1*
Y1185713D1*
X735713D1*
Y1301689D1*
X760724D1*
X760713Y1360719D1*
X633262Y1360713D1*
X627142Y1354546D1*
X620605Y1349797D1*
X613406Y1346129D1*
X605722Y1343631D1*
X597740Y1342367D1*
X589661D1*
X581680Y1343631D1*
X573996Y1346129D1*
X566797Y1349797D1*
X560260Y1354546D1*
X554546Y1360260D1*
X549797Y1366797D1*
X546129Y1373996D1*
X543631Y1381680D1*
X542367Y1389661D1*
Y1397740D1*
X543631Y1405722D1*
X546129Y1413406D1*
X549797Y1420605D1*
X554546Y1427142D1*
X560260Y1432856D1*
X566797Y1437605D1*
X573996Y1441273D1*
X581680Y1443770D1*
X589661Y1445034D1*
X597740D1*
X605722Y1443770D1*
X613406Y1441273D1*
X620605Y1437605D1*
X627142Y1432856D1*
X633218Y1426684D1*
X854165Y1426689D1*
X860260Y1432856D1*
X866797Y1437605D1*
X873996Y1441273D1*
X881680Y1443770D1*
X889661Y1445034D1*
X897740D1*
X905722Y1443770D1*
X913406Y1441273D1*
X920605Y1437605D1*
X927142Y1432856D1*
X932856Y1427142D1*
X937605Y1420605D1*
X941273Y1413406D1*
X943770Y1405722D1*
X945034Y1397740D1*
Y1389661D1*
X943770Y1381680D1*
X941273Y1373996D1*
X937605Y1366797D1*
X932856Y1360260D1*
X928383Y1355693D1*
X957346Y1326707D1*
X1348438Y1326689D1*
X1354089Y1333312D1*
X1360773Y1339022D1*
X1368440Y1343694D1*
X1360773Y1348379D1*
X1354089Y1354089D1*
X1348433Y1360706D1*
X1233262Y1360713D1*
X1551694Y983621D2*
X1556041Y987795D1*
X1560726Y991356D1*
X1560814Y1246289D1*
X1561623Y1251402D1*
X1563223Y1256325D1*
X1565573Y1260937D1*
X1568617Y1265125D1*
X1615845Y1312497D1*
X1622277Y1318785D1*
X1626465Y1321828D1*
X1631076Y1324178D1*
X1636000Y1325778D1*
X1641113Y1326588D1*
X1643711Y1326689D1*
X1651104Y1330083D1*
X1657319Y1336298D1*
X1664430Y1341466D1*
X1668269Y1343787D1*
X1660773Y1348379D1*
X1654089Y1354089D1*
X1648379Y1360773D1*
X1643787Y1368269D1*
X1640423Y1376390D1*
X1638371Y1384937D1*
X1637681Y1393701D1*
X1638371Y1402465D1*
X1640423Y1411012D1*
X1643787Y1419133D1*
X1648379Y1426629D1*
X1654089Y1433312D1*
X1660773Y1439022D1*
X1668440Y1443694D1*
X1660773Y1448379D1*
X1654089Y1454089D1*
X1648379Y1460773D1*
X1643787Y1468269D1*
X1640423Y1476390D1*
X1638371Y1484937D1*
X1637681Y1493701D1*
X1638371Y1502465D1*
X1640423Y1511012D1*
X1643787Y1519133D1*
X1648379Y1526629D1*
X1654089Y1533312D1*
X1660773Y1539022D1*
X1668269Y1543614D1*
X1676390Y1546979D1*
X1684937Y1549030D1*
X1693701Y1549720D1*
X1702465Y1549030D1*
X1711012Y1546979D1*
X1719133Y1543614D1*
X1726629Y1539022D1*
X1733312Y1533312D1*
X1739022Y1526629D1*
X1743614Y1519133D1*
X1746979Y1511012D1*
X1749030Y1502465D1*
X1749720Y1493701D1*
X1749030Y1484937D1*
X1746979Y1476390D1*
X1743614Y1468269D1*
X1739022Y1460773D1*
X1733312Y1454089D1*
X1726629Y1448379D1*
X1718962Y1443707D1*
X1726629Y1439022D1*
X1733312Y1433312D1*
X1739022Y1426629D1*
X1743614Y1419133D1*
X1746979Y1411012D1*
X1749030Y1402465D1*
X1749720Y1393701D1*
X1749030Y1384937D1*
X1746979Y1376390D1*
X1743614Y1368269D1*
X1739022Y1360773D1*
X1733312Y1354089D1*
X1726629Y1348379D1*
X1718962Y1343707D1*
X1726629Y1339022D1*
X1733312Y1333312D1*
X1739022Y1326629D1*
X1743614Y1319133D1*
X1746979Y1311012D1*
X1749030Y1302465D1*
X1749720Y1293701D1*
X1749030Y1284937D1*
X1746979Y1276390D1*
X1743614Y1268269D1*
X1739022Y1260773D1*
X1733312Y1254089D1*
X1726629Y1248379D1*
X1718962Y1243707D1*
X1726629Y1239022D1*
X1733312Y1233312D1*
X1734911Y1231584D1*
X1760694Y1257346D1*
X1760713Y1530021D1*
X1580045Y1710705D1*
X1191113Y1710814D1*
X1186000Y1711623D1*
X1181076Y1713223D1*
X1176465Y1715573D1*
X1172277Y1718617D1*
X1124904Y1765845D1*
X984967Y1905782D1*
X980083Y1901104D1*
X972971Y1895936D1*
X969133Y1893614D1*
X976629Y1889022D1*
X983312Y1883312D1*
X989022Y1876629D1*
X993614Y1869133D1*
X996979Y1861012D1*
X999030Y1852465D1*
X999720Y1843701D1*
X999030Y1834937D1*
X996979Y1826390D1*
X993614Y1818269D1*
X989022Y1810773D1*
X983312Y1804089D1*
X978343Y1799731D1*
X999720Y1799720D1*
Y1687681D1*
X976719D1*
X976689Y1657399D1*
X1107370Y1526684D1*
X1337677Y1526689D1*
X1337681Y1549720D1*
X1449720D1*
Y1437681D1*
X1428370D1*
X1433312Y1433312D1*
X1438969Y1426696D1*
X1446289Y1426588D1*
X1451402Y1425777D1*
X1456325Y1424178D1*
X1460937Y1421828D1*
X1465125Y1418785D1*
X1512497Y1371556D1*
X1518785Y1365125D1*
X1521828Y1360937D1*
X1524178Y1356325D1*
X1525777Y1351402D1*
X1526588Y1346289D1*
X1526689Y1279396D1*
Y1001689D1*
X1551689D1*
Y983639D1*
X2745034Y1239661D2*
X2743770Y1231680D1*
X2741273Y1223996D1*
X2737605Y1216797D1*
X2732856Y1210260D1*
X2727142Y1204546D1*
X2720605Y1199797D1*
X2713406Y1196129D1*
X2705722Y1193631D1*
X2697740Y1192367D1*
X2689661D1*
X2681680Y1193631D1*
X2673996Y1196129D1*
X2666797Y1199797D1*
X2660260Y1204546D1*
X2654546Y1210260D1*
X2649797Y1216797D1*
X2646129Y1223996D1*
X2643631Y1231680D1*
X2642367Y1239661D1*
Y1247740D1*
X2643631Y1255722D1*
X2646129Y1263406D1*
X2649797Y1270605D1*
X2654546Y1277142D1*
X2660718Y1283218D1*
X2660713Y1460693D1*
X2638978Y1460713D1*
X2633312Y1454089D1*
X2626629Y1448379D1*
X2618962Y1443707D1*
X2626629Y1439022D1*
X2633312Y1433312D1*
X2639022Y1426629D1*
X2643614Y1419133D1*
X2646979Y1411012D1*
X2649030Y1402465D1*
X2649720Y1393701D1*
X2649030Y1384937D1*
X2646979Y1376390D1*
X2643614Y1368269D1*
X2639022Y1360773D1*
X2633312Y1354089D1*
X2626629Y1348379D1*
X2619133Y1343787D1*
X2611012Y1340423D1*
X2602465Y1338371D1*
X2593701Y1337681D1*
X2584937Y1338371D1*
X2576390Y1340423D1*
X2568269Y1343787D1*
X2560773Y1348379D1*
X2554089Y1354089D1*
X2548379Y1360773D1*
X2543787Y1368269D1*
X2540423Y1376390D1*
X2538371Y1384937D1*
X2537681Y1393701D1*
X2538371Y1402465D1*
X2540423Y1411012D1*
X2543787Y1419133D1*
X2548379Y1426629D1*
X2554089Y1433312D1*
X2560773Y1439022D1*
X2568440Y1443694D1*
X2560773Y1448379D1*
X2554089Y1454089D1*
X2548379Y1460773D1*
X2543787Y1468269D1*
X2540423Y1476390D1*
X2538371Y1484937D1*
X2537681Y1493701D1*
X2538371Y1502465D1*
X2540423Y1511012D1*
X2543787Y1519133D1*
X2548379Y1526629D1*
X2554089Y1533312D1*
X2560773Y1539022D1*
X2568440Y1543694D1*
X2560773Y1548379D1*
X2554089Y1554089D1*
X2548379Y1560773D1*
X2543787Y1568269D1*
X2540423Y1576390D1*
X2538371Y1584937D1*
X2537681Y1593701D1*
X2538371Y1602465D1*
X2540423Y1611012D1*
X2543787Y1619133D1*
X2548379Y1626629D1*
X2554089Y1633312D1*
X2560773Y1639022D1*
X2568440Y1643694D1*
X2560773Y1648379D1*
X2554089Y1654089D1*
X2548379Y1660773D1*
X2543787Y1668269D1*
X2540423Y1676390D1*
X2538371Y1684937D1*
X2537681Y1693701D1*
X2538371Y1702465D1*
X2540423Y1711012D1*
X2543787Y1719133D1*
X2548379Y1726629D1*
X2554089Y1733312D1*
X2560773Y1739022D1*
X2568269Y1743614D1*
X2576390Y1746979D1*
X2584937Y1749030D1*
X2593701Y1749720D1*
X2602465Y1749030D1*
X2611012Y1746979D1*
X2619133Y1743614D1*
X2626629Y1739022D1*
X2633312Y1733312D1*
X2639022Y1726629D1*
X2643614Y1719133D1*
X2646979Y1711012D1*
X2649030Y1702465D1*
X2649720Y1693701D1*
X2649030Y1684937D1*
X2646979Y1676390D1*
X2643614Y1668269D1*
X2639022Y1660773D1*
X2633312Y1654089D1*
X2626629Y1648379D1*
X2618962Y1643707D1*
X2626629Y1639022D1*
X2633312Y1633312D1*
X2639022Y1626629D1*
X2643614Y1619133D1*
X2646979Y1611012D1*
X2649030Y1602465D1*
X2649720Y1593701D1*
X2649030Y1584937D1*
X2646979Y1576390D1*
X2643614Y1568269D1*
X2639022Y1560773D1*
X2633312Y1554089D1*
X2626629Y1548379D1*
X2618962Y1543707D1*
X2626629Y1539022D1*
X2633312Y1533312D1*
X2638969Y1526696D1*
X2660697Y1526689D1*
X2660713Y1848416D1*
X2654089Y1854089D1*
X2648433Y1860706D1*
X2283222Y1860713D1*
X2277142Y1854546D1*
X2270605Y1849797D1*
X2263406Y1846129D1*
X2255722Y1843631D1*
X2247740Y1842367D1*
X2239661D1*
X2231680Y1843631D1*
X2223996Y1846129D1*
X2216797Y1849797D1*
X2210260Y1854546D1*
X2204546Y1860260D1*
X2199797Y1866797D1*
X2196129Y1873996D1*
X2193631Y1881680D1*
X2192367Y1889661D1*
Y1897740D1*
X2193631Y1905722D1*
X2196129Y1913406D1*
X2199797Y1920605D1*
X2204546Y1927142D1*
X2210260Y1932856D1*
X2216797Y1937605D1*
X2223996Y1941273D1*
X2231680Y1943770D1*
X2239661Y1945034D1*
X2247740D1*
X2255722Y1943770D1*
X2263406Y1941273D1*
X2270605Y1937605D1*
X2277142Y1932856D1*
X2283218Y1926684D1*
X2648438Y1926689D1*
X2654089Y1933312D1*
X2660773Y1939022D1*
X2668269Y1943614D1*
X2676390Y1946979D1*
X2684937Y1949030D1*
X2693701Y1949720D1*
X2702465Y1949030D1*
X2711012Y1946979D1*
X2719133Y1943614D1*
X2726629Y1939022D1*
X2733312Y1933312D1*
X2739022Y1926629D1*
X2743614Y1919133D1*
X2746979Y1911012D1*
X2749030Y1902465D1*
X2749720Y1893701D1*
X2749030Y1884937D1*
X2746979Y1876390D1*
X2743614Y1868269D1*
X2739022Y1860773D1*
X2733312Y1854089D1*
X2726696Y1848433D1*
X2726689Y1283240D1*
X2732856Y1277142D1*
X2737605Y1270605D1*
X2741273Y1263406D1*
X2743770Y1255722D1*
X2745034Y1247740D1*
Y1239661D1*
X1245034Y1589661D2*
X1243770Y1581680D1*
X1241273Y1573996D1*
X1237605Y1566797D1*
X1232856Y1560260D1*
X1227142Y1554546D1*
X1220605Y1549797D1*
X1213406Y1546129D1*
X1205722Y1543631D1*
X1197740Y1542367D1*
X1189661D1*
X1181680Y1543631D1*
X1173996Y1546129D1*
X1166797Y1549797D1*
X1160260Y1554546D1*
X1154546Y1560260D1*
X1149797Y1566797D1*
X1146129Y1573996D1*
X1143631Y1581680D1*
X1142367Y1589661D1*
Y1597740D1*
X1143631Y1605722D1*
X1146129Y1613406D1*
X1149797Y1620605D1*
X1154546Y1627142D1*
X1160260Y1632856D1*
X1166797Y1637605D1*
X1173996Y1641273D1*
X1181680Y1643770D1*
X1189661Y1645034D1*
X1197740D1*
X1205722Y1643770D1*
X1213406Y1641273D1*
X1220605Y1637605D1*
X1227142Y1632856D1*
X1232856Y1627142D1*
X1237605Y1620605D1*
X1241273Y1613406D1*
X1243770Y1605722D1*
X1245034Y1597740D1*
Y1589661D1*
X645034Y1089661D2*
X643770Y1081680D1*
X641273Y1073996D1*
X637605Y1066797D1*
X632856Y1060260D1*
X628383Y1055693D1*
X657346Y1026707D1*
X889615Y1026689D1*
X889650Y1047752D1*
X997752D1*
Y939650D1*
X889650D1*
Y960714D1*
X641113Y960814D1*
X636000Y961623D1*
X631076Y963223D1*
X626465Y965573D1*
X622277Y968617D1*
X574904Y1015845D1*
X568617Y1022277D1*
X565573Y1026465D1*
X563223Y1031076D1*
X561623Y1036000D1*
X560814Y1041113D1*
X560713Y1054143D1*
X554546Y1060260D1*
X549797Y1066797D1*
X546129Y1073996D1*
X543631Y1081680D1*
X542367Y1089661D1*
Y1097740D1*
X543631Y1105722D1*
X546129Y1113406D1*
X549797Y1120605D1*
X554546Y1127142D1*
X560260Y1132856D1*
X566797Y1137605D1*
X573996Y1141273D1*
X581680Y1143770D1*
X589661Y1145034D1*
X597740D1*
X605722Y1143770D1*
X613406Y1141273D1*
X620605Y1137605D1*
X627142Y1132856D1*
X632856Y1127142D1*
X637605Y1120605D1*
X641273Y1113406D1*
X643770Y1105722D1*
X645034Y1097740D1*
Y1089661D1*
X1995034Y1889661D2*
X1993770Y1881680D1*
X1991273Y1873996D1*
X1987605Y1866797D1*
X1982856Y1860260D1*
X1976684Y1854184D1*
X1976689Y1633218D1*
X1982856Y1627142D1*
X1983218Y1626684D1*
X2104139Y1626689D1*
X2110260Y1632856D1*
X2116797Y1637605D1*
X2123996Y1641273D1*
X2131680Y1643770D1*
X2139661Y1645034D1*
X2147740D1*
X2155722Y1643770D1*
X2163406Y1641273D1*
X2170605Y1637605D1*
X2177142Y1632856D1*
X2183218Y1626684D1*
X2248446Y1626689D1*
X2254089Y1633312D1*
X2259059Y1637671D1*
X2237681Y1637681D1*
Y1749720D1*
X2349720D1*
Y1637681D1*
X2328370D1*
X2333312Y1633312D1*
X2339022Y1626629D1*
X2343614Y1619133D1*
X2346979Y1611012D1*
X2349030Y1602465D1*
X2349720Y1593701D1*
X2349030Y1584937D1*
X2346979Y1576390D1*
X2343614Y1568269D1*
X2339022Y1560773D1*
X2333312Y1554089D1*
X2326629Y1548379D1*
X2319133Y1543787D1*
X2311012Y1540423D1*
X2302465Y1538371D1*
X2293701Y1537681D1*
X2284937Y1538371D1*
X2276390Y1540423D1*
X2268269Y1543787D1*
X2260773Y1548379D1*
X2254089Y1554089D1*
X2248433Y1560706D1*
X2183214Y1560713D1*
X2177142Y1554546D1*
X2170605Y1549797D1*
X2163406Y1546129D1*
X2155722Y1543631D1*
X2147740Y1542367D1*
X2139661D1*
X2131680Y1543631D1*
X2123996Y1546129D1*
X2116797Y1549797D1*
X2110260Y1554546D1*
X2104184Y1560718D1*
X1983262Y1560713D1*
X1977142Y1554546D1*
X1970605Y1549797D1*
X1963406Y1546129D1*
X1955722Y1543631D1*
X1947740Y1542367D1*
X1939661D1*
X1931680Y1543631D1*
X1923996Y1546129D1*
X1916797Y1549797D1*
X1910260Y1554546D1*
X1904546Y1560260D1*
X1899797Y1566797D1*
X1896129Y1573996D1*
X1893631Y1581680D1*
X1892367Y1589661D1*
Y1597740D1*
X1893631Y1605722D1*
X1896129Y1613406D1*
X1899797Y1620605D1*
X1904546Y1627142D1*
X1910718Y1633218D1*
X1910713Y1854184D1*
X1904546Y1860260D1*
X1899797Y1866797D1*
X1896129Y1873996D1*
X1893631Y1881680D1*
X1892367Y1889661D1*
Y1897740D1*
X1893631Y1905722D1*
X1896129Y1913406D1*
X1899797Y1920605D1*
X1904546Y1927142D1*
X1910260Y1932856D1*
X1916797Y1937605D1*
X1923996Y1941273D1*
X1931680Y1943770D1*
X1939661Y1945034D1*
X1947740D1*
X1955722Y1943770D1*
X1963406Y1941273D1*
X1970605Y1937605D1*
X1977142Y1932856D1*
X1982856Y1927142D1*
X1987605Y1920605D1*
X1991273Y1913406D1*
X1993770Y1905722D1*
X1995034Y1897740D1*
Y1889661D1*
Y1289661D2*
X1993770Y1281680D1*
X1991273Y1273996D1*
X1987605Y1266797D1*
X1982856Y1260260D1*
X1977142Y1254546D1*
X1970605Y1249797D1*
X1963406Y1246129D1*
X1955722Y1243631D1*
X1947740Y1242367D1*
X1939661D1*
X1931680Y1243631D1*
X1923996Y1246129D1*
X1916797Y1249797D1*
X1910260Y1254546D1*
X1904546Y1260260D1*
X1899797Y1266797D1*
X1896129Y1273996D1*
X1893631Y1281680D1*
X1892367Y1289661D1*
Y1297740D1*
X1893631Y1305722D1*
X1896129Y1313406D1*
X1899797Y1320605D1*
X1904546Y1327142D1*
X1910260Y1332856D1*
X1916797Y1337605D1*
X1923996Y1341273D1*
X1931680Y1343770D1*
X1939661Y1345034D1*
X1947740D1*
X1955722Y1343770D1*
X1963406Y1341273D1*
X1970605Y1337605D1*
X1977142Y1332856D1*
X1982856Y1327142D1*
X1987605Y1320605D1*
X1991273Y1313406D1*
X1993770Y1305722D1*
X1995034Y1297740D1*
Y1289661D1*
X2046867Y1199720D2*
X2103098D1*
X2110694Y1207346D1*
X2110713Y1254165D1*
X2104546Y1260260D1*
X2099797Y1266797D1*
X2096129Y1273996D1*
X2093631Y1281680D1*
X2092367Y1289661D1*
Y1297740D1*
X2093631Y1305722D1*
X2096129Y1313406D1*
X2099797Y1320605D1*
X2104546Y1327142D1*
X2110260Y1332856D1*
X2116797Y1337605D1*
X2123996Y1341273D1*
X2131680Y1343770D1*
X2139661Y1345034D1*
X2147740D1*
X2155722Y1343770D1*
X2163406Y1341273D1*
X2170605Y1337605D1*
X2177142Y1332856D1*
X2182856Y1327142D1*
X2187605Y1320605D1*
X2191273Y1313406D1*
X2193770Y1305722D1*
X2195034Y1297740D1*
Y1289661D1*
X2193770Y1281680D1*
X2191273Y1273996D1*
X2187605Y1266797D1*
X2182856Y1260260D1*
X2176684Y1254184D1*
X2176588Y1191113D1*
X2175777Y1186000D1*
X2174178Y1181076D1*
X2171828Y1176465D1*
X2168785Y1172277D1*
X2149697Y1153045D1*
X2149720Y1087681D1*
X2128370D1*
X2133312Y1083312D1*
X2139022Y1076629D1*
X2143614Y1069133D1*
X2146979Y1061012D1*
X2149030Y1052465D1*
X2149720Y1043701D1*
X2149030Y1034937D1*
X2146979Y1026390D1*
X2143614Y1018269D1*
X2139022Y1010773D1*
X2133312Y1004089D1*
X2126629Y998379D1*
X2118962Y993707D1*
X2126629Y989022D1*
X2133312Y983312D1*
X2139022Y976629D1*
X2143614Y969133D1*
X2146979Y961012D1*
X2149030Y952465D1*
X2149720Y943701D1*
X2149030Y934937D1*
X2146979Y926390D1*
X2143614Y918269D1*
X2139022Y910773D1*
X2133312Y904089D1*
X2131584Y902491D1*
X2268785Y765125D1*
X2271828Y760937D1*
X2274178Y756325D1*
X2275778Y751402D1*
X2276588Y746289D1*
X2276689Y743690D1*
X2280083Y736298D1*
X2286298Y730083D1*
X2291466Y722971D1*
X2295457Y715139D1*
X2298173Y706778D1*
X2299547Y698096D1*
Y689306D1*
X2298173Y680623D1*
X2295457Y672262D1*
X2291466Y664430D1*
X2286298Y657319D1*
X2280083Y651104D1*
X2272971Y645936D1*
X2265139Y641945D1*
X2256778Y639228D1*
X2248096Y637854D1*
X2239306D1*
X2230623Y639228D1*
X2222262Y641945D1*
X2214430Y645936D1*
X2207319Y651104D1*
X2201104Y657319D1*
X2198433Y660706D1*
X2188978Y660713D1*
X2183312Y654089D1*
X2176629Y648379D1*
X2169133Y643787D1*
X2161012Y640423D1*
X2152465Y638371D1*
X2143701Y637681D1*
X2134937Y638371D1*
X2126390Y640423D1*
X2118269Y643787D1*
X2110773Y648379D1*
X2104089Y654089D1*
X2099731Y659059D1*
X2099720Y637681D1*
X1987681D1*
Y749720D1*
X2099720D1*
Y728369D1*
X2104089Y733312D1*
X2110773Y739022D1*
X2118269Y743614D1*
X2126390Y746979D1*
X2134937Y749030D1*
X2143701Y749720D1*
X2152465Y749030D1*
X2161012Y746979D1*
X2169133Y743614D1*
X2176629Y739022D1*
X2183312Y733312D1*
X2188969Y726696D1*
X2198424Y726689D1*
X2204089Y733312D1*
X2205818Y734911D1*
X2068617Y872277D1*
X2065573Y876465D1*
X2063223Y881076D1*
X2061623Y886000D1*
X2060814Y891113D1*
X2060713Y893711D1*
X2057319Y901104D1*
X2051104Y907319D1*
X2045936Y914430D1*
X2041945Y922262D1*
X2039228Y930623D1*
X2037854Y939306D1*
Y948096D1*
X2039228Y956778D1*
X2041945Y965139D1*
X2045936Y972971D1*
X2051104Y980083D1*
X2057319Y986298D1*
X2064430Y991466D1*
X2068269Y993787D1*
X2060773Y998379D1*
X2054089Y1004089D1*
X2048379Y1010773D1*
X2043787Y1018269D1*
X2040423Y1026390D1*
X2038371Y1034937D1*
X2037681Y1043701D1*
X2038371Y1052465D1*
X2040423Y1061012D1*
X2043787Y1069133D1*
X2048379Y1076629D1*
X2054089Y1083312D1*
X2059059Y1087671D1*
X2037681Y1087681D1*
Y1199720D1*
X2046867D1*
X1140516Y956686D2*
X1136285Y952600D1*
X1129423Y947614D1*
X1121866Y943764D1*
X1113799Y941143D1*
X1105421Y939816D1*
X1096941D1*
X1088563Y941143D1*
X1080496Y943764D1*
X1072940Y947614D1*
X1066077Y952600D1*
X1060080Y958597D1*
X1055094Y965459D1*
X1051244Y973016D1*
X1048623Y981083D1*
X1047297Y989461D1*
Y997941D1*
X1048623Y1006319D1*
X1051244Y1014386D1*
X1055094Y1021942D1*
X1060080Y1028804D1*
X1066077Y1034802D1*
X1072940Y1039787D1*
X1080496Y1043638D1*
X1088563Y1046259D1*
X1096941Y1047585D1*
X1105421D1*
X1113799Y1046259D1*
X1121866Y1043638D1*
X1129423Y1039787D1*
X1136285Y1034802D1*
X1140516Y1030715D1*
X1144818Y1034802D1*
X1151680Y1039787D1*
X1159236Y1043638D1*
X1167303Y1046259D1*
X1175681Y1047585D1*
X1184161D1*
X1192539Y1046259D1*
X1200606Y1043638D1*
X1208163Y1039787D1*
X1215025Y1034802D1*
X1219256Y1030715D1*
X1223558Y1034802D1*
X1230420Y1039787D1*
X1237976Y1043638D1*
X1246043Y1046259D1*
X1254421Y1047585D1*
X1262902D1*
X1271280Y1046259D1*
X1279346Y1043638D1*
X1286903Y1039787D1*
X1293765Y1034802D1*
X1299762Y1028804D1*
X1304748Y1021942D1*
X1308598Y1014386D1*
X1311219Y1006319D1*
X1312546Y997941D1*
Y989461D1*
X1311219Y981083D1*
X1308598Y973016D1*
X1304748Y965459D1*
X1299762Y958597D1*
X1293765Y952600D1*
X1286903Y947614D1*
X1279346Y943764D1*
X1271280Y941143D1*
X1262902Y939816D1*
X1254421D1*
X1246043Y941143D1*
X1237976Y943764D1*
X1230420Y947614D1*
X1223558Y952600D1*
X1219327Y956686D1*
X1215025Y952600D1*
X1208163Y947614D1*
X1200606Y943764D1*
X1192539Y941143D1*
X1184161Y939816D1*
X1175681D1*
X1167303Y941143D1*
X1159236Y943764D1*
X1151680Y947614D1*
X1144818Y952600D1*
X1140587Y956686D1*
X551155Y2139178D2*
X549740Y2130247D1*
X546945Y2121646D1*
X542840Y2113588D1*
X537524Y2106272D1*
X531130Y2099878D1*
X523814Y2094562D1*
X515756Y2090457D1*
X507155Y2087661D1*
X498223Y2086247D1*
X489178D1*
X480247Y2087661D1*
X471646Y2090457D1*
X463588Y2094562D1*
X456272Y2099878D1*
X449878Y2106272D1*
X445573Y2112075D1*
X445571Y525417D1*
X449878Y531130D1*
X456272Y537524D1*
X463588Y542840D1*
X471646Y546945D1*
X480247Y549740D1*
X489178Y551155D1*
X498223D1*
X507155Y549740D1*
X515756Y546945D1*
X523814Y542840D1*
X531130Y537524D1*
X537524Y531130D1*
X542840Y523814D1*
X546945Y515756D1*
X549740Y507155D1*
X551155Y498223D1*
Y489178D1*
X549740Y480247D1*
X546945Y471646D1*
X542840Y463588D1*
X537524Y456272D1*
X531130Y449878D1*
X525327Y445573D1*
X2711969Y445571D1*
X2706272Y449878D1*
X2699878Y456272D1*
X2694562Y463588D1*
X2690457Y471646D1*
X2687661Y480247D1*
X2686247Y489178D1*
Y498223D1*
X2687661Y507155D1*
X2690457Y515756D1*
X2694562Y523814D1*
X2699878Y531130D1*
X2706272Y537524D1*
X2713588Y542840D1*
X2721646Y546945D1*
X2730247Y549740D1*
X2739178Y551155D1*
X2748223D1*
X2757155Y549740D1*
X2765756Y546945D1*
X2773814Y542840D1*
X2781130Y537524D1*
X2787524Y531130D1*
X2791828Y525327D1*
X2791831Y2111984D1*
X2787524Y2106272D1*
X2781130Y2099878D1*
X2773814Y2094562D1*
X2765756Y2090457D1*
X2757155Y2087661D1*
X2748223Y2086247D1*
X2739178D1*
X2730247Y2087661D1*
X2721646Y2090457D1*
X2713588Y2094562D1*
X2706272Y2099878D1*
X2699878Y2106272D1*
X2694562Y2113588D1*
X2690457Y2121646D1*
X2687661Y2130247D1*
X2686247Y2139178D1*
Y2148223D1*
X2687661Y2157155D1*
X2690457Y2165756D1*
X2694562Y2173814D1*
X2699878Y2181130D1*
X2706272Y2187524D1*
X2712075Y2191828D1*
X525433Y2191831D1*
X531130Y2187524D1*
X537524Y2181130D1*
X542840Y2173814D1*
X546945Y2165756D1*
X549740Y2157155D1*
X551155Y2148223D1*
Y2139178D1*
X2349547Y1389306D2*
X2348173Y1380623D1*
X2345457Y1372262D1*
X2341466Y1364430D1*
X2336298Y1357319D1*
X2330083Y1351104D1*
X2322971Y1345936D1*
X2315139Y1341945D1*
X2306778Y1339228D1*
X2298096Y1337854D1*
X2289306D1*
X2280623Y1339228D1*
X2272262Y1341945D1*
X2264430Y1345936D1*
X2257319Y1351104D1*
X2251104Y1357319D1*
X2245936Y1364430D1*
X2241945Y1372262D1*
X2239228Y1380623D1*
X2237854Y1389306D1*
Y1398096D1*
X2239228Y1406778D1*
X2241945Y1415139D1*
X2245936Y1422971D1*
X2251104Y1430083D1*
X2257319Y1436298D1*
X2264430Y1441466D1*
X2272262Y1445457D1*
X2280623Y1448173D1*
X2289306Y1449547D1*
X2298096D1*
X2306778Y1448173D1*
X2315139Y1445457D1*
X2322971Y1441466D1*
X2330083Y1436298D1*
X2336298Y1430083D1*
X2341466Y1422971D1*
X2345457Y1415139D1*
X2348173Y1406778D1*
X2349547Y1398096D1*
Y1389306D1*
D16*
X2493701Y1093701D3*
D17*
Y793701D3*
D16*
X1193701Y1393701D3*
D17*
X893701D3*
D16*
X1243701Y693701D3*
D17*
X943701D3*
D18*
X1593701Y943701D3*
D19*
X1493701D3*
D16*
X1843701Y643701D3*
D17*
Y943701D3*
D18*
X793701Y1143701D3*
D19*
Y1243701D3*
D16*
X2693701Y943701D3*
D17*
Y1243701D3*
D16*
X1193701Y1593701D3*
D17*
Y1893701D3*
D20*
X1593701Y643701D3*
D21*
X1493701D3*
X1393701D3*
D16*
X593701Y1393701D3*
D17*
Y1093701D3*
D16*
X2243701Y1893701D3*
D17*
X1943701D3*
D16*
Y1593701D3*
D17*
Y1293701D3*
D20*
X2093701Y1143701D3*
D21*
Y1043701D3*
Y943701D3*
D20*
X2043701Y693701D3*
D21*
X2143701D3*
X2243701D3*
D16*
X2143701Y1293701D3*
D17*
Y1593701D3*
D20*
X943701Y1743701D3*
D21*
Y1843701D3*
Y1943701D3*
D20*
X1393701Y1493701D3*
D21*
Y1393701D3*
Y1293701D3*
Y1193701D3*
X1693701D3*
Y1293701D3*
Y1393701D3*
Y1493701D3*
D22*
X943701Y993701D3*
D23*
X1022441D3*
X1101181D3*
X1179921D3*
X1258661D3*
D24*
X2593701Y693701D3*
X2693701Y1893701D3*
D20*
X2293701Y1693701D3*
D21*
Y1593701D3*
Y1493701D3*
Y1393701D3*
X2593701D3*
Y1493701D3*
Y1593701D3*
Y1693701D3*
M02*
