G04 DipTrace 3.2.0.1*
G04 TopDimension.gbr*
%MOIN*%
G04 #@! TF.FileFunction,Drawing,Top*
G04 #@! TF.Part,Single*
%ADD13C,0.001378*%
%ADD48C,0.006176*%
%FSLAX26Y26*%
G04*
G70*
G90*
G75*
G01*
G04 TopDimension*
%LPD*%
X2843701Y2243701D2*
D13*
X3163386D1*
X2843701Y393701D2*
X3163386D1*
X3143701Y1318701D2*
Y2204331D1*
G36*
Y2243701D2*
X3151575Y2204331D1*
X3135827D1*
X3143701Y2243701D1*
G37*
Y1318701D2*
D13*
Y433071D1*
G36*
Y393701D2*
X3135827Y433071D1*
X3151575D1*
X3143701Y393701D1*
G37*
X393701D2*
D13*
Y74016D1*
X2843701Y393701D2*
Y74016D1*
X1618701Y93701D2*
X433071D1*
G36*
X393701D2*
X433071Y101575D1*
Y85827D1*
X393701Y93701D1*
G37*
X1618701D2*
D13*
X2804331D1*
G36*
X2843701D2*
X2804331Y85827D1*
Y101575D1*
X2843701Y93701D1*
G37*
X3155912Y1448689D2*
D48*
X3196059D1*
X3169309Y1467834D1*
Y1439138D1*
X3190356Y1403839D2*
X3194158Y1405740D1*
X3196059Y1411488D1*
Y1415291D1*
X3194158Y1421039D1*
X3188410Y1424886D1*
X3178859Y1426787D1*
X3169309D1*
X3161660Y1424886D1*
X3157813Y1421039D1*
X3155912Y1415291D1*
Y1413390D1*
X3157813Y1407686D1*
X3161660Y1403839D1*
X3167408Y1401938D1*
X3169309D1*
X3175057Y1403839D1*
X3178859Y1407686D1*
X3180761Y1413390D1*
Y1415291D1*
X3178859Y1421039D1*
X3175057Y1424886D1*
X3169309Y1426787D1*
X3159758Y1387685D2*
X3157813Y1389586D1*
X3155912Y1387685D1*
X3157813Y1385740D1*
X3159758Y1387685D1*
X3182706Y1348495D2*
X3176958Y1350440D1*
X3173111Y1354243D1*
X3171210Y1359991D1*
Y1361892D1*
X3173111Y1367640D1*
X3176958Y1371443D1*
X3182706Y1373388D1*
X3184607D1*
X3190356Y1371443D1*
X3194158Y1367640D1*
X3196059Y1361892D1*
Y1359991D1*
X3194158Y1354243D1*
X3190356Y1350440D1*
X3182706Y1348495D1*
X3173111D1*
X3163561Y1350440D1*
X3157813Y1354243D1*
X3155912Y1359991D1*
Y1363793D1*
X3157813Y1369542D1*
X3161660Y1371443D1*
X3182706Y1311250D2*
X3176958Y1313196D1*
X3173111Y1316998D1*
X3171210Y1322746D1*
Y1324647D1*
X3173111Y1330395D1*
X3176958Y1334198D1*
X3182706Y1336143D1*
X3184607D1*
X3190356Y1334198D1*
X3194158Y1330395D1*
X3196059Y1324647D1*
Y1322746D1*
X3194158Y1316998D1*
X3190356Y1313196D1*
X3182706Y1311250D1*
X3173111D1*
X3163561Y1313196D1*
X3157813Y1316998D1*
X3155912Y1322746D1*
Y1326549D1*
X3157813Y1332297D1*
X3161660Y1334198D1*
X3182706Y1260018D2*
X3155912D1*
X3175057D2*
X3180805Y1254270D1*
X3182706Y1250423D1*
Y1244719D1*
X3180805Y1240873D1*
X3175057Y1238971D1*
X3155912D1*
X3175057D2*
X3180805Y1233223D1*
X3182706Y1229376D1*
Y1223673D1*
X3180805Y1219826D1*
X3175057Y1217880D1*
X3155912D1*
X3182706Y1205529D2*
X3155912D1*
X3175057D2*
X3180805Y1199781D1*
X3182706Y1195934D1*
Y1190230D1*
X3180805Y1186384D1*
X3175057Y1184482D1*
X3155912D1*
X3175057D2*
X3180805Y1178734D1*
X3182706Y1174888D1*
Y1169184D1*
X3180805Y1165337D1*
X3175057Y1163392D1*
X3155912D1*
X1491565Y140356D2*
X1489663Y144158D1*
X1483915Y146059D1*
X1480113D1*
X1474365Y144158D1*
X1470518Y138410D1*
X1468617Y128859D1*
Y119309D1*
X1470518Y111660D1*
X1474365Y107813D1*
X1480113Y105912D1*
X1482014D1*
X1487718Y107813D1*
X1491565Y111660D1*
X1493466Y117408D1*
Y119309D1*
X1491565Y125057D1*
X1487718Y128859D1*
X1482014Y130761D1*
X1480113D1*
X1474365Y128859D1*
X1470518Y125057D1*
X1468617Y119309D1*
X1507763Y136509D2*
Y138410D1*
X1509664Y142257D1*
X1511565Y144158D1*
X1515412Y146059D1*
X1523061D1*
X1526864Y144158D1*
X1528765Y142257D1*
X1530711Y138410D1*
Y134607D1*
X1528765Y130761D1*
X1524963Y125057D1*
X1505817Y105912D1*
X1532612D1*
X1546865Y109758D2*
X1544963Y107813D1*
X1546865Y105912D1*
X1548810Y107813D1*
X1546865Y109758D1*
X1563107Y136509D2*
Y138410D1*
X1565008Y142257D1*
X1566909Y144158D1*
X1570756Y146059D1*
X1578405D1*
X1582208Y144158D1*
X1584109Y142257D1*
X1586055Y138410D1*
Y134607D1*
X1584109Y130761D1*
X1580307Y125057D1*
X1561161Y105912D1*
X1587956D1*
X1604154Y146059D2*
X1625157D1*
X1613705Y130761D1*
X1619453D1*
X1623255Y128859D1*
X1625157Y126958D1*
X1627102Y121210D1*
Y117408D1*
X1625157Y111660D1*
X1621354Y107813D1*
X1615606Y105912D1*
X1609858D1*
X1604154Y107813D1*
X1602253Y109758D1*
X1600307Y113561D1*
X1678334Y132706D2*
Y105912D1*
Y125057D2*
X1684082Y130805D1*
X1687929Y132706D1*
X1693633D1*
X1697480Y130805D1*
X1699381Y125057D1*
Y105912D1*
Y125057D2*
X1705129Y130805D1*
X1708976Y132706D1*
X1714680D1*
X1718526Y130805D1*
X1720472Y125057D1*
Y105912D1*
X1732823Y132706D2*
Y105912D1*
Y125057D2*
X1738571Y130805D1*
X1742418Y132706D1*
X1748122D1*
X1751969Y130805D1*
X1753870Y125057D1*
Y105912D1*
Y125057D2*
X1759618Y130805D1*
X1763465Y132706D1*
X1769168D1*
X1773015Y130805D1*
X1774961Y125057D1*
Y105912D1*
M02*
