G04 DipTrace 3.2.0.1*
G04 TopMask.gbr*
%MOIN*%
G04 #@! TF.FileFunction,Soldermask,Top*
G04 #@! TF.Part,Single*
%ADD16C,0.05*%
%ADD19R,0.062992X0.062992*%
%ADD31C,0.066929*%
%ADD33C,0.062992*%
%ADD36C,0.066929*%
%ADD38R,0.066929X0.066929*%
%ADD40R,0.070866X0.070866*%
%ADD41C,0.070866*%
%ADD43C,0.057874*%
%ADD45C,0.057874*%
%FSLAX26Y26*%
G04*
G70*
G90*
G75*
G01*
G04 TopMask*
%LPD*%
D45*
X2493701Y1093701D3*
D43*
Y793701D3*
D45*
X1193701Y1393701D3*
D43*
X893701D3*
D45*
X1243701Y693701D3*
D43*
X943701D3*
D41*
X1593701Y943701D3*
D40*
X1493701D3*
D45*
X1843701Y643701D3*
D43*
Y943701D3*
D41*
X793701Y1143701D3*
D40*
Y1243701D3*
D45*
X2693701Y943701D3*
D43*
Y1243701D3*
D45*
X1193701Y1593701D3*
D43*
Y1893701D3*
D38*
X1593701Y643701D3*
D36*
X1493701D3*
X1393701D3*
D45*
X593701Y1393701D3*
D43*
Y1093701D3*
D45*
X2243701Y1893701D3*
D43*
X1943701D3*
D45*
Y1593701D3*
D43*
Y1293701D3*
D38*
X2093701Y1143701D3*
D36*
Y1043701D3*
Y943701D3*
D38*
X2043701Y693701D3*
D36*
X2143701D3*
X2243701D3*
D45*
X2143701Y1293701D3*
D43*
Y1593701D3*
D38*
X943701Y1743701D3*
D36*
Y1843701D3*
Y1943701D3*
D38*
X1393701Y1493701D3*
D36*
Y1393701D3*
Y1293701D3*
Y1193701D3*
X1693701D3*
Y1293701D3*
Y1393701D3*
Y1493701D3*
D19*
X943701Y993701D3*
D33*
X1022441D3*
X1101181D3*
X1179921D3*
X1258661D3*
D16*
X493701Y2143701D3*
X2743701D3*
Y493701D3*
X493701D3*
D31*
X2593701Y693701D3*
X2693701Y1893701D3*
D38*
X2293701Y1693701D3*
D36*
Y1593701D3*
Y1493701D3*
Y1393701D3*
X2593701D3*
Y1493701D3*
Y1593701D3*
Y1693701D3*
M02*
