G04 DipTrace 3.2.0.1*
G04 TopSilk.gbr*
%MOIN*%
G04 #@! TF.FileFunction,Legend,Top*
G04 #@! TF.Part,Single*
%ADD10C,0.009843*%
%ADD47C,0.00772*%
%FSLAX26Y26*%
G04*
G70*
G90*
G75*
G01*
G04 TopSilk*
%LPD*%
X2523701Y1023851D2*
D10*
X2463701D1*
X2523701Y863551D2*
Y1023851D1*
Y863551D2*
X2463701D1*
Y1023851D1*
X1123851Y1363701D2*
Y1423701D1*
X963551Y1363701D2*
X1123851D1*
X963551D2*
Y1423701D1*
X1123851D1*
X1173851Y663701D2*
Y723701D1*
X1013551Y663701D2*
X1173851D1*
X1013551D2*
Y723701D1*
X1173851D1*
X1473761Y883701D2*
X1613641D1*
X1473761Y1003701D2*
X1613641D1*
Y883701D2*
G03X1613641Y1003701I60J60000D01*
G01*
X1473761D2*
G03X1473761Y883701I-60J-60000D01*
G01*
X1813701Y713551D2*
X1873701D1*
X1813701Y873851D2*
Y713551D1*
Y873851D2*
X1873701D1*
Y713551D1*
X733701Y1263641D2*
Y1123761D1*
X853701Y1263641D2*
Y1123761D1*
X733701D2*
G03X853701Y1123761I60000J-60D01*
G01*
Y1263641D2*
G03X733701Y1263641I-60000J60D01*
G01*
X2663701Y1013551D2*
X2723701D1*
X2663701Y1173851D2*
Y1013551D1*
Y1173851D2*
X2723701D1*
Y1013551D1*
X1163701Y1663551D2*
X1223701D1*
X1163701Y1823851D2*
Y1663551D1*
Y1823851D2*
X1223701D1*
Y1663551D1*
X1684055Y537402D2*
X1303346D1*
Y734252D1*
X1684055D1*
Y537402D1*
X623701Y1323851D2*
X563701D1*
X623701Y1163551D2*
Y1323851D1*
Y1163551D2*
X563701D1*
Y1323851D1*
X2173851Y1863701D2*
Y1923701D1*
X2013551Y1863701D2*
X2173851D1*
X2013551D2*
Y1923701D1*
X2173851D1*
X1973701Y1523851D2*
X1913701D1*
X1973701Y1363551D2*
Y1523851D1*
Y1363551D2*
X1913701D1*
Y1523851D1*
X2200000Y1234055D2*
X2003150D1*
Y853346D1*
X2200000D1*
Y1234055D1*
X1953346Y800000D2*
X2334055D1*
Y603150D1*
X1953346D1*
Y800000D1*
X2113701Y1363551D2*
X2173701D1*
X2113701Y1523851D2*
Y1363551D1*
Y1523851D2*
X2173701D1*
Y1363551D1*
X837402Y1653346D2*
X1034252D1*
Y2034055D1*
X837402D1*
Y1653346D1*
X1646067Y1540551D2*
Y1146850D1*
X1441334D2*
X1646067D1*
X1441334Y1540551D2*
Y1146850D1*
Y1540551D2*
X1520075D1*
X1646067D2*
X1567327D1*
X1520075D2*
G03X1567327Y1540551I23626J4D01*
G01*
X904331Y1037008D2*
X1298031D1*
X904331Y950394D2*
X1298031D1*
X904331Y1037008D2*
Y950394D1*
X1298031Y1037008D2*
Y950394D1*
X2546067Y1740551D2*
Y1346850D1*
X2341334D2*
X2546067D1*
X2341334Y1740551D2*
Y1346850D1*
Y1740551D2*
X2420075D1*
X2546067D2*
X2467327D1*
X2420075D2*
G03X2467327Y1740551I23626J4D01*
G01*
X2400095Y745539D2*
D47*
X2397663Y750347D1*
X2390533Y757532D1*
X2440718D1*
X2435909Y775348D2*
X2438341Y772971D1*
X2440718Y775348D1*
X2438341Y777780D1*
X2435909Y775348D1*
X2390533Y807589D2*
X2392910Y800404D1*
X2400095Y795596D1*
X2412033Y793219D1*
X2419218D1*
X2431156Y795596D1*
X2438341Y800404D1*
X2440718Y807589D1*
Y812342D1*
X2438341Y819527D1*
X2431156Y824281D1*
X2419218Y826712D1*
X2412033D1*
X2400095Y824281D1*
X2392910Y819527D1*
X2390533Y812342D1*
Y807589D1*
X2400095Y824281D2*
X2431156Y795596D1*
X2402471Y844583D2*
X2400095Y844584D1*
X2395286Y846960D1*
X2392910Y849337D1*
X2390533Y854145D1*
Y863707D1*
X2392910Y868460D1*
X2395286Y870837D1*
X2400095Y873268D1*
X2404848D1*
X2409656Y870837D1*
X2416786Y866083D1*
X2440718Y842152D1*
Y875645D1*
X2449008Y891084D2*
Y936516D1*
X2390478Y951955D2*
X2440718D1*
X2390478Y985448D2*
X2423971Y951955D1*
X2411978Y963893D2*
X2440718Y985448D1*
X2407224Y1012826D2*
X2409601Y1008073D1*
X2414409Y1003264D1*
X2421594Y1000888D1*
X2426348D1*
X2433533Y1003264D1*
X2438286Y1008073D1*
X2440718Y1012826D1*
Y1020011D1*
X2438286Y1024819D1*
X2433533Y1029572D1*
X2426348Y1032004D1*
X2421594D1*
X2414409Y1029572D1*
X2409601Y1024819D1*
X2407224Y1020011D1*
Y1012826D1*
X2390478Y1047444D2*
X2440718D1*
X2416786D2*
X2409601Y1054629D1*
X2407224Y1059437D1*
Y1066622D1*
X2409601Y1071375D1*
X2416786Y1073752D1*
X2440718D1*
X2407224Y1089191D2*
X2440718D1*
X2416786D2*
X2409601Y1096376D1*
X2407224Y1101185D1*
Y1108314D1*
X2409601Y1113123D1*
X2416786Y1115499D1*
X2440718D1*
X2416786D2*
X2409601Y1122684D1*
X2407224Y1127493D1*
Y1134623D1*
X2409601Y1139431D1*
X2416786Y1141863D1*
X2440718D1*
X853286Y1487307D2*
X858094Y1489739D1*
X865279Y1496869D1*
Y1446684D1*
X895089Y1496869D2*
X887904Y1494492D1*
X883095Y1487307D1*
X880719Y1475369D1*
Y1468184D1*
X883095Y1456245D1*
X887904Y1449060D1*
X895089Y1446684D1*
X899842D1*
X907027Y1449060D1*
X911780Y1456245D1*
X914212Y1468184D1*
Y1475369D1*
X911780Y1487307D1*
X907027Y1494492D1*
X899842Y1496869D1*
X895089D1*
X911780Y1487307D2*
X883095Y1456245D1*
X944021Y1496869D2*
X936836Y1494492D1*
X932028Y1487307D1*
X929651Y1475369D1*
Y1468184D1*
X932028Y1456245D1*
X936836Y1449060D1*
X944021Y1446684D1*
X948774D1*
X955959Y1449060D1*
X960713Y1456245D1*
X963145Y1468184D1*
Y1475369D1*
X960713Y1487307D1*
X955959Y1494492D1*
X948774Y1496869D1*
X944021D1*
X960713Y1487307D2*
X932028Y1456245D1*
X978584Y1438393D2*
X1024015D1*
X1077701Y1446684D2*
Y1496924D1*
X1058578Y1446684D1*
X1039455Y1496924D1*
Y1446684D1*
X1105079Y1480177D2*
X1100325Y1477801D1*
X1095517Y1472992D1*
X1093140Y1465807D1*
Y1461054D1*
X1095517Y1453869D1*
X1100325Y1449116D1*
X1105079Y1446684D1*
X1112264D1*
X1117072Y1449116D1*
X1121825Y1453869D1*
X1124257Y1461054D1*
Y1465807D1*
X1121825Y1472992D1*
X1117072Y1477801D1*
X1112264Y1480177D1*
X1105079D1*
X1139696Y1496924D2*
Y1446684D1*
Y1470616D2*
X1146881Y1477801D1*
X1151690Y1480177D1*
X1158875D1*
X1163628Y1477801D1*
X1166005Y1470616D1*
Y1446684D1*
X1181444Y1480177D2*
Y1446684D1*
Y1470616D2*
X1188629Y1477801D1*
X1193437Y1480177D1*
X1200567D1*
X1205376Y1477801D1*
X1207752Y1470616D1*
Y1446684D1*
Y1470616D2*
X1214937Y1477801D1*
X1219746Y1480177D1*
X1226875D1*
X1231684Y1477801D1*
X1234116Y1470616D1*
Y1446684D1*
X954595Y787307D2*
X959403Y789739D1*
X966589Y796869D1*
Y746684D1*
X982028Y738393D2*
X1027459D1*
X1042899Y796924D2*
Y746684D1*
X1076392Y796924D2*
X1042899Y763431D1*
X1054837Y775424D2*
X1076392Y746684D1*
X1103769Y780177D2*
X1099016Y777801D1*
X1094208Y772992D1*
X1091831Y765807D1*
Y761054D1*
X1094208Y753869D1*
X1099016Y749116D1*
X1103769Y746684D1*
X1110954D1*
X1115763Y749116D1*
X1120516Y753869D1*
X1122948Y761054D1*
Y765807D1*
X1120516Y772992D1*
X1115763Y777801D1*
X1110954Y780177D1*
X1103769D1*
X1138387Y796924D2*
Y746684D1*
Y770616D2*
X1145572Y777801D1*
X1150381Y780177D1*
X1157566D1*
X1162319Y777801D1*
X1164695Y770616D1*
Y746684D1*
X1180135Y780177D2*
Y746684D1*
Y770616D2*
X1187320Y777801D1*
X1192128Y780177D1*
X1199258D1*
X1204066Y777801D1*
X1206443Y770616D1*
Y746684D1*
Y770616D2*
X1213628Y777801D1*
X1218436Y780177D1*
X1225566D1*
X1230375Y777801D1*
X1232807Y770616D1*
Y746684D1*
X1463117Y1067307D2*
X1467925Y1069739D1*
X1475110Y1076869D1*
Y1026684D1*
X1490550Y1018393D2*
X1535981D1*
X1551420Y1060177D2*
Y1036246D1*
X1553797Y1029116D1*
X1558605Y1026684D1*
X1565790D1*
X1570544Y1029116D1*
X1577729Y1036246D1*
Y1060177D2*
Y1026684D1*
X1624285Y1076924D2*
X1593168D1*
Y1026684D1*
Y1052992D2*
X1612291D1*
X1752471Y611687D2*
X1750095D1*
X1745286Y614064D1*
X1742910Y616440D1*
X1740533Y621249D1*
Y630810D1*
X1742910Y635563D1*
X1745286Y637940D1*
X1750095Y640372D1*
X1754848D1*
X1759656Y637940D1*
X1766786Y633187D1*
X1790718Y609255D1*
Y642748D1*
X1785909Y660564D2*
X1788341Y658188D1*
X1790718Y660564D1*
X1788341Y662996D1*
X1785909Y660564D1*
X1752471Y680867D2*
X1750095D1*
X1745286Y683244D1*
X1742910Y685620D1*
X1740533Y690429D1*
Y699990D1*
X1742910Y704744D1*
X1745286Y707120D1*
X1750095Y709552D1*
X1754848D1*
X1759656Y707120D1*
X1766786Y702367D1*
X1790718Y678435D1*
Y711929D1*
X1799008Y727368D2*
Y772799D1*
X1740478Y788239D2*
X1790718D1*
X1740478Y821732D2*
X1773971Y788239D1*
X1761978Y800177D2*
X1790718Y821732D1*
X1757224Y849109D2*
X1759601Y844356D1*
X1764409Y839548D1*
X1771594Y837171D1*
X1776348D1*
X1783533Y839548D1*
X1788286Y844356D1*
X1790718Y849109D1*
Y856294D1*
X1788286Y861103D1*
X1783533Y865856D1*
X1776348Y868288D1*
X1771594D1*
X1764409Y865856D1*
X1759601Y861103D1*
X1757224Y856294D1*
Y849109D1*
X1740478Y883727D2*
X1790718D1*
X1766786D2*
X1759601Y890912D1*
X1757224Y895721D1*
Y902906D1*
X1759601Y907659D1*
X1766786Y910036D1*
X1790718D1*
X1757224Y925475D2*
X1790718D1*
X1766786D2*
X1759601Y932660D1*
X1757224Y937468D1*
Y944598D1*
X1759601Y949406D1*
X1766786Y951783D1*
X1790718D1*
X1766786D2*
X1759601Y958968D1*
X1757224Y963777D1*
Y970906D1*
X1759601Y975715D1*
X1766786Y978147D1*
X1790718D1*
X672471Y1070209D2*
X670095D1*
X665286Y1072585D1*
X662910Y1074962D1*
X660533Y1079770D1*
Y1089332D1*
X662910Y1094085D1*
X665286Y1096462D1*
X670095Y1098894D1*
X674848D1*
X679656Y1096462D1*
X686786Y1091709D1*
X710718Y1067777D1*
Y1101270D1*
X705909Y1119086D2*
X708341Y1116709D1*
X710718Y1119086D1*
X708341Y1121518D1*
X705909Y1119086D1*
X672471Y1139389D2*
X670095D1*
X665286Y1141766D1*
X662910Y1144142D1*
X660533Y1148951D1*
Y1158512D1*
X662910Y1163265D1*
X665286Y1165642D1*
X670095Y1168074D1*
X674848D1*
X679656Y1165642D1*
X686786Y1160889D1*
X710718Y1136957D1*
Y1170450D1*
X719008Y1185890D2*
Y1231321D1*
X677224Y1246760D2*
X710718D1*
X686786D2*
X679601Y1253946D1*
X677224Y1258754D1*
Y1265884D1*
X679601Y1270692D1*
X686786Y1273069D1*
X710718D1*
X660478Y1319625D2*
Y1288508D1*
X710718D1*
X684409D2*
Y1307631D1*
X2590533Y922999D2*
Y949252D1*
X2609656Y934937D1*
Y942122D1*
X2612033Y946875D1*
X2614409Y949252D1*
X2621595Y951684D1*
X2626348D1*
X2633533Y949252D1*
X2638341Y944499D1*
X2640718Y937314D1*
Y930129D1*
X2638341Y922999D1*
X2635909Y920623D1*
X2631156Y918191D1*
X2640718Y991055D2*
X2590533D1*
X2623971Y967123D1*
Y1002993D1*
X2590533Y1032802D2*
X2592910Y1025617D1*
X2600095Y1020809D1*
X2612033Y1018432D1*
X2619218D1*
X2631156Y1020809D1*
X2638341Y1025617D1*
X2640718Y1032802D1*
Y1037556D1*
X2638341Y1044741D1*
X2631156Y1049494D1*
X2619218Y1051926D1*
X2612033D1*
X2600095Y1049494D1*
X2592910Y1044741D1*
X2590533Y1037556D1*
Y1032802D1*
X2600095Y1049494D2*
X2631156Y1020809D1*
X2649008Y1067365D2*
Y1112796D1*
X2607224Y1140174D2*
X2609601Y1135421D1*
X2614409Y1130612D1*
X2621594Y1128236D1*
X2626348D1*
X2633533Y1130612D1*
X2638286Y1135421D1*
X2640718Y1140174D1*
Y1147359D1*
X2638286Y1152167D1*
X2633533Y1156921D1*
X2626348Y1159352D1*
X2621594D1*
X2614409Y1156921D1*
X2609601Y1152167D1*
X2607224Y1147359D1*
Y1140174D1*
X2590478Y1174792D2*
X2640718D1*
X2616786D2*
X2609601Y1181977D1*
X2607224Y1186785D1*
Y1193970D1*
X2609601Y1198723D1*
X2616786Y1201100D1*
X2640718D1*
X2607224Y1216539D2*
X2640718D1*
X2616786D2*
X2609601Y1223724D1*
X2607224Y1228533D1*
Y1235662D1*
X2609601Y1240471D1*
X2616786Y1242847D1*
X2640718D1*
X2616786D2*
X2609601Y1250033D1*
X2607224Y1254841D1*
Y1261971D1*
X2609601Y1266779D1*
X2616786Y1269211D1*
X2640718D1*
X1140718Y1568282D2*
X1090533D1*
X1123971Y1544350D1*
Y1580220D1*
X1135909Y1598036D2*
X1138341Y1595659D1*
X1140718Y1598036D1*
X1138341Y1600468D1*
X1135909Y1598036D1*
X1140718Y1625469D2*
X1090533Y1649401D1*
Y1615907D1*
X1149008Y1664840D2*
Y1710271D1*
X1090478Y1725711D2*
X1140718D1*
X1090478Y1759204D2*
X1123971Y1725711D1*
X1111978Y1737649D2*
X1140718Y1759204D1*
X1107224Y1786581D2*
X1109601Y1781828D1*
X1114409Y1777020D1*
X1121594Y1774643D1*
X1126348D1*
X1133533Y1777020D1*
X1138286Y1781828D1*
X1140718Y1786581D1*
Y1793766D1*
X1138286Y1798575D1*
X1133533Y1803328D1*
X1126348Y1805760D1*
X1121594D1*
X1114409Y1803328D1*
X1109601Y1798575D1*
X1107224Y1793766D1*
Y1786581D1*
X1090478Y1821199D2*
X1140718D1*
X1116786D2*
X1109601Y1828384D1*
X1107224Y1833193D1*
Y1840378D1*
X1109601Y1845131D1*
X1116786Y1847507D1*
X1140718D1*
X1107224Y1862947D2*
X1140718D1*
X1116786D2*
X1109601Y1870132D1*
X1107224Y1874940D1*
Y1882070D1*
X1109601Y1886878D1*
X1116786Y1889255D1*
X1140718D1*
X1116786D2*
X1109601Y1896440D1*
X1107224Y1901248D1*
Y1908378D1*
X1109601Y1913187D1*
X1116786Y1915619D1*
X1140718D1*
X1100095Y1931058D2*
X1097663Y1935866D1*
X1090533Y1943051D1*
X1140718D1*
X1347557Y757235D2*
Y807420D1*
X1323625Y773982D1*
X1359495D1*
X1377311Y762043D2*
X1374934Y759612D1*
X1377311Y757235D1*
X1379743Y759612D1*
X1377311Y762043D1*
X1404744Y757235D2*
X1428675Y807420D1*
X1395182D1*
X1444114Y748945D2*
X1489546D1*
X1504985Y807475D2*
Y757235D1*
X1538479Y807475D2*
X1504985Y773982D1*
X1516924Y785975D2*
X1538479Y757235D1*
X1553918Y790728D2*
Y740488D1*
Y783543D2*
X1558726Y788297D1*
X1563480Y790728D1*
X1570665D1*
X1575473Y788297D1*
X1580226Y783543D1*
X1582658Y776358D1*
Y771550D1*
X1580226Y764420D1*
X1575473Y759612D1*
X1570665Y757235D1*
X1563480D1*
X1558726Y759612D1*
X1553918Y764420D1*
X1610036Y790728D2*
X1605282Y788352D1*
X1600474Y783543D1*
X1598097Y776358D1*
Y771605D1*
X1600474Y764420D1*
X1605282Y759667D1*
X1610036Y757235D1*
X1617221D1*
X1622029Y759667D1*
X1626782Y764420D1*
X1629214Y771605D1*
Y776358D1*
X1626782Y783543D1*
X1622029Y788352D1*
X1617221Y790728D1*
X1610036D1*
X1651838Y807475D2*
Y766797D1*
X1654215Y759667D1*
X1659023Y757235D1*
X1663777D1*
X1644653Y790728D2*
X1661400D1*
X540718Y1079622D2*
X490533D1*
X523971Y1055690D1*
Y1091560D1*
X535909Y1109376D2*
X538341Y1106999D1*
X540718Y1109376D1*
X538341Y1111808D1*
X535909Y1109376D1*
X540718Y1136809D2*
X490533Y1160740D1*
Y1127247D1*
X549008Y1176180D2*
Y1221611D1*
X540718Y1275297D2*
X490478D1*
X540718Y1256174D1*
X490478Y1237050D1*
X540718D1*
X507224Y1302674D2*
X509601Y1297921D1*
X514409Y1293113D1*
X521594Y1290736D1*
X526348D1*
X533533Y1293113D1*
X538286Y1297921D1*
X540718Y1302674D1*
Y1309859D1*
X538286Y1314668D1*
X533533Y1319421D1*
X526348Y1321853D1*
X521594D1*
X514409Y1319421D1*
X509601Y1314668D1*
X507224Y1309859D1*
Y1302674D1*
X490478Y1337292D2*
X540718D1*
X516786D2*
X509601Y1344477D1*
X507224Y1349286D1*
Y1356471D1*
X509601Y1361224D1*
X516786Y1363600D1*
X540718D1*
X507224Y1379040D2*
X540718D1*
X516786D2*
X509601Y1386225D1*
X507224Y1391033D1*
Y1398163D1*
X509601Y1402971D1*
X516786Y1405348D1*
X540718D1*
X516786D2*
X509601Y1412533D1*
X507224Y1417341D1*
Y1424471D1*
X509601Y1429280D1*
X516786Y1431712D1*
X540718D1*
X1942122Y1946684D2*
Y1996869D1*
X1918191Y1963431D1*
X1954060D1*
X1979061Y1946684D2*
X2002993Y1996869D1*
X1969500D1*
X2018432Y1938393D2*
X2063864D1*
X2079303Y1996924D2*
Y1946684D1*
X2112796Y1996924D2*
X2079303Y1963431D1*
X2091241Y1975424D2*
X2112796Y1946684D1*
X2140174Y1980177D2*
X2135421Y1977801D1*
X2130612Y1972992D1*
X2128236Y1965807D1*
Y1961054D1*
X2130612Y1953869D1*
X2135421Y1949116D1*
X2140174Y1946684D1*
X2147359D1*
X2152167Y1949116D1*
X2156921Y1953869D1*
X2159352Y1961054D1*
Y1965807D1*
X2156921Y1972992D1*
X2152167Y1977801D1*
X2147359Y1980177D1*
X2140174D1*
X2174792Y1996924D2*
Y1946684D1*
Y1970616D2*
X2181977Y1977801D1*
X2186785Y1980177D1*
X2193970D1*
X2198723Y1977801D1*
X2201100Y1970616D1*
Y1946684D1*
X2216539Y1980177D2*
Y1946684D1*
Y1970616D2*
X2223724Y1977801D1*
X2228533Y1980177D1*
X2235662D1*
X2240471Y1977801D1*
X2242847Y1970616D1*
Y1946684D1*
Y1970616D2*
X2250033Y1977801D1*
X2254841Y1980177D1*
X2261971D1*
X2266779Y1977801D1*
X2269211Y1970616D1*
Y1946684D1*
X1890718Y1278406D2*
X1840533D1*
X1873971Y1254474D1*
Y1290344D1*
X1890718Y1315345D2*
X1840533Y1339277D1*
Y1305783D1*
X1899008Y1354716D2*
Y1400147D1*
X1840478Y1415587D2*
X1890718D1*
X1840478Y1449080D2*
X1873971Y1415587D1*
X1861978Y1427525D2*
X1890718Y1449080D1*
X1857224Y1476458D2*
X1859601Y1471704D1*
X1864409Y1466896D1*
X1871594Y1464519D1*
X1876348D1*
X1883533Y1466896D1*
X1888286Y1471704D1*
X1890718Y1476458D1*
Y1483643D1*
X1888286Y1488451D1*
X1883533Y1493204D1*
X1876348Y1495636D1*
X1871594D1*
X1864409Y1493204D1*
X1859601Y1488451D1*
X1857224Y1483643D1*
Y1476458D1*
X1840478Y1511075D2*
X1890718D1*
X1866786D2*
X1859601Y1518260D1*
X1857224Y1523069D1*
Y1530254D1*
X1859601Y1535007D1*
X1866786Y1537384D1*
X1890718D1*
X1857224Y1552823D2*
X1890718D1*
X1866786D2*
X1859601Y1560008D1*
X1857224Y1564816D1*
Y1571946D1*
X1859601Y1576755D1*
X1866786Y1579131D1*
X1890718D1*
X1866786D2*
X1859601Y1586316D1*
X1857224Y1591125D1*
Y1598254D1*
X1859601Y1603063D1*
X1866786Y1605495D1*
X1890718D1*
X1850095Y1620934D2*
X1847663Y1625742D1*
X1840533Y1632927D1*
X1890718D1*
X1980167Y907681D2*
X1929982D1*
X1963420Y883749D1*
Y919619D1*
X1980167Y944620D2*
X1929982Y968551D1*
Y935058D1*
X1988457Y983991D2*
Y1029422D1*
X1929927Y1044861D2*
X1980167D1*
X1929927Y1078355D2*
X1963420Y1044861D1*
X1951426Y1056800D2*
X1980167Y1078355D1*
X1946673Y1093794D2*
X1996913D1*
X1953858D2*
X1949105Y1098602D1*
X1946673Y1103356D1*
Y1110541D1*
X1949105Y1115349D1*
X1953858Y1120102D1*
X1961043Y1122534D1*
X1965852D1*
X1972982Y1120102D1*
X1977790Y1115349D1*
X1980167Y1110541D1*
Y1103356D1*
X1977790Y1098602D1*
X1972982Y1093794D1*
X1946673Y1149912D2*
X1949050Y1145158D1*
X1953858Y1140350D1*
X1961043Y1137973D1*
X1965796D1*
X1972982Y1140350D1*
X1977735Y1145158D1*
X1980167Y1149912D1*
Y1157097D1*
X1977735Y1161905D1*
X1972982Y1166658D1*
X1965796Y1169090D1*
X1961043D1*
X1953858Y1166658D1*
X1949050Y1161905D1*
X1946673Y1157097D1*
Y1149912D1*
X1929927Y1191714D2*
X1970605D1*
X1977735Y1194091D1*
X1980167Y1198900D1*
Y1203653D1*
X1946673Y1184529D2*
Y1201276D1*
X2013622Y586136D2*
X1989746D1*
X1987369Y564636D1*
X1989746Y567012D1*
X1996931Y569444D1*
X2004060D1*
X2011245Y567012D1*
X2016054Y562259D1*
X2018431Y555074D1*
Y550321D1*
X2016054Y543136D1*
X2011245Y538327D1*
X2004060Y535951D1*
X1996931D1*
X1989746Y538327D1*
X1987369Y540759D1*
X1984937Y545513D1*
X2048240Y586136D2*
X2041055Y583759D1*
X2036246Y576574D1*
X2033870Y564636D1*
Y557451D1*
X2036246Y545513D1*
X2041055Y538327D1*
X2048240Y535951D1*
X2052993D1*
X2060178Y538327D1*
X2064931Y545513D1*
X2067363Y557451D1*
Y564636D1*
X2064931Y576574D1*
X2060178Y583759D1*
X2052993Y586136D1*
X2048240D1*
X2064931Y576574D2*
X2036246Y545513D1*
X2082802Y527660D2*
X2128234D1*
X2143673Y586191D2*
Y535951D1*
X2177166Y586191D2*
X2143673Y552698D1*
X2155611Y564691D2*
X2177166Y535951D1*
X2192606Y569444D2*
Y519204D1*
Y562259D2*
X2197414Y567012D1*
X2202167Y569444D1*
X2209352D1*
X2214161Y567012D1*
X2218914Y562259D1*
X2221346Y555074D1*
Y550266D1*
X2218914Y543136D1*
X2214161Y538327D1*
X2209352Y535951D1*
X2202167D1*
X2197414Y538327D1*
X2192606Y543136D1*
X2248723Y569444D2*
X2243970Y567068D1*
X2239162Y562259D1*
X2236785Y555074D1*
Y550321D1*
X2239162Y543136D1*
X2243970Y538383D1*
X2248723Y535951D1*
X2255908D1*
X2260717Y538383D1*
X2265470Y543136D1*
X2267902Y550321D1*
Y555074D1*
X2265470Y562259D1*
X2260717Y567068D1*
X2255908Y569444D1*
X2248723D1*
X2290526Y586191D2*
Y545513D1*
X2292903Y538383D1*
X2297711Y535951D1*
X2302464D1*
X2283341Y569444D2*
X2300088D1*
X2040533Y1299280D2*
Y1275403D1*
X2062033Y1273027D1*
X2059656Y1275403D1*
X2057224Y1282588D1*
Y1289718D1*
X2059656Y1296903D1*
X2064409Y1301712D1*
X2071595Y1304088D1*
X2076348D1*
X2083533Y1301712D1*
X2088341Y1296903D1*
X2090718Y1289718D1*
Y1282588D1*
X2088341Y1275403D1*
X2085909Y1273027D1*
X2081156Y1270595D1*
X2047663Y1348212D2*
X2042910Y1345836D1*
X2040533Y1338651D1*
Y1333897D1*
X2042910Y1326712D1*
X2050095Y1321904D1*
X2062033Y1319527D1*
X2073971D1*
X2083533Y1321904D1*
X2088341Y1326712D1*
X2090718Y1333897D1*
Y1336274D1*
X2088341Y1343404D1*
X2083533Y1348212D1*
X2076348Y1350589D1*
X2073971D1*
X2066786Y1348212D1*
X2062033Y1343404D1*
X2059656Y1336274D1*
Y1333897D1*
X2062033Y1326712D1*
X2066786Y1321904D1*
X2073971Y1319527D1*
X2099008Y1366028D2*
Y1411460D1*
X2040478Y1426899D2*
X2090718D1*
X2040478Y1460392D2*
X2073971Y1426899D1*
X2061978Y1438837D2*
X2090718Y1460392D1*
X2057224Y1487770D2*
X2059601Y1483016D1*
X2064409Y1478208D1*
X2071594Y1475831D1*
X2076348D1*
X2083533Y1478208D1*
X2088286Y1483016D1*
X2090718Y1487770D1*
Y1494955D1*
X2088286Y1499763D1*
X2083533Y1504516D1*
X2076348Y1506948D1*
X2071594D1*
X2064409Y1504516D1*
X2059601Y1499763D1*
X2057224Y1494955D1*
Y1487770D1*
X2040478Y1522387D2*
X2090718D1*
X2066786D2*
X2059601Y1529572D1*
X2057224Y1534381D1*
Y1541566D1*
X2059601Y1546319D1*
X2066786Y1548696D1*
X2090718D1*
X2057224Y1564135D2*
X2090718D1*
X2066786D2*
X2059601Y1571320D1*
X2057224Y1576128D1*
Y1583258D1*
X2059601Y1588067D1*
X2066786Y1590443D1*
X2090718D1*
X2066786D2*
X2059601Y1597628D1*
X2057224Y1602437D1*
Y1609567D1*
X2059601Y1614375D1*
X2066786Y1616807D1*
X2090718D1*
X764234Y1738088D2*
Y1714212D1*
X785734Y1711835D1*
X783357Y1714212D1*
X780925Y1721397D1*
Y1728527D1*
X783357Y1735712D1*
X788110Y1740520D1*
X795295Y1742897D1*
X800048D1*
X807234Y1740520D1*
X812042Y1735712D1*
X814419Y1728527D1*
Y1721397D1*
X812042Y1714212D1*
X809610Y1711835D1*
X804857Y1709404D1*
X822709Y1758336D2*
Y1803768D1*
X764179Y1819207D2*
X814419D1*
X764179Y1852700D2*
X797672Y1819207D1*
X785678Y1831145D2*
X814419Y1852700D1*
X780925Y1868139D2*
X831165D1*
X788110D2*
X783357Y1872948D1*
X780925Y1877701D1*
Y1884886D1*
X783357Y1889695D1*
X788110Y1894448D1*
X795295Y1896880D1*
X800104D1*
X807233Y1894448D1*
X812042Y1889695D1*
X814419Y1884886D1*
Y1877701D1*
X812042Y1872948D1*
X807233Y1868139D1*
X780925Y1924257D2*
X783302Y1919504D1*
X788110Y1914695D1*
X795295Y1912319D1*
X800048D1*
X807233Y1914695D1*
X811987Y1919504D1*
X814419Y1924257D1*
Y1931442D1*
X811987Y1936251D1*
X807233Y1941004D1*
X800048Y1943436D1*
X795295D1*
X788110Y1941004D1*
X783302Y1936251D1*
X780925Y1931442D1*
Y1924257D1*
X764179Y1966060D2*
X804857D1*
X811987Y1968436D1*
X814419Y1973245D1*
Y1977998D1*
X780925Y1958875D2*
Y1975622D1*
X1302888Y1171875D2*
X1298135Y1169498D1*
X1293327Y1164690D1*
X1290950Y1159936D1*
Y1150375D1*
X1293327Y1145566D1*
X1298135Y1140813D1*
X1302888Y1138381D1*
X1310073Y1136005D1*
X1322067D1*
X1329197Y1138381D1*
X1334005Y1140813D1*
X1338758Y1145566D1*
X1341190Y1150375D1*
Y1159936D1*
X1338758Y1164690D1*
X1334005Y1169498D1*
X1329197Y1171875D1*
X1341190Y1225616D2*
X1290950Y1206437D1*
X1341190Y1187314D1*
X1324444Y1194499D2*
Y1218431D1*
X1291005Y1245863D2*
Y1272116D1*
X1310129Y1257801D1*
Y1264987D1*
X1312505Y1269740D1*
X1314882Y1272116D1*
X1322067Y1274548D1*
X1326820D1*
X1334005Y1272116D1*
X1338814Y1267363D1*
X1341190Y1260178D1*
Y1252993D1*
X1338814Y1245863D1*
X1336382Y1243487D1*
X1331629Y1241055D1*
X1300567Y1289987D2*
X1298135Y1294796D1*
X1291005Y1301981D1*
X1341190D1*
Y1341352D2*
X1291005D1*
X1324444Y1317420D1*
Y1353290D1*
X1291005Y1383099D2*
X1293382Y1375914D1*
X1300567Y1371106D1*
X1312505Y1368729D1*
X1319690D1*
X1331629Y1371106D1*
X1338814Y1375914D1*
X1341190Y1383099D1*
Y1387853D1*
X1338814Y1395038D1*
X1331629Y1399791D1*
X1319690Y1402223D1*
X1312505D1*
X1300567Y1399791D1*
X1293382Y1395038D1*
X1291005Y1387853D1*
Y1383099D1*
X1300567Y1399791D2*
X1331629Y1371106D1*
X1341190Y1455964D2*
X1290950Y1436785D1*
X1341190Y1417662D1*
X1324444Y1424847D2*
Y1448779D1*
X1290950Y1502464D2*
Y1471403D1*
X1341190D1*
Y1502464D1*
X1314882Y1471403D2*
Y1490526D1*
X1290950Y1517904D2*
Y1551397D1*
X1341190Y1517904D1*
Y1551397D1*
X958004Y933435D2*
Y883195D1*
X991497Y933435D2*
Y883195D1*
X958004Y909503D2*
X991497D1*
X1006936Y902318D2*
X1035621D1*
Y907127D1*
X1033244Y911935D1*
X1030868Y914312D1*
X1026059Y916688D1*
X1018874D1*
X1014121Y914312D1*
X1009313Y909503D1*
X1006936Y902318D1*
Y897565D1*
X1009313Y890380D1*
X1014121Y885627D1*
X1018874Y883195D1*
X1026059D1*
X1030868Y885627D1*
X1035621Y890380D1*
X1079745Y916688D2*
Y883195D1*
Y909503D2*
X1074992Y914312D1*
X1070183Y916688D1*
X1063054D1*
X1058245Y914312D1*
X1053492Y909503D1*
X1051060Y902318D1*
Y897565D1*
X1053492Y890380D1*
X1058245Y885627D1*
X1063054Y883195D1*
X1070183D1*
X1074992Y885627D1*
X1079745Y890380D1*
X1123869Y933435D2*
Y883195D1*
Y909503D2*
X1119116Y914312D1*
X1114308Y916688D1*
X1107123D1*
X1102369Y914312D1*
X1097561Y909503D1*
X1095184Y902318D1*
Y897565D1*
X1097561Y890380D1*
X1102369Y885627D1*
X1107123Y883195D1*
X1114308D1*
X1119116Y885627D1*
X1123869Y890380D1*
X1139308Y902318D2*
X1167993D1*
Y907127D1*
X1165617Y911935D1*
X1163240Y914312D1*
X1158432Y916688D1*
X1151247D1*
X1146494Y914312D1*
X1141685Y909503D1*
X1139308Y902318D1*
Y897565D1*
X1141685Y890380D1*
X1146494Y885627D1*
X1151247Y883195D1*
X1158432D1*
X1163240Y885627D1*
X1167993Y890380D1*
X1183433Y916688D2*
Y883195D1*
Y902318D2*
X1185864Y909503D1*
X1190618Y914312D1*
X1195426Y916688D1*
X1202611D1*
X1244359Y909503D2*
X1241982Y914312D1*
X1234797Y916688D1*
X1227612D1*
X1220427Y914312D1*
X1218050Y909503D1*
X1220427Y904750D1*
X1225235Y902318D1*
X1237174Y899942D1*
X1241982Y897565D1*
X1244359Y892757D1*
Y890380D1*
X1241982Y885627D1*
X1234797Y883195D1*
X1227612D1*
X1220427Y885627D1*
X1218050Y890380D1*
X2308897Y1813774D2*
Y1763534D1*
X2292150Y1813774D2*
X2325643D1*
X2341082D2*
Y1763534D1*
X2369767D1*
X2399577Y1813719D2*
X2392392Y1811342D1*
X2387583Y1804157D1*
X2385207Y1792219D1*
Y1785034D1*
X2387583Y1773096D1*
X2392392Y1765911D1*
X2399577Y1763534D1*
X2404330D1*
X2411515Y1765911D1*
X2416268Y1773096D1*
X2418700Y1785034D1*
Y1792219D1*
X2416268Y1804157D1*
X2411515Y1811342D1*
X2404330Y1813719D1*
X2399577D1*
X2416268Y1804157D2*
X2387583Y1773096D1*
X2446077Y1813719D2*
X2438948Y1811342D1*
X2436516Y1806589D1*
Y1801781D1*
X2438948Y1797028D1*
X2443701Y1794596D1*
X2453262Y1792219D1*
X2460447Y1789843D1*
X2465201Y1785034D1*
X2467577Y1780281D1*
Y1773096D1*
X2465201Y1768343D1*
X2462824Y1765911D1*
X2455639Y1763534D1*
X2446077D1*
X2438948Y1765911D1*
X2436516Y1768343D1*
X2434139Y1773096D1*
Y1780281D1*
X2436516Y1785034D1*
X2441324Y1789843D1*
X2448454Y1792219D1*
X2458016Y1794596D1*
X2462824Y1797028D1*
X2465201Y1801781D1*
Y1806589D1*
X2462824Y1811342D1*
X2455639Y1813719D1*
X2446077D1*
X2483016Y1804157D2*
X2487825Y1806589D1*
X2495010Y1813719D1*
Y1763534D1*
X2546319Y1801836D2*
X2543943Y1806589D1*
X2539134Y1811398D1*
X2534381Y1813774D1*
X2524819D1*
X2520011Y1811398D1*
X2515258Y1806589D1*
X2512826Y1801836D1*
X2510449Y1794651D1*
Y1782658D1*
X2512826Y1775528D1*
X2515258Y1770719D1*
X2520011Y1765966D1*
X2524819Y1763534D1*
X2534381D1*
X2539134Y1765966D1*
X2543943Y1770719D1*
X2546319Y1775528D1*
X2561758Y1787466D2*
X2583313D1*
X2590443Y1789843D1*
X2592875Y1792274D1*
X2595252Y1797028D1*
Y1804213D1*
X2592875Y1808966D1*
X2590443Y1811398D1*
X2583313Y1813774D1*
X2561758D1*
Y1763534D1*
X1289841Y2117715D2*
Y2067475D1*
Y2110530D2*
X1294650Y2115283D1*
X1299403Y2117715D1*
X1306588D1*
X1311397Y2115283D1*
X1316150Y2110530D1*
X1318582Y2103345D1*
Y2098536D1*
X1316150Y2091406D1*
X1311397Y2086598D1*
X1306588Y2084221D1*
X1299403D1*
X1294650Y2086598D1*
X1289841Y2091406D1*
X1334021Y2134461D2*
Y2084221D1*
X1367514Y2134461D2*
Y2084221D1*
X1334021Y2110530D2*
X1367514D1*
X1431554Y2108153D2*
X1453110D1*
X1460239Y2110530D1*
X1462671Y2112961D1*
X1465048Y2117715D1*
Y2124900D1*
X1462671Y2129653D1*
X1460239Y2132085D1*
X1453110Y2134461D1*
X1431554D1*
Y2084221D1*
X1480487Y2117715D2*
Y2084221D1*
Y2103345D2*
X1482919Y2110530D1*
X1487672Y2115338D1*
X1492480Y2117715D1*
X1499666D1*
X1527043D2*
X1522290Y2115338D1*
X1517481Y2110530D1*
X1515105Y2103345D1*
Y2098591D1*
X1517481Y2091406D1*
X1522290Y2086653D1*
X1527043Y2084221D1*
X1534228D1*
X1539036Y2086653D1*
X1543790Y2091406D1*
X1546221Y2098591D1*
Y2103345D1*
X1543790Y2110530D1*
X1539036Y2115338D1*
X1534228Y2117715D1*
X1527043D1*
X1561661Y2134461D2*
Y2084221D1*
Y2110530D2*
X1566469Y2115338D1*
X1571222Y2117715D1*
X1578407D1*
X1583161Y2115338D1*
X1587969Y2110530D1*
X1590346Y2103345D1*
Y2098591D1*
X1587969Y2091406D1*
X1583161Y2086653D1*
X1578407Y2084221D1*
X1571222D1*
X1566469Y2086653D1*
X1561661Y2091406D1*
X1605785Y2103345D2*
X1634470D1*
Y2108153D1*
X1632093Y2112961D1*
X1629717Y2115338D1*
X1624908Y2117715D1*
X1617723D1*
X1612970Y2115338D1*
X1608161Y2110530D1*
X1605785Y2103345D1*
Y2098591D1*
X1608161Y2091406D1*
X1612970Y2086653D1*
X1617723Y2084221D1*
X1624908D1*
X1629717Y2086653D1*
X1634470Y2091406D1*
X1736812Y2084221D2*
X1717633Y2134461D1*
X1698510Y2084221D1*
X1705695Y2100968D2*
X1729627D1*
X1752251Y2117715D2*
Y2084221D1*
Y2108153D2*
X1759436Y2115338D1*
X1764245Y2117715D1*
X1771374D1*
X1776183Y2115338D1*
X1778559Y2108153D1*
Y2084221D1*
Y2108153D2*
X1785744Y2115338D1*
X1790553Y2117715D1*
X1797683D1*
X1802491Y2115338D1*
X1804923Y2108153D1*
Y2084221D1*
X1820362Y2117715D2*
Y2067475D1*
Y2110530D2*
X1825171Y2115283D1*
X1829924Y2117715D1*
X1837109D1*
X1841917Y2115283D1*
X1846670Y2110530D1*
X1849102Y2103345D1*
Y2098536D1*
X1846670Y2091406D1*
X1841917Y2086598D1*
X1837109Y2084221D1*
X1829924D1*
X1825171Y2086598D1*
X1820362Y2091406D1*
X1864542Y2134461D2*
Y2084221D1*
X1879981Y2134461D2*
X1882357Y2132085D1*
X1884789Y2134461D1*
X1882357Y2136893D1*
X1879981Y2134461D1*
X1882357Y2117715D2*
Y2084221D1*
X1919352Y2134461D2*
X1914599D1*
X1909790Y2132085D1*
X1907414Y2124900D1*
Y2084221D1*
X1900228Y2117715D2*
X1916975D1*
X1934791Y2134461D2*
X1937168Y2132085D1*
X1939599Y2134461D1*
X1937168Y2136893D1*
X1934791Y2134461D1*
X1937168Y2117715D2*
Y2084221D1*
X1955039Y2103345D2*
X1983724D1*
Y2108153D1*
X1981347Y2112961D1*
X1978970Y2115338D1*
X1974162Y2117715D1*
X1966977D1*
X1962224Y2115338D1*
X1957415Y2110530D1*
X1955039Y2103345D1*
Y2098591D1*
X1957415Y2091406D1*
X1962224Y2086653D1*
X1966977Y2084221D1*
X1974162D1*
X1978970Y2086653D1*
X1983724Y2091406D1*
X1999163Y2117715D2*
Y2084221D1*
Y2103345D2*
X2001595Y2110530D1*
X2006348Y2115338D1*
X2011156Y2117715D1*
X2018341D1*
X539841Y928469D2*
X561397D1*
X568526Y930846D1*
X570958Y933278D1*
X573335Y938031D1*
Y945216D1*
X570958Y949969D1*
X568526Y952401D1*
X561397Y954778D1*
X539841D1*
Y904538D1*
X588774Y938031D2*
Y904538D1*
Y923661D2*
X591206Y930846D1*
X595959Y935654D1*
X600768Y938031D1*
X607953D1*
X635330D2*
X630577Y935654D1*
X625768Y930846D1*
X623392Y923661D1*
Y918908D1*
X625768Y911723D1*
X630577Y906969D1*
X635330Y904538D1*
X642515D1*
X647324Y906969D1*
X652077Y911723D1*
X654509Y918908D1*
Y923661D1*
X652077Y930846D1*
X647324Y935654D1*
X642515Y938031D1*
X635330D1*
X669948Y954778D2*
Y904538D1*
Y930846D2*
X674756Y935654D1*
X679509Y938031D1*
X686694D1*
X691448Y935654D1*
X696256Y930846D1*
X698633Y923661D1*
Y918908D1*
X696256Y911723D1*
X691448Y906969D1*
X686694Y904538D1*
X679509D1*
X674756Y906969D1*
X669948Y911723D1*
X714072Y923661D2*
X742757D1*
Y928469D1*
X740380Y933278D1*
X738004Y935654D1*
X733195Y938031D1*
X726010D1*
X721257Y935654D1*
X716449Y930846D1*
X714072Y923661D1*
Y918908D1*
X716449Y911723D1*
X721257Y906969D1*
X726010Y904538D1*
X733195D1*
X738004Y906969D1*
X742757Y911723D1*
X806797Y954778D2*
Y904538D1*
X822236Y938031D2*
Y904538D1*
Y928469D2*
X829421Y935654D1*
X834230Y938031D1*
X841360D1*
X846168Y935654D1*
X848545Y928469D1*
Y904538D1*
X2504212Y634461D2*
X2499403Y632085D1*
X2494650Y627276D1*
X2492218Y622523D1*
X2489841Y615338D1*
Y603345D1*
X2492218Y596215D1*
X2494650Y591406D1*
X2499403Y586653D1*
X2504212Y584221D1*
X2513773D1*
X2518526Y586653D1*
X2523335Y591406D1*
X2525711Y596215D1*
X2528088Y603345D1*
Y615338D1*
X2525711Y622523D1*
X2523335Y627276D1*
X2518526Y632085D1*
X2513773Y634461D1*
X2504212D1*
X2543527Y617715D2*
Y593783D1*
X2545904Y586653D1*
X2550712Y584221D1*
X2557897D1*
X2562650Y586653D1*
X2569836Y593783D1*
Y617715D2*
Y584221D1*
X2592460Y634461D2*
Y593783D1*
X2594836Y586653D1*
X2599645Y584221D1*
X2604398D1*
X2585275Y617715D2*
X2602021D1*
X698218Y785215D2*
Y742160D1*
X676718Y763660D2*
X719773D1*
X763897Y788780D2*
X740021D1*
X737644Y767280D1*
X740021Y769657D1*
X747206Y772089D1*
X754336D1*
X761521Y769657D1*
X766329Y764904D1*
X768706Y757719D1*
Y752965D1*
X766329Y745780D1*
X761521Y740972D1*
X754336Y738595D1*
X747206D1*
X740021Y740972D1*
X737644Y743404D1*
X735212Y748157D1*
X784145Y788835D2*
X803268Y738595D1*
X822391Y788835D1*
X689841Y659314D2*
X717476D1*
X761600Y684406D2*
X737724D1*
X735347Y662906D1*
X737724Y665283D1*
X744909Y667715D1*
X752039D1*
X759224Y665283D1*
X764032Y660530D1*
X766409Y653345D1*
Y648591D1*
X764032Y641406D1*
X759224Y636598D1*
X752039Y634221D1*
X744909D1*
X737724Y636598D1*
X735347Y639030D1*
X732915Y643783D1*
X781848Y684461D2*
X800971Y634221D1*
X820095Y684461D1*
X725711Y572523D2*
X723335Y577276D1*
X718526Y582085D1*
X713773Y584461D1*
X704212D1*
X699403Y582085D1*
X694650Y577276D1*
X692218Y572523D1*
X689841Y565338D1*
Y553345D1*
X692218Y546215D1*
X694650Y541406D1*
X699403Y536653D1*
X704212Y534221D1*
X713773D1*
X718526Y536653D1*
X723335Y541406D1*
X725711Y546215D1*
Y553345D1*
X713773D1*
X774644Y584461D2*
Y534221D1*
X741151Y584461D1*
Y534221D1*
X790083Y584461D2*
Y534221D1*
X806830D1*
X814015Y536653D1*
X818823Y541406D1*
X821200Y546215D1*
X823577Y553345D1*
Y565338D1*
X821200Y572523D1*
X818823Y577276D1*
X814015Y582085D1*
X806830Y584461D1*
X790083D1*
X2439691Y555262D2*
X2432505Y552885D1*
X2427697Y545700D1*
X2425320Y533762D1*
Y526577D1*
X2427697Y514639D1*
X2432505Y507453D1*
X2439691Y505077D1*
X2444444D1*
X2451629Y507453D1*
X2456382Y514639D1*
X2458814Y526577D1*
Y533762D1*
X2456382Y545700D1*
X2451629Y552885D1*
X2444444Y555262D1*
X2439691D1*
X2456382Y545700D2*
X2427697Y514639D1*
X2474253Y530169D2*
X2501888D1*
X2522135Y555262D2*
X2548389D1*
X2534074Y536138D1*
X2541259D1*
X2546012Y533762D1*
X2548389Y531385D1*
X2550820Y524200D1*
Y519447D1*
X2548389Y512262D1*
X2543635Y507453D1*
X2536450Y505077D1*
X2529265D1*
X2522135Y507453D1*
X2519759Y509885D1*
X2517327Y514639D1*
X2566260Y555317D2*
X2585383Y505077D1*
X2604506Y555317D1*
X2504212Y2065455D2*
X2499403Y2063078D1*
X2494650Y2058270D1*
X2492218Y2053516D1*
X2489841Y2046331D1*
Y2034338D1*
X2492218Y2027208D1*
X2494650Y2022400D1*
X2499403Y2017647D1*
X2504212Y2015215D1*
X2513773D1*
X2518526Y2017647D1*
X2523335Y2022400D1*
X2525711Y2027208D1*
X2528088Y2034338D1*
Y2046331D1*
X2525711Y2053516D1*
X2523335Y2058270D1*
X2518526Y2063078D1*
X2513773Y2065455D1*
X2504212D1*
X2543527Y2048708D2*
Y2024776D1*
X2545904Y2017647D1*
X2550712Y2015215D1*
X2557897D1*
X2562650Y2017647D1*
X2569836Y2024776D1*
Y2048708D2*
Y2015215D1*
X2592460Y2065455D2*
Y2024776D1*
X2594836Y2017647D1*
X2599645Y2015215D1*
X2604398D1*
X2585275Y2048708D2*
X2602021D1*
X2504212Y1984406D2*
X2497026Y1982029D1*
X2492218Y1974844D1*
X2489841Y1962906D1*
Y1955721D1*
X2492218Y1943783D1*
X2497026Y1936598D1*
X2504212Y1934221D1*
X2508965D1*
X2516150Y1936598D1*
X2520903Y1943783D1*
X2523335Y1955721D1*
Y1962906D1*
X2520903Y1974844D1*
X2516150Y1982029D1*
X2508965Y1984406D1*
X2504212D1*
X2520903Y1974844D2*
X2492218Y1943783D1*
X2538774Y1959314D2*
X2566409D1*
X2605780Y1934221D2*
Y1984406D1*
X2581848Y1950968D1*
X2617718D1*
X2633157Y1984461D2*
X2652280Y1934221D1*
X2671404Y1984461D1*
M02*
